<?xml version="1.0" standalone="no"?>
<!DOCTYPE svg PUBLIC "-//W3C//DTD SVG 1.1//EN"
"http://www.w3.org/Graphics/SVG/1.1/DTD/svg11.dtd">
<svg width="190.072" height="284.561" viewBox="0 0 3959.84 5928.35" version="1.1"
xmlns="http://www.w3.org/2000/svg"
xmlns:xlink="http://www.w3.org/1999/xlink">
<g fill-rule="evenodd"><path d="M 0,5928.35 L 0,0 L 3959.84,0 L 3959.84,5928.35 L 0,5928.35 z " style="fill-opacity:0.200000;fill:rgb(103,198,105);"/></g>
<polyline points="6.69043,5916.93 6.69043,11.4173 6.78243,10.4953 7.05043,9.60928 7.48643,8.79128 8.07443,8.07528 8.79043,7.48728 9.60843,7.05128 10.4944,6.78328 11.4164,6.69128 3948.42,6.69128 3949.34,6.78328 3950.23,7.05128 3951.05,7.48728 3951.76,8.07528 3952.35,8.79128 3952.79,9.60928 3953.06,10.4953 3953.15,11.4173 3953.15,5916.93 3953.06,5917.85 3952.79,5918.73 3952.35,5919.55 3951.76,5920.27 3951.05,5920.86 3950.23,5921.29 3949.34,5921.56 3948.42,5921.65 11.4164,5921.65 10.4944,5921.56 9.60843,5921.29 8.79043,5920.86 8.07443,5920.27 7.48643,5919.55 7.05043,5918.73 6.78243,5917.85 6.69043,5916.93" style="stroke:rgb(103,198,105);stroke-width:9.448819;fill:none;stroke-opacity:0.5;stroke-linecap:round;stroke-linejoin:round;;fill:none"/>
<polyline points="6.69043,5916.93 6.69043,11.4173 6.78243,10.4953 7.05043,9.60928 7.48643,8.79128 8.07443,8.07528 8.79043,7.48728 9.60843,7.05128 10.4944,6.78328 11.4164,6.69128 3948.42,6.69128 3949.34,6.78328 3950.23,7.05128 3951.05,7.48728 3951.76,8.07528 3952.35,8.79128 3952.79,9.60928 3953.06,10.4953 3953.15,11.4173 3953.15,5916.93 3953.06,5917.85 3952.79,5918.73 3952.35,5919.55 3951.76,5920.27 3951.05,5920.86 3950.23,5921.29 3949.34,5921.56 3948.42,5921.65 11.4164,5921.65 10.4944,5921.56 9.60843,5921.29 8.79043,5920.86 8.07443,5920.27 7.48643,5919.55 7.05043,5918.73 6.78243,5917.85 6.69043,5916.93" style="stroke:rgb(0,0,0);stroke-width:1px;fill:none;stroke-opacity:1;stroke-linecap:round;stroke-linejoin:round;;fill:none"/>
<g fill-rule="evenodd"><path d="M 11.4164,5916.93 L 11.4164,11.4173 L 3948.42,11.4173 L 3948.42,5916.93 L 11.4164,5916.93 z " style="fill-opacity:1.000000;fill:rgb(103,198,105);stroke:rgb(0,0,0);stroke-width:2"/></g>
</svg>
