G75*
%MOIN*%
%OFA0B0*%
%FSLAX25Y25*%
%IPPOS*%
%LPD*%
%AMOC8*
5,1,8,0,0,1.08239X$1,22.5*
%
%ADD10R,0.05906X0.05118*%
%ADD11C,0.06000*%
%ADD12OC8,0.05200*%
%ADD13R,0.05118X0.06299*%
%ADD14C,0.07874*%
%ADD15R,0.24409X0.21260*%
%ADD16R,0.06299X0.03937*%
%ADD17C,0.05200*%
%ADD18R,0.11811X0.06299*%
%ADD19R,0.22500X0.19000*%
%ADD20R,0.11811X0.04724*%
%ADD21R,0.04724X0.11811*%
%ADD22R,0.05118X0.05906*%
%ADD23C,0.15748*%
%ADD24C,0.07000*%
%ADD25C,0.08600*%
%ADD26C,0.06600*%
%ADD27C,0.01000*%
%ADD28C,0.10000*%
%ADD29C,0.04000*%
%ADD30R,0.10000X0.10000*%
%ADD31C,0.01600*%
%ADD32C,0.07600*%
D10*
X0172250Y0066675D03*
X0172250Y0074156D03*
X0148500Y0095425D03*
X0148500Y0102906D03*
X0299750Y0100406D03*
X0299750Y0092925D03*
X0314750Y0089156D03*
X0314750Y0081675D03*
D11*
X0312250Y0073415D02*
X0312250Y0067415D01*
X0322250Y0067415D02*
X0322250Y0073415D01*
X0360500Y0096665D02*
X0366500Y0096665D01*
X0366500Y0106665D02*
X0360500Y0106665D01*
X0356000Y0044665D02*
X0356000Y0038665D01*
X0346000Y0038665D02*
X0346000Y0044665D01*
X0336000Y0044665D02*
X0336000Y0038665D01*
X0326000Y0038665D02*
X0326000Y0044665D01*
X0316000Y0044665D02*
X0316000Y0038665D01*
X0306000Y0038665D02*
X0306000Y0044665D01*
X0194000Y0061665D02*
X0188000Y0061665D01*
X0188000Y0071665D02*
X0194000Y0071665D01*
X0194000Y0081665D02*
X0188000Y0081665D01*
X0188000Y0091665D02*
X0194000Y0091665D01*
X0194000Y0101665D02*
X0188000Y0101665D01*
X0162750Y0104165D02*
X0156750Y0104165D01*
X0156750Y0094165D02*
X0162750Y0094165D01*
D12*
X0143500Y0136665D03*
X0133500Y0136665D03*
X0244750Y0141665D03*
X0323500Y0122915D03*
X0363500Y0122915D03*
X0349750Y0096665D03*
D13*
X0255990Y0155415D03*
X0248510Y0155415D03*
X0170990Y0082915D03*
X0163510Y0082915D03*
D14*
X0025902Y0062832D03*
X0025902Y0042832D03*
X0025902Y0111582D03*
X0025902Y0131582D03*
D15*
X0281157Y0140415D03*
D16*
X0309898Y0131439D03*
X0309898Y0149392D03*
D17*
X0244750Y0121665D03*
X0329750Y0096665D03*
D18*
X0189406Y0137689D03*
X0189406Y0155642D03*
D19*
X0162248Y0146665D03*
D20*
X0219573Y0100199D03*
X0219573Y0092325D03*
X0219573Y0084451D03*
X0219573Y0076577D03*
X0219573Y0068703D03*
X0219573Y0060829D03*
X0219573Y0052955D03*
X0219573Y0045081D03*
X0284140Y0045081D03*
X0284140Y0052955D03*
X0284140Y0060829D03*
X0284140Y0068703D03*
X0284140Y0076577D03*
X0284140Y0084451D03*
X0284140Y0092325D03*
X0284140Y0100199D03*
D21*
X0272722Y0108467D03*
X0264848Y0108467D03*
X0256974Y0108467D03*
X0249100Y0108467D03*
X0241226Y0108467D03*
X0233352Y0108467D03*
D22*
X0205990Y0114165D03*
X0198510Y0114165D03*
X0119740Y0137915D03*
X0112260Y0137915D03*
X0297260Y0084165D03*
X0304740Y0084165D03*
X0184740Y0027915D03*
X0177260Y0027915D03*
X0179740Y0037915D03*
X0172260Y0037915D03*
D23*
X0133185Y0022915D03*
X0043815Y0022915D03*
D24*
X0066250Y0055415D02*
X0073250Y0055415D01*
X0073250Y0075415D02*
X0066250Y0075415D01*
X0076250Y0115415D02*
X0083250Y0115415D01*
X0083250Y0125415D02*
X0076250Y0125415D01*
X0149760Y0094165D02*
X0159750Y0094165D01*
X0191000Y0091665D02*
X0203500Y0091665D01*
X0203500Y0081665D02*
X0191000Y0081665D01*
X0191000Y0071665D02*
X0202250Y0071665D01*
X0191000Y0061665D02*
X0183500Y0061665D01*
X0191000Y0101665D02*
X0204750Y0101665D01*
D25*
X0043583Y0022832D02*
X0025902Y0042832D01*
X0054750Y0055415D02*
X0069750Y0055415D01*
X0054750Y0055415D02*
X0025902Y0084264D01*
X0025902Y0111582D01*
X0044750Y0099165D02*
X0046000Y0099165D01*
X0051000Y0094165D01*
X0044750Y0099165D02*
X0044750Y0127915D01*
X0041083Y0131582D01*
X0025902Y0131582D01*
X0017167Y0131582D01*
X0009750Y0124165D01*
X0009750Y0078984D01*
X0025902Y0062832D01*
X0069750Y0075415D02*
X0087250Y0075415D01*
X0103500Y0059165D01*
X0103500Y0022915D01*
X0133185Y0022915D01*
X0119750Y0094165D02*
X0107250Y0094165D01*
X0079750Y0115415D02*
X0069750Y0115415D01*
X0064750Y0120415D01*
X0064750Y0149165D01*
X0082250Y0166665D01*
X0102250Y0166665D01*
X0103500Y0165415D01*
X0102250Y0166665D02*
X0328500Y0166665D01*
X0363500Y0131665D01*
X0363500Y0122915D01*
X0363500Y0111665D01*
X0329750Y0121665D02*
X0329750Y0096665D01*
X0329750Y0121665D02*
X0324750Y0121665D01*
X0323500Y0122915D01*
X0323500Y0139165D01*
X0318500Y0144165D01*
X0312624Y0149165D01*
X0309898Y0149392D01*
X0309898Y0131439D02*
X0309898Y0130563D01*
X0303500Y0124165D01*
X0301000Y0121665D01*
X0244750Y0121665D01*
X0218500Y0121665D01*
X0218500Y0114165D01*
X0219750Y0109165D01*
X0219750Y0104165D01*
X0162248Y0146665D02*
X0162248Y0150415D01*
X0098500Y0150415D01*
X0089750Y0141665D01*
X0089750Y0126665D01*
X0088500Y0125415D02*
X0079750Y0125415D01*
X0362875Y0039790D02*
X0364750Y0041665D01*
D26*
X0362875Y0039790D02*
X0361000Y0041665D01*
X0356000Y0041665D01*
X0356000Y0035415D01*
X0362250Y0037915D01*
X0363500Y0106665D02*
X0363500Y0111665D01*
X0089750Y0126665D02*
X0088500Y0125415D01*
D27*
X0181000Y0107915D02*
X0181000Y0097915D01*
X0181000Y0107915D02*
X0188500Y0115415D01*
X0208500Y0135415D02*
X0214750Y0141665D01*
X0244750Y0141665D01*
X0258500Y0139165D02*
X0279907Y0139165D01*
X0281157Y0140415D01*
X0288500Y0106665D02*
X0297250Y0109165D01*
X0363500Y0096665D02*
X0363500Y0080415D01*
X0343500Y0070415D02*
X0336000Y0070415D01*
D28*
X0336000Y0070415D03*
X0343500Y0070415D03*
X0363500Y0080415D03*
X0297250Y0109165D03*
X0288500Y0106665D03*
X0258500Y0139165D03*
X0208500Y0135415D03*
X0188500Y0115415D03*
X0182250Y0111665D03*
X0159750Y0111665D03*
X0107250Y0094165D03*
X0051000Y0094165D03*
X0103500Y0059165D03*
X0103500Y0165415D03*
D29*
X0104750Y0137915D02*
X0112260Y0137915D01*
X0119740Y0137915D02*
X0126000Y0137915D01*
X0127250Y0136665D01*
X0104750Y0137915D02*
X0099750Y0132915D01*
X0099750Y0116665D01*
X0084750Y0116665D01*
X0141000Y0114165D02*
X0144750Y0120415D01*
X0178500Y0120415D01*
X0183500Y0125415D01*
X0214750Y0125415D01*
X0218500Y0121665D01*
X0218500Y0114165D02*
X0205990Y0114165D01*
X0219750Y0104165D02*
X0219750Y0100376D01*
X0219573Y0100199D01*
X0219346Y0100425D01*
X0212841Y0092325D02*
X0204750Y0101665D01*
X0203500Y0091665D02*
X0210715Y0084451D01*
X0219573Y0084451D01*
X0219573Y0092325D02*
X0212841Y0092325D01*
X0203500Y0081665D02*
X0208589Y0076577D01*
X0219573Y0076577D01*
X0219573Y0068703D02*
X0205213Y0068703D01*
X0202250Y0071665D01*
X0183500Y0061665D02*
X0181000Y0064165D01*
X0181000Y0097915D01*
X0181000Y0107915D02*
X0182250Y0111665D01*
X0178500Y0120415D02*
X0170990Y0112906D01*
X0170990Y0082915D01*
X0170990Y0080425D01*
X0172250Y0079165D01*
X0172250Y0074156D01*
X0172250Y0066675D02*
X0172250Y0062915D01*
X0182250Y0052915D01*
X0202250Y0052915D01*
X0210163Y0060829D01*
X0219573Y0060829D01*
X0219573Y0052955D02*
X0212289Y0052955D01*
X0206000Y0046665D01*
X0178500Y0046665D01*
X0163500Y0061665D01*
X0163510Y0061675D01*
X0163510Y0082915D01*
X0163510Y0090406D01*
X0159750Y0094165D01*
X0149760Y0094165D02*
X0148500Y0095425D01*
X0141000Y0086665D02*
X0141000Y0114165D01*
X0159750Y0111665D02*
X0159750Y0104165D01*
X0142250Y0085415D02*
X0141000Y0086665D01*
X0142250Y0085415D02*
X0153500Y0085415D01*
X0154750Y0084165D01*
X0154750Y0059165D01*
X0172260Y0041656D01*
X0172260Y0037915D01*
X0179740Y0037915D02*
X0183500Y0037915D01*
X0189120Y0032295D01*
X0184740Y0027915D01*
X0177260Y0027915D02*
X0177240Y0009175D01*
X0188500Y0009165D01*
X0201000Y0027915D02*
X0196000Y0032915D01*
X0189740Y0032915D01*
X0189120Y0032295D01*
X0201000Y0027915D02*
X0202250Y0027915D01*
X0211000Y0036665D01*
X0211000Y0041665D01*
X0214415Y0045081D01*
X0219573Y0045081D01*
X0284140Y0045081D02*
X0293835Y0045081D01*
X0296000Y0042915D01*
X0296000Y0031665D01*
X0301000Y0026665D01*
X0313500Y0026665D01*
X0316000Y0029165D01*
X0316000Y0032915D01*
X0326000Y0049165D02*
X0322211Y0052955D01*
X0284140Y0052955D01*
X0284553Y0060415D02*
X0284140Y0060829D01*
X0284553Y0060415D02*
X0354750Y0060415D01*
X0354750Y0072915D01*
X0341000Y0089165D01*
X0341000Y0141665D01*
X0324750Y0157915D01*
X0262240Y0157915D01*
X0255990Y0155415D01*
X0248510Y0155415D02*
X0202132Y0155415D01*
X0189406Y0155642D01*
X0162248Y0146665D02*
X0150998Y0136665D01*
X0284140Y0092325D02*
X0299750Y0092925D01*
X0304740Y0084165D02*
X0309750Y0089165D01*
X0314750Y0089156D01*
X0309750Y0096665D01*
X0309750Y0116665D01*
X0303500Y0124165D01*
X0297260Y0084165D02*
X0284140Y0084451D01*
X0284140Y0076577D02*
X0292339Y0076577D01*
X0308500Y0071665D01*
X0312250Y0070415D02*
X0314750Y0081675D01*
D30*
X0202250Y0027915D03*
X0188500Y0009165D03*
D31*
X0196422Y0020915D02*
X0208078Y0020915D01*
X0209250Y0022087D01*
X0209250Y0029259D01*
X0212250Y0032259D01*
X0212250Y0007715D01*
X0158500Y0007715D01*
X0158500Y0032915D01*
X0099750Y0091665D01*
X0099750Y0112665D01*
X0100546Y0112665D01*
X0102016Y0113274D01*
X0103141Y0114400D01*
X0103750Y0115870D01*
X0103750Y0131259D01*
X0106407Y0133915D01*
X0107920Y0133915D01*
X0108872Y0132963D01*
X0115647Y0132963D01*
X0116000Y0133315D01*
X0116353Y0132963D01*
X0122750Y0132963D01*
X0123965Y0131748D01*
X0126096Y0130865D01*
X0134654Y0130865D01*
X0136785Y0131748D01*
X0138417Y0133380D01*
X0138500Y0133580D01*
X0138583Y0133380D01*
X0140215Y0131748D01*
X0142346Y0130865D01*
X0152152Y0130865D01*
X0154283Y0131748D01*
X0155915Y0133380D01*
X0156655Y0135165D01*
X0174326Y0135165D01*
X0175498Y0136337D01*
X0175498Y0156994D01*
X0174326Y0158165D01*
X0150170Y0158165D01*
X0148998Y0156994D01*
X0148998Y0156715D01*
X0099750Y0156715D01*
X0099750Y0159392D01*
X0102108Y0158415D01*
X0104892Y0158415D01*
X0107465Y0159481D01*
X0108349Y0160365D01*
X0182246Y0160365D01*
X0181500Y0159620D01*
X0181500Y0151664D01*
X0182672Y0150492D01*
X0196139Y0150492D01*
X0197151Y0151503D01*
X0201302Y0151430D01*
X0201336Y0151415D01*
X0202096Y0151415D01*
X0202856Y0151402D01*
X0202891Y0151415D01*
X0243973Y0151415D01*
X0245122Y0150266D01*
X0251897Y0150266D01*
X0252250Y0150619D01*
X0252603Y0150266D01*
X0259378Y0150266D01*
X0260549Y0151437D01*
X0260549Y0152931D01*
X0263010Y0153915D01*
X0305491Y0153915D01*
X0304870Y0153390D01*
X0303723Y0151162D01*
X0303516Y0148664D01*
X0304280Y0146277D01*
X0305899Y0144365D01*
X0308127Y0143217D01*
X0310084Y0143055D01*
X0314224Y0139532D01*
X0317200Y0136556D01*
X0317200Y0121662D01*
X0318159Y0119347D01*
X0319931Y0117575D01*
X0319931Y0117575D01*
X0321181Y0116325D01*
X0323450Y0115385D01*
X0323450Y0095412D01*
X0324409Y0093097D01*
X0326181Y0091325D01*
X0328497Y0090365D01*
X0331003Y0090365D01*
X0333319Y0091325D01*
X0335091Y0093097D01*
X0336050Y0095412D01*
X0336050Y0122919D01*
X0335091Y0125234D01*
X0333319Y0127006D01*
X0331003Y0127965D01*
X0329800Y0127965D01*
X0329800Y0140419D01*
X0328841Y0142734D01*
X0323656Y0147919D01*
X0323537Y0148151D01*
X0322776Y0148799D01*
X0322069Y0149506D01*
X0321827Y0149606D01*
X0317099Y0153630D01*
X0316857Y0153915D01*
X0323093Y0153915D01*
X0337000Y0140009D01*
X0337000Y0089332D01*
X0336948Y0088705D01*
X0337000Y0088541D01*
X0337000Y0088370D01*
X0337241Y0087789D01*
X0337433Y0087189D01*
X0337543Y0087058D01*
X0337609Y0086900D01*
X0338054Y0086455D01*
X0350750Y0071450D01*
X0350750Y0064415D01*
X0326003Y0064415D01*
X0326355Y0064900D01*
X0326698Y0065573D01*
X0326932Y0066291D01*
X0327050Y0067038D01*
X0327050Y0070215D01*
X0322450Y0070215D01*
X0322450Y0070615D01*
X0327050Y0070615D01*
X0327050Y0073793D01*
X0326932Y0074539D01*
X0326698Y0075258D01*
X0326355Y0075931D01*
X0325911Y0076542D01*
X0325377Y0077077D01*
X0324766Y0077521D01*
X0324093Y0077864D01*
X0323374Y0078097D01*
X0322628Y0078215D01*
X0322450Y0078215D01*
X0322450Y0070616D01*
X0322050Y0070616D01*
X0322050Y0078215D01*
X0321872Y0078215D01*
X0321126Y0078097D01*
X0320407Y0077864D01*
X0319734Y0077521D01*
X0319123Y0077077D01*
X0318589Y0076542D01*
X0318145Y0075931D01*
X0317802Y0075258D01*
X0317568Y0074539D01*
X0317450Y0073793D01*
X0317450Y0073018D01*
X0317250Y0073501D01*
X0317250Y0074410D01*
X0317240Y0074435D01*
X0317835Y0077116D01*
X0318531Y0077116D01*
X0319703Y0078288D01*
X0319703Y0085063D01*
X0319350Y0085415D01*
X0319703Y0085768D01*
X0319703Y0092543D01*
X0318531Y0093715D01*
X0316520Y0093715D01*
X0313750Y0097875D01*
X0313750Y0116484D01*
X0313806Y0117096D01*
X0313750Y0117274D01*
X0313750Y0117461D01*
X0313515Y0118029D01*
X0313332Y0118615D01*
X0313213Y0118759D01*
X0313141Y0118931D01*
X0312707Y0119366D01*
X0310390Y0122146D01*
X0315239Y0126994D01*
X0316198Y0129310D01*
X0316198Y0132692D01*
X0315239Y0135008D01*
X0313466Y0136780D01*
X0311151Y0137739D01*
X0308644Y0137739D01*
X0306329Y0136780D01*
X0304557Y0135008D01*
X0303937Y0133512D01*
X0299931Y0129506D01*
X0298390Y0127965D01*
X0217857Y0127965D01*
X0217016Y0128807D01*
X0215546Y0129415D01*
X0182704Y0129415D01*
X0181234Y0128807D01*
X0176843Y0124415D01*
X0145046Y0124415D01*
X0144552Y0124489D01*
X0144258Y0124415D01*
X0143954Y0124415D01*
X0143493Y0124224D01*
X0143008Y0124103D01*
X0142764Y0123923D01*
X0142484Y0123807D01*
X0142131Y0123453D01*
X0141729Y0123156D01*
X0141573Y0122896D01*
X0141359Y0122681D01*
X0141168Y0122220D01*
X0137823Y0116646D01*
X0137609Y0116431D01*
X0137418Y0115970D01*
X0137161Y0115541D01*
X0137116Y0115241D01*
X0137000Y0114961D01*
X0137000Y0114461D01*
X0136926Y0113967D01*
X0137000Y0113673D01*
X0137000Y0085870D01*
X0137609Y0084400D01*
X0138734Y0083274D01*
X0139984Y0082024D01*
X0141454Y0081415D01*
X0150750Y0081415D01*
X0150750Y0058370D01*
X0151359Y0056900D01*
X0152484Y0055774D01*
X0167701Y0040558D01*
X0167701Y0034134D01*
X0168872Y0032963D01*
X0175647Y0032963D01*
X0176000Y0033315D01*
X0176353Y0032963D01*
X0182796Y0032963D01*
X0182890Y0032868D01*
X0181353Y0032868D01*
X0180841Y0032357D01*
X0180514Y0032546D01*
X0180056Y0032668D01*
X0177739Y0032668D01*
X0177739Y0028395D01*
X0176780Y0028395D01*
X0176780Y0027436D01*
X0172901Y0027436D01*
X0172901Y0024726D01*
X0173023Y0024268D01*
X0173260Y0023857D01*
X0173596Y0023522D01*
X0174006Y0023285D01*
X0174464Y0023163D01*
X0176780Y0023163D01*
X0176780Y0027436D01*
X0177739Y0027436D01*
X0177739Y0023163D01*
X0180056Y0023163D01*
X0180514Y0023285D01*
X0180841Y0023474D01*
X0181353Y0022963D01*
X0188128Y0022963D01*
X0189299Y0024134D01*
X0189299Y0026818D01*
X0191386Y0028904D01*
X0191397Y0028915D01*
X0194343Y0028915D01*
X0195250Y0028009D01*
X0195250Y0022087D01*
X0196422Y0020915D01*
X0195250Y0022098D02*
X0158500Y0022098D01*
X0158500Y0023696D02*
X0173422Y0023696D01*
X0172901Y0025295D02*
X0158500Y0025295D01*
X0158500Y0026893D02*
X0172901Y0026893D01*
X0172901Y0028395D02*
X0176780Y0028395D01*
X0176780Y0032668D01*
X0174464Y0032668D01*
X0174006Y0032546D01*
X0173596Y0032309D01*
X0173260Y0031973D01*
X0173023Y0031563D01*
X0172901Y0031105D01*
X0172901Y0028395D01*
X0172901Y0028492D02*
X0158500Y0028492D01*
X0158500Y0030090D02*
X0172901Y0030090D01*
X0173096Y0031689D02*
X0158500Y0031689D01*
X0158128Y0033287D02*
X0168548Y0033287D01*
X0167701Y0034886D02*
X0156530Y0034886D01*
X0154931Y0036484D02*
X0167701Y0036484D01*
X0167701Y0038083D02*
X0153333Y0038083D01*
X0151734Y0039681D02*
X0167701Y0039681D01*
X0166979Y0041280D02*
X0150136Y0041280D01*
X0148537Y0042878D02*
X0165380Y0042878D01*
X0163782Y0044477D02*
X0146939Y0044477D01*
X0145340Y0046075D02*
X0162183Y0046075D01*
X0160585Y0047674D02*
X0143742Y0047674D01*
X0142143Y0049272D02*
X0158986Y0049272D01*
X0157388Y0050871D02*
X0140545Y0050871D01*
X0138946Y0052469D02*
X0155789Y0052469D01*
X0154191Y0054068D02*
X0137348Y0054068D01*
X0135749Y0055666D02*
X0152592Y0055666D01*
X0151208Y0057265D02*
X0134151Y0057265D01*
X0132552Y0058863D02*
X0150750Y0058863D01*
X0150750Y0060462D02*
X0130954Y0060462D01*
X0129355Y0062060D02*
X0150750Y0062060D01*
X0150750Y0063659D02*
X0127757Y0063659D01*
X0126158Y0065257D02*
X0150750Y0065257D01*
X0150750Y0066856D02*
X0124560Y0066856D01*
X0122961Y0068454D02*
X0150750Y0068454D01*
X0150750Y0070053D02*
X0121363Y0070053D01*
X0119764Y0071651D02*
X0150750Y0071651D01*
X0150750Y0073250D02*
X0118166Y0073250D01*
X0116567Y0074848D02*
X0150750Y0074848D01*
X0150750Y0076447D02*
X0114968Y0076447D01*
X0113370Y0078046D02*
X0150750Y0078046D01*
X0150750Y0079644D02*
X0111771Y0079644D01*
X0110173Y0081243D02*
X0150750Y0081243D01*
X0139168Y0082841D02*
X0108574Y0082841D01*
X0106976Y0084440D02*
X0137592Y0084440D01*
X0137000Y0086038D02*
X0105377Y0086038D01*
X0103779Y0087637D02*
X0137000Y0087637D01*
X0137000Y0089235D02*
X0102180Y0089235D01*
X0100582Y0090834D02*
X0137000Y0090834D01*
X0137000Y0092432D02*
X0099750Y0092432D01*
X0099750Y0094031D02*
X0137000Y0094031D01*
X0137000Y0095629D02*
X0099750Y0095629D01*
X0099750Y0097228D02*
X0137000Y0097228D01*
X0137000Y0098826D02*
X0099750Y0098826D01*
X0099750Y0100425D02*
X0137000Y0100425D01*
X0137000Y0102023D02*
X0099750Y0102023D01*
X0099750Y0103622D02*
X0137000Y0103622D01*
X0137000Y0105220D02*
X0099750Y0105220D01*
X0099750Y0106819D02*
X0137000Y0106819D01*
X0137000Y0108417D02*
X0099750Y0108417D01*
X0099750Y0110016D02*
X0137000Y0110016D01*
X0137000Y0111614D02*
X0099750Y0111614D01*
X0101867Y0113213D02*
X0137000Y0113213D01*
X0137000Y0114811D02*
X0103312Y0114811D01*
X0103750Y0116410D02*
X0137600Y0116410D01*
X0138641Y0118008D02*
X0103750Y0118008D01*
X0103750Y0119607D02*
X0139600Y0119607D01*
X0140559Y0121205D02*
X0103750Y0121205D01*
X0103750Y0122804D02*
X0141481Y0122804D01*
X0143923Y0124402D02*
X0103750Y0124402D01*
X0103750Y0126001D02*
X0178429Y0126001D01*
X0180027Y0127599D02*
X0103750Y0127599D01*
X0103750Y0129198D02*
X0182179Y0129198D01*
X0183263Y0132739D02*
X0188631Y0132739D01*
X0188631Y0136914D01*
X0190180Y0136914D01*
X0190180Y0132739D01*
X0195548Y0132739D01*
X0196006Y0132862D01*
X0196416Y0133099D01*
X0196751Y0133434D01*
X0196988Y0133845D01*
X0197111Y0134303D01*
X0197111Y0136914D01*
X0190180Y0136914D01*
X0190180Y0138464D01*
X0188631Y0138464D01*
X0188631Y0142639D01*
X0183263Y0142639D01*
X0182805Y0142516D01*
X0182395Y0142279D01*
X0182060Y0141944D01*
X0181823Y0141533D01*
X0181700Y0141076D01*
X0181700Y0138464D01*
X0188631Y0138464D01*
X0188631Y0136914D01*
X0181700Y0136914D01*
X0181700Y0134303D01*
X0181823Y0133845D01*
X0182060Y0133434D01*
X0182395Y0133099D01*
X0182805Y0132862D01*
X0183263Y0132739D01*
X0181783Y0133993D02*
X0156169Y0133993D01*
X0154930Y0132395D02*
X0267153Y0132395D01*
X0267153Y0133993D02*
X0197028Y0133993D01*
X0197111Y0135592D02*
X0267153Y0135592D01*
X0267153Y0137190D02*
X0190180Y0137190D01*
X0190180Y0138464D02*
X0197111Y0138464D01*
X0197111Y0141076D01*
X0196988Y0141533D01*
X0196751Y0141944D01*
X0196416Y0142279D01*
X0196006Y0142516D01*
X0195548Y0142639D01*
X0190180Y0142639D01*
X0190180Y0138464D01*
X0190180Y0138789D02*
X0188631Y0138789D01*
X0188631Y0140387D02*
X0190180Y0140387D01*
X0190180Y0141986D02*
X0188631Y0141986D01*
X0182102Y0141986D02*
X0175498Y0141986D01*
X0175498Y0143584D02*
X0240446Y0143584D01*
X0240350Y0143488D02*
X0240350Y0141666D01*
X0244750Y0141666D01*
X0244750Y0146065D01*
X0242927Y0146065D01*
X0240350Y0143488D01*
X0240350Y0141986D02*
X0196709Y0141986D01*
X0197111Y0140387D02*
X0240350Y0140387D01*
X0240350Y0139843D02*
X0242927Y0137265D01*
X0244750Y0137265D01*
X0244750Y0141665D01*
X0244750Y0137265D01*
X0246573Y0137265D01*
X0249150Y0139843D01*
X0249150Y0141665D01*
X0244750Y0141665D01*
X0244750Y0141665D01*
X0240350Y0141665D01*
X0240350Y0139843D01*
X0241404Y0138789D02*
X0197111Y0138789D01*
X0190180Y0135592D02*
X0188631Y0135592D01*
X0188631Y0137190D02*
X0175498Y0137190D01*
X0175498Y0138789D02*
X0181700Y0138789D01*
X0181700Y0140387D02*
X0175498Y0140387D01*
X0175498Y0145183D02*
X0242045Y0145183D01*
X0244750Y0145183D02*
X0244750Y0145183D01*
X0244750Y0146065D02*
X0244750Y0141666D01*
X0244750Y0141666D01*
X0244750Y0141665D01*
X0244750Y0141666D01*
X0249150Y0141666D01*
X0249150Y0143488D01*
X0246573Y0146065D01*
X0244750Y0146065D01*
X0244750Y0143584D02*
X0244750Y0143584D01*
X0244750Y0141986D02*
X0244750Y0141986D01*
X0244750Y0140387D02*
X0244750Y0140387D01*
X0244750Y0138789D02*
X0244750Y0138789D01*
X0248096Y0138789D02*
X0267153Y0138789D01*
X0267153Y0139615D02*
X0267153Y0129549D01*
X0267275Y0129091D01*
X0267512Y0128680D01*
X0267848Y0128345D01*
X0268258Y0128108D01*
X0268716Y0127986D01*
X0280357Y0127986D01*
X0280357Y0139615D01*
X0281957Y0139615D01*
X0281957Y0127986D01*
X0293599Y0127986D01*
X0294057Y0128108D01*
X0294467Y0128345D01*
X0294803Y0128680D01*
X0295040Y0129091D01*
X0295162Y0129549D01*
X0295162Y0139615D01*
X0281958Y0139615D01*
X0281958Y0141215D01*
X0295162Y0141215D01*
X0295162Y0151282D01*
X0295040Y0151740D01*
X0294803Y0152151D01*
X0294467Y0152486D01*
X0294057Y0152723D01*
X0293599Y0152845D01*
X0281957Y0152845D01*
X0281957Y0141216D01*
X0280357Y0141216D01*
X0280357Y0152845D01*
X0268716Y0152845D01*
X0268258Y0152723D01*
X0267848Y0152486D01*
X0267512Y0152151D01*
X0267275Y0151740D01*
X0267153Y0151282D01*
X0267153Y0141215D01*
X0280357Y0141215D01*
X0280357Y0139615D01*
X0267153Y0139615D01*
X0267153Y0141986D02*
X0249150Y0141986D01*
X0249150Y0140387D02*
X0280357Y0140387D01*
X0280357Y0138789D02*
X0281957Y0138789D01*
X0281958Y0140387D02*
X0313219Y0140387D01*
X0314967Y0138789D02*
X0295162Y0138789D01*
X0295162Y0137190D02*
X0307320Y0137190D01*
X0305141Y0135592D02*
X0295162Y0135592D01*
X0295162Y0133993D02*
X0304137Y0133993D01*
X0302820Y0132395D02*
X0295162Y0132395D01*
X0295162Y0130796D02*
X0301221Y0130796D01*
X0299623Y0129198D02*
X0295068Y0129198D01*
X0281957Y0129198D02*
X0280357Y0129198D01*
X0280357Y0130796D02*
X0281957Y0130796D01*
X0281957Y0132395D02*
X0280357Y0132395D01*
X0280357Y0133993D02*
X0281957Y0133993D01*
X0281957Y0135592D02*
X0280357Y0135592D01*
X0280357Y0137190D02*
X0281957Y0137190D01*
X0281957Y0141986D02*
X0280357Y0141986D01*
X0280357Y0143584D02*
X0281957Y0143584D01*
X0281957Y0145183D02*
X0280357Y0145183D01*
X0280357Y0146781D02*
X0281957Y0146781D01*
X0281957Y0148380D02*
X0280357Y0148380D01*
X0280357Y0149979D02*
X0281957Y0149979D01*
X0281957Y0151577D02*
X0280357Y0151577D01*
X0267232Y0151577D02*
X0260549Y0151577D01*
X0261161Y0153176D02*
X0304760Y0153176D01*
X0303937Y0151577D02*
X0295083Y0151577D01*
X0295162Y0149979D02*
X0303625Y0149979D01*
X0303607Y0148380D02*
X0295162Y0148380D01*
X0295162Y0146781D02*
X0304118Y0146781D01*
X0305206Y0145183D02*
X0295162Y0145183D01*
X0295162Y0143584D02*
X0307414Y0143584D01*
X0311340Y0141986D02*
X0295162Y0141986D01*
X0312475Y0137190D02*
X0316566Y0137190D01*
X0317200Y0135592D02*
X0314654Y0135592D01*
X0315659Y0133993D02*
X0317200Y0133993D01*
X0317200Y0132395D02*
X0316198Y0132395D01*
X0316198Y0130796D02*
X0317200Y0130796D01*
X0317200Y0129198D02*
X0316151Y0129198D01*
X0315489Y0127599D02*
X0317200Y0127599D01*
X0317200Y0126001D02*
X0314245Y0126001D01*
X0312646Y0124402D02*
X0317200Y0124402D01*
X0317200Y0122804D02*
X0311048Y0122804D01*
X0311174Y0121205D02*
X0317389Y0121205D01*
X0318051Y0119607D02*
X0312506Y0119607D01*
X0313523Y0118008D02*
X0319498Y0118008D01*
X0321096Y0116410D02*
X0313750Y0116410D01*
X0313750Y0114811D02*
X0323450Y0114811D01*
X0323450Y0113213D02*
X0313750Y0113213D01*
X0313750Y0111614D02*
X0323450Y0111614D01*
X0323450Y0110016D02*
X0313750Y0110016D01*
X0313750Y0108417D02*
X0323450Y0108417D01*
X0323450Y0106819D02*
X0313750Y0106819D01*
X0313750Y0105220D02*
X0323450Y0105220D01*
X0323450Y0103622D02*
X0313750Y0103622D01*
X0313750Y0102023D02*
X0323450Y0102023D01*
X0323450Y0100425D02*
X0313750Y0100425D01*
X0313750Y0098826D02*
X0323450Y0098826D01*
X0323450Y0097228D02*
X0314181Y0097228D01*
X0315245Y0095629D02*
X0323450Y0095629D01*
X0324022Y0094031D02*
X0316310Y0094031D01*
X0319703Y0092432D02*
X0325074Y0092432D01*
X0327367Y0090834D02*
X0319703Y0090834D01*
X0319703Y0089235D02*
X0336992Y0089235D01*
X0337000Y0090834D02*
X0332133Y0090834D01*
X0334426Y0092432D02*
X0337000Y0092432D01*
X0337000Y0094031D02*
X0335478Y0094031D01*
X0336050Y0095629D02*
X0337000Y0095629D01*
X0337000Y0097228D02*
X0336050Y0097228D01*
X0336050Y0098826D02*
X0337000Y0098826D01*
X0337000Y0100425D02*
X0336050Y0100425D01*
X0336050Y0102023D02*
X0337000Y0102023D01*
X0337000Y0103622D02*
X0336050Y0103622D01*
X0336050Y0105220D02*
X0337000Y0105220D01*
X0337000Y0106819D02*
X0336050Y0106819D01*
X0336050Y0108417D02*
X0337000Y0108417D01*
X0337000Y0110016D02*
X0336050Y0110016D01*
X0336050Y0111614D02*
X0337000Y0111614D01*
X0337000Y0113213D02*
X0336050Y0113213D01*
X0336050Y0114811D02*
X0337000Y0114811D01*
X0337000Y0116410D02*
X0336050Y0116410D01*
X0336050Y0118008D02*
X0337000Y0118008D01*
X0337000Y0119607D02*
X0336050Y0119607D01*
X0336050Y0121205D02*
X0337000Y0121205D01*
X0337000Y0122804D02*
X0336050Y0122804D01*
X0335435Y0124402D02*
X0337000Y0124402D01*
X0337000Y0126001D02*
X0334324Y0126001D01*
X0331887Y0127599D02*
X0337000Y0127599D01*
X0337000Y0129198D02*
X0329800Y0129198D01*
X0329800Y0130796D02*
X0337000Y0130796D01*
X0337000Y0132395D02*
X0329800Y0132395D01*
X0329800Y0133993D02*
X0337000Y0133993D01*
X0337000Y0135592D02*
X0329800Y0135592D01*
X0329800Y0137190D02*
X0337000Y0137190D01*
X0337000Y0138789D02*
X0329800Y0138789D01*
X0329800Y0140387D02*
X0336621Y0140387D01*
X0335023Y0141986D02*
X0329151Y0141986D01*
X0327991Y0143584D02*
X0333424Y0143584D01*
X0331826Y0145183D02*
X0326392Y0145183D01*
X0324794Y0146781D02*
X0330227Y0146781D01*
X0328629Y0148380D02*
X0323268Y0148380D01*
X0321390Y0149979D02*
X0327030Y0149979D01*
X0325432Y0151577D02*
X0319511Y0151577D01*
X0317633Y0153176D02*
X0323833Y0153176D01*
X0345000Y0141256D02*
X0357200Y0129056D01*
X0357200Y0110437D01*
X0356261Y0109498D01*
X0355500Y0107660D01*
X0355500Y0105671D01*
X0356261Y0103833D01*
X0357668Y0102427D01*
X0359505Y0101665D01*
X0361721Y0101665D01*
X0362204Y0101465D01*
X0360122Y0101465D01*
X0359376Y0101347D01*
X0358657Y0101114D01*
X0357984Y0100771D01*
X0357373Y0100327D01*
X0356839Y0099792D01*
X0356395Y0099181D01*
X0356052Y0098508D01*
X0355818Y0097789D01*
X0355700Y0097043D01*
X0355700Y0096865D01*
X0363300Y0096865D01*
X0363300Y0096465D01*
X0363700Y0096465D01*
X0363700Y0091865D01*
X0366200Y0091865D01*
X0366200Y0044904D01*
X0360800Y0039504D01*
X0360800Y0041465D01*
X0356200Y0041465D01*
X0356200Y0034904D01*
X0355800Y0034504D01*
X0355800Y0041465D01*
X0356200Y0041465D01*
X0356200Y0041865D01*
X0360800Y0041865D01*
X0360800Y0045043D01*
X0360682Y0045789D01*
X0360448Y0046508D01*
X0360105Y0047181D01*
X0359661Y0047792D01*
X0359127Y0048327D01*
X0358516Y0048771D01*
X0357843Y0049114D01*
X0357124Y0049347D01*
X0356378Y0049465D01*
X0356200Y0049465D01*
X0356200Y0041866D01*
X0355800Y0041866D01*
X0355800Y0049465D01*
X0355622Y0049465D01*
X0354876Y0049347D01*
X0354157Y0049114D01*
X0353484Y0048771D01*
X0352873Y0048327D01*
X0352339Y0047792D01*
X0351895Y0047181D01*
X0351552Y0046508D01*
X0351318Y0045789D01*
X0351200Y0045043D01*
X0351200Y0041865D01*
X0355800Y0041865D01*
X0355800Y0041465D01*
X0351200Y0041465D01*
X0351200Y0038288D01*
X0351318Y0037541D01*
X0351552Y0036823D01*
X0351895Y0036150D01*
X0352339Y0035538D01*
X0352873Y0035004D01*
X0353484Y0034560D01*
X0354157Y0034217D01*
X0354876Y0033984D01*
X0355225Y0033928D01*
X0329012Y0007715D01*
X0292250Y0007715D01*
X0292250Y0030266D01*
X0292609Y0029400D01*
X0297609Y0024400D01*
X0298734Y0023274D01*
X0300204Y0022665D01*
X0314296Y0022665D01*
X0315766Y0023274D01*
X0318266Y0025774D01*
X0319391Y0026900D01*
X0320000Y0028370D01*
X0320000Y0028713D01*
X0320917Y0029630D01*
X0321800Y0031762D01*
X0321800Y0035794D01*
X0323168Y0034427D01*
X0325005Y0033665D01*
X0326995Y0033665D01*
X0328832Y0034427D01*
X0330239Y0035833D01*
X0331000Y0037671D01*
X0331761Y0035833D01*
X0333168Y0034427D01*
X0335005Y0033665D01*
X0336995Y0033665D01*
X0338832Y0034427D01*
X0340239Y0035833D01*
X0341000Y0037671D01*
X0341761Y0035833D01*
X0343168Y0034427D01*
X0345005Y0033665D01*
X0346995Y0033665D01*
X0348832Y0034427D01*
X0350239Y0035833D01*
X0351000Y0037671D01*
X0351000Y0045660D01*
X0350239Y0047498D01*
X0348832Y0048904D01*
X0346995Y0049665D01*
X0345005Y0049665D01*
X0343168Y0048904D01*
X0341761Y0047498D01*
X0341000Y0045660D01*
X0341000Y0037671D01*
X0341000Y0045660D01*
X0340239Y0047498D01*
X0338832Y0048904D01*
X0336995Y0049665D01*
X0335005Y0049665D01*
X0333168Y0048904D01*
X0331800Y0047537D01*
X0331800Y0050319D01*
X0330917Y0052451D01*
X0329285Y0054082D01*
X0327154Y0054965D01*
X0325857Y0054965D01*
X0324476Y0056346D01*
X0324308Y0056415D01*
X0355546Y0056415D01*
X0357016Y0057024D01*
X0358141Y0058150D01*
X0358750Y0059620D01*
X0358750Y0072749D01*
X0358802Y0073376D01*
X0358750Y0073540D01*
X0358750Y0073711D01*
X0358509Y0074292D01*
X0358317Y0074892D01*
X0358207Y0075023D01*
X0358141Y0075181D01*
X0357696Y0075626D01*
X0345000Y0090631D01*
X0345000Y0141256D01*
X0345000Y0140387D02*
X0345868Y0140387D01*
X0345000Y0138789D02*
X0347467Y0138789D01*
X0349066Y0137190D02*
X0345000Y0137190D01*
X0345000Y0135592D02*
X0350664Y0135592D01*
X0352263Y0133993D02*
X0345000Y0133993D01*
X0345000Y0132395D02*
X0353861Y0132395D01*
X0355460Y0130796D02*
X0345000Y0130796D01*
X0345000Y0129198D02*
X0357058Y0129198D01*
X0357200Y0127599D02*
X0345000Y0127599D01*
X0345000Y0126001D02*
X0357200Y0126001D01*
X0357200Y0124402D02*
X0345000Y0124402D01*
X0345000Y0122804D02*
X0357200Y0122804D01*
X0357200Y0121205D02*
X0345000Y0121205D01*
X0345000Y0119607D02*
X0357200Y0119607D01*
X0357200Y0118008D02*
X0345000Y0118008D01*
X0345000Y0116410D02*
X0357200Y0116410D01*
X0357200Y0114811D02*
X0345000Y0114811D01*
X0345000Y0113213D02*
X0357200Y0113213D01*
X0357200Y0111614D02*
X0345000Y0111614D01*
X0345000Y0110016D02*
X0356779Y0110016D01*
X0355814Y0108417D02*
X0345000Y0108417D01*
X0345000Y0106819D02*
X0355500Y0106819D01*
X0355687Y0105220D02*
X0345000Y0105220D01*
X0345000Y0103622D02*
X0356473Y0103622D01*
X0358642Y0102023D02*
X0345000Y0102023D01*
X0345000Y0100425D02*
X0347287Y0100425D01*
X0347927Y0101065D02*
X0345350Y0098488D01*
X0345350Y0096666D01*
X0349750Y0096666D01*
X0349750Y0101065D01*
X0351573Y0101065D01*
X0354150Y0098488D01*
X0354150Y0096666D01*
X0349750Y0096666D01*
X0349750Y0096666D01*
X0349750Y0101065D01*
X0347927Y0101065D01*
X0349750Y0100425D02*
X0349750Y0100425D01*
X0349750Y0098826D02*
X0349750Y0098826D01*
X0349750Y0097228D02*
X0349750Y0097228D01*
X0349750Y0096666D02*
X0349750Y0096665D01*
X0349750Y0092265D01*
X0351573Y0092265D01*
X0354150Y0094843D01*
X0354150Y0096665D01*
X0349750Y0096665D01*
X0349750Y0096665D01*
X0349750Y0092265D01*
X0347927Y0092265D01*
X0345350Y0094843D01*
X0345350Y0096665D01*
X0349750Y0096665D01*
X0349750Y0096666D01*
X0349750Y0095629D02*
X0349750Y0095629D01*
X0349750Y0094031D02*
X0349750Y0094031D01*
X0349750Y0092432D02*
X0349750Y0092432D01*
X0351739Y0092432D02*
X0358236Y0092432D01*
X0357984Y0092560D02*
X0358657Y0092217D01*
X0359376Y0091984D01*
X0360122Y0091865D01*
X0363300Y0091865D01*
X0363300Y0096465D01*
X0355700Y0096465D01*
X0355700Y0096288D01*
X0355818Y0095541D01*
X0356052Y0094823D01*
X0356395Y0094150D01*
X0356839Y0093538D01*
X0357373Y0093004D01*
X0357984Y0092560D01*
X0356481Y0094031D02*
X0353338Y0094031D01*
X0354150Y0095629D02*
X0355804Y0095629D01*
X0355729Y0097228D02*
X0354150Y0097228D01*
X0353812Y0098826D02*
X0356214Y0098826D01*
X0357508Y0100425D02*
X0352213Y0100425D01*
X0345688Y0098826D02*
X0345000Y0098826D01*
X0345000Y0097228D02*
X0345350Y0097228D01*
X0345350Y0095629D02*
X0345000Y0095629D01*
X0345000Y0094031D02*
X0346162Y0094031D01*
X0345000Y0092432D02*
X0347761Y0092432D01*
X0345000Y0090834D02*
X0366200Y0090834D01*
X0366200Y0089235D02*
X0346181Y0089235D01*
X0347533Y0087637D02*
X0366200Y0087637D01*
X0366200Y0086038D02*
X0348886Y0086038D01*
X0350239Y0084440D02*
X0366200Y0084440D01*
X0366200Y0082841D02*
X0351591Y0082841D01*
X0352944Y0081243D02*
X0366200Y0081243D01*
X0366200Y0079644D02*
X0354296Y0079644D01*
X0355649Y0078046D02*
X0366200Y0078046D01*
X0366200Y0076447D02*
X0357002Y0076447D01*
X0358331Y0074848D02*
X0366200Y0074848D01*
X0366200Y0073250D02*
X0358792Y0073250D01*
X0358750Y0071651D02*
X0366200Y0071651D01*
X0366200Y0070053D02*
X0358750Y0070053D01*
X0358750Y0068454D02*
X0366200Y0068454D01*
X0366200Y0066856D02*
X0358750Y0066856D01*
X0358750Y0065257D02*
X0366200Y0065257D01*
X0366200Y0063659D02*
X0358750Y0063659D01*
X0358750Y0062060D02*
X0366200Y0062060D01*
X0366200Y0060462D02*
X0358750Y0060462D01*
X0358437Y0058863D02*
X0366200Y0058863D01*
X0366200Y0057265D02*
X0357256Y0057265D01*
X0366200Y0055666D02*
X0325156Y0055666D01*
X0329300Y0054068D02*
X0366200Y0054068D01*
X0366200Y0052469D02*
X0330899Y0052469D01*
X0331571Y0050871D02*
X0366200Y0050871D01*
X0366200Y0049272D02*
X0357355Y0049272D01*
X0356200Y0049272D02*
X0355800Y0049272D01*
X0354645Y0049272D02*
X0347944Y0049272D01*
X0350063Y0047674D02*
X0352253Y0047674D01*
X0351411Y0046075D02*
X0350828Y0046075D01*
X0351000Y0044477D02*
X0351200Y0044477D01*
X0351200Y0042878D02*
X0351000Y0042878D01*
X0351000Y0041280D02*
X0351200Y0041280D01*
X0351200Y0039681D02*
X0351000Y0039681D01*
X0351000Y0038083D02*
X0351232Y0038083D01*
X0351724Y0036484D02*
X0350508Y0036484D01*
X0349291Y0034886D02*
X0353036Y0034886D01*
X0354584Y0033287D02*
X0321800Y0033287D01*
X0321770Y0031689D02*
X0352985Y0031689D01*
X0351386Y0030090D02*
X0321108Y0030090D01*
X0320000Y0028492D02*
X0349788Y0028492D01*
X0348189Y0026893D02*
X0319385Y0026893D01*
X0317786Y0025295D02*
X0346591Y0025295D01*
X0344992Y0023696D02*
X0316188Y0023696D01*
X0298312Y0023696D02*
X0292250Y0023696D01*
X0292250Y0022098D02*
X0343394Y0022098D01*
X0341795Y0020499D02*
X0292250Y0020499D01*
X0292250Y0018901D02*
X0340197Y0018901D01*
X0338598Y0017302D02*
X0292250Y0017302D01*
X0292250Y0015704D02*
X0337000Y0015704D01*
X0335401Y0014105D02*
X0292250Y0014105D01*
X0292250Y0012507D02*
X0333803Y0012507D01*
X0332204Y0010908D02*
X0292250Y0010908D01*
X0292250Y0009310D02*
X0330606Y0009310D01*
X0296714Y0025295D02*
X0292250Y0025295D01*
X0292250Y0026893D02*
X0295115Y0026893D01*
X0293517Y0028492D02*
X0292250Y0028492D01*
X0292250Y0030090D02*
X0292323Y0030090D01*
X0321800Y0034886D02*
X0322709Y0034886D01*
X0329291Y0034886D02*
X0332709Y0034886D01*
X0331492Y0036484D02*
X0330508Y0036484D01*
X0331000Y0037671D02*
X0331000Y0038580D01*
X0331000Y0038580D01*
X0331000Y0037671D01*
X0331000Y0038083D02*
X0331000Y0038083D01*
X0339291Y0034886D02*
X0342709Y0034886D01*
X0341492Y0036484D02*
X0340508Y0036484D01*
X0341000Y0038083D02*
X0341000Y0038083D01*
X0341000Y0039681D02*
X0341000Y0039681D01*
X0341000Y0041280D02*
X0341000Y0041280D01*
X0341000Y0042878D02*
X0341000Y0042878D01*
X0341000Y0044477D02*
X0341000Y0044477D01*
X0340828Y0046075D02*
X0341172Y0046075D01*
X0341937Y0047674D02*
X0340063Y0047674D01*
X0337944Y0049272D02*
X0344056Y0049272D01*
X0334056Y0049272D02*
X0331800Y0049272D01*
X0331800Y0047674D02*
X0331937Y0047674D01*
X0355800Y0047674D02*
X0356200Y0047674D01*
X0356200Y0046075D02*
X0355800Y0046075D01*
X0355800Y0044477D02*
X0356200Y0044477D01*
X0356200Y0042878D02*
X0355800Y0042878D01*
X0355800Y0041280D02*
X0356200Y0041280D01*
X0356200Y0039681D02*
X0355800Y0039681D01*
X0355800Y0038083D02*
X0356200Y0038083D01*
X0356200Y0036484D02*
X0355800Y0036484D01*
X0355800Y0034886D02*
X0356182Y0034886D01*
X0360800Y0039681D02*
X0360978Y0039681D01*
X0360800Y0041280D02*
X0362576Y0041280D01*
X0364175Y0042878D02*
X0360800Y0042878D01*
X0360800Y0044477D02*
X0365773Y0044477D01*
X0366200Y0046075D02*
X0360589Y0046075D01*
X0359747Y0047674D02*
X0366200Y0047674D01*
X0350750Y0065257D02*
X0326538Y0065257D01*
X0327021Y0066856D02*
X0350750Y0066856D01*
X0350750Y0068454D02*
X0327050Y0068454D01*
X0327050Y0070053D02*
X0350750Y0070053D01*
X0350580Y0071651D02*
X0327050Y0071651D01*
X0327050Y0073250D02*
X0349227Y0073250D01*
X0347875Y0074848D02*
X0326831Y0074848D01*
X0325981Y0076447D02*
X0346522Y0076447D01*
X0345169Y0078046D02*
X0323533Y0078046D01*
X0322450Y0078046D02*
X0322050Y0078046D01*
X0320967Y0078046D02*
X0319460Y0078046D01*
X0319703Y0079644D02*
X0343817Y0079644D01*
X0342464Y0081243D02*
X0319703Y0081243D01*
X0319703Y0082841D02*
X0341112Y0082841D01*
X0339759Y0084440D02*
X0319703Y0084440D01*
X0319703Y0086038D02*
X0338406Y0086038D01*
X0337289Y0087637D02*
X0319703Y0087637D01*
X0307637Y0092621D02*
X0307491Y0092561D01*
X0307489Y0092560D01*
X0307488Y0092559D01*
X0306925Y0091997D01*
X0306363Y0091438D01*
X0306363Y0091436D01*
X0304703Y0089779D01*
X0304703Y0096313D01*
X0304191Y0096824D01*
X0304380Y0097152D01*
X0304503Y0097610D01*
X0304503Y0099926D01*
X0300230Y0099926D01*
X0300230Y0100885D01*
X0304503Y0100885D01*
X0304503Y0103202D01*
X0304380Y0103659D01*
X0304143Y0104070D01*
X0303808Y0104405D01*
X0303398Y0104642D01*
X0302940Y0104765D01*
X0300230Y0104765D01*
X0300230Y0100885D01*
X0299270Y0100885D01*
X0299270Y0099926D01*
X0294997Y0099926D01*
X0294997Y0097610D01*
X0295120Y0097152D01*
X0295309Y0096824D01*
X0295239Y0096755D01*
X0291360Y0096606D01*
X0291486Y0096732D01*
X0291723Y0097142D01*
X0291845Y0097600D01*
X0291845Y0099818D01*
X0284521Y0099818D01*
X0284521Y0100580D01*
X0291845Y0100580D01*
X0291845Y0102798D01*
X0291723Y0103256D01*
X0291486Y0103666D01*
X0291150Y0104002D01*
X0290740Y0104238D01*
X0290282Y0104361D01*
X0284521Y0104361D01*
X0284521Y0100580D01*
X0283759Y0100580D01*
X0283759Y0104361D01*
X0277997Y0104361D01*
X0277539Y0104238D01*
X0277129Y0104002D01*
X0277085Y0103957D01*
X0277085Y0115201D01*
X0276920Y0115365D01*
X0302253Y0115365D01*
X0304569Y0116325D01*
X0304710Y0116466D01*
X0305750Y0115217D01*
X0305750Y0097063D01*
X0305672Y0096672D01*
X0305750Y0096275D01*
X0305750Y0095870D01*
X0305902Y0095502D01*
X0305980Y0095111D01*
X0306204Y0094774D01*
X0306359Y0094400D01*
X0306641Y0094118D01*
X0307637Y0092621D01*
X0307361Y0092432D02*
X0304703Y0092432D01*
X0304703Y0090834D02*
X0305759Y0090834D01*
X0306699Y0094031D02*
X0304703Y0094031D01*
X0304703Y0095629D02*
X0305850Y0095629D01*
X0305750Y0097228D02*
X0304400Y0097228D01*
X0304503Y0098826D02*
X0305750Y0098826D01*
X0305750Y0100425D02*
X0300230Y0100425D01*
X0299270Y0100425D02*
X0284521Y0100425D01*
X0284521Y0102023D02*
X0283759Y0102023D01*
X0283759Y0103622D02*
X0284521Y0103622D01*
X0291511Y0103622D02*
X0295110Y0103622D01*
X0295120Y0103659D02*
X0294997Y0103202D01*
X0294997Y0100885D01*
X0299270Y0100885D01*
X0299270Y0104765D01*
X0296560Y0104765D01*
X0296102Y0104642D01*
X0295692Y0104405D01*
X0295357Y0104070D01*
X0295120Y0103659D01*
X0294997Y0102023D02*
X0291845Y0102023D01*
X0291845Y0098826D02*
X0294997Y0098826D01*
X0295100Y0097228D02*
X0291746Y0097228D01*
X0299270Y0102023D02*
X0300230Y0102023D01*
X0300230Y0103622D02*
X0299270Y0103622D01*
X0304390Y0103622D02*
X0305750Y0103622D01*
X0305750Y0105220D02*
X0277085Y0105220D01*
X0277085Y0106819D02*
X0305750Y0106819D01*
X0305750Y0108417D02*
X0277085Y0108417D01*
X0277085Y0110016D02*
X0305750Y0110016D01*
X0305750Y0111614D02*
X0277085Y0111614D01*
X0277085Y0113213D02*
X0305750Y0113213D01*
X0305750Y0114811D02*
X0277085Y0114811D01*
X0304654Y0116410D02*
X0304756Y0116410D01*
X0304503Y0102023D02*
X0305750Y0102023D01*
X0317687Y0076447D02*
X0318519Y0076447D01*
X0317669Y0074848D02*
X0317332Y0074848D01*
X0317354Y0073250D02*
X0317450Y0073250D01*
X0322050Y0073250D02*
X0322450Y0073250D01*
X0322450Y0074848D02*
X0322050Y0074848D01*
X0322050Y0076447D02*
X0322450Y0076447D01*
X0322450Y0071651D02*
X0322050Y0071651D01*
X0363300Y0092432D02*
X0363700Y0092432D01*
X0363700Y0094031D02*
X0363300Y0094031D01*
X0363300Y0095629D02*
X0363700Y0095629D01*
X0267247Y0129198D02*
X0216071Y0129198D01*
X0212200Y0121415D02*
X0212200Y0118165D01*
X0210330Y0118165D01*
X0209378Y0119118D01*
X0202603Y0119118D01*
X0202091Y0118607D01*
X0201764Y0118796D01*
X0201306Y0118918D01*
X0198989Y0118918D01*
X0198989Y0114645D01*
X0198030Y0114645D01*
X0198030Y0113686D01*
X0194151Y0113686D01*
X0194151Y0110976D01*
X0194273Y0110518D01*
X0194510Y0110107D01*
X0194846Y0109772D01*
X0195256Y0109535D01*
X0195714Y0109413D01*
X0198030Y0109413D01*
X0198030Y0113686D01*
X0198989Y0113686D01*
X0198989Y0109413D01*
X0201306Y0109413D01*
X0201764Y0109535D01*
X0202091Y0109724D01*
X0202603Y0109213D01*
X0209378Y0109213D01*
X0210330Y0110165D01*
X0213006Y0110165D01*
X0213450Y0108390D01*
X0213450Y0104561D01*
X0212839Y0104561D01*
X0211667Y0103390D01*
X0211667Y0099789D01*
X0210250Y0101425D01*
X0210250Y0102759D01*
X0209413Y0104781D01*
X0207865Y0106328D01*
X0205844Y0107165D01*
X0189906Y0107165D01*
X0188699Y0106665D01*
X0187005Y0106665D01*
X0185168Y0105904D01*
X0183761Y0104498D01*
X0183000Y0102660D01*
X0183000Y0100671D01*
X0183761Y0098833D01*
X0185168Y0097427D01*
X0187005Y0096665D01*
X0185168Y0095904D01*
X0183761Y0094498D01*
X0183000Y0092660D01*
X0183000Y0090671D01*
X0183761Y0088833D01*
X0185168Y0087427D01*
X0187005Y0086665D01*
X0185168Y0085904D01*
X0183761Y0084498D01*
X0183000Y0082660D01*
X0183000Y0080671D01*
X0183761Y0078833D01*
X0185168Y0077427D01*
X0187005Y0076665D01*
X0185168Y0075904D01*
X0183761Y0074498D01*
X0183000Y0072660D01*
X0183000Y0070671D01*
X0183761Y0068833D01*
X0185168Y0067427D01*
X0187005Y0066665D01*
X0188699Y0066665D01*
X0189182Y0066465D01*
X0187622Y0066465D01*
X0186876Y0066347D01*
X0186157Y0066114D01*
X0185484Y0065771D01*
X0184873Y0065327D01*
X0184339Y0064792D01*
X0183895Y0064181D01*
X0183552Y0063508D01*
X0183318Y0062789D01*
X0183200Y0062043D01*
X0183200Y0061865D01*
X0190800Y0061865D01*
X0190800Y0061465D01*
X0183200Y0061465D01*
X0183200Y0061288D01*
X0183318Y0060541D01*
X0183552Y0059823D01*
X0183895Y0059150D01*
X0184339Y0058538D01*
X0184873Y0058004D01*
X0185484Y0057560D01*
X0186157Y0057217D01*
X0186876Y0056984D01*
X0187307Y0056915D01*
X0183907Y0056915D01*
X0177203Y0063620D01*
X0177203Y0070063D01*
X0176850Y0070415D01*
X0177203Y0070768D01*
X0177203Y0077543D01*
X0176250Y0078496D01*
X0176250Y0079961D01*
X0175641Y0081431D01*
X0175549Y0081523D01*
X0175549Y0086894D01*
X0174990Y0087453D01*
X0174990Y0111249D01*
X0180766Y0117024D01*
X0185157Y0121415D01*
X0212200Y0121415D01*
X0212200Y0121205D02*
X0184947Y0121205D01*
X0183348Y0119607D02*
X0212200Y0119607D01*
X0198989Y0118008D02*
X0198030Y0118008D01*
X0198030Y0118918D02*
X0195714Y0118918D01*
X0195256Y0118796D01*
X0194846Y0118559D01*
X0194510Y0118223D01*
X0194273Y0117813D01*
X0194151Y0117355D01*
X0194151Y0114645D01*
X0198030Y0114645D01*
X0198030Y0118918D01*
X0194386Y0118008D02*
X0181750Y0118008D01*
X0180766Y0117024D02*
X0180766Y0117024D01*
X0180151Y0116410D02*
X0194151Y0116410D01*
X0194151Y0114811D02*
X0178553Y0114811D01*
X0176954Y0113213D02*
X0194151Y0113213D01*
X0194151Y0111614D02*
X0175356Y0111614D01*
X0174990Y0110016D02*
X0194602Y0110016D01*
X0198030Y0110016D02*
X0198989Y0110016D01*
X0198989Y0111614D02*
X0198030Y0111614D01*
X0198030Y0113213D02*
X0198989Y0113213D01*
X0198989Y0114811D02*
X0198030Y0114811D01*
X0198030Y0116410D02*
X0198989Y0116410D01*
X0210181Y0110016D02*
X0213044Y0110016D01*
X0213443Y0108417D02*
X0174990Y0108417D01*
X0174990Y0106819D02*
X0189069Y0106819D01*
X0184484Y0105220D02*
X0174990Y0105220D01*
X0174990Y0103622D02*
X0183398Y0103622D01*
X0183000Y0102023D02*
X0174990Y0102023D01*
X0174990Y0100425D02*
X0183102Y0100425D01*
X0183768Y0098826D02*
X0174990Y0098826D01*
X0174990Y0097228D02*
X0185648Y0097228D01*
X0187005Y0096665D02*
X0188699Y0096665D01*
X0188699Y0096665D01*
X0187005Y0096665D01*
X0184893Y0095629D02*
X0174990Y0095629D01*
X0174990Y0094031D02*
X0183568Y0094031D01*
X0183000Y0092432D02*
X0174990Y0092432D01*
X0174990Y0090834D02*
X0183000Y0090834D01*
X0183595Y0089235D02*
X0174990Y0089235D01*
X0174990Y0087637D02*
X0184958Y0087637D01*
X0185491Y0086038D02*
X0175549Y0086038D01*
X0175549Y0084440D02*
X0183737Y0084440D01*
X0183075Y0082841D02*
X0175549Y0082841D01*
X0175719Y0081243D02*
X0183000Y0081243D01*
X0183425Y0079644D02*
X0176250Y0079644D01*
X0176700Y0078046D02*
X0184549Y0078046D01*
X0186478Y0076447D02*
X0177203Y0076447D01*
X0177203Y0074848D02*
X0184112Y0074848D01*
X0183244Y0073250D02*
X0177203Y0073250D01*
X0177203Y0071651D02*
X0183000Y0071651D01*
X0183256Y0070053D02*
X0177203Y0070053D01*
X0177203Y0068454D02*
X0184140Y0068454D01*
X0186546Y0066856D02*
X0177203Y0066856D01*
X0177203Y0065257D02*
X0184804Y0065257D01*
X0183629Y0063659D02*
X0177203Y0063659D01*
X0178762Y0062060D02*
X0183203Y0062060D01*
X0183344Y0060462D02*
X0180360Y0060462D01*
X0181959Y0058863D02*
X0184103Y0058863D01*
X0183557Y0057265D02*
X0186064Y0057265D01*
X0191200Y0061465D02*
X0191200Y0061865D01*
X0198800Y0061865D01*
X0198800Y0062043D01*
X0198682Y0062789D01*
X0198448Y0063508D01*
X0198105Y0064181D01*
X0197661Y0064792D01*
X0197127Y0065327D01*
X0196516Y0065771D01*
X0195843Y0066114D01*
X0195684Y0066165D01*
X0202093Y0066165D01*
X0202947Y0065312D01*
X0204417Y0064703D01*
X0209064Y0064703D01*
X0207898Y0064220D01*
X0200593Y0056915D01*
X0194693Y0056915D01*
X0195124Y0056984D01*
X0195843Y0057217D01*
X0196516Y0057560D01*
X0197127Y0058004D01*
X0197661Y0058538D01*
X0198105Y0059150D01*
X0198448Y0059823D01*
X0198682Y0060541D01*
X0198800Y0061288D01*
X0198800Y0061465D01*
X0191200Y0061465D01*
X0197196Y0065257D02*
X0203078Y0065257D01*
X0207337Y0063659D02*
X0198371Y0063659D01*
X0198797Y0062060D02*
X0205738Y0062060D01*
X0204140Y0060462D02*
X0198656Y0060462D01*
X0197897Y0058863D02*
X0202541Y0058863D01*
X0200943Y0057265D02*
X0195936Y0057265D01*
X0188699Y0076665D02*
X0187005Y0076665D01*
X0188699Y0076665D01*
X0188699Y0076665D01*
X0188699Y0086665D02*
X0187005Y0086665D01*
X0188699Y0086665D01*
X0188699Y0086665D01*
X0211117Y0100425D02*
X0211667Y0100425D01*
X0211667Y0102023D02*
X0210250Y0102023D01*
X0209893Y0103622D02*
X0211899Y0103622D01*
X0213450Y0105220D02*
X0208973Y0105220D01*
X0206681Y0106819D02*
X0213450Y0106819D01*
X0168843Y0116415D02*
X0167599Y0115171D01*
X0166990Y0113701D01*
X0166990Y0106417D01*
X0166855Y0106681D01*
X0166411Y0107292D01*
X0165877Y0107827D01*
X0165266Y0108271D01*
X0164593Y0108614D01*
X0163874Y0108847D01*
X0163128Y0108965D01*
X0159950Y0108965D01*
X0159950Y0104366D01*
X0159550Y0104366D01*
X0159550Y0108965D01*
X0156372Y0108965D01*
X0155626Y0108847D01*
X0154907Y0108614D01*
X0154234Y0108271D01*
X0153623Y0107827D01*
X0153089Y0107292D01*
X0152702Y0106761D01*
X0152558Y0106905D01*
X0152148Y0107142D01*
X0151690Y0107265D01*
X0148980Y0107265D01*
X0148980Y0103385D01*
X0148020Y0103385D01*
X0148020Y0107265D01*
X0145310Y0107265D01*
X0145000Y0107182D01*
X0145000Y0113058D01*
X0147015Y0116415D01*
X0168843Y0116415D01*
X0168837Y0116410D02*
X0147011Y0116410D01*
X0146052Y0114811D02*
X0167450Y0114811D01*
X0166990Y0113213D02*
X0145093Y0113213D01*
X0145000Y0111614D02*
X0166990Y0111614D01*
X0166990Y0110016D02*
X0145000Y0110016D01*
X0145000Y0108417D02*
X0154522Y0108417D01*
X0152745Y0106819D02*
X0152644Y0106819D01*
X0148980Y0106819D02*
X0148020Y0106819D01*
X0148020Y0105220D02*
X0148980Y0105220D01*
X0148980Y0103622D02*
X0148020Y0103622D01*
X0159550Y0105220D02*
X0159950Y0105220D01*
X0159950Y0106819D02*
X0159550Y0106819D01*
X0159550Y0108417D02*
X0159950Y0108417D01*
X0164978Y0108417D02*
X0166990Y0108417D01*
X0166990Y0106819D02*
X0166755Y0106819D01*
X0139568Y0132395D02*
X0137432Y0132395D01*
X0123318Y0132395D02*
X0104886Y0132395D01*
X0103750Y0130796D02*
X0267153Y0130796D01*
X0267153Y0143584D02*
X0249054Y0143584D01*
X0247455Y0145183D02*
X0267153Y0145183D01*
X0267153Y0146781D02*
X0175498Y0146781D01*
X0175498Y0148380D02*
X0267153Y0148380D01*
X0267153Y0149979D02*
X0175498Y0149979D01*
X0175498Y0151577D02*
X0181587Y0151577D01*
X0181500Y0153176D02*
X0175498Y0153176D01*
X0175498Y0154774D02*
X0181500Y0154774D01*
X0181500Y0156373D02*
X0175498Y0156373D01*
X0174521Y0157971D02*
X0181500Y0157971D01*
X0181500Y0159570D02*
X0107554Y0159570D01*
X0099750Y0157971D02*
X0149975Y0157971D01*
X0174753Y0135592D02*
X0181700Y0135592D01*
X0188631Y0133993D02*
X0190180Y0133993D01*
X0176028Y0033287D02*
X0175972Y0033287D01*
X0176780Y0031689D02*
X0177739Y0031689D01*
X0177739Y0030090D02*
X0176780Y0030090D01*
X0176780Y0028492D02*
X0177739Y0028492D01*
X0177739Y0026893D02*
X0176780Y0026893D01*
X0176780Y0025295D02*
X0177739Y0025295D01*
X0177739Y0023696D02*
X0176780Y0023696D01*
X0188861Y0023696D02*
X0195250Y0023696D01*
X0195250Y0025295D02*
X0189299Y0025295D01*
X0189375Y0026893D02*
X0195250Y0026893D01*
X0194767Y0028492D02*
X0190973Y0028492D01*
X0209250Y0028492D02*
X0212250Y0028492D01*
X0212250Y0030090D02*
X0210082Y0030090D01*
X0211680Y0031689D02*
X0212250Y0031689D01*
X0212250Y0026893D02*
X0209250Y0026893D01*
X0209250Y0025295D02*
X0212250Y0025295D01*
X0212250Y0023696D02*
X0209250Y0023696D01*
X0209250Y0022098D02*
X0212250Y0022098D01*
X0212250Y0020499D02*
X0158500Y0020499D01*
X0158500Y0018901D02*
X0212250Y0018901D01*
X0212250Y0017302D02*
X0158500Y0017302D01*
X0158500Y0015704D02*
X0212250Y0015704D01*
X0212250Y0014105D02*
X0158500Y0014105D01*
X0158500Y0012507D02*
X0212250Y0012507D01*
X0212250Y0010908D02*
X0158500Y0010908D01*
X0158500Y0009310D02*
X0212250Y0009310D01*
D32*
X0316000Y0032915D02*
X0316000Y0041665D01*
X0326000Y0041665D02*
X0326000Y0049165D01*
X0312250Y0070415D02*
X0308500Y0070415D01*
X0308500Y0071665D01*
X0150998Y0136665D02*
X0143500Y0136665D01*
X0133500Y0136665D02*
X0127250Y0136665D01*
M02*
