G75*
%MOIN*%
%OFA0B0*%
%FSLAX25Y25*%
%IPPOS*%
%LPD*%
%AMOC8*
5,1,8,0,0,1.08239X$1,22.5*
%
%ADD10C,0.00000*%
%ADD11C,0.00600*%
%ADD12C,0.00300*%
%ADD13C,0.00500*%
%ADD14R,0.03400X0.02400*%
%ADD15C,0.00800*%
%ADD16C,0.00400*%
%ADD17R,0.10000X0.02000*%
%ADD18R,0.02000X0.10000*%
%ADD19C,0.01000*%
D10*
X0041000Y0002915D02*
X0331000Y0002915D01*
X0371000Y0042915D01*
X0371000Y0132915D01*
X0331000Y0172915D01*
X0041000Y0172915D01*
X0001000Y0132915D01*
X0001000Y0042915D01*
X0041000Y0002915D01*
D11*
X0112550Y0041965D02*
X0112550Y0048371D01*
X0116820Y0048371D01*
X0118995Y0048371D02*
X0118995Y0043033D01*
X0120063Y0041965D01*
X0122198Y0041965D01*
X0123266Y0043033D01*
X0123266Y0048371D01*
X0125441Y0047303D02*
X0125441Y0046236D01*
X0126509Y0045168D01*
X0128644Y0045168D01*
X0129711Y0044101D01*
X0129711Y0043033D01*
X0128644Y0041965D01*
X0126509Y0041965D01*
X0125441Y0043033D01*
X0131886Y0041965D02*
X0136157Y0041965D01*
X0134022Y0045168D02*
X0131886Y0045168D01*
X0131886Y0048371D02*
X0131886Y0041965D01*
X0129711Y0047303D02*
X0128644Y0048371D01*
X0126509Y0048371D01*
X0125441Y0047303D01*
X0131886Y0048371D02*
X0136157Y0048371D01*
X0114685Y0045168D02*
X0112550Y0045168D01*
X0186000Y0059165D02*
X0186000Y0064165D01*
X0188500Y0066665D01*
X0186000Y0069165D01*
X0186000Y0074165D01*
X0188500Y0076665D01*
X0186000Y0079165D01*
X0186000Y0084165D01*
X0188500Y0086665D01*
X0186000Y0089165D01*
X0186000Y0094165D01*
X0188500Y0096665D01*
X0186000Y0099165D01*
X0186000Y0104165D01*
X0188500Y0106665D01*
X0193500Y0106665D01*
X0196000Y0104165D01*
X0196000Y0099165D01*
X0193500Y0096665D01*
X0196000Y0094165D01*
X0196000Y0089165D01*
X0193500Y0086665D01*
X0188500Y0086665D01*
X0193500Y0086665D02*
X0196000Y0084165D01*
X0196000Y0079165D01*
X0193500Y0076665D01*
X0196000Y0074165D01*
X0196000Y0069165D01*
X0193500Y0066665D01*
X0196000Y0064165D01*
X0196000Y0059165D01*
X0193500Y0056665D01*
X0188500Y0056665D01*
X0186000Y0059165D01*
X0200050Y0059283D02*
X0201118Y0058215D01*
X0203253Y0058215D01*
X0204320Y0059283D01*
X0204320Y0061418D01*
X0202185Y0061418D01*
X0200050Y0063553D02*
X0200050Y0059283D01*
X0200050Y0063553D02*
X0201118Y0064621D01*
X0203253Y0064621D01*
X0204320Y0063553D01*
X0205063Y0068215D02*
X0203995Y0069283D01*
X0203995Y0071418D01*
X0207198Y0071418D01*
X0208266Y0070351D01*
X0208266Y0069283D01*
X0207198Y0068215D01*
X0205063Y0068215D01*
X0201820Y0068215D02*
X0197550Y0068215D01*
X0199685Y0068215D02*
X0199685Y0074621D01*
X0197550Y0072486D01*
X0193500Y0076665D02*
X0188500Y0076665D01*
X0197550Y0078215D02*
X0201820Y0078215D01*
X0199685Y0078215D02*
X0199685Y0084621D01*
X0197550Y0082486D01*
X0203995Y0081418D02*
X0208266Y0081418D01*
X0207198Y0084621D02*
X0203995Y0081418D01*
X0207198Y0078215D02*
X0207198Y0084621D01*
X0208266Y0088215D02*
X0203995Y0088215D01*
X0208266Y0092486D01*
X0208266Y0093553D01*
X0207198Y0094621D01*
X0205063Y0094621D01*
X0203995Y0093553D01*
X0199685Y0094621D02*
X0199685Y0088215D01*
X0197550Y0088215D02*
X0201820Y0088215D01*
X0197550Y0092486D02*
X0199685Y0094621D01*
X0199685Y0098215D02*
X0199685Y0104621D01*
X0197550Y0102486D01*
X0197550Y0098215D02*
X0201820Y0098215D01*
X0203995Y0099283D02*
X0205063Y0098215D01*
X0207198Y0098215D01*
X0208266Y0099283D01*
X0208266Y0100351D01*
X0207198Y0101418D01*
X0206131Y0101418D01*
X0207198Y0101418D02*
X0208266Y0102486D01*
X0208266Y0103553D01*
X0207198Y0104621D01*
X0205063Y0104621D01*
X0203995Y0103553D01*
X0193500Y0096665D02*
X0188500Y0096665D01*
X0164750Y0096665D02*
X0164750Y0091665D01*
X0162250Y0089165D01*
X0157250Y0089165D01*
X0154750Y0091665D01*
X0154750Y0096665D01*
X0157250Y0099165D01*
X0154750Y0101665D01*
X0154750Y0106665D01*
X0157250Y0109165D01*
X0162250Y0109165D01*
X0164750Y0106665D01*
X0164750Y0101665D01*
X0162250Y0099165D01*
X0164750Y0096665D01*
X0162250Y0099165D02*
X0157250Y0099165D01*
X0203995Y0071418D02*
X0206131Y0073553D01*
X0208266Y0074621D01*
X0193500Y0066665D02*
X0188500Y0066665D01*
X0238250Y0117165D02*
X0251250Y0117165D01*
X0254250Y0120165D01*
X0254250Y0144665D01*
X0254248Y0144741D01*
X0254242Y0144817D01*
X0254233Y0144892D01*
X0254219Y0144967D01*
X0254202Y0145041D01*
X0254181Y0145114D01*
X0254157Y0145186D01*
X0254128Y0145257D01*
X0254097Y0145326D01*
X0254062Y0145393D01*
X0254023Y0145458D01*
X0253981Y0145522D01*
X0253936Y0145583D01*
X0253888Y0145642D01*
X0253837Y0145698D01*
X0253783Y0145752D01*
X0253727Y0145803D01*
X0253668Y0145851D01*
X0253607Y0145896D01*
X0253543Y0145938D01*
X0253478Y0145977D01*
X0253411Y0146012D01*
X0253342Y0146043D01*
X0253271Y0146072D01*
X0253199Y0146096D01*
X0253126Y0146117D01*
X0253052Y0146134D01*
X0252977Y0146148D01*
X0252902Y0146157D01*
X0252826Y0146163D01*
X0252750Y0146165D01*
X0236750Y0146165D01*
X0236674Y0146163D01*
X0236598Y0146157D01*
X0236523Y0146148D01*
X0236448Y0146134D01*
X0236374Y0146117D01*
X0236301Y0146096D01*
X0236229Y0146072D01*
X0236158Y0146043D01*
X0236089Y0146012D01*
X0236022Y0145977D01*
X0235957Y0145938D01*
X0235893Y0145896D01*
X0235832Y0145851D01*
X0235773Y0145803D01*
X0235717Y0145752D01*
X0235663Y0145698D01*
X0235612Y0145642D01*
X0235564Y0145583D01*
X0235519Y0145522D01*
X0235477Y0145458D01*
X0235438Y0145393D01*
X0235403Y0145326D01*
X0235372Y0145257D01*
X0235343Y0145186D01*
X0235319Y0145114D01*
X0235298Y0145041D01*
X0235281Y0144967D01*
X0235267Y0144892D01*
X0235258Y0144817D01*
X0235252Y0144741D01*
X0235250Y0144665D01*
X0235250Y0120165D01*
X0238250Y0117165D01*
X0239350Y0123365D02*
X0239350Y0125965D01*
X0238150Y0124665D02*
X0240650Y0124665D01*
X0244750Y0125665D02*
X0244750Y0129165D01*
X0239950Y0129165D01*
X0239950Y0131165D01*
X0249550Y0131165D01*
X0249550Y0129165D01*
X0244750Y0129165D01*
X0244750Y0134165D02*
X0244750Y0137665D01*
X0325250Y0103165D02*
X0325250Y0090165D01*
X0328250Y0087165D01*
X0352750Y0087165D01*
X0352826Y0087167D01*
X0352902Y0087173D01*
X0352977Y0087182D01*
X0353052Y0087196D01*
X0353126Y0087213D01*
X0353199Y0087234D01*
X0353271Y0087258D01*
X0353342Y0087287D01*
X0353411Y0087318D01*
X0353478Y0087353D01*
X0353543Y0087392D01*
X0353607Y0087434D01*
X0353668Y0087479D01*
X0353727Y0087527D01*
X0353783Y0087578D01*
X0353837Y0087632D01*
X0353888Y0087688D01*
X0353936Y0087747D01*
X0353981Y0087808D01*
X0354023Y0087872D01*
X0354062Y0087937D01*
X0354097Y0088004D01*
X0354128Y0088073D01*
X0354157Y0088144D01*
X0354181Y0088216D01*
X0354202Y0088289D01*
X0354219Y0088363D01*
X0354233Y0088438D01*
X0354242Y0088513D01*
X0354248Y0088589D01*
X0354250Y0088665D01*
X0354250Y0104665D01*
X0354248Y0104741D01*
X0354242Y0104817D01*
X0354233Y0104892D01*
X0354219Y0104967D01*
X0354202Y0105041D01*
X0354181Y0105114D01*
X0354157Y0105186D01*
X0354128Y0105257D01*
X0354097Y0105326D01*
X0354062Y0105393D01*
X0354023Y0105458D01*
X0353981Y0105522D01*
X0353936Y0105583D01*
X0353888Y0105642D01*
X0353837Y0105698D01*
X0353783Y0105752D01*
X0353727Y0105803D01*
X0353668Y0105851D01*
X0353607Y0105896D01*
X0353543Y0105938D01*
X0353478Y0105977D01*
X0353411Y0106012D01*
X0353342Y0106043D01*
X0353271Y0106072D01*
X0353199Y0106096D01*
X0353126Y0106117D01*
X0353052Y0106134D01*
X0352977Y0106148D01*
X0352902Y0106157D01*
X0352826Y0106163D01*
X0352750Y0106165D01*
X0328250Y0106165D01*
X0325250Y0103165D01*
X0331450Y0102065D02*
X0334050Y0102065D01*
X0332750Y0103265D02*
X0332750Y0100765D01*
X0337250Y0101465D02*
X0337250Y0096665D01*
X0337250Y0091865D01*
X0339250Y0091865D01*
X0339250Y0101465D01*
X0337250Y0101465D01*
X0337250Y0096665D02*
X0333750Y0096665D01*
X0342250Y0096665D02*
X0345750Y0096665D01*
X0358500Y0094165D02*
X0361000Y0091665D01*
X0366000Y0091665D01*
X0368500Y0094165D01*
X0368500Y0099165D01*
X0366000Y0101665D01*
X0361000Y0101665D01*
X0358500Y0099165D01*
X0358500Y0094165D01*
X0362550Y0088918D02*
X0366820Y0088918D01*
X0366000Y0101665D02*
X0368500Y0104165D01*
X0368500Y0109165D01*
X0366000Y0111665D01*
X0361000Y0111665D01*
X0358500Y0109165D01*
X0358500Y0104165D01*
X0361000Y0101665D01*
X0363435Y0114283D02*
X0363435Y0118553D01*
X0361300Y0116418D02*
X0365570Y0116418D01*
X0356000Y0119415D02*
X0356000Y0126415D01*
X0355998Y0126475D01*
X0355993Y0126536D01*
X0355984Y0126595D01*
X0355971Y0126654D01*
X0355955Y0126713D01*
X0355935Y0126770D01*
X0355912Y0126825D01*
X0355885Y0126880D01*
X0355856Y0126932D01*
X0355823Y0126983D01*
X0355787Y0127032D01*
X0355749Y0127078D01*
X0355707Y0127122D01*
X0355663Y0127164D01*
X0355617Y0127202D01*
X0355568Y0127238D01*
X0355517Y0127271D01*
X0355465Y0127300D01*
X0355410Y0127327D01*
X0355355Y0127350D01*
X0355298Y0127370D01*
X0355239Y0127386D01*
X0355180Y0127399D01*
X0355121Y0127408D01*
X0355060Y0127413D01*
X0355000Y0127415D01*
X0353500Y0127415D01*
X0353000Y0126915D01*
X0334000Y0126915D01*
X0333500Y0127415D01*
X0332000Y0127415D01*
X0331940Y0127413D01*
X0331879Y0127408D01*
X0331820Y0127399D01*
X0331761Y0127386D01*
X0331702Y0127370D01*
X0331645Y0127350D01*
X0331590Y0127327D01*
X0331535Y0127300D01*
X0331483Y0127271D01*
X0331432Y0127238D01*
X0331383Y0127202D01*
X0331337Y0127164D01*
X0331293Y0127122D01*
X0331251Y0127078D01*
X0331213Y0127032D01*
X0331177Y0126983D01*
X0331144Y0126932D01*
X0331115Y0126880D01*
X0331088Y0126825D01*
X0331065Y0126770D01*
X0331045Y0126713D01*
X0331029Y0126654D01*
X0331016Y0126595D01*
X0331007Y0126536D01*
X0331002Y0126475D01*
X0331000Y0126415D01*
X0331000Y0119415D01*
X0331002Y0119355D01*
X0331007Y0119294D01*
X0331016Y0119235D01*
X0331029Y0119176D01*
X0331045Y0119117D01*
X0331065Y0119060D01*
X0331088Y0119005D01*
X0331115Y0118950D01*
X0331144Y0118898D01*
X0331177Y0118847D01*
X0331213Y0118798D01*
X0331251Y0118752D01*
X0331293Y0118708D01*
X0331337Y0118666D01*
X0331383Y0118628D01*
X0331432Y0118592D01*
X0331483Y0118559D01*
X0331535Y0118530D01*
X0331590Y0118503D01*
X0331645Y0118480D01*
X0331702Y0118460D01*
X0331761Y0118444D01*
X0331820Y0118431D01*
X0331879Y0118422D01*
X0331940Y0118417D01*
X0332000Y0118415D01*
X0333500Y0118415D01*
X0334000Y0118915D01*
X0353000Y0118915D01*
X0353500Y0118415D01*
X0355000Y0118415D01*
X0355060Y0118417D01*
X0355121Y0118422D01*
X0355180Y0118431D01*
X0355239Y0118444D01*
X0355298Y0118460D01*
X0355355Y0118480D01*
X0355410Y0118503D01*
X0355465Y0118530D01*
X0355517Y0118559D01*
X0355568Y0118592D01*
X0355617Y0118628D01*
X0355663Y0118666D01*
X0355707Y0118708D01*
X0355749Y0118752D01*
X0355787Y0118798D01*
X0355823Y0118847D01*
X0355856Y0118898D01*
X0355885Y0118950D01*
X0355912Y0119005D01*
X0355935Y0119060D01*
X0355955Y0119117D01*
X0355971Y0119176D01*
X0355984Y0119235D01*
X0355993Y0119294D01*
X0355998Y0119355D01*
X0356000Y0119415D01*
X0324750Y0075415D02*
X0319750Y0075415D01*
X0317250Y0072915D01*
X0317250Y0067915D01*
X0319750Y0065415D01*
X0324750Y0065415D01*
X0327250Y0067915D01*
X0327250Y0072915D01*
X0324750Y0075415D01*
X0317250Y0072915D02*
X0314750Y0075415D01*
X0309750Y0075415D01*
X0307250Y0072915D01*
X0307250Y0067915D01*
X0309750Y0065415D01*
X0314750Y0065415D01*
X0317250Y0067915D01*
X0318500Y0046665D02*
X0313500Y0046665D01*
X0311000Y0044165D01*
X0308500Y0046665D01*
X0303500Y0046665D01*
X0301000Y0044165D01*
X0301000Y0039165D01*
X0303500Y0036665D01*
X0308500Y0036665D01*
X0311000Y0039165D01*
X0311000Y0044165D01*
X0318500Y0046665D02*
X0321000Y0044165D01*
X0323500Y0046665D01*
X0328500Y0046665D01*
X0331000Y0044165D01*
X0333500Y0046665D01*
X0338500Y0046665D01*
X0341000Y0044165D01*
X0343500Y0046665D01*
X0348500Y0046665D01*
X0351000Y0044165D01*
X0353500Y0046665D01*
X0358500Y0046665D01*
X0361000Y0044165D01*
X0361000Y0039165D01*
X0358500Y0036665D01*
X0353500Y0036665D01*
X0351000Y0039165D01*
X0348500Y0036665D01*
X0343500Y0036665D01*
X0341000Y0039165D01*
X0341000Y0044165D01*
X0341000Y0039165D02*
X0338500Y0036665D01*
X0333500Y0036665D01*
X0331000Y0039165D01*
X0328500Y0036665D01*
X0323500Y0036665D01*
X0321000Y0039165D01*
X0318500Y0036665D01*
X0313500Y0036665D01*
X0311000Y0039165D01*
X0321000Y0039165D02*
X0321000Y0044165D01*
X0331000Y0044165D02*
X0331000Y0039165D01*
X0351000Y0039165D02*
X0351000Y0044165D01*
X0138500Y0130665D02*
X0138348Y0130667D01*
X0138197Y0130673D01*
X0138046Y0130682D01*
X0137894Y0130696D01*
X0137744Y0130713D01*
X0137594Y0130734D01*
X0137444Y0130759D01*
X0137295Y0130787D01*
X0137147Y0130820D01*
X0137000Y0130856D01*
X0136853Y0130895D01*
X0136708Y0130939D01*
X0136564Y0130986D01*
X0136421Y0131037D01*
X0136280Y0131091D01*
X0136139Y0131149D01*
X0136001Y0131210D01*
X0135864Y0131275D01*
X0135728Y0131344D01*
X0135595Y0131415D01*
X0135463Y0131490D01*
X0135333Y0131569D01*
X0135206Y0131650D01*
X0135080Y0131735D01*
X0134956Y0131823D01*
X0134835Y0131914D01*
X0134716Y0132008D01*
X0134600Y0132106D01*
X0134486Y0132206D01*
X0134374Y0132308D01*
X0134266Y0132414D01*
X0134160Y0132522D01*
X0134056Y0132633D01*
X0133956Y0132747D01*
X0133858Y0132863D01*
X0133764Y0132982D01*
X0138500Y0142665D02*
X0138654Y0142663D01*
X0138808Y0142657D01*
X0138962Y0142647D01*
X0139116Y0142633D01*
X0139269Y0142616D01*
X0139421Y0142594D01*
X0139573Y0142568D01*
X0139725Y0142539D01*
X0139875Y0142505D01*
X0140025Y0142468D01*
X0140173Y0142427D01*
X0140321Y0142382D01*
X0140467Y0142333D01*
X0140612Y0142281D01*
X0140755Y0142225D01*
X0140898Y0142165D01*
X0141038Y0142102D01*
X0141177Y0142035D01*
X0141314Y0141964D01*
X0141449Y0141890D01*
X0141582Y0141813D01*
X0141714Y0141732D01*
X0141843Y0141648D01*
X0141970Y0141560D01*
X0142094Y0141469D01*
X0142216Y0141376D01*
X0142336Y0141278D01*
X0142453Y0141178D01*
X0142568Y0141075D01*
X0142680Y0140969D01*
X0142789Y0140861D01*
X0142895Y0140749D01*
X0142999Y0140635D01*
X0143099Y0140518D01*
X0143197Y0140399D01*
X0143291Y0140277D01*
X0143382Y0140152D01*
X0138500Y0142665D02*
X0138350Y0142663D01*
X0138199Y0142657D01*
X0138049Y0142648D01*
X0137900Y0142635D01*
X0137750Y0142618D01*
X0137601Y0142597D01*
X0137453Y0142573D01*
X0137305Y0142545D01*
X0137158Y0142513D01*
X0137012Y0142478D01*
X0136867Y0142438D01*
X0136723Y0142396D01*
X0136580Y0142349D01*
X0136438Y0142299D01*
X0136297Y0142246D01*
X0136158Y0142189D01*
X0136020Y0142129D01*
X0135884Y0142065D01*
X0135750Y0141998D01*
X0135617Y0141927D01*
X0135486Y0141853D01*
X0135357Y0141776D01*
X0135230Y0141695D01*
X0135105Y0141612D01*
X0134982Y0141525D01*
X0134861Y0141436D01*
X0134743Y0141343D01*
X0134627Y0141247D01*
X0134513Y0141149D01*
X0134402Y0141048D01*
X0134293Y0140943D01*
X0134188Y0140837D01*
X0134084Y0140727D01*
X0133984Y0140615D01*
X0133886Y0140501D01*
X0133792Y0140384D01*
X0133700Y0140265D01*
X0138500Y0130665D02*
X0138652Y0130667D01*
X0138803Y0130673D01*
X0138954Y0130682D01*
X0139106Y0130696D01*
X0139256Y0130713D01*
X0139406Y0130734D01*
X0139556Y0130759D01*
X0139705Y0130787D01*
X0139853Y0130820D01*
X0140000Y0130856D01*
X0140147Y0130895D01*
X0140292Y0130939D01*
X0140436Y0130986D01*
X0140579Y0131037D01*
X0140720Y0131091D01*
X0140861Y0131149D01*
X0140999Y0131210D01*
X0141136Y0131275D01*
X0141272Y0131344D01*
X0141405Y0131415D01*
X0141537Y0131490D01*
X0141667Y0131569D01*
X0141794Y0131650D01*
X0141920Y0131735D01*
X0142044Y0131823D01*
X0142165Y0131914D01*
X0142284Y0132008D01*
X0142400Y0132106D01*
X0142514Y0132206D01*
X0142626Y0132308D01*
X0142734Y0132414D01*
X0142840Y0132522D01*
X0142944Y0132633D01*
X0143044Y0132747D01*
X0143142Y0132863D01*
X0143236Y0132982D01*
D12*
X0095850Y0115298D02*
X0095233Y0115915D01*
X0094616Y0115915D01*
X0093998Y0115298D01*
X0093998Y0113446D01*
X0095233Y0113446D01*
X0095850Y0114064D01*
X0095850Y0115298D01*
X0093998Y0113446D02*
X0092764Y0114681D01*
X0092147Y0115915D01*
X0092147Y0112232D02*
X0092764Y0112232D01*
X0095233Y0109763D01*
X0095850Y0109763D01*
X0095850Y0108549D02*
X0095850Y0106080D01*
X0093381Y0108549D01*
X0092764Y0108549D01*
X0092147Y0107932D01*
X0092147Y0106697D01*
X0092764Y0106080D01*
X0092764Y0104866D02*
X0092147Y0104248D01*
X0092147Y0103014D01*
X0092764Y0102397D01*
X0093998Y0101183D02*
X0093998Y0098714D01*
X0093381Y0097499D02*
X0092764Y0097499D01*
X0092147Y0096882D01*
X0092147Y0095648D01*
X0092764Y0095031D01*
X0093998Y0096265D02*
X0093998Y0096882D01*
X0094616Y0097499D01*
X0095233Y0097499D01*
X0095850Y0096882D01*
X0095850Y0095648D01*
X0095233Y0095031D01*
X0095850Y0093816D02*
X0095850Y0091347D01*
X0095850Y0092582D02*
X0092147Y0092582D01*
X0093381Y0091347D01*
X0092147Y0090133D02*
X0092764Y0088899D01*
X0093998Y0087664D01*
X0093998Y0089516D01*
X0094616Y0090133D01*
X0095233Y0090133D01*
X0095850Y0089516D01*
X0095850Y0088282D01*
X0095233Y0087664D01*
X0093998Y0087664D01*
X0092764Y0082767D02*
X0092147Y0082767D01*
X0092764Y0082767D02*
X0093998Y0081532D01*
X0095850Y0081532D01*
X0093998Y0081532D02*
X0092764Y0080298D01*
X0092147Y0080298D01*
X0093381Y0079084D02*
X0092147Y0077849D01*
X0093381Y0076615D01*
X0095850Y0076615D01*
X0095850Y0075401D02*
X0095850Y0072932D01*
X0092147Y0072932D01*
X0092147Y0071717D02*
X0092147Y0069249D01*
X0095850Y0069249D01*
X0095850Y0071717D01*
X0093998Y0070483D02*
X0093998Y0069249D01*
X0093998Y0068034D02*
X0092764Y0068034D01*
X0092147Y0067417D01*
X0092147Y0065565D01*
X0095850Y0065565D01*
X0094616Y0065565D02*
X0094616Y0067417D01*
X0093998Y0068034D01*
X0094616Y0066800D02*
X0095850Y0068034D01*
X0093998Y0076615D02*
X0093998Y0079084D01*
X0093381Y0079084D02*
X0095850Y0079084D01*
X0093998Y0096882D02*
X0093381Y0097499D01*
X0095850Y0102397D02*
X0093381Y0104866D01*
X0092764Y0104866D01*
X0095850Y0104866D02*
X0095850Y0102397D01*
X0092147Y0109763D02*
X0092147Y0112232D01*
X0050930Y0095667D02*
X0050930Y0093815D01*
X0050930Y0095667D02*
X0050313Y0096284D01*
X0048462Y0096284D01*
X0048462Y0093815D01*
X0047247Y0094433D02*
X0046630Y0093815D01*
X0045396Y0093815D01*
X0044778Y0094433D01*
X0044778Y0095667D01*
X0045396Y0096284D01*
X0046630Y0096284D01*
X0047247Y0095667D01*
X0047247Y0094433D01*
X0043557Y0093815D02*
X0042323Y0093815D01*
X0042940Y0093815D02*
X0042940Y0096284D01*
X0042323Y0096284D01*
X0041102Y0096284D02*
X0039868Y0096284D01*
X0040485Y0096901D02*
X0040485Y0094433D01*
X0041102Y0093815D01*
X0038653Y0093815D02*
X0036802Y0093815D01*
X0036184Y0094433D01*
X0036184Y0095667D01*
X0036802Y0096284D01*
X0038653Y0096284D01*
X0034970Y0095667D02*
X0034970Y0095050D01*
X0032501Y0095050D01*
X0032501Y0095667D02*
X0033118Y0096284D01*
X0034353Y0096284D01*
X0034970Y0095667D01*
X0034353Y0093815D02*
X0033118Y0093815D01*
X0032501Y0094433D01*
X0032501Y0095667D01*
X0031287Y0095667D02*
X0031287Y0093815D01*
X0031287Y0095667D02*
X0030670Y0096284D01*
X0028818Y0096284D01*
X0028818Y0093815D01*
X0027604Y0093815D02*
X0027604Y0095667D01*
X0026987Y0096284D01*
X0025135Y0096284D01*
X0025135Y0093815D01*
X0023921Y0094433D02*
X0023303Y0093815D01*
X0022069Y0093815D01*
X0021452Y0094433D01*
X0021452Y0095667D01*
X0022069Y0096284D01*
X0023303Y0096284D01*
X0023921Y0095667D01*
X0023921Y0094433D01*
X0020237Y0093815D02*
X0018386Y0093815D01*
X0017769Y0094433D01*
X0017769Y0095667D01*
X0018386Y0096284D01*
X0020237Y0096284D01*
X0012868Y0096284D02*
X0012251Y0096284D01*
X0011016Y0095050D01*
X0011016Y0096284D02*
X0011016Y0093815D01*
X0009802Y0094433D02*
X0009185Y0093815D01*
X0007950Y0093815D01*
X0007333Y0094433D01*
X0007333Y0095667D01*
X0007950Y0096284D01*
X0009185Y0096284D01*
X0009802Y0095667D01*
X0009802Y0094433D01*
X0006119Y0097519D02*
X0003650Y0097519D01*
X0003650Y0093815D01*
X0003650Y0095667D02*
X0004884Y0095667D01*
X0011633Y0090901D02*
X0011633Y0088433D01*
X0012251Y0087815D01*
X0013472Y0087815D02*
X0014706Y0087815D01*
X0014089Y0087815D02*
X0014089Y0090284D01*
X0013472Y0090284D01*
X0012251Y0090284D02*
X0011016Y0090284D01*
X0009802Y0089667D02*
X0009802Y0088433D01*
X0009185Y0087815D01*
X0007333Y0087815D01*
X0007333Y0086581D02*
X0007333Y0090284D01*
X0009185Y0090284D01*
X0009802Y0089667D01*
X0006119Y0089667D02*
X0006119Y0088433D01*
X0005502Y0087815D01*
X0004267Y0087815D01*
X0003650Y0088433D01*
X0003650Y0089667D01*
X0004267Y0090284D01*
X0005502Y0090284D01*
X0006119Y0089667D01*
X0014089Y0091519D02*
X0014089Y0092136D01*
X0016544Y0090284D02*
X0015927Y0089667D01*
X0015927Y0088433D01*
X0016544Y0087815D01*
X0017779Y0087815D01*
X0018396Y0088433D01*
X0018396Y0089667D01*
X0017779Y0090284D01*
X0016544Y0090284D01*
X0019610Y0090284D02*
X0019610Y0087815D01*
X0022079Y0087815D02*
X0022079Y0089667D01*
X0021462Y0090284D01*
X0019610Y0090284D01*
X0023293Y0089667D02*
X0023911Y0089050D01*
X0025145Y0089050D01*
X0025762Y0088433D01*
X0025145Y0087815D01*
X0023293Y0087815D01*
X0023293Y0089667D02*
X0023911Y0090284D01*
X0025762Y0090284D01*
X0030660Y0089667D02*
X0031277Y0089050D01*
X0032511Y0089050D01*
X0033128Y0088433D01*
X0032511Y0087815D01*
X0030660Y0087815D01*
X0030660Y0089667D02*
X0031277Y0090284D01*
X0033128Y0090284D01*
X0034343Y0089667D02*
X0034343Y0088433D01*
X0034960Y0087815D01*
X0036194Y0087815D01*
X0036812Y0089050D02*
X0034343Y0089050D01*
X0034343Y0089667D02*
X0034960Y0090284D01*
X0036194Y0090284D01*
X0036812Y0089667D01*
X0036812Y0089050D01*
X0038026Y0089050D02*
X0040495Y0089050D01*
X0040495Y0089667D01*
X0039878Y0090284D01*
X0038643Y0090284D01*
X0038026Y0089667D01*
X0038026Y0088433D01*
X0038643Y0087815D01*
X0039878Y0087815D01*
X0038643Y0086136D02*
X0038643Y0085519D01*
X0038643Y0084284D02*
X0038643Y0081815D01*
X0038026Y0081815D02*
X0039260Y0081815D01*
X0040481Y0082433D02*
X0041099Y0081815D01*
X0042333Y0081815D01*
X0042950Y0082433D01*
X0042950Y0083667D01*
X0042333Y0084284D01*
X0041099Y0084284D01*
X0040481Y0083667D01*
X0040481Y0082433D01*
X0038643Y0084284D02*
X0038026Y0084284D01*
X0036805Y0084284D02*
X0035571Y0084284D01*
X0036188Y0084901D02*
X0036188Y0082433D01*
X0036805Y0081815D01*
X0034356Y0081815D02*
X0032505Y0081815D01*
X0031887Y0082433D01*
X0032505Y0083050D01*
X0034356Y0083050D01*
X0034356Y0083667D02*
X0034356Y0081815D01*
X0034356Y0083667D02*
X0033739Y0084284D01*
X0032505Y0084284D01*
X0030666Y0084284D02*
X0029432Y0084284D01*
X0030049Y0084901D02*
X0030049Y0082433D01*
X0030666Y0081815D01*
X0028218Y0081815D02*
X0028218Y0083667D01*
X0027600Y0084284D01*
X0025749Y0084284D01*
X0025749Y0081815D01*
X0024534Y0083050D02*
X0022066Y0083050D01*
X0022066Y0083667D02*
X0022683Y0084284D01*
X0023917Y0084284D01*
X0024534Y0083667D01*
X0024534Y0083050D01*
X0023917Y0081815D02*
X0022683Y0081815D01*
X0022066Y0082433D01*
X0022066Y0083667D01*
X0020851Y0083667D02*
X0020851Y0081815D01*
X0019617Y0081815D02*
X0019617Y0083667D01*
X0020234Y0084284D01*
X0020851Y0083667D01*
X0019617Y0083667D02*
X0019000Y0084284D01*
X0018383Y0084284D01*
X0018383Y0081815D01*
X0017168Y0081815D02*
X0017168Y0084284D01*
X0014699Y0084284D02*
X0014699Y0082433D01*
X0015317Y0081815D01*
X0017168Y0081815D01*
X0013485Y0081815D02*
X0011633Y0081815D01*
X0011016Y0082433D01*
X0011016Y0083667D01*
X0011633Y0084284D01*
X0013485Y0084284D01*
X0009802Y0083667D02*
X0009185Y0084284D01*
X0007950Y0084284D01*
X0007333Y0083667D01*
X0007333Y0082433D01*
X0007950Y0081815D01*
X0009185Y0081815D01*
X0009802Y0082433D01*
X0009802Y0083667D01*
X0006119Y0084284D02*
X0004267Y0084284D01*
X0003650Y0083667D01*
X0003650Y0082433D01*
X0004267Y0081815D01*
X0006119Y0081815D01*
X0006119Y0085519D01*
X0044165Y0084284D02*
X0044165Y0081815D01*
X0046633Y0081815D02*
X0046633Y0083667D01*
X0046016Y0084284D01*
X0044165Y0084284D01*
X0047848Y0082433D02*
X0048465Y0082433D01*
X0048465Y0081815D01*
X0047848Y0081815D01*
X0047848Y0082433D01*
X0042940Y0097519D02*
X0042940Y0098136D01*
D13*
X0059750Y0135415D02*
X0059750Y0045415D01*
X0089750Y0045415D01*
X0089750Y0135415D01*
X0059750Y0135415D01*
X0129700Y0114869D02*
X0132703Y0114869D01*
X0131201Y0114869D02*
X0131201Y0110365D01*
X0134304Y0110365D02*
X0134304Y0114869D01*
X0134304Y0112617D02*
X0137306Y0112617D01*
X0138908Y0112617D02*
X0140409Y0112617D01*
X0138908Y0110365D02*
X0141910Y0110365D01*
X0143512Y0110365D02*
X0143512Y0114869D01*
X0145764Y0114869D01*
X0146514Y0114119D01*
X0146514Y0112617D01*
X0145764Y0111867D01*
X0143512Y0111867D01*
X0145013Y0111867D02*
X0146514Y0110365D01*
X0148116Y0110365D02*
X0148116Y0114869D01*
X0149617Y0113368D01*
X0151118Y0114869D01*
X0151118Y0110365D01*
X0152720Y0110365D02*
X0154221Y0110365D01*
X0153470Y0110365D02*
X0153470Y0114869D01*
X0152720Y0114869D02*
X0154221Y0114869D01*
X0155789Y0114119D02*
X0155789Y0113368D01*
X0156540Y0112617D01*
X0158041Y0112617D01*
X0158791Y0111867D01*
X0158791Y0111116D01*
X0158041Y0110365D01*
X0156540Y0110365D01*
X0155789Y0111116D01*
X0155789Y0114119D02*
X0156540Y0114869D01*
X0158041Y0114869D01*
X0158791Y0114119D01*
X0160393Y0114869D02*
X0163395Y0114869D01*
X0161894Y0114869D02*
X0161894Y0110365D01*
X0164997Y0111116D02*
X0165747Y0110365D01*
X0167249Y0110365D01*
X0167999Y0111116D01*
X0167999Y0114119D01*
X0167249Y0114869D01*
X0165747Y0114869D01*
X0164997Y0114119D01*
X0164997Y0111116D01*
X0169601Y0110365D02*
X0169601Y0114869D01*
X0171853Y0114869D01*
X0172603Y0114119D01*
X0172603Y0112617D01*
X0171853Y0111867D01*
X0169601Y0111867D01*
X0171102Y0111867D02*
X0172603Y0110365D01*
X0148064Y0122165D02*
X0145062Y0122165D01*
X0146563Y0122165D02*
X0146563Y0126669D01*
X0145062Y0125168D01*
X0143460Y0125919D02*
X0143460Y0122916D01*
X0142710Y0122165D01*
X0140458Y0122165D01*
X0140458Y0126669D01*
X0142710Y0126669D01*
X0143460Y0125919D01*
X0138856Y0126669D02*
X0135854Y0126669D01*
X0135854Y0122165D01*
X0138856Y0122165D01*
X0134253Y0122165D02*
X0131250Y0122165D01*
X0131250Y0126669D01*
X0135854Y0124417D02*
X0137355Y0124417D01*
X0137306Y0114869D02*
X0137306Y0110365D01*
X0138908Y0110365D02*
X0138908Y0114869D01*
X0141910Y0114869D01*
X0179696Y0088613D02*
X0180447Y0089364D01*
X0183449Y0089364D01*
X0184200Y0088613D01*
X0184200Y0087112D01*
X0183449Y0086362D01*
X0180447Y0086362D01*
X0179696Y0087112D01*
X0179696Y0088613D01*
X0179696Y0084794D02*
X0179696Y0083292D01*
X0179696Y0084043D02*
X0184200Y0084043D01*
X0184200Y0083292D02*
X0184200Y0084794D01*
X0181948Y0081691D02*
X0182699Y0080940D01*
X0182699Y0078688D01*
X0184200Y0078688D02*
X0179696Y0078688D01*
X0179696Y0080940D01*
X0180447Y0081691D01*
X0181948Y0081691D01*
X0181948Y0077087D02*
X0181948Y0075586D01*
X0181948Y0077087D02*
X0183449Y0077087D01*
X0184200Y0076336D01*
X0184200Y0074835D01*
X0183449Y0074084D01*
X0180447Y0074084D01*
X0179696Y0074835D01*
X0179696Y0076336D01*
X0180447Y0077087D01*
X0131807Y0040632D02*
X0045193Y0040632D01*
X0045193Y0005199D01*
X0131807Y0005199D01*
X0131807Y0040632D01*
X0192831Y0016665D02*
X0192833Y0016777D01*
X0192839Y0016890D01*
X0192849Y0017002D01*
X0192863Y0017113D01*
X0192881Y0017225D01*
X0192903Y0017335D01*
X0192928Y0017444D01*
X0192958Y0017553D01*
X0192991Y0017660D01*
X0193029Y0017766D01*
X0193070Y0017871D01*
X0193114Y0017974D01*
X0193162Y0018076D01*
X0193214Y0018176D01*
X0193270Y0018274D01*
X0193329Y0018370D01*
X0193391Y0018463D01*
X0193456Y0018555D01*
X0193525Y0018644D01*
X0193597Y0018731D01*
X0193672Y0018815D01*
X0193749Y0018896D01*
X0193830Y0018974D01*
X0193913Y0019050D01*
X0193999Y0019122D01*
X0194088Y0019192D01*
X0194178Y0019258D01*
X0194272Y0019321D01*
X0194367Y0019381D01*
X0194464Y0019437D01*
X0194564Y0019490D01*
X0194665Y0019539D01*
X0194768Y0019585D01*
X0194872Y0019627D01*
X0194978Y0019665D01*
X0195085Y0019699D01*
X0195193Y0019730D01*
X0195303Y0019756D01*
X0195413Y0019779D01*
X0195524Y0019798D01*
X0195635Y0019813D01*
X0195747Y0019824D01*
X0195859Y0019831D01*
X0195972Y0019834D01*
X0196084Y0019833D01*
X0196197Y0019828D01*
X0196309Y0019819D01*
X0196421Y0019806D01*
X0196532Y0019789D01*
X0196642Y0019768D01*
X0196752Y0019743D01*
X0196861Y0019715D01*
X0196969Y0019682D01*
X0197075Y0019646D01*
X0197180Y0019606D01*
X0197284Y0019562D01*
X0197386Y0019515D01*
X0197486Y0019464D01*
X0197584Y0019409D01*
X0197681Y0019351D01*
X0197775Y0019290D01*
X0197867Y0019225D01*
X0197957Y0019158D01*
X0198044Y0019087D01*
X0198129Y0019012D01*
X0198211Y0018935D01*
X0198290Y0018856D01*
X0198366Y0018773D01*
X0198440Y0018688D01*
X0198510Y0018600D01*
X0198577Y0018509D01*
X0198641Y0018417D01*
X0198701Y0018322D01*
X0198758Y0018225D01*
X0198812Y0018126D01*
X0198862Y0018025D01*
X0198909Y0017923D01*
X0198951Y0017819D01*
X0198991Y0017714D01*
X0199026Y0017607D01*
X0199057Y0017499D01*
X0199085Y0017390D01*
X0199109Y0017280D01*
X0199129Y0017169D01*
X0199145Y0017058D01*
X0199157Y0016946D01*
X0199165Y0016834D01*
X0199169Y0016721D01*
X0199169Y0016609D01*
X0199165Y0016496D01*
X0199157Y0016384D01*
X0199145Y0016272D01*
X0199129Y0016161D01*
X0199109Y0016050D01*
X0199085Y0015940D01*
X0199057Y0015831D01*
X0199026Y0015723D01*
X0198991Y0015616D01*
X0198951Y0015511D01*
X0198909Y0015407D01*
X0198862Y0015305D01*
X0198812Y0015204D01*
X0198758Y0015105D01*
X0198701Y0015008D01*
X0198641Y0014913D01*
X0198577Y0014821D01*
X0198510Y0014730D01*
X0198440Y0014642D01*
X0198366Y0014557D01*
X0198290Y0014474D01*
X0198211Y0014395D01*
X0198129Y0014318D01*
X0198044Y0014243D01*
X0197957Y0014172D01*
X0197867Y0014105D01*
X0197775Y0014040D01*
X0197681Y0013979D01*
X0197585Y0013921D01*
X0197486Y0013866D01*
X0197386Y0013815D01*
X0197284Y0013768D01*
X0197180Y0013724D01*
X0197075Y0013684D01*
X0196969Y0013648D01*
X0196861Y0013615D01*
X0196752Y0013587D01*
X0196642Y0013562D01*
X0196532Y0013541D01*
X0196421Y0013524D01*
X0196309Y0013511D01*
X0196197Y0013502D01*
X0196084Y0013497D01*
X0195972Y0013496D01*
X0195859Y0013499D01*
X0195747Y0013506D01*
X0195635Y0013517D01*
X0195524Y0013532D01*
X0195413Y0013551D01*
X0195303Y0013574D01*
X0195193Y0013600D01*
X0195085Y0013631D01*
X0194978Y0013665D01*
X0194872Y0013703D01*
X0194768Y0013745D01*
X0194665Y0013791D01*
X0194564Y0013840D01*
X0194464Y0013893D01*
X0194367Y0013949D01*
X0194272Y0014009D01*
X0194178Y0014072D01*
X0194088Y0014138D01*
X0193999Y0014208D01*
X0193913Y0014280D01*
X0193830Y0014356D01*
X0193749Y0014434D01*
X0193672Y0014515D01*
X0193597Y0014599D01*
X0193525Y0014686D01*
X0193456Y0014775D01*
X0193391Y0014867D01*
X0193329Y0014960D01*
X0193270Y0015056D01*
X0193214Y0015154D01*
X0193162Y0015254D01*
X0193114Y0015356D01*
X0193070Y0015459D01*
X0193029Y0015564D01*
X0192991Y0015670D01*
X0192958Y0015777D01*
X0192928Y0015886D01*
X0192903Y0015995D01*
X0192881Y0016105D01*
X0192863Y0016217D01*
X0192849Y0016328D01*
X0192839Y0016440D01*
X0192833Y0016553D01*
X0192831Y0016665D01*
X0206598Y0016788D02*
X0206598Y0015520D01*
X0208500Y0015520D01*
X0208500Y0016788D01*
X0207549Y0016154D02*
X0207549Y0015520D01*
X0207866Y0014578D02*
X0208183Y0014578D01*
X0208500Y0014261D01*
X0208500Y0013627D01*
X0208183Y0013311D01*
X0207549Y0013627D02*
X0207549Y0014261D01*
X0207866Y0014578D01*
X0206915Y0014578D02*
X0206598Y0014261D01*
X0206598Y0013627D01*
X0206915Y0013311D01*
X0207232Y0013311D01*
X0207549Y0013627D01*
X0206598Y0012368D02*
X0206598Y0011101D01*
X0208500Y0011101D01*
X0208500Y0012368D01*
X0207549Y0011735D02*
X0207549Y0011101D01*
X0207549Y0010159D02*
X0207866Y0009842D01*
X0207866Y0008891D01*
X0207866Y0009525D02*
X0208500Y0010159D01*
X0207549Y0010159D02*
X0206915Y0010159D01*
X0206598Y0009842D01*
X0206598Y0008891D01*
X0208500Y0008891D01*
X0206598Y0017730D02*
X0206598Y0018998D01*
X0206598Y0018364D02*
X0208500Y0018364D01*
X0298072Y0027966D02*
X0298823Y0027215D01*
X0300324Y0027215D01*
X0301075Y0027966D01*
X0301075Y0031719D01*
X0302676Y0030969D02*
X0302676Y0030218D01*
X0303427Y0029467D01*
X0304928Y0029467D01*
X0305679Y0028717D01*
X0305679Y0027966D01*
X0304928Y0027215D01*
X0303427Y0027215D01*
X0302676Y0027966D01*
X0302676Y0030969D02*
X0303427Y0031719D01*
X0304928Y0031719D01*
X0305679Y0030969D01*
X0307280Y0031719D02*
X0309532Y0031719D01*
X0310283Y0030969D01*
X0310283Y0030218D01*
X0309532Y0029467D01*
X0307280Y0029467D01*
X0307280Y0027215D02*
X0309532Y0027215D01*
X0310283Y0027966D01*
X0310283Y0028717D01*
X0309532Y0029467D01*
X0311884Y0029467D02*
X0314887Y0029467D01*
X0316488Y0027966D02*
X0317239Y0027215D01*
X0318740Y0027215D01*
X0319491Y0027966D01*
X0319491Y0028717D01*
X0318740Y0029467D01*
X0317989Y0029467D01*
X0318740Y0029467D02*
X0319491Y0030218D01*
X0319491Y0030969D01*
X0318740Y0031719D01*
X0317239Y0031719D01*
X0316488Y0030969D01*
X0321092Y0031719D02*
X0321092Y0028717D01*
X0322593Y0027215D01*
X0324095Y0028717D01*
X0324095Y0031719D01*
X0325696Y0030969D02*
X0326447Y0031719D01*
X0327948Y0031719D01*
X0328699Y0030969D01*
X0328699Y0030218D01*
X0327948Y0029467D01*
X0328699Y0028717D01*
X0328699Y0027966D01*
X0327948Y0027215D01*
X0326447Y0027215D01*
X0325696Y0027966D01*
X0327197Y0029467D02*
X0327948Y0029467D01*
X0307280Y0027215D02*
X0307280Y0031719D01*
X0298072Y0031719D02*
X0298072Y0027966D01*
X0307200Y0057865D02*
X0307200Y0062369D01*
X0309452Y0062369D01*
X0310203Y0061619D01*
X0310203Y0060117D01*
X0309452Y0059367D01*
X0307200Y0059367D01*
X0311804Y0059367D02*
X0314056Y0059367D01*
X0314806Y0060117D01*
X0314806Y0061619D01*
X0314056Y0062369D01*
X0311804Y0062369D01*
X0311804Y0057865D01*
X0313305Y0059367D02*
X0314806Y0057865D01*
X0316408Y0058616D02*
X0317158Y0057865D01*
X0318660Y0057865D01*
X0319410Y0058616D01*
X0319410Y0061619D01*
X0318660Y0062369D01*
X0317158Y0062369D01*
X0316408Y0061619D01*
X0316408Y0058616D01*
X0321012Y0058616D02*
X0321012Y0061619D01*
X0321762Y0062369D01*
X0323264Y0062369D01*
X0324014Y0061619D01*
X0324014Y0060117D02*
X0322513Y0060117D01*
X0324014Y0060117D02*
X0324014Y0058616D01*
X0323264Y0057865D01*
X0321762Y0057865D01*
X0321012Y0058616D01*
X0362196Y0061378D02*
X0363697Y0059877D01*
X0362196Y0061378D02*
X0366700Y0061378D01*
X0366700Y0059877D02*
X0366700Y0062879D01*
X0366700Y0064480D02*
X0363697Y0067483D01*
X0362947Y0067483D01*
X0362196Y0066732D01*
X0362196Y0065231D01*
X0362947Y0064480D01*
X0366700Y0064480D02*
X0366700Y0067483D01*
X0365199Y0069084D02*
X0366700Y0070586D01*
X0365199Y0072087D01*
X0362196Y0072087D01*
X0364448Y0073688D02*
X0364448Y0076691D01*
X0362196Y0078292D02*
X0362196Y0079793D01*
X0362196Y0079043D02*
X0366700Y0079043D01*
X0366700Y0079793D02*
X0366700Y0078292D01*
X0366700Y0081361D02*
X0362196Y0081361D01*
X0366700Y0084364D01*
X0362196Y0084364D01*
X0346106Y0081665D02*
X0343104Y0081665D01*
X0344605Y0081665D02*
X0344605Y0086169D01*
X0343104Y0084668D01*
X0341503Y0085419D02*
X0340752Y0086169D01*
X0339251Y0086169D01*
X0338500Y0085419D01*
X0338500Y0082416D01*
X0339251Y0081665D01*
X0340752Y0081665D01*
X0341503Y0082416D01*
X0362196Y0069084D02*
X0365199Y0069084D01*
X0352020Y0107915D02*
X0352020Y0112419D01*
X0355022Y0112419D01*
X0353521Y0110167D02*
X0352020Y0110167D01*
X0350418Y0110918D02*
X0350418Y0107915D01*
X0348166Y0107915D01*
X0347416Y0108666D01*
X0347416Y0110918D01*
X0345814Y0111669D02*
X0345814Y0108666D01*
X0345064Y0107915D01*
X0343562Y0107915D01*
X0342812Y0108666D01*
X0345814Y0111669D01*
X0345064Y0112419D01*
X0343562Y0112419D01*
X0342812Y0111669D01*
X0342812Y0108666D01*
X0341210Y0108666D02*
X0340460Y0107915D01*
X0338958Y0107915D01*
X0338208Y0108666D01*
X0341210Y0111669D01*
X0341210Y0108666D01*
X0338208Y0108666D02*
X0338208Y0111669D01*
X0338958Y0112419D01*
X0340460Y0112419D01*
X0341210Y0111669D01*
X0336606Y0111669D02*
X0336606Y0108666D01*
X0335856Y0107915D01*
X0334355Y0107915D01*
X0333604Y0108666D01*
X0336606Y0111669D01*
X0335856Y0112419D01*
X0334355Y0112419D01*
X0333604Y0111669D01*
X0333604Y0108666D01*
X0332003Y0107915D02*
X0329000Y0107915D01*
X0330501Y0107915D02*
X0330501Y0112419D01*
X0329000Y0110918D01*
X0331750Y0129165D02*
X0331750Y0133669D01*
X0334002Y0133669D01*
X0334753Y0132919D01*
X0334753Y0131417D01*
X0334002Y0130667D01*
X0331750Y0130667D01*
X0333251Y0130667D02*
X0334753Y0129165D01*
X0336354Y0129165D02*
X0339356Y0129165D01*
X0337855Y0129165D02*
X0337855Y0133669D01*
X0336354Y0132168D01*
X0343600Y0131667D02*
X0343600Y0130166D01*
X0344351Y0129415D01*
X0345852Y0129415D01*
X0346603Y0130166D01*
X0346603Y0130917D01*
X0345852Y0131667D01*
X0343600Y0131667D01*
X0345101Y0133169D01*
X0346603Y0133919D01*
X0348204Y0133919D02*
X0350456Y0133919D01*
X0351206Y0133169D01*
X0351206Y0131667D01*
X0350456Y0130917D01*
X0348204Y0130917D01*
X0349705Y0130917D02*
X0351206Y0129415D01*
X0352808Y0130166D02*
X0352808Y0130917D01*
X0353558Y0131667D01*
X0355060Y0131667D01*
X0355810Y0130917D01*
X0355810Y0130166D01*
X0355060Y0129415D01*
X0353558Y0129415D01*
X0352808Y0130166D01*
X0353558Y0131667D02*
X0352808Y0132418D01*
X0352808Y0133169D01*
X0353558Y0133919D01*
X0355060Y0133919D01*
X0355810Y0133169D01*
X0355810Y0132418D01*
X0355060Y0131667D01*
X0348204Y0129415D02*
X0348204Y0133919D01*
X0233500Y0133667D02*
X0228996Y0133667D01*
X0230497Y0132165D01*
X0233500Y0132165D02*
X0233500Y0135168D01*
X0232749Y0136769D02*
X0229747Y0136769D01*
X0228996Y0137520D01*
X0228996Y0139021D01*
X0229747Y0139772D01*
X0232749Y0136769D01*
X0233500Y0137520D01*
X0233500Y0139021D01*
X0232749Y0139772D01*
X0229747Y0139772D01*
X0229747Y0141373D02*
X0228996Y0142124D01*
X0228996Y0143625D01*
X0229747Y0144376D01*
X0232749Y0141373D01*
X0233500Y0142124D01*
X0233500Y0143625D01*
X0232749Y0144376D01*
X0229747Y0144376D01*
X0229747Y0145977D02*
X0228996Y0146728D01*
X0228996Y0148229D01*
X0229747Y0148980D01*
X0232749Y0145977D01*
X0233500Y0146728D01*
X0233500Y0148229D01*
X0232749Y0148980D01*
X0229747Y0148980D01*
X0230497Y0150581D02*
X0232749Y0150581D01*
X0233500Y0151332D01*
X0233500Y0153584D01*
X0230497Y0153584D01*
X0231248Y0155185D02*
X0231248Y0156686D01*
X0228996Y0155185D02*
X0228996Y0158188D01*
X0228996Y0155185D02*
X0233500Y0155185D01*
X0232749Y0145977D02*
X0229747Y0145977D01*
X0229747Y0141373D02*
X0232749Y0141373D01*
X0233500Y0128022D02*
X0233500Y0125019D01*
X0230497Y0128022D01*
X0229747Y0128022D01*
X0228996Y0127271D01*
X0228996Y0125770D01*
X0229747Y0125019D01*
X0229747Y0123418D02*
X0228996Y0122667D01*
X0228996Y0121166D01*
X0229747Y0120415D01*
X0232749Y0120415D01*
X0233500Y0121166D01*
X0233500Y0122667D01*
X0232749Y0123418D01*
D14*
X0329300Y0122915D03*
X0357700Y0122915D03*
D15*
X0196512Y0024933D02*
X0195488Y0024933D01*
X0190488Y0021933D02*
X0190488Y0011398D01*
X0195488Y0008398D02*
X0196512Y0008398D01*
X0201512Y0011398D02*
X0201512Y0021933D01*
X0041945Y0032832D02*
X0040764Y0032832D01*
X0040764Y0072832D01*
X0041945Y0072832D01*
X0041945Y0032832D01*
X0040764Y0032832D02*
X0039098Y0032832D01*
X0038315Y0032832D01*
X0038315Y0072832D01*
X0040764Y0072832D01*
X0038315Y0072832D02*
X0035637Y0072832D01*
X0033699Y0072832D01*
X0017963Y0072832D01*
X0016062Y0072832D01*
X0010055Y0072832D01*
X0010055Y0032832D01*
X0016062Y0032832D01*
X0017963Y0032832D01*
X0033699Y0032832D01*
X0035637Y0032832D01*
X0035637Y0072832D01*
X0016062Y0072832D02*
X0016062Y0032832D01*
X0035637Y0032832D02*
X0037469Y0032832D01*
X0038315Y0032832D01*
X0039098Y0032832D02*
X0039098Y0032326D01*
X0039689Y0031624D01*
X0039689Y0030588D01*
X0036878Y0030588D01*
X0036878Y0031624D01*
X0037469Y0032326D01*
X0037469Y0032832D01*
X0018363Y0042832D02*
X0018365Y0043017D01*
X0018372Y0043202D01*
X0018383Y0043387D01*
X0018399Y0043571D01*
X0018420Y0043755D01*
X0018445Y0043938D01*
X0018474Y0044121D01*
X0018508Y0044303D01*
X0018546Y0044484D01*
X0018589Y0044664D01*
X0018636Y0044843D01*
X0018688Y0045020D01*
X0018744Y0045197D01*
X0018804Y0045372D01*
X0018868Y0045545D01*
X0018937Y0045717D01*
X0019010Y0045887D01*
X0019087Y0046055D01*
X0019168Y0046222D01*
X0019253Y0046386D01*
X0019342Y0046548D01*
X0019436Y0046708D01*
X0019533Y0046865D01*
X0019634Y0047020D01*
X0019738Y0047173D01*
X0019847Y0047323D01*
X0019959Y0047470D01*
X0020074Y0047615D01*
X0020193Y0047756D01*
X0020316Y0047895D01*
X0020442Y0048030D01*
X0020571Y0048163D01*
X0020704Y0048292D01*
X0020839Y0048418D01*
X0020978Y0048541D01*
X0021119Y0048660D01*
X0021264Y0048775D01*
X0021411Y0048887D01*
X0021561Y0048996D01*
X0021714Y0049100D01*
X0021869Y0049201D01*
X0022026Y0049298D01*
X0022186Y0049392D01*
X0022348Y0049481D01*
X0022512Y0049566D01*
X0022679Y0049647D01*
X0022847Y0049724D01*
X0023017Y0049797D01*
X0023189Y0049866D01*
X0023362Y0049930D01*
X0023537Y0049990D01*
X0023714Y0050046D01*
X0023891Y0050098D01*
X0024070Y0050145D01*
X0024250Y0050188D01*
X0024431Y0050226D01*
X0024613Y0050260D01*
X0024796Y0050289D01*
X0024979Y0050314D01*
X0025163Y0050335D01*
X0025347Y0050351D01*
X0025532Y0050362D01*
X0025717Y0050369D01*
X0025902Y0050371D01*
X0026087Y0050369D01*
X0026272Y0050362D01*
X0026457Y0050351D01*
X0026641Y0050335D01*
X0026825Y0050314D01*
X0027008Y0050289D01*
X0027191Y0050260D01*
X0027373Y0050226D01*
X0027554Y0050188D01*
X0027734Y0050145D01*
X0027913Y0050098D01*
X0028090Y0050046D01*
X0028267Y0049990D01*
X0028442Y0049930D01*
X0028615Y0049866D01*
X0028787Y0049797D01*
X0028957Y0049724D01*
X0029125Y0049647D01*
X0029292Y0049566D01*
X0029456Y0049481D01*
X0029618Y0049392D01*
X0029778Y0049298D01*
X0029935Y0049201D01*
X0030090Y0049100D01*
X0030243Y0048996D01*
X0030393Y0048887D01*
X0030540Y0048775D01*
X0030685Y0048660D01*
X0030826Y0048541D01*
X0030965Y0048418D01*
X0031100Y0048292D01*
X0031233Y0048163D01*
X0031362Y0048030D01*
X0031488Y0047895D01*
X0031611Y0047756D01*
X0031730Y0047615D01*
X0031845Y0047470D01*
X0031957Y0047323D01*
X0032066Y0047173D01*
X0032170Y0047020D01*
X0032271Y0046865D01*
X0032368Y0046708D01*
X0032462Y0046548D01*
X0032551Y0046386D01*
X0032636Y0046222D01*
X0032717Y0046055D01*
X0032794Y0045887D01*
X0032867Y0045717D01*
X0032936Y0045545D01*
X0033000Y0045372D01*
X0033060Y0045197D01*
X0033116Y0045020D01*
X0033168Y0044843D01*
X0033215Y0044664D01*
X0033258Y0044484D01*
X0033296Y0044303D01*
X0033330Y0044121D01*
X0033359Y0043938D01*
X0033384Y0043755D01*
X0033405Y0043571D01*
X0033421Y0043387D01*
X0033432Y0043202D01*
X0033439Y0043017D01*
X0033441Y0042832D01*
X0033439Y0042647D01*
X0033432Y0042462D01*
X0033421Y0042277D01*
X0033405Y0042093D01*
X0033384Y0041909D01*
X0033359Y0041726D01*
X0033330Y0041543D01*
X0033296Y0041361D01*
X0033258Y0041180D01*
X0033215Y0041000D01*
X0033168Y0040821D01*
X0033116Y0040644D01*
X0033060Y0040467D01*
X0033000Y0040292D01*
X0032936Y0040119D01*
X0032867Y0039947D01*
X0032794Y0039777D01*
X0032717Y0039609D01*
X0032636Y0039442D01*
X0032551Y0039278D01*
X0032462Y0039116D01*
X0032368Y0038956D01*
X0032271Y0038799D01*
X0032170Y0038644D01*
X0032066Y0038491D01*
X0031957Y0038341D01*
X0031845Y0038194D01*
X0031730Y0038049D01*
X0031611Y0037908D01*
X0031488Y0037769D01*
X0031362Y0037634D01*
X0031233Y0037501D01*
X0031100Y0037372D01*
X0030965Y0037246D01*
X0030826Y0037123D01*
X0030685Y0037004D01*
X0030540Y0036889D01*
X0030393Y0036777D01*
X0030243Y0036668D01*
X0030090Y0036564D01*
X0029935Y0036463D01*
X0029778Y0036366D01*
X0029618Y0036272D01*
X0029456Y0036183D01*
X0029292Y0036098D01*
X0029125Y0036017D01*
X0028957Y0035940D01*
X0028787Y0035867D01*
X0028615Y0035798D01*
X0028442Y0035734D01*
X0028267Y0035674D01*
X0028090Y0035618D01*
X0027913Y0035566D01*
X0027734Y0035519D01*
X0027554Y0035476D01*
X0027373Y0035438D01*
X0027191Y0035404D01*
X0027008Y0035375D01*
X0026825Y0035350D01*
X0026641Y0035329D01*
X0026457Y0035313D01*
X0026272Y0035302D01*
X0026087Y0035295D01*
X0025902Y0035293D01*
X0025717Y0035295D01*
X0025532Y0035302D01*
X0025347Y0035313D01*
X0025163Y0035329D01*
X0024979Y0035350D01*
X0024796Y0035375D01*
X0024613Y0035404D01*
X0024431Y0035438D01*
X0024250Y0035476D01*
X0024070Y0035519D01*
X0023891Y0035566D01*
X0023714Y0035618D01*
X0023537Y0035674D01*
X0023362Y0035734D01*
X0023189Y0035798D01*
X0023017Y0035867D01*
X0022847Y0035940D01*
X0022679Y0036017D01*
X0022512Y0036098D01*
X0022348Y0036183D01*
X0022186Y0036272D01*
X0022026Y0036366D01*
X0021869Y0036463D01*
X0021714Y0036564D01*
X0021561Y0036668D01*
X0021411Y0036777D01*
X0021264Y0036889D01*
X0021119Y0037004D01*
X0020978Y0037123D01*
X0020839Y0037246D01*
X0020704Y0037372D01*
X0020571Y0037501D01*
X0020442Y0037634D01*
X0020316Y0037769D01*
X0020193Y0037908D01*
X0020074Y0038049D01*
X0019959Y0038194D01*
X0019847Y0038341D01*
X0019738Y0038491D01*
X0019634Y0038644D01*
X0019533Y0038799D01*
X0019436Y0038956D01*
X0019342Y0039116D01*
X0019253Y0039278D01*
X0019168Y0039442D01*
X0019087Y0039609D01*
X0019010Y0039777D01*
X0018937Y0039947D01*
X0018868Y0040119D01*
X0018804Y0040292D01*
X0018744Y0040467D01*
X0018688Y0040644D01*
X0018636Y0040821D01*
X0018589Y0041000D01*
X0018546Y0041180D01*
X0018508Y0041361D01*
X0018474Y0041543D01*
X0018445Y0041726D01*
X0018420Y0041909D01*
X0018399Y0042093D01*
X0018383Y0042277D01*
X0018372Y0042462D01*
X0018365Y0042647D01*
X0018363Y0042832D01*
X0018363Y0062832D02*
X0018365Y0063017D01*
X0018372Y0063202D01*
X0018383Y0063387D01*
X0018399Y0063571D01*
X0018420Y0063755D01*
X0018445Y0063938D01*
X0018474Y0064121D01*
X0018508Y0064303D01*
X0018546Y0064484D01*
X0018589Y0064664D01*
X0018636Y0064843D01*
X0018688Y0065020D01*
X0018744Y0065197D01*
X0018804Y0065372D01*
X0018868Y0065545D01*
X0018937Y0065717D01*
X0019010Y0065887D01*
X0019087Y0066055D01*
X0019168Y0066222D01*
X0019253Y0066386D01*
X0019342Y0066548D01*
X0019436Y0066708D01*
X0019533Y0066865D01*
X0019634Y0067020D01*
X0019738Y0067173D01*
X0019847Y0067323D01*
X0019959Y0067470D01*
X0020074Y0067615D01*
X0020193Y0067756D01*
X0020316Y0067895D01*
X0020442Y0068030D01*
X0020571Y0068163D01*
X0020704Y0068292D01*
X0020839Y0068418D01*
X0020978Y0068541D01*
X0021119Y0068660D01*
X0021264Y0068775D01*
X0021411Y0068887D01*
X0021561Y0068996D01*
X0021714Y0069100D01*
X0021869Y0069201D01*
X0022026Y0069298D01*
X0022186Y0069392D01*
X0022348Y0069481D01*
X0022512Y0069566D01*
X0022679Y0069647D01*
X0022847Y0069724D01*
X0023017Y0069797D01*
X0023189Y0069866D01*
X0023362Y0069930D01*
X0023537Y0069990D01*
X0023714Y0070046D01*
X0023891Y0070098D01*
X0024070Y0070145D01*
X0024250Y0070188D01*
X0024431Y0070226D01*
X0024613Y0070260D01*
X0024796Y0070289D01*
X0024979Y0070314D01*
X0025163Y0070335D01*
X0025347Y0070351D01*
X0025532Y0070362D01*
X0025717Y0070369D01*
X0025902Y0070371D01*
X0026087Y0070369D01*
X0026272Y0070362D01*
X0026457Y0070351D01*
X0026641Y0070335D01*
X0026825Y0070314D01*
X0027008Y0070289D01*
X0027191Y0070260D01*
X0027373Y0070226D01*
X0027554Y0070188D01*
X0027734Y0070145D01*
X0027913Y0070098D01*
X0028090Y0070046D01*
X0028267Y0069990D01*
X0028442Y0069930D01*
X0028615Y0069866D01*
X0028787Y0069797D01*
X0028957Y0069724D01*
X0029125Y0069647D01*
X0029292Y0069566D01*
X0029456Y0069481D01*
X0029618Y0069392D01*
X0029778Y0069298D01*
X0029935Y0069201D01*
X0030090Y0069100D01*
X0030243Y0068996D01*
X0030393Y0068887D01*
X0030540Y0068775D01*
X0030685Y0068660D01*
X0030826Y0068541D01*
X0030965Y0068418D01*
X0031100Y0068292D01*
X0031233Y0068163D01*
X0031362Y0068030D01*
X0031488Y0067895D01*
X0031611Y0067756D01*
X0031730Y0067615D01*
X0031845Y0067470D01*
X0031957Y0067323D01*
X0032066Y0067173D01*
X0032170Y0067020D01*
X0032271Y0066865D01*
X0032368Y0066708D01*
X0032462Y0066548D01*
X0032551Y0066386D01*
X0032636Y0066222D01*
X0032717Y0066055D01*
X0032794Y0065887D01*
X0032867Y0065717D01*
X0032936Y0065545D01*
X0033000Y0065372D01*
X0033060Y0065197D01*
X0033116Y0065020D01*
X0033168Y0064843D01*
X0033215Y0064664D01*
X0033258Y0064484D01*
X0033296Y0064303D01*
X0033330Y0064121D01*
X0033359Y0063938D01*
X0033384Y0063755D01*
X0033405Y0063571D01*
X0033421Y0063387D01*
X0033432Y0063202D01*
X0033439Y0063017D01*
X0033441Y0062832D01*
X0033439Y0062647D01*
X0033432Y0062462D01*
X0033421Y0062277D01*
X0033405Y0062093D01*
X0033384Y0061909D01*
X0033359Y0061726D01*
X0033330Y0061543D01*
X0033296Y0061361D01*
X0033258Y0061180D01*
X0033215Y0061000D01*
X0033168Y0060821D01*
X0033116Y0060644D01*
X0033060Y0060467D01*
X0033000Y0060292D01*
X0032936Y0060119D01*
X0032867Y0059947D01*
X0032794Y0059777D01*
X0032717Y0059609D01*
X0032636Y0059442D01*
X0032551Y0059278D01*
X0032462Y0059116D01*
X0032368Y0058956D01*
X0032271Y0058799D01*
X0032170Y0058644D01*
X0032066Y0058491D01*
X0031957Y0058341D01*
X0031845Y0058194D01*
X0031730Y0058049D01*
X0031611Y0057908D01*
X0031488Y0057769D01*
X0031362Y0057634D01*
X0031233Y0057501D01*
X0031100Y0057372D01*
X0030965Y0057246D01*
X0030826Y0057123D01*
X0030685Y0057004D01*
X0030540Y0056889D01*
X0030393Y0056777D01*
X0030243Y0056668D01*
X0030090Y0056564D01*
X0029935Y0056463D01*
X0029778Y0056366D01*
X0029618Y0056272D01*
X0029456Y0056183D01*
X0029292Y0056098D01*
X0029125Y0056017D01*
X0028957Y0055940D01*
X0028787Y0055867D01*
X0028615Y0055798D01*
X0028442Y0055734D01*
X0028267Y0055674D01*
X0028090Y0055618D01*
X0027913Y0055566D01*
X0027734Y0055519D01*
X0027554Y0055476D01*
X0027373Y0055438D01*
X0027191Y0055404D01*
X0027008Y0055375D01*
X0026825Y0055350D01*
X0026641Y0055329D01*
X0026457Y0055313D01*
X0026272Y0055302D01*
X0026087Y0055295D01*
X0025902Y0055293D01*
X0025717Y0055295D01*
X0025532Y0055302D01*
X0025347Y0055313D01*
X0025163Y0055329D01*
X0024979Y0055350D01*
X0024796Y0055375D01*
X0024613Y0055404D01*
X0024431Y0055438D01*
X0024250Y0055476D01*
X0024070Y0055519D01*
X0023891Y0055566D01*
X0023714Y0055618D01*
X0023537Y0055674D01*
X0023362Y0055734D01*
X0023189Y0055798D01*
X0023017Y0055867D01*
X0022847Y0055940D01*
X0022679Y0056017D01*
X0022512Y0056098D01*
X0022348Y0056183D01*
X0022186Y0056272D01*
X0022026Y0056366D01*
X0021869Y0056463D01*
X0021714Y0056564D01*
X0021561Y0056668D01*
X0021411Y0056777D01*
X0021264Y0056889D01*
X0021119Y0057004D01*
X0020978Y0057123D01*
X0020839Y0057246D01*
X0020704Y0057372D01*
X0020571Y0057501D01*
X0020442Y0057634D01*
X0020316Y0057769D01*
X0020193Y0057908D01*
X0020074Y0058049D01*
X0019959Y0058194D01*
X0019847Y0058341D01*
X0019738Y0058491D01*
X0019634Y0058644D01*
X0019533Y0058799D01*
X0019436Y0058956D01*
X0019342Y0059116D01*
X0019253Y0059278D01*
X0019168Y0059442D01*
X0019087Y0059609D01*
X0019010Y0059777D01*
X0018937Y0059947D01*
X0018868Y0060119D01*
X0018804Y0060292D01*
X0018744Y0060467D01*
X0018688Y0060644D01*
X0018636Y0060821D01*
X0018589Y0061000D01*
X0018546Y0061180D01*
X0018508Y0061361D01*
X0018474Y0061543D01*
X0018445Y0061726D01*
X0018420Y0061909D01*
X0018399Y0062093D01*
X0018383Y0062277D01*
X0018372Y0062462D01*
X0018365Y0062647D01*
X0018363Y0062832D01*
X0036878Y0099338D02*
X0039689Y0099338D01*
X0039689Y0100374D01*
X0039098Y0101076D01*
X0039098Y0101582D01*
X0040764Y0101582D01*
X0041945Y0101582D01*
X0041945Y0141582D01*
X0040764Y0141582D01*
X0040764Y0101582D01*
X0039098Y0101582D02*
X0038315Y0101582D01*
X0038315Y0141582D01*
X0040764Y0141582D01*
X0038315Y0141582D02*
X0035637Y0141582D01*
X0033699Y0141582D01*
X0017963Y0141582D01*
X0016062Y0141582D01*
X0010055Y0141582D01*
X0010055Y0101582D01*
X0016062Y0101582D01*
X0017963Y0101582D01*
X0033699Y0101582D01*
X0035637Y0101582D01*
X0035637Y0141582D01*
X0016062Y0141582D02*
X0016062Y0101582D01*
X0018363Y0111582D02*
X0018365Y0111767D01*
X0018372Y0111952D01*
X0018383Y0112137D01*
X0018399Y0112321D01*
X0018420Y0112505D01*
X0018445Y0112688D01*
X0018474Y0112871D01*
X0018508Y0113053D01*
X0018546Y0113234D01*
X0018589Y0113414D01*
X0018636Y0113593D01*
X0018688Y0113770D01*
X0018744Y0113947D01*
X0018804Y0114122D01*
X0018868Y0114295D01*
X0018937Y0114467D01*
X0019010Y0114637D01*
X0019087Y0114805D01*
X0019168Y0114972D01*
X0019253Y0115136D01*
X0019342Y0115298D01*
X0019436Y0115458D01*
X0019533Y0115615D01*
X0019634Y0115770D01*
X0019738Y0115923D01*
X0019847Y0116073D01*
X0019959Y0116220D01*
X0020074Y0116365D01*
X0020193Y0116506D01*
X0020316Y0116645D01*
X0020442Y0116780D01*
X0020571Y0116913D01*
X0020704Y0117042D01*
X0020839Y0117168D01*
X0020978Y0117291D01*
X0021119Y0117410D01*
X0021264Y0117525D01*
X0021411Y0117637D01*
X0021561Y0117746D01*
X0021714Y0117850D01*
X0021869Y0117951D01*
X0022026Y0118048D01*
X0022186Y0118142D01*
X0022348Y0118231D01*
X0022512Y0118316D01*
X0022679Y0118397D01*
X0022847Y0118474D01*
X0023017Y0118547D01*
X0023189Y0118616D01*
X0023362Y0118680D01*
X0023537Y0118740D01*
X0023714Y0118796D01*
X0023891Y0118848D01*
X0024070Y0118895D01*
X0024250Y0118938D01*
X0024431Y0118976D01*
X0024613Y0119010D01*
X0024796Y0119039D01*
X0024979Y0119064D01*
X0025163Y0119085D01*
X0025347Y0119101D01*
X0025532Y0119112D01*
X0025717Y0119119D01*
X0025902Y0119121D01*
X0026087Y0119119D01*
X0026272Y0119112D01*
X0026457Y0119101D01*
X0026641Y0119085D01*
X0026825Y0119064D01*
X0027008Y0119039D01*
X0027191Y0119010D01*
X0027373Y0118976D01*
X0027554Y0118938D01*
X0027734Y0118895D01*
X0027913Y0118848D01*
X0028090Y0118796D01*
X0028267Y0118740D01*
X0028442Y0118680D01*
X0028615Y0118616D01*
X0028787Y0118547D01*
X0028957Y0118474D01*
X0029125Y0118397D01*
X0029292Y0118316D01*
X0029456Y0118231D01*
X0029618Y0118142D01*
X0029778Y0118048D01*
X0029935Y0117951D01*
X0030090Y0117850D01*
X0030243Y0117746D01*
X0030393Y0117637D01*
X0030540Y0117525D01*
X0030685Y0117410D01*
X0030826Y0117291D01*
X0030965Y0117168D01*
X0031100Y0117042D01*
X0031233Y0116913D01*
X0031362Y0116780D01*
X0031488Y0116645D01*
X0031611Y0116506D01*
X0031730Y0116365D01*
X0031845Y0116220D01*
X0031957Y0116073D01*
X0032066Y0115923D01*
X0032170Y0115770D01*
X0032271Y0115615D01*
X0032368Y0115458D01*
X0032462Y0115298D01*
X0032551Y0115136D01*
X0032636Y0114972D01*
X0032717Y0114805D01*
X0032794Y0114637D01*
X0032867Y0114467D01*
X0032936Y0114295D01*
X0033000Y0114122D01*
X0033060Y0113947D01*
X0033116Y0113770D01*
X0033168Y0113593D01*
X0033215Y0113414D01*
X0033258Y0113234D01*
X0033296Y0113053D01*
X0033330Y0112871D01*
X0033359Y0112688D01*
X0033384Y0112505D01*
X0033405Y0112321D01*
X0033421Y0112137D01*
X0033432Y0111952D01*
X0033439Y0111767D01*
X0033441Y0111582D01*
X0033439Y0111397D01*
X0033432Y0111212D01*
X0033421Y0111027D01*
X0033405Y0110843D01*
X0033384Y0110659D01*
X0033359Y0110476D01*
X0033330Y0110293D01*
X0033296Y0110111D01*
X0033258Y0109930D01*
X0033215Y0109750D01*
X0033168Y0109571D01*
X0033116Y0109394D01*
X0033060Y0109217D01*
X0033000Y0109042D01*
X0032936Y0108869D01*
X0032867Y0108697D01*
X0032794Y0108527D01*
X0032717Y0108359D01*
X0032636Y0108192D01*
X0032551Y0108028D01*
X0032462Y0107866D01*
X0032368Y0107706D01*
X0032271Y0107549D01*
X0032170Y0107394D01*
X0032066Y0107241D01*
X0031957Y0107091D01*
X0031845Y0106944D01*
X0031730Y0106799D01*
X0031611Y0106658D01*
X0031488Y0106519D01*
X0031362Y0106384D01*
X0031233Y0106251D01*
X0031100Y0106122D01*
X0030965Y0105996D01*
X0030826Y0105873D01*
X0030685Y0105754D01*
X0030540Y0105639D01*
X0030393Y0105527D01*
X0030243Y0105418D01*
X0030090Y0105314D01*
X0029935Y0105213D01*
X0029778Y0105116D01*
X0029618Y0105022D01*
X0029456Y0104933D01*
X0029292Y0104848D01*
X0029125Y0104767D01*
X0028957Y0104690D01*
X0028787Y0104617D01*
X0028615Y0104548D01*
X0028442Y0104484D01*
X0028267Y0104424D01*
X0028090Y0104368D01*
X0027913Y0104316D01*
X0027734Y0104269D01*
X0027554Y0104226D01*
X0027373Y0104188D01*
X0027191Y0104154D01*
X0027008Y0104125D01*
X0026825Y0104100D01*
X0026641Y0104079D01*
X0026457Y0104063D01*
X0026272Y0104052D01*
X0026087Y0104045D01*
X0025902Y0104043D01*
X0025717Y0104045D01*
X0025532Y0104052D01*
X0025347Y0104063D01*
X0025163Y0104079D01*
X0024979Y0104100D01*
X0024796Y0104125D01*
X0024613Y0104154D01*
X0024431Y0104188D01*
X0024250Y0104226D01*
X0024070Y0104269D01*
X0023891Y0104316D01*
X0023714Y0104368D01*
X0023537Y0104424D01*
X0023362Y0104484D01*
X0023189Y0104548D01*
X0023017Y0104617D01*
X0022847Y0104690D01*
X0022679Y0104767D01*
X0022512Y0104848D01*
X0022348Y0104933D01*
X0022186Y0105022D01*
X0022026Y0105116D01*
X0021869Y0105213D01*
X0021714Y0105314D01*
X0021561Y0105418D01*
X0021411Y0105527D01*
X0021264Y0105639D01*
X0021119Y0105754D01*
X0020978Y0105873D01*
X0020839Y0105996D01*
X0020704Y0106122D01*
X0020571Y0106251D01*
X0020442Y0106384D01*
X0020316Y0106519D01*
X0020193Y0106658D01*
X0020074Y0106799D01*
X0019959Y0106944D01*
X0019847Y0107091D01*
X0019738Y0107241D01*
X0019634Y0107394D01*
X0019533Y0107549D01*
X0019436Y0107706D01*
X0019342Y0107866D01*
X0019253Y0108028D01*
X0019168Y0108192D01*
X0019087Y0108359D01*
X0019010Y0108527D01*
X0018937Y0108697D01*
X0018868Y0108869D01*
X0018804Y0109042D01*
X0018744Y0109217D01*
X0018688Y0109394D01*
X0018636Y0109571D01*
X0018589Y0109750D01*
X0018546Y0109930D01*
X0018508Y0110111D01*
X0018474Y0110293D01*
X0018445Y0110476D01*
X0018420Y0110659D01*
X0018399Y0110843D01*
X0018383Y0111027D01*
X0018372Y0111212D01*
X0018365Y0111397D01*
X0018363Y0111582D01*
X0035637Y0101582D02*
X0037469Y0101582D01*
X0038315Y0101582D01*
X0037469Y0101582D02*
X0037469Y0101076D01*
X0036878Y0100374D01*
X0036878Y0099338D01*
X0018363Y0131582D02*
X0018365Y0131767D01*
X0018372Y0131952D01*
X0018383Y0132137D01*
X0018399Y0132321D01*
X0018420Y0132505D01*
X0018445Y0132688D01*
X0018474Y0132871D01*
X0018508Y0133053D01*
X0018546Y0133234D01*
X0018589Y0133414D01*
X0018636Y0133593D01*
X0018688Y0133770D01*
X0018744Y0133947D01*
X0018804Y0134122D01*
X0018868Y0134295D01*
X0018937Y0134467D01*
X0019010Y0134637D01*
X0019087Y0134805D01*
X0019168Y0134972D01*
X0019253Y0135136D01*
X0019342Y0135298D01*
X0019436Y0135458D01*
X0019533Y0135615D01*
X0019634Y0135770D01*
X0019738Y0135923D01*
X0019847Y0136073D01*
X0019959Y0136220D01*
X0020074Y0136365D01*
X0020193Y0136506D01*
X0020316Y0136645D01*
X0020442Y0136780D01*
X0020571Y0136913D01*
X0020704Y0137042D01*
X0020839Y0137168D01*
X0020978Y0137291D01*
X0021119Y0137410D01*
X0021264Y0137525D01*
X0021411Y0137637D01*
X0021561Y0137746D01*
X0021714Y0137850D01*
X0021869Y0137951D01*
X0022026Y0138048D01*
X0022186Y0138142D01*
X0022348Y0138231D01*
X0022512Y0138316D01*
X0022679Y0138397D01*
X0022847Y0138474D01*
X0023017Y0138547D01*
X0023189Y0138616D01*
X0023362Y0138680D01*
X0023537Y0138740D01*
X0023714Y0138796D01*
X0023891Y0138848D01*
X0024070Y0138895D01*
X0024250Y0138938D01*
X0024431Y0138976D01*
X0024613Y0139010D01*
X0024796Y0139039D01*
X0024979Y0139064D01*
X0025163Y0139085D01*
X0025347Y0139101D01*
X0025532Y0139112D01*
X0025717Y0139119D01*
X0025902Y0139121D01*
X0026087Y0139119D01*
X0026272Y0139112D01*
X0026457Y0139101D01*
X0026641Y0139085D01*
X0026825Y0139064D01*
X0027008Y0139039D01*
X0027191Y0139010D01*
X0027373Y0138976D01*
X0027554Y0138938D01*
X0027734Y0138895D01*
X0027913Y0138848D01*
X0028090Y0138796D01*
X0028267Y0138740D01*
X0028442Y0138680D01*
X0028615Y0138616D01*
X0028787Y0138547D01*
X0028957Y0138474D01*
X0029125Y0138397D01*
X0029292Y0138316D01*
X0029456Y0138231D01*
X0029618Y0138142D01*
X0029778Y0138048D01*
X0029935Y0137951D01*
X0030090Y0137850D01*
X0030243Y0137746D01*
X0030393Y0137637D01*
X0030540Y0137525D01*
X0030685Y0137410D01*
X0030826Y0137291D01*
X0030965Y0137168D01*
X0031100Y0137042D01*
X0031233Y0136913D01*
X0031362Y0136780D01*
X0031488Y0136645D01*
X0031611Y0136506D01*
X0031730Y0136365D01*
X0031845Y0136220D01*
X0031957Y0136073D01*
X0032066Y0135923D01*
X0032170Y0135770D01*
X0032271Y0135615D01*
X0032368Y0135458D01*
X0032462Y0135298D01*
X0032551Y0135136D01*
X0032636Y0134972D01*
X0032717Y0134805D01*
X0032794Y0134637D01*
X0032867Y0134467D01*
X0032936Y0134295D01*
X0033000Y0134122D01*
X0033060Y0133947D01*
X0033116Y0133770D01*
X0033168Y0133593D01*
X0033215Y0133414D01*
X0033258Y0133234D01*
X0033296Y0133053D01*
X0033330Y0132871D01*
X0033359Y0132688D01*
X0033384Y0132505D01*
X0033405Y0132321D01*
X0033421Y0132137D01*
X0033432Y0131952D01*
X0033439Y0131767D01*
X0033441Y0131582D01*
X0033439Y0131397D01*
X0033432Y0131212D01*
X0033421Y0131027D01*
X0033405Y0130843D01*
X0033384Y0130659D01*
X0033359Y0130476D01*
X0033330Y0130293D01*
X0033296Y0130111D01*
X0033258Y0129930D01*
X0033215Y0129750D01*
X0033168Y0129571D01*
X0033116Y0129394D01*
X0033060Y0129217D01*
X0033000Y0129042D01*
X0032936Y0128869D01*
X0032867Y0128697D01*
X0032794Y0128527D01*
X0032717Y0128359D01*
X0032636Y0128192D01*
X0032551Y0128028D01*
X0032462Y0127866D01*
X0032368Y0127706D01*
X0032271Y0127549D01*
X0032170Y0127394D01*
X0032066Y0127241D01*
X0031957Y0127091D01*
X0031845Y0126944D01*
X0031730Y0126799D01*
X0031611Y0126658D01*
X0031488Y0126519D01*
X0031362Y0126384D01*
X0031233Y0126251D01*
X0031100Y0126122D01*
X0030965Y0125996D01*
X0030826Y0125873D01*
X0030685Y0125754D01*
X0030540Y0125639D01*
X0030393Y0125527D01*
X0030243Y0125418D01*
X0030090Y0125314D01*
X0029935Y0125213D01*
X0029778Y0125116D01*
X0029618Y0125022D01*
X0029456Y0124933D01*
X0029292Y0124848D01*
X0029125Y0124767D01*
X0028957Y0124690D01*
X0028787Y0124617D01*
X0028615Y0124548D01*
X0028442Y0124484D01*
X0028267Y0124424D01*
X0028090Y0124368D01*
X0027913Y0124316D01*
X0027734Y0124269D01*
X0027554Y0124226D01*
X0027373Y0124188D01*
X0027191Y0124154D01*
X0027008Y0124125D01*
X0026825Y0124100D01*
X0026641Y0124079D01*
X0026457Y0124063D01*
X0026272Y0124052D01*
X0026087Y0124045D01*
X0025902Y0124043D01*
X0025717Y0124045D01*
X0025532Y0124052D01*
X0025347Y0124063D01*
X0025163Y0124079D01*
X0024979Y0124100D01*
X0024796Y0124125D01*
X0024613Y0124154D01*
X0024431Y0124188D01*
X0024250Y0124226D01*
X0024070Y0124269D01*
X0023891Y0124316D01*
X0023714Y0124368D01*
X0023537Y0124424D01*
X0023362Y0124484D01*
X0023189Y0124548D01*
X0023017Y0124617D01*
X0022847Y0124690D01*
X0022679Y0124767D01*
X0022512Y0124848D01*
X0022348Y0124933D01*
X0022186Y0125022D01*
X0022026Y0125116D01*
X0021869Y0125213D01*
X0021714Y0125314D01*
X0021561Y0125418D01*
X0021411Y0125527D01*
X0021264Y0125639D01*
X0021119Y0125754D01*
X0020978Y0125873D01*
X0020839Y0125996D01*
X0020704Y0126122D01*
X0020571Y0126251D01*
X0020442Y0126384D01*
X0020316Y0126519D01*
X0020193Y0126658D01*
X0020074Y0126799D01*
X0019959Y0126944D01*
X0019847Y0127091D01*
X0019738Y0127241D01*
X0019634Y0127394D01*
X0019533Y0127549D01*
X0019436Y0127706D01*
X0019342Y0127866D01*
X0019253Y0128028D01*
X0019168Y0128192D01*
X0019087Y0128359D01*
X0019010Y0128527D01*
X0018937Y0128697D01*
X0018868Y0128869D01*
X0018804Y0129042D01*
X0018744Y0129217D01*
X0018688Y0129394D01*
X0018636Y0129571D01*
X0018589Y0129750D01*
X0018546Y0129930D01*
X0018508Y0130111D01*
X0018474Y0130293D01*
X0018445Y0130476D01*
X0018420Y0130659D01*
X0018399Y0130843D01*
X0018383Y0131027D01*
X0018372Y0131212D01*
X0018365Y0131397D01*
X0018363Y0131582D01*
D16*
X0022784Y0144365D02*
X0022784Y0147435D01*
X0024319Y0148969D01*
X0025854Y0147435D01*
X0025854Y0144365D01*
X0027388Y0145133D02*
X0028155Y0144365D01*
X0029690Y0144365D01*
X0030457Y0145133D01*
X0031992Y0146667D02*
X0035061Y0146667D01*
X0036596Y0144365D02*
X0036596Y0148969D01*
X0039665Y0144365D01*
X0039665Y0148969D01*
X0030457Y0148202D02*
X0029690Y0148969D01*
X0028155Y0148969D01*
X0027388Y0148202D01*
X0027388Y0145133D01*
X0025854Y0146667D02*
X0022784Y0146667D01*
X0008300Y0110834D02*
X0008300Y0107764D01*
X0008300Y0106230D02*
X0003696Y0103160D01*
X0003696Y0106230D02*
X0008300Y0103160D01*
X0005231Y0107764D02*
X0003696Y0109299D01*
X0008300Y0109299D01*
X0024319Y0080219D02*
X0025854Y0078685D01*
X0025854Y0075615D01*
X0027388Y0076383D02*
X0028155Y0075615D01*
X0029690Y0075615D01*
X0030457Y0076383D01*
X0031992Y0077917D02*
X0035061Y0077917D01*
X0036596Y0075615D02*
X0039665Y0075615D01*
X0036596Y0075615D02*
X0036596Y0080219D01*
X0030457Y0079452D02*
X0029690Y0080219D01*
X0028155Y0080219D01*
X0027388Y0079452D01*
X0027388Y0076383D01*
X0025854Y0077917D02*
X0022784Y0077917D01*
X0022784Y0078685D02*
X0022784Y0075615D01*
X0022784Y0078685D02*
X0024319Y0080219D01*
X0008300Y0042084D02*
X0008300Y0039014D01*
X0005231Y0042084D01*
X0004463Y0042084D01*
X0003696Y0041316D01*
X0003696Y0039782D01*
X0004463Y0039014D01*
X0003696Y0037480D02*
X0008300Y0034410D01*
X0008300Y0037480D02*
X0003696Y0034410D01*
D17*
X0244750Y0133665D03*
D18*
X0341750Y0096665D03*
D19*
X0138500Y0144665D02*
X0138308Y0144663D01*
X0138116Y0144656D01*
X0137924Y0144644D01*
X0137732Y0144628D01*
X0137541Y0144607D01*
X0137351Y0144582D01*
X0137161Y0144552D01*
X0136972Y0144518D01*
X0136784Y0144479D01*
X0136597Y0144435D01*
X0136411Y0144387D01*
X0136226Y0144335D01*
X0136042Y0144278D01*
X0135860Y0144217D01*
X0135680Y0144151D01*
X0135501Y0144081D01*
X0135323Y0144007D01*
X0135148Y0143929D01*
X0134974Y0143846D01*
X0134803Y0143759D01*
X0134634Y0143669D01*
X0134467Y0143574D01*
X0134302Y0143475D01*
X0134139Y0143372D01*
X0133980Y0143265D01*
X0133822Y0143155D01*
X0133668Y0143041D01*
X0133516Y0142923D01*
X0133367Y0142801D01*
X0133221Y0142676D01*
X0133079Y0142548D01*
X0132939Y0142416D01*
X0132802Y0142281D01*
X0132669Y0142142D01*
X0132539Y0142001D01*
X0132413Y0141856D01*
X0132290Y0141708D01*
X0132171Y0141558D01*
X0132055Y0141404D01*
X0131943Y0141248D01*
X0131835Y0141089D01*
X0131730Y0140928D01*
X0131630Y0140764D01*
X0131534Y0140598D01*
X0131441Y0140430D01*
X0131554Y0132696D02*
X0131653Y0132527D01*
X0131757Y0132361D01*
X0131864Y0132197D01*
X0131975Y0132036D01*
X0132090Y0131878D01*
X0132209Y0131723D01*
X0132332Y0131570D01*
X0132458Y0131421D01*
X0132588Y0131275D01*
X0132722Y0131132D01*
X0132859Y0130992D01*
X0132999Y0130856D01*
X0133143Y0130723D01*
X0133290Y0130594D01*
X0133440Y0130468D01*
X0133593Y0130347D01*
X0133749Y0130228D01*
X0133908Y0130114D01*
X0134069Y0130004D01*
X0134234Y0129898D01*
X0134400Y0129795D01*
X0134570Y0129697D01*
X0134741Y0129603D01*
X0134915Y0129513D01*
X0135091Y0129428D01*
X0135269Y0129346D01*
X0135449Y0129270D01*
X0135631Y0129197D01*
X0135814Y0129129D01*
X0135999Y0129066D01*
X0136186Y0129007D01*
X0136374Y0128953D01*
X0136563Y0128903D01*
X0136753Y0128858D01*
X0136945Y0128818D01*
X0137137Y0128782D01*
X0137330Y0128751D01*
X0137524Y0128725D01*
X0137719Y0128703D01*
X0137914Y0128687D01*
X0138109Y0128675D01*
X0138305Y0128667D01*
X0138500Y0128665D01*
X0138693Y0128667D01*
X0138886Y0128674D01*
X0139078Y0128686D01*
X0139271Y0128702D01*
X0139463Y0128723D01*
X0139654Y0128749D01*
X0139844Y0128779D01*
X0140034Y0128814D01*
X0140223Y0128853D01*
X0140411Y0128897D01*
X0140598Y0128945D01*
X0140784Y0128998D01*
X0140968Y0129055D01*
X0141151Y0129117D01*
X0141332Y0129183D01*
X0141512Y0129254D01*
X0141690Y0129328D01*
X0141866Y0129407D01*
X0142040Y0129491D01*
X0142212Y0129578D01*
X0142382Y0129670D01*
X0142549Y0129766D01*
X0142715Y0129865D01*
X0142878Y0129969D01*
X0143038Y0130076D01*
X0143195Y0130188D01*
X0143350Y0130303D01*
X0143502Y0130422D01*
X0143651Y0130544D01*
X0143798Y0130670D01*
X0143941Y0130800D01*
X0144081Y0130933D01*
X0144217Y0131069D01*
X0144351Y0131209D01*
X0144480Y0131351D01*
X0144607Y0131497D01*
X0144646Y0141787D02*
X0144519Y0141935D01*
X0144389Y0142080D01*
X0144256Y0142221D01*
X0144119Y0142360D01*
X0143979Y0142495D01*
X0143835Y0142626D01*
X0143688Y0142754D01*
X0143539Y0142879D01*
X0143386Y0143000D01*
X0143231Y0143117D01*
X0143072Y0143230D01*
X0142911Y0143339D01*
X0142747Y0143444D01*
X0142581Y0143546D01*
X0142412Y0143643D01*
X0142242Y0143736D01*
X0142068Y0143825D01*
X0141893Y0143910D01*
X0141716Y0143990D01*
X0141537Y0144066D01*
X0141356Y0144138D01*
X0141173Y0144205D01*
X0140989Y0144268D01*
X0140803Y0144326D01*
X0140616Y0144380D01*
X0140428Y0144429D01*
X0140238Y0144474D01*
X0140048Y0144514D01*
X0139856Y0144549D01*
X0139664Y0144580D01*
X0139471Y0144606D01*
X0139277Y0144627D01*
X0139083Y0144644D01*
X0138889Y0144656D01*
X0138695Y0144663D01*
X0138500Y0144665D01*
M02*
