G75*
%MOIN*%
%OFA0B0*%
%FSLAX25Y25*%
%IPPOS*%
%LPD*%
%AMOC8*
5,1,8,0,0,1.08239X$1,22.5*
%
%ADD10C,0.00000*%
%ADD11C,0.00400*%
%ADD12C,0.00800*%
%ADD13R,0.03000X0.03400*%
%ADD14C,0.00500*%
%ADD15C,0.02400*%
D10*
X0041000Y0002915D02*
X0331000Y0002915D01*
X0371000Y0042915D01*
X0371000Y0132915D01*
X0331000Y0172915D01*
X0041000Y0172915D01*
X0001000Y0132915D01*
X0001000Y0042915D01*
X0041000Y0002915D01*
D11*
X0156023Y0035615D02*
X0158325Y0037917D01*
X0159092Y0037150D02*
X0156023Y0040219D01*
X0159092Y0040219D02*
X0159092Y0035615D01*
X0160627Y0036383D02*
X0161394Y0035615D01*
X0162929Y0035615D01*
X0163696Y0036383D01*
X0160627Y0039452D01*
X0160627Y0036383D01*
X0163696Y0036383D02*
X0163696Y0039452D01*
X0162929Y0040219D01*
X0161394Y0040219D01*
X0160627Y0039452D01*
X0166765Y0040219D02*
X0166765Y0035615D01*
X0165231Y0035615D02*
X0168300Y0035615D01*
X0168300Y0038685D02*
X0166765Y0040219D01*
X0171394Y0043115D02*
X0171394Y0047719D01*
X0173696Y0045417D01*
X0170627Y0045417D01*
X0175231Y0045417D02*
X0175998Y0044650D01*
X0178300Y0044650D01*
X0178300Y0043115D02*
X0178300Y0047719D01*
X0175998Y0047719D01*
X0175231Y0046952D01*
X0175231Y0045417D01*
X0176765Y0044650D02*
X0175231Y0043115D01*
X0190627Y0033969D02*
X0192161Y0033202D01*
X0193696Y0031667D01*
X0191394Y0031667D01*
X0190627Y0030900D01*
X0190627Y0030133D01*
X0191394Y0029365D01*
X0192929Y0029365D01*
X0193696Y0030133D01*
X0193696Y0031667D01*
X0195231Y0030133D02*
X0195998Y0029365D01*
X0197533Y0029365D01*
X0198300Y0030133D01*
X0198300Y0033202D01*
X0197533Y0033969D01*
X0195998Y0033969D01*
X0195231Y0033202D01*
X0172050Y0029452D02*
X0172050Y0026383D01*
X0168981Y0029452D01*
X0168981Y0026383D01*
X0169748Y0025615D01*
X0171283Y0025615D01*
X0172050Y0026383D01*
X0172050Y0029452D02*
X0171283Y0030219D01*
X0169748Y0030219D01*
X0168981Y0029452D01*
X0167446Y0026383D02*
X0166679Y0026383D01*
X0166679Y0025615D01*
X0167446Y0025615D01*
X0167446Y0026383D01*
X0165144Y0025615D02*
X0162075Y0025615D01*
X0163609Y0025615D02*
X0163609Y0030219D01*
X0165144Y0028685D01*
X0160540Y0028685D02*
X0160540Y0026383D01*
X0159773Y0025615D01*
X0157471Y0025615D01*
X0157471Y0028685D01*
X0162450Y0058115D02*
X0162450Y0061185D01*
X0162450Y0059650D02*
X0167054Y0059650D01*
X0165519Y0058115D01*
X0166287Y0062719D02*
X0163217Y0062719D01*
X0166287Y0065789D01*
X0163217Y0065789D01*
X0162450Y0065021D01*
X0162450Y0063487D01*
X0163217Y0062719D01*
X0166287Y0062719D02*
X0167054Y0063487D01*
X0167054Y0065021D01*
X0166287Y0065789D01*
X0167054Y0067323D02*
X0162450Y0067323D01*
X0163985Y0067323D02*
X0167054Y0070393D01*
X0164752Y0068091D02*
X0162450Y0070393D01*
X0159550Y0075615D02*
X0159550Y0080219D01*
X0157248Y0080219D01*
X0156481Y0079452D01*
X0156481Y0077917D01*
X0157248Y0077150D01*
X0159550Y0077150D01*
X0158015Y0077150D02*
X0156481Y0075615D01*
X0154946Y0075615D02*
X0151877Y0078685D01*
X0151877Y0079452D01*
X0152644Y0080219D01*
X0154179Y0080219D01*
X0154946Y0079452D01*
X0150804Y0082633D02*
X0150037Y0081865D01*
X0146967Y0081865D01*
X0146200Y0082633D01*
X0146200Y0084167D01*
X0146967Y0084935D01*
X0146967Y0086469D02*
X0146200Y0087237D01*
X0146200Y0088771D01*
X0146967Y0089539D01*
X0147735Y0089539D01*
X0148502Y0088771D01*
X0148502Y0088004D01*
X0148502Y0088771D02*
X0149269Y0089539D01*
X0150037Y0089539D01*
X0150804Y0088771D01*
X0150804Y0087237D01*
X0150037Y0086469D01*
X0150037Y0084935D02*
X0150804Y0084167D01*
X0150804Y0082633D01*
X0151877Y0075615D02*
X0154946Y0075615D01*
X0166023Y0088115D02*
X0168325Y0090417D01*
X0169092Y0089650D02*
X0166023Y0092719D01*
X0169092Y0092719D02*
X0169092Y0088115D01*
X0170627Y0088883D02*
X0171394Y0088115D01*
X0172929Y0088115D01*
X0173696Y0088883D01*
X0170627Y0091952D01*
X0170627Y0088883D01*
X0173696Y0088883D02*
X0173696Y0091952D01*
X0172929Y0092719D01*
X0171394Y0092719D01*
X0170627Y0091952D01*
X0175231Y0088115D02*
X0178300Y0088115D01*
X0176765Y0088115D02*
X0176765Y0092719D01*
X0178300Y0091185D01*
X0143304Y0093400D02*
X0141769Y0091865D01*
X0143304Y0093400D02*
X0138700Y0093400D01*
X0138700Y0091865D02*
X0138700Y0094935D01*
X0139467Y0096469D02*
X0138700Y0097237D01*
X0138700Y0099539D01*
X0141769Y0099539D01*
X0141002Y0101073D02*
X0141002Y0102608D01*
X0143304Y0101073D02*
X0143304Y0104143D01*
X0143304Y0101073D02*
X0138700Y0101073D01*
X0139467Y0096469D02*
X0141769Y0096469D01*
X0190627Y0120133D02*
X0191394Y0119365D01*
X0192929Y0119365D01*
X0193696Y0120133D01*
X0193696Y0121667D02*
X0192161Y0122435D01*
X0191394Y0122435D01*
X0190627Y0121667D01*
X0190627Y0120133D01*
X0193696Y0121667D02*
X0193696Y0123969D01*
X0190627Y0123969D01*
X0195231Y0123202D02*
X0195998Y0123969D01*
X0197533Y0123969D01*
X0198300Y0123202D01*
X0198300Y0120133D01*
X0197533Y0119365D01*
X0195998Y0119365D01*
X0195231Y0120133D01*
X0198721Y0119365D02*
X0198721Y0122435D01*
X0201790Y0122435D02*
X0201790Y0120133D01*
X0201023Y0119365D01*
X0198721Y0119365D01*
X0203325Y0119365D02*
X0206394Y0119365D01*
X0204859Y0119365D02*
X0204859Y0123969D01*
X0206394Y0122435D01*
X0210231Y0123202D02*
X0213300Y0120133D01*
X0212533Y0119365D01*
X0210998Y0119365D01*
X0210231Y0120133D01*
X0210231Y0123202D01*
X0210998Y0123969D01*
X0212533Y0123969D01*
X0213300Y0123202D01*
X0213300Y0120133D01*
X0208696Y0120133D02*
X0207929Y0120133D01*
X0207929Y0119365D01*
X0208696Y0119365D01*
X0208696Y0120133D01*
X0270107Y0125219D02*
X0273176Y0125219D01*
X0273176Y0120615D01*
X0274711Y0120615D02*
X0274711Y0123685D01*
X0276246Y0125219D01*
X0277780Y0123685D01*
X0277780Y0120615D01*
X0279315Y0121383D02*
X0280082Y0120615D01*
X0281617Y0120615D01*
X0282384Y0121383D01*
X0283919Y0121383D02*
X0284686Y0120615D01*
X0286221Y0120615D01*
X0286988Y0121383D01*
X0288523Y0121383D02*
X0289290Y0120615D01*
X0290825Y0120615D01*
X0291592Y0121383D01*
X0288523Y0124452D01*
X0288523Y0121383D01*
X0291592Y0121383D02*
X0291592Y0124452D01*
X0290825Y0125219D01*
X0289290Y0125219D01*
X0288523Y0124452D01*
X0286988Y0124452D02*
X0286221Y0125219D01*
X0284686Y0125219D01*
X0283919Y0124452D01*
X0283919Y0123685D01*
X0284686Y0122917D01*
X0283919Y0122150D01*
X0283919Y0121383D01*
X0284686Y0122917D02*
X0285454Y0122917D01*
X0282384Y0124452D02*
X0281617Y0125219D01*
X0280082Y0125219D01*
X0279315Y0124452D01*
X0279315Y0123685D01*
X0280082Y0122917D01*
X0279315Y0122150D01*
X0279315Y0121383D01*
X0280082Y0122917D02*
X0280850Y0122917D01*
X0277780Y0122917D02*
X0274711Y0122917D01*
X0273176Y0122917D02*
X0271642Y0122917D01*
X0293127Y0122150D02*
X0293127Y0121383D01*
X0293894Y0120615D01*
X0295429Y0120615D01*
X0296196Y0121383D01*
X0296196Y0122150D01*
X0295429Y0122917D01*
X0293894Y0122917D01*
X0293127Y0122150D01*
X0293894Y0122917D02*
X0293127Y0123685D01*
X0293127Y0124452D01*
X0293894Y0125219D01*
X0295429Y0125219D01*
X0296196Y0124452D01*
X0296196Y0123685D01*
X0295429Y0122917D01*
X0297731Y0124452D02*
X0300800Y0121383D01*
X0300800Y0120615D01*
X0300800Y0125219D02*
X0297731Y0125219D01*
X0297731Y0124452D01*
X0297450Y0115331D02*
X0299752Y0113029D01*
X0298985Y0112262D02*
X0302054Y0115331D01*
X0302054Y0112262D02*
X0297450Y0112262D01*
X0298217Y0110727D02*
X0297450Y0109960D01*
X0297450Y0108425D01*
X0298217Y0107658D01*
X0301287Y0110727D01*
X0298217Y0110727D01*
X0301287Y0110727D02*
X0302054Y0109960D01*
X0302054Y0108425D01*
X0301287Y0107658D01*
X0298217Y0107658D01*
X0297450Y0106123D02*
X0297450Y0103054D01*
X0297450Y0104588D02*
X0302054Y0104588D01*
X0300519Y0103054D01*
X0303700Y0105158D02*
X0308304Y0105158D01*
X0308304Y0107460D01*
X0307537Y0108227D01*
X0306002Y0108227D01*
X0305235Y0107460D01*
X0305235Y0105158D01*
X0305235Y0106692D02*
X0303700Y0108227D01*
X0304467Y0109762D02*
X0303700Y0110529D01*
X0303700Y0112063D01*
X0304467Y0112831D01*
X0305235Y0112831D01*
X0306002Y0112063D01*
X0306002Y0109762D01*
X0304467Y0109762D01*
X0306002Y0109762D02*
X0307537Y0111296D01*
X0308304Y0112831D01*
X0313217Y0100789D02*
X0312450Y0100021D01*
X0312450Y0098487D01*
X0313217Y0097719D01*
X0314752Y0097719D02*
X0315519Y0099254D01*
X0315519Y0100021D01*
X0314752Y0100789D01*
X0313217Y0100789D01*
X0317054Y0100789D02*
X0317054Y0097719D01*
X0314752Y0097719D01*
X0314752Y0096185D02*
X0313985Y0095417D01*
X0313985Y0093115D01*
X0312450Y0093115D02*
X0317054Y0093115D01*
X0317054Y0095417D01*
X0316287Y0096185D01*
X0314752Y0096185D01*
X0313985Y0094650D02*
X0312450Y0096185D01*
X0319950Y0090393D02*
X0322252Y0088091D01*
X0321485Y0087323D02*
X0324554Y0090393D01*
X0324554Y0087323D02*
X0319950Y0087323D01*
X0320717Y0085789D02*
X0319950Y0085021D01*
X0319950Y0083487D01*
X0320717Y0082719D01*
X0323787Y0085789D01*
X0320717Y0085789D01*
X0323787Y0085789D02*
X0324554Y0085021D01*
X0324554Y0083487D01*
X0323787Y0082719D01*
X0320717Y0082719D01*
X0319950Y0081185D02*
X0319950Y0078115D01*
X0319950Y0079650D02*
X0324554Y0079650D01*
X0323019Y0078115D01*
X0305862Y0071185D02*
X0304327Y0072719D01*
X0304327Y0068115D01*
X0302793Y0068115D02*
X0305862Y0068115D01*
X0301258Y0068883D02*
X0300491Y0068115D01*
X0298956Y0068115D01*
X0298189Y0068883D01*
X0298189Y0071952D01*
X0301258Y0068883D01*
X0301258Y0071952D01*
X0300491Y0072719D01*
X0298956Y0072719D01*
X0298189Y0071952D01*
X0296654Y0072719D02*
X0296654Y0068115D01*
X0296654Y0069650D02*
X0293585Y0072719D01*
X0294352Y0074365D02*
X0295887Y0074365D01*
X0296654Y0075133D01*
X0296654Y0075900D01*
X0295887Y0076667D01*
X0294352Y0076667D01*
X0293585Y0075900D01*
X0293585Y0075133D01*
X0294352Y0074365D01*
X0294352Y0076667D02*
X0293585Y0077435D01*
X0293585Y0078202D01*
X0294352Y0078969D01*
X0295887Y0078969D01*
X0296654Y0078202D01*
X0296654Y0077435D01*
X0295887Y0076667D01*
X0298189Y0076667D02*
X0298956Y0075900D01*
X0301258Y0075900D01*
X0301258Y0074365D02*
X0301258Y0078969D01*
X0298956Y0078969D01*
X0298189Y0078202D01*
X0298189Y0076667D01*
X0299723Y0075900D02*
X0298189Y0074365D01*
X0295887Y0070417D02*
X0293585Y0068115D01*
X0275254Y0055909D02*
X0271784Y0055909D01*
X0270097Y0055041D02*
X0269230Y0055909D01*
X0267495Y0055909D01*
X0266628Y0055041D01*
X0264941Y0055909D02*
X0262339Y0055909D01*
X0261471Y0055041D01*
X0261471Y0053307D01*
X0262339Y0052439D01*
X0264941Y0052439D01*
X0266628Y0052439D02*
X0266628Y0051572D01*
X0267495Y0050704D01*
X0269230Y0050704D01*
X0270097Y0051572D01*
X0271784Y0050704D02*
X0275254Y0050704D01*
X0275254Y0055909D01*
X0270097Y0055041D02*
X0270097Y0054174D01*
X0269230Y0053307D01*
X0267495Y0053307D01*
X0266628Y0052439D01*
X0264941Y0050704D02*
X0264941Y0055909D01*
X0273519Y0053307D02*
X0275254Y0053307D01*
X0254628Y0053307D02*
X0251159Y0053307D01*
X0244315Y0054174D02*
X0242581Y0055909D01*
X0242581Y0050704D01*
X0244315Y0050704D02*
X0240846Y0050704D01*
X0239159Y0050704D02*
X0235689Y0054174D01*
X0235689Y0055041D01*
X0236557Y0055909D01*
X0238292Y0055909D01*
X0239159Y0055041D01*
X0239159Y0050704D02*
X0235689Y0050704D01*
X0234003Y0050704D02*
X0230533Y0050704D01*
X0232268Y0053307D02*
X0234003Y0053307D01*
X0234003Y0055909D02*
X0234003Y0050704D01*
X0234003Y0055909D02*
X0230533Y0055909D01*
X0182054Y0059365D02*
X0182054Y0061667D01*
X0181287Y0062435D01*
X0179752Y0062435D01*
X0178985Y0061667D01*
X0178985Y0059365D01*
X0177450Y0059365D02*
X0182054Y0059365D01*
X0178985Y0060900D02*
X0177450Y0062435D01*
X0177450Y0063969D02*
X0178217Y0063969D01*
X0181287Y0067039D01*
X0182054Y0067039D01*
X0182054Y0063969D01*
X0224289Y0008271D02*
X0223422Y0007404D01*
X0223422Y0006536D01*
X0226891Y0003067D01*
X0223422Y0003067D01*
X0228578Y0003934D02*
X0229446Y0003067D01*
X0231180Y0003067D01*
X0232048Y0003934D01*
X0232048Y0008271D01*
X0228578Y0008271D02*
X0228578Y0003934D01*
X0226891Y0007404D02*
X0226024Y0008271D01*
X0224289Y0008271D01*
X0118300Y0128115D02*
X0115231Y0128115D01*
X0116765Y0128115D02*
X0116765Y0132719D01*
X0118300Y0131185D01*
X0113696Y0132719D02*
X0113696Y0128115D01*
X0113696Y0129650D02*
X0110627Y0132719D01*
X0112929Y0130417D02*
X0110627Y0128115D01*
X0111394Y0143115D02*
X0110627Y0143883D01*
X0110627Y0146952D01*
X0111394Y0147719D01*
X0112929Y0147719D01*
X0113696Y0146952D01*
X0113696Y0146185D01*
X0112929Y0145417D01*
X0110627Y0145417D01*
X0112929Y0143115D02*
X0113696Y0143883D01*
X0112929Y0143115D02*
X0111394Y0143115D01*
X0115231Y0143115D02*
X0116765Y0144650D01*
X0115998Y0144650D02*
X0118300Y0144650D01*
X0118300Y0143115D02*
X0118300Y0147719D01*
X0115998Y0147719D01*
X0115231Y0146952D01*
X0115231Y0145417D01*
X0115998Y0144650D01*
X0241085Y0160615D02*
X0243387Y0162917D01*
X0244154Y0162150D02*
X0241085Y0165219D01*
X0244154Y0165219D02*
X0244154Y0160615D01*
X0245689Y0161383D02*
X0246456Y0160615D01*
X0247991Y0160615D01*
X0248758Y0161383D01*
X0245689Y0164452D01*
X0245689Y0161383D01*
X0248758Y0161383D02*
X0248758Y0164452D01*
X0247991Y0165219D01*
X0246456Y0165219D01*
X0245689Y0164452D01*
X0251827Y0165219D02*
X0253362Y0163685D01*
X0251827Y0165219D02*
X0251827Y0160615D01*
X0250293Y0160615D02*
X0253362Y0160615D01*
X0257335Y0161383D02*
X0258102Y0160615D01*
X0259637Y0160615D01*
X0260404Y0161383D01*
X0261939Y0160615D02*
X0263473Y0162150D01*
X0262706Y0162150D02*
X0265008Y0162150D01*
X0265008Y0160615D02*
X0265008Y0165219D01*
X0262706Y0165219D01*
X0261939Y0164452D01*
X0261939Y0162917D01*
X0262706Y0162150D01*
X0258869Y0162917D02*
X0258102Y0162917D01*
X0257335Y0162150D01*
X0257335Y0161383D01*
X0258102Y0162917D02*
X0257335Y0163685D01*
X0257335Y0164452D01*
X0258102Y0165219D01*
X0259637Y0165219D01*
X0260404Y0164452D01*
X0290058Y0159452D02*
X0290058Y0158685D01*
X0293127Y0155615D01*
X0290058Y0155615D01*
X0290058Y0159452D02*
X0290825Y0160219D01*
X0292359Y0160219D01*
X0293127Y0159452D01*
X0294661Y0159452D02*
X0295429Y0160219D01*
X0296963Y0160219D01*
X0297731Y0159452D01*
X0297731Y0156383D01*
X0296963Y0155615D01*
X0295429Y0155615D01*
X0294661Y0156383D01*
X0299265Y0155615D02*
X0300800Y0155615D01*
X0300033Y0155615D02*
X0300033Y0160219D01*
X0300800Y0160219D02*
X0299265Y0160219D01*
D12*
X0299500Y0153317D02*
X0275900Y0153315D01*
X0299500Y0153317D02*
X0299500Y0127514D01*
X0275900Y0127515D01*
X0183181Y0133764D02*
X0183181Y0159567D01*
X0158794Y0159565D01*
X0158794Y0133765D02*
X0183181Y0133764D01*
D13*
X0185081Y0146665D03*
X0301400Y0140415D03*
D14*
X0283352Y0106498D02*
X0276659Y0106498D01*
X0229415Y0106498D02*
X0220360Y0106498D01*
X0175985Y0129515D02*
X0175985Y0131417D01*
X0174717Y0131417D01*
X0173775Y0131417D02*
X0172824Y0131417D01*
X0172507Y0131100D01*
X0172507Y0129832D01*
X0172824Y0129515D01*
X0173775Y0129515D01*
X0173775Y0131417D01*
X0175351Y0130466D02*
X0175985Y0130466D01*
X0171565Y0131417D02*
X0171565Y0129515D01*
X0170614Y0129515D01*
X0170297Y0129832D01*
X0170297Y0131100D01*
X0170614Y0131417D01*
X0171565Y0131417D01*
X0169355Y0131100D02*
X0169355Y0130783D01*
X0169038Y0130466D01*
X0168404Y0130466D01*
X0168087Y0130149D01*
X0168087Y0129832D01*
X0168404Y0129515D01*
X0169038Y0129515D01*
X0169355Y0129832D01*
X0169355Y0130149D01*
X0169038Y0130466D01*
X0168404Y0130466D02*
X0168087Y0130783D01*
X0168087Y0131100D01*
X0168404Y0131417D01*
X0169038Y0131417D01*
X0169355Y0131100D01*
X0167145Y0131100D02*
X0167145Y0130783D01*
X0166828Y0130466D01*
X0166194Y0130466D01*
X0165877Y0130149D01*
X0165877Y0129832D01*
X0166194Y0129515D01*
X0166828Y0129515D01*
X0167145Y0129832D01*
X0167145Y0130149D01*
X0166828Y0130466D01*
X0166194Y0130466D02*
X0165877Y0130783D01*
X0165877Y0131100D01*
X0166194Y0131417D01*
X0166828Y0131417D01*
X0167145Y0131100D01*
X0164935Y0131417D02*
X0163667Y0131417D01*
X0163667Y0131100D01*
X0164935Y0129832D01*
X0164935Y0129515D01*
X0162725Y0129832D02*
X0161458Y0131100D01*
X0161458Y0129832D01*
X0161775Y0129515D01*
X0162408Y0129515D01*
X0162725Y0129832D01*
X0162725Y0131100D01*
X0162408Y0131417D01*
X0161775Y0131417D01*
X0161458Y0131100D01*
X0166982Y0161915D02*
X0168250Y0161915D01*
X0167616Y0161915D02*
X0167616Y0163817D01*
X0168250Y0163183D01*
X0169192Y0163500D02*
X0169192Y0162232D01*
X0169509Y0161915D01*
X0170143Y0161915D01*
X0170460Y0162232D01*
X0170460Y0163500D01*
X0170143Y0163817D01*
X0169509Y0163817D01*
X0169192Y0163500D01*
X0169826Y0162549D02*
X0169192Y0161915D01*
X0220360Y0040750D02*
X0220360Y0012010D01*
X0283352Y0012010D01*
X0283352Y0040750D01*
D15*
X0258549Y0036813D02*
X0232959Y0036813D01*
X0232959Y0034451D01*
X0232959Y0034057D02*
X0232959Y0014766D01*
X0236502Y0014766D01*
X0236502Y0029333D01*
X0240439Y0029333D01*
X0240439Y0015160D01*
X0245163Y0015160D01*
X0245163Y0029333D01*
X0249888Y0029333D01*
X0249888Y0015160D01*
X0254219Y0015160D01*
X0254219Y0028939D01*
X0258549Y0028939D01*
X0258549Y0015160D01*
X0274297Y0015160D01*
M02*
