%
M48
M72
T01C0.0236
T02C0.0315
T03C0.0320
T04C0.0400
T05C0.0470
T06C0.1102
%
T01
X4921Y13430
X8921Y13430
X7421Y17180
X7421Y19930
X14671Y9930
X15671Y7930
X18171Y9930
X18171Y11680
X21171Y12930
X18171Y15430
X21171Y9930
X15671Y4930
T02
X13421Y7930
X13421Y8930
X13421Y9930
X13421Y10930
X13421Y11930
X13421Y12930
X13421Y13930
X13421Y14930
X13421Y15930
X13421Y16930
X13421Y17930
X13421Y18930
X19421Y18930
X19421Y17930
X19421Y16930
X19421Y15930
X19421Y14930
X19421Y13930
X19421Y12930
X19421Y11930
X19421Y10930
X19421Y9930
X19421Y8930
X19421Y7930
T03
X19171Y5930
X19171Y3930
X20921Y14680
X22921Y14680
X23121Y17430
X21721Y17430
X21671Y20930
X22671Y20930
X20421Y20930
X17421Y20930
X15421Y19930
X12921Y22430
X11921Y22430
X10421Y22430
X9421Y22430
X7921Y22430
X6921Y22430
X5921Y23180
X8921Y20680
X5921Y20180
X5621Y17930
X4221Y17930
X4921Y15180
X5421Y14430
X5921Y15180
X8921Y17680
X15421Y22930
X5621Y10930
X4221Y10930
X4421Y7930
X4421Y5930
X7421Y5930
X7421Y7930
T04
X9171Y8930
X10171Y8930
X11171Y8930
X11171Y13930
X11171Y14930
X11171Y15930
X11171Y16930
X11171Y17930
X11171Y18930
X11171Y19930
X22671Y12930
X22671Y11930
X22671Y10930
X22671Y9930
X22671Y8930
X22671Y7930
X21921Y3930
X20921Y3930
T05
X16842Y2930
X14874Y2930
X12905Y2930
X10937Y2930
X8968Y2930
X7000Y2930
T06
X3921Y1930
X24671Y1930
X24671Y23180
X3921Y23180
M30
