G75*
G70*
%OFA0B0*%
%FSLAX24Y24*%
%IPPOS*%
%LPD*%
%AMOC8*
5,1,8,0,0,1.08239X$1,22.5*
%
%ADD10C,0.0595*%
%ADD11OC8,0.0710*%
%ADD12C,0.0710*%
%ADD13C,0.0785*%
%ADD14OC8,0.0600*%
%ADD15C,0.0600*%
%ADD16C,0.0680*%
%ADD17C,0.2180*%
%ADD18C,0.0600*%
%ADD19C,0.0780*%
D10*
X013163Y007930D02*
X013678Y007930D01*
X013678Y008930D02*
X013163Y008930D01*
X013163Y009930D02*
X013678Y009930D01*
X013678Y010930D02*
X013163Y010930D01*
X013163Y011930D02*
X013678Y011930D01*
X013678Y012930D02*
X013163Y012930D01*
X013163Y013930D02*
X013678Y013930D01*
X013678Y014930D02*
X013163Y014930D01*
X013163Y015930D02*
X013678Y015930D01*
X013678Y016930D02*
X013163Y016930D01*
X013163Y017930D02*
X013678Y017930D01*
X013678Y018930D02*
X013163Y018930D01*
X019163Y018930D02*
X019678Y018930D01*
X019678Y017930D02*
X019163Y017930D01*
X019163Y016930D02*
X019678Y016930D01*
X019678Y015930D02*
X019163Y015930D01*
X019163Y014930D02*
X019678Y014930D01*
X019678Y013930D02*
X019163Y013930D01*
X019163Y012930D02*
X019678Y012930D01*
X019678Y011930D02*
X019163Y011930D01*
X019163Y010930D02*
X019678Y010930D01*
X019678Y009930D02*
X019163Y009930D01*
X019163Y008930D02*
X019678Y008930D01*
X019678Y007930D02*
X019163Y007930D01*
D11*
X023121Y017430D03*
X005621Y017930D03*
X005621Y010930D03*
D12*
X004221Y010930D03*
X004221Y017930D03*
X021721Y017430D03*
D13*
X016842Y003283D02*
X016842Y002578D01*
X014874Y002578D02*
X014874Y003283D01*
X012905Y003283D02*
X012905Y002578D01*
X010937Y002578D02*
X010937Y003283D01*
X008968Y003283D02*
X008968Y002578D01*
X007000Y002578D02*
X007000Y003283D01*
D14*
X007421Y005930D03*
X007421Y007930D03*
X004421Y005930D03*
X005421Y014430D03*
X005921Y015180D03*
X004921Y015180D03*
X008921Y017680D03*
X005921Y020180D03*
X006921Y022430D03*
X007921Y022430D03*
X009421Y022430D03*
X010421Y022430D03*
X011921Y022430D03*
X012921Y022430D03*
X015421Y022930D03*
X017421Y020930D03*
X015421Y019930D03*
X020421Y020930D03*
X020921Y014680D03*
X022921Y014680D03*
X019171Y005930D03*
X019171Y003930D03*
X008921Y020680D03*
X005921Y023180D03*
D15*
X021671Y021190D02*
X021671Y020670D01*
X022671Y020670D02*
X022671Y021190D01*
D16*
X022971Y012930D02*
X022371Y012930D01*
X022371Y011930D02*
X022971Y011930D01*
X022971Y010930D02*
X022371Y010930D01*
X022371Y009930D02*
X022971Y009930D01*
X022971Y008930D02*
X022371Y008930D01*
X022371Y007930D02*
X022971Y007930D01*
X021921Y004230D02*
X021921Y003630D01*
X020921Y003630D02*
X020921Y004230D01*
X011171Y008630D02*
X011171Y009230D01*
X010171Y009230D02*
X010171Y008630D01*
X009171Y008630D02*
X009171Y009230D01*
X010871Y013930D02*
X011471Y013930D01*
X011471Y014930D02*
X010871Y014930D01*
X010871Y015930D02*
X011471Y015930D01*
X011471Y016930D02*
X010871Y016930D01*
X010871Y017930D02*
X011471Y017930D01*
X011471Y018930D02*
X010871Y018930D01*
X010871Y019930D02*
X011471Y019930D01*
D17*
X003921Y001930D03*
X024671Y001930D03*
X024671Y023180D03*
X003921Y023180D03*
D18*
X004421Y007930D03*
D19*
X004921Y013430D03*
X008921Y013430D03*
X007421Y017180D03*
X007421Y019930D03*
X014671Y009930D03*
X015671Y007930D03*
X018171Y009930D03*
X018171Y011680D03*
X021171Y012930D03*
X018171Y015430D03*
X021171Y009930D03*
X015671Y004930D03*
M02*
