%
M48
M72
T01C0.02362
T02C0.03200
T03C0.03937
T04C0.04000
T05C0.05118
T06C0.07874
%
T01
X103500Y59165
X107250Y94165
X159750Y111665
X182250Y111665
X188500Y115415
X208500Y135415
X258500Y139165
X297250Y109165
X288500Y106665
X363500Y80415
X343500Y70415
X336000Y70415
X202250Y27915
X188500Y9165
X51000Y94165
X103500Y165415
T02
X133500Y136665
X143500Y136665
X244750Y141665
X244750Y121665
X323500Y122915
X363500Y122915
X349750Y96665
X329750Y96665
T03
X79750Y115415
X79750Y125415
X69750Y75415
X69750Y55415
T04
X159750Y94165
X159750Y104165
X191000Y101665
X191000Y91665
X191000Y81665
X191000Y71665
X191000Y61665
X306000Y41665
X316000Y41665
X326000Y41665
X336000Y41665
X346000Y41665
X356000Y41665
X322250Y70415
X312250Y70415
X363500Y96665
X363500Y106665
T05
X25902Y111582
X25902Y131582
X25902Y62832
X25902Y42832
T06
X43815Y22915
X133185Y22915
M30
