G75*
%MOIN*%
%OFA0B0*%
%FSLAX25Y25*%
%IPPOS*%
%LPD*%
%AMOC8*
5,1,8,0,0,1.08239X$1,22.5*
%
%ADD10C,0.06800*%
%ADD11OC8,0.06000*%
%ADD12C,0.08674*%
%ADD13C,0.06000*%
%ADD14R,0.04737X0.04343*%
%ADD15C,0.16548*%
%ADD16C,0.07800*%
%ADD17C,0.10800*%
%ADD18R,0.10800X0.10800*%
D10*
X0188000Y0061665D02*
X0194000Y0061665D01*
X0194000Y0071665D02*
X0188000Y0071665D01*
X0188000Y0081665D02*
X0194000Y0081665D01*
X0194000Y0091665D02*
X0188000Y0091665D01*
X0188000Y0101665D02*
X0194000Y0101665D01*
X0162750Y0104165D02*
X0156750Y0104165D01*
X0156750Y0094165D02*
X0162750Y0094165D01*
X0306000Y0044665D02*
X0306000Y0038665D01*
X0316000Y0038665D02*
X0316000Y0044665D01*
X0326000Y0044665D02*
X0326000Y0038665D01*
X0336000Y0038665D02*
X0336000Y0044665D01*
X0346000Y0044665D02*
X0346000Y0038665D01*
X0356000Y0038665D02*
X0356000Y0044665D01*
X0322250Y0067415D02*
X0322250Y0073415D01*
X0312250Y0073415D02*
X0312250Y0067415D01*
X0360500Y0096665D02*
X0366500Y0096665D01*
X0366500Y0106665D02*
X0360500Y0106665D01*
D11*
X0349750Y0096665D03*
X0363500Y0122915D03*
X0323500Y0122915D03*
X0244750Y0141665D03*
X0143500Y0136665D03*
X0133500Y0136665D03*
D12*
X0025902Y0131582D03*
X0025902Y0111582D03*
X0025902Y0062832D03*
X0025902Y0042832D03*
D13*
X0244750Y0121665D03*
X0329750Y0096665D03*
D14*
X0199150Y0024736D03*
X0192850Y0024736D03*
X0192850Y0008595D03*
X0199150Y0008595D03*
D15*
X0043815Y0022915D03*
X0133185Y0022915D03*
D16*
X0073250Y0055415D02*
X0066250Y0055415D01*
X0066250Y0075415D02*
X0073250Y0075415D01*
X0076250Y0115415D02*
X0083250Y0115415D01*
X0083250Y0125415D02*
X0076250Y0125415D01*
D17*
X0051000Y0094165D03*
X0107250Y0094165D03*
X0159750Y0111665D03*
X0182250Y0111665D03*
X0188500Y0115415D03*
X0208500Y0135415D03*
X0258500Y0139165D03*
X0297250Y0109165D03*
X0288500Y0106665D03*
X0363500Y0080415D03*
X0343500Y0070415D03*
X0336000Y0070415D03*
X0103500Y0059165D03*
X0103500Y0165415D03*
D18*
X0202250Y0027915D03*
X0188500Y0009165D03*
M02*
