M48
; DRILL file {KiCad 5.1.6-c6e7f7d~87~ubuntu18.04.1} date Mon Feb  7 12:13:46 2022
; FORMAT={-:-/ absolute / metric / decimal}
; #@! TF.CreationDate,2022-02-07T12:13:46+00:00
; #@! TF.GenerationSoftware,Kicad,Pcbnew,5.1.6-c6e7f7d~87~ubuntu18.04.1
FMAT,2
METRIC
T1C0.400
T2C0.650
T3C0.900
T4C1.000
T5C1.150
T6C1.200
T7C1.520
T8C2.500
%
G90
G05
T1
X45.8Y-150.0
X50.2Y-145.8
X50.2Y-150.2
X53.467Y-138.557
X60.0Y-147.0
X74.549Y-156.083
T2
X53.056Y-141.067
X53.056Y-143.067
X53.056Y-145.067
X53.056Y-147.067
X53.056Y-149.067
X53.056Y-151.067
X53.056Y-153.067
X53.056Y-155.067
X55.066Y-140.067
X57.066Y-140.067
X59.066Y-140.067
X61.066Y-140.067
X63.066Y-140.067
X65.066Y-140.067
X67.056Y-141.067
X67.056Y-143.067
X67.056Y-145.067
X67.056Y-147.067
X67.056Y-149.067
X67.056Y-151.067
X67.056Y-153.067
X67.056Y-155.067
T3
X38.0Y-154.0
X40.54Y-154.0
X38.0Y-160.0
X40.54Y-160.0
T4
X63.0Y-170.815
X63.0Y-175.815
X29.083Y-176.657
X31.623Y-176.657
X76.0Y-141.84
X76.0Y-144.38
X76.0Y-146.92
X76.0Y-149.46
X76.0Y-152.0
X39.243Y-170.942
X39.243Y-175.942
X48.006Y-159.131
X48.006Y-161.671
X48.0Y-152.46
X48.0Y-155.0
X54.76Y-135.0
X57.3Y-135.0
X59.84Y-135.0
X62.38Y-135.0
X64.92Y-135.0
X67.46Y-135.0
X70.0Y-135.0
X27.92Y-135.0
X30.46Y-135.0
X33.0Y-135.0
X76.0Y-161.0
X76.0Y-163.54
X37.3Y-135.0
X39.84Y-135.0
X42.38Y-135.0
X44.92Y-135.0
X47.46Y-135.0
X50.0Y-135.0
T5
X31.123Y-147.11
X31.123Y-149.65
X31.123Y-159.81
X31.123Y-164.89
T6
X43.0Y-167.0
X58.24Y-167.0
T7
X23.0Y-159.92
X23.0Y-165.0
T8
X23.0Y-135.0
X76.0Y-135.0
X76.0Y-176.0
X23.0Y-176.0
T0
M30
