%TF.GenerationSoftware,KiCad,Pcbnew,5.1.6-c6e7f7d~87~ubuntu18.04.1*%
%TF.CreationDate,2022-02-07T12:13:50+00:00*%
%TF.ProjectId,wifiboard-v4,77696669-626f-4617-9264-2d76342e6b69,rev?*%
%TF.SameCoordinates,Original*%
%TF.FileFunction,Soldermask,Top*%
%TF.FilePolarity,Negative*%
%FSLAX46Y46*%
G04 Gerber Fmt 4.6, Leading zero omitted, Abs format (unit mm)*
G04 Created by KiCad (PCBNEW 5.1.6-c6e7f7d~87~ubuntu18.04.1) date 2022-02-07 12:13:50*
%MOMM*%
%LPD*%
G01*
G04 APERTURE LIST*
%ADD10C,2.100000*%
%ADD11R,2.100000X2.100000*%
%ADD12C,1.900000*%
%ADD13R,1.900000X1.900000*%
%ADD14O,1.800000X1.800000*%
%ADD15R,1.800000X1.800000*%
%ADD16R,3.100000X3.100000*%
%ADD17C,3.100000*%
%ADD18C,1.825000*%
%ADD19R,5.900000X6.500000*%
%ADD20R,1.300000X2.300000*%
%ADD21C,2.500000*%
%ADD22O,2.500000X2.500000*%
%ADD23R,1.800000X1.100000*%
%ADD24C,2.600000*%
%ADD25R,2.300000X1.300000*%
%ADD26R,6.500000X5.900000*%
%ADD27R,2.600000X1.200000*%
%ADD28O,2.600000X1.200000*%
%ADD29O,1.200000X2.600000*%
%ADD30C,0.100000*%
G04 APERTURE END LIST*
D10*
%TO.C,C1*%
X39243000Y-175942000D03*
D11*
X39243000Y-170942000D03*
%TD*%
%TO.C,C2*%
G36*
G01*
X72518750Y-162400000D02*
X73481250Y-162400000D01*
G75*
G02*
X73750000Y-162668750I0J-268750D01*
G01*
X73750000Y-163206250D01*
G75*
G02*
X73481250Y-163475000I-268750J0D01*
G01*
X72518750Y-163475000D01*
G75*
G02*
X72250000Y-163206250I0J268750D01*
G01*
X72250000Y-162668750D01*
G75*
G02*
X72518750Y-162400000I268750J0D01*
G01*
G37*
G36*
G01*
X72518750Y-160525000D02*
X73481250Y-160525000D01*
G75*
G02*
X73750000Y-160793750I0J-268750D01*
G01*
X73750000Y-161331250D01*
G75*
G02*
X73481250Y-161600000I-268750J0D01*
G01*
X72518750Y-161600000D01*
G75*
G02*
X72250000Y-161331250I0J268750D01*
G01*
X72250000Y-160793750D01*
G75*
G02*
X72518750Y-160525000I268750J0D01*
G01*
G37*
%TD*%
%TO.C,C3*%
X63000000Y-170815000D03*
D10*
X63000000Y-175815000D03*
%TD*%
%TO.C,C4*%
G36*
G01*
X71093250Y-141429000D02*
X70130750Y-141429000D01*
G75*
G02*
X69862000Y-141160250I0J268750D01*
G01*
X69862000Y-140622750D01*
G75*
G02*
X70130750Y-140354000I268750J0D01*
G01*
X71093250Y-140354000D01*
G75*
G02*
X71362000Y-140622750I0J-268750D01*
G01*
X71362000Y-141160250D01*
G75*
G02*
X71093250Y-141429000I-268750J0D01*
G01*
G37*
G36*
G01*
X71093250Y-139554000D02*
X70130750Y-139554000D01*
G75*
G02*
X69862000Y-139285250I0J268750D01*
G01*
X69862000Y-138747750D01*
G75*
G02*
X70130750Y-138479000I268750J0D01*
G01*
X71093250Y-138479000D01*
G75*
G02*
X71362000Y-138747750I0J-268750D01*
G01*
X71362000Y-139285250D01*
G75*
G02*
X71093250Y-139554000I-268750J0D01*
G01*
G37*
%TD*%
%TO.C,C5*%
G36*
G01*
X70525000Y-153481250D02*
X70525000Y-152518750D01*
G75*
G02*
X70793750Y-152250000I268750J0D01*
G01*
X71331250Y-152250000D01*
G75*
G02*
X71600000Y-152518750I0J-268750D01*
G01*
X71600000Y-153481250D01*
G75*
G02*
X71331250Y-153750000I-268750J0D01*
G01*
X70793750Y-153750000D01*
G75*
G02*
X70525000Y-153481250I0J268750D01*
G01*
G37*
G36*
G01*
X72400000Y-153481250D02*
X72400000Y-152518750D01*
G75*
G02*
X72668750Y-152250000I268750J0D01*
G01*
X73206250Y-152250000D01*
G75*
G02*
X73475000Y-152518750I0J-268750D01*
G01*
X73475000Y-153481250D01*
G75*
G02*
X73206250Y-153750000I-268750J0D01*
G01*
X72668750Y-153750000D01*
G75*
G02*
X72400000Y-153481250I0J268750D01*
G01*
G37*
%TD*%
D12*
%TO.C,D1*%
X40540000Y-154000000D03*
D13*
X38000000Y-154000000D03*
%TD*%
%TO.C,D2*%
X38000000Y-160000000D03*
D12*
X40540000Y-160000000D03*
%TD*%
D14*
%TO.C,J1*%
X29083000Y-176657000D03*
D15*
X31623000Y-176657000D03*
%TD*%
%TO.C,J2*%
X76000000Y-161000000D03*
D14*
X76000000Y-163540000D03*
%TD*%
D15*
%TO.C,J3*%
X76000000Y-152000000D03*
D14*
X76000000Y-149460000D03*
X76000000Y-146920000D03*
X76000000Y-144380000D03*
X76000000Y-141840000D03*
%TD*%
D15*
%TO.C,J4*%
X70000000Y-135000000D03*
D14*
X67460000Y-135000000D03*
X64920000Y-135000000D03*
X62380000Y-135000000D03*
X59840000Y-135000000D03*
X57300000Y-135000000D03*
X54760000Y-135000000D03*
%TD*%
D15*
%TO.C,J5*%
X50000000Y-135000000D03*
D14*
X47460000Y-135000000D03*
X44920000Y-135000000D03*
X42380000Y-135000000D03*
X39840000Y-135000000D03*
X37300000Y-135000000D03*
%TD*%
D15*
%TO.C,J6*%
X48000000Y-155000000D03*
D14*
X48000000Y-152460000D03*
%TD*%
D15*
%TO.C,J7*%
X33000000Y-135000000D03*
D14*
X30460000Y-135000000D03*
X27920000Y-135000000D03*
%TD*%
D16*
%TO.C,J8*%
X23000000Y-165000000D03*
D17*
X23000000Y-159920000D03*
%TD*%
D18*
%TO.C,K1*%
X31123000Y-147110000D03*
X31123000Y-149650000D03*
X31123000Y-159810000D03*
X31123000Y-164890000D03*
%TD*%
D19*
%TO.C,Q1*%
X39370000Y-146499000D03*
D20*
X37090000Y-140199000D03*
X41650000Y-140199000D03*
%TD*%
D21*
%TO.C,R1*%
X43000000Y-167000000D03*
D22*
X58240000Y-167000000D03*
%TD*%
%TO.C,R2*%
G36*
G01*
X72439000Y-159104250D02*
X72439000Y-158141750D01*
G75*
G02*
X72707750Y-157873000I268750J0D01*
G01*
X73245250Y-157873000D01*
G75*
G02*
X73514000Y-158141750I0J-268750D01*
G01*
X73514000Y-159104250D01*
G75*
G02*
X73245250Y-159373000I-268750J0D01*
G01*
X72707750Y-159373000D01*
G75*
G02*
X72439000Y-159104250I0J268750D01*
G01*
G37*
G36*
G01*
X74314000Y-159104250D02*
X74314000Y-158141750D01*
G75*
G02*
X74582750Y-157873000I268750J0D01*
G01*
X75120250Y-157873000D01*
G75*
G02*
X75389000Y-158141750I0J-268750D01*
G01*
X75389000Y-159104250D01*
G75*
G02*
X75120250Y-159373000I-268750J0D01*
G01*
X74582750Y-159373000D01*
G75*
G02*
X74314000Y-159104250I0J268750D01*
G01*
G37*
%TD*%
%TO.C,R3*%
G36*
G01*
X70638750Y-144672000D02*
X71601250Y-144672000D01*
G75*
G02*
X71870000Y-144940750I0J-268750D01*
G01*
X71870000Y-145478250D01*
G75*
G02*
X71601250Y-145747000I-268750J0D01*
G01*
X70638750Y-145747000D01*
G75*
G02*
X70370000Y-145478250I0J268750D01*
G01*
X70370000Y-144940750D01*
G75*
G02*
X70638750Y-144672000I268750J0D01*
G01*
G37*
G36*
G01*
X70638750Y-142797000D02*
X71601250Y-142797000D01*
G75*
G02*
X71870000Y-143065750I0J-268750D01*
G01*
X71870000Y-143603250D01*
G75*
G02*
X71601250Y-143872000I-268750J0D01*
G01*
X70638750Y-143872000D01*
G75*
G02*
X70370000Y-143603250I0J268750D01*
G01*
X70370000Y-143065750D01*
G75*
G02*
X70638750Y-142797000I268750J0D01*
G01*
G37*
%TD*%
%TO.C,R4*%
G36*
G01*
X73475000Y-155518750D02*
X73475000Y-156481250D01*
G75*
G02*
X73206250Y-156750000I-268750J0D01*
G01*
X72668750Y-156750000D01*
G75*
G02*
X72400000Y-156481250I0J268750D01*
G01*
X72400000Y-155518750D01*
G75*
G02*
X72668750Y-155250000I268750J0D01*
G01*
X73206250Y-155250000D01*
G75*
G02*
X73475000Y-155518750I0J-268750D01*
G01*
G37*
G36*
G01*
X71600000Y-155518750D02*
X71600000Y-156481250D01*
G75*
G02*
X71331250Y-156750000I-268750J0D01*
G01*
X70793750Y-156750000D01*
G75*
G02*
X70525000Y-156481250I0J268750D01*
G01*
X70525000Y-155518750D01*
G75*
G02*
X70793750Y-155250000I268750J0D01*
G01*
X71331250Y-155250000D01*
G75*
G02*
X71600000Y-155518750I0J-268750D01*
G01*
G37*
%TD*%
%TO.C,R5*%
G36*
G01*
X44400000Y-154481250D02*
X44400000Y-153518750D01*
G75*
G02*
X44668750Y-153250000I268750J0D01*
G01*
X45206250Y-153250000D01*
G75*
G02*
X45475000Y-153518750I0J-268750D01*
G01*
X45475000Y-154481250D01*
G75*
G02*
X45206250Y-154750000I-268750J0D01*
G01*
X44668750Y-154750000D01*
G75*
G02*
X44400000Y-154481250I0J268750D01*
G01*
G37*
G36*
G01*
X42525000Y-154481250D02*
X42525000Y-153518750D01*
G75*
G02*
X42793750Y-153250000I268750J0D01*
G01*
X43331250Y-153250000D01*
G75*
G02*
X43600000Y-153518750I0J-268750D01*
G01*
X43600000Y-154481250D01*
G75*
G02*
X43331250Y-154750000I-268750J0D01*
G01*
X42793750Y-154750000D01*
G75*
G02*
X42525000Y-154481250I0J268750D01*
G01*
G37*
%TD*%
%TO.C,R6*%
G36*
G01*
X48342000Y-140181250D02*
X48342000Y-139218750D01*
G75*
G02*
X48610750Y-138950000I268750J0D01*
G01*
X49148250Y-138950000D01*
G75*
G02*
X49417000Y-139218750I0J-268750D01*
G01*
X49417000Y-140181250D01*
G75*
G02*
X49148250Y-140450000I-268750J0D01*
G01*
X48610750Y-140450000D01*
G75*
G02*
X48342000Y-140181250I0J268750D01*
G01*
G37*
G36*
G01*
X46467000Y-140181250D02*
X46467000Y-139218750D01*
G75*
G02*
X46735750Y-138950000I268750J0D01*
G01*
X47273250Y-138950000D01*
G75*
G02*
X47542000Y-139218750I0J-268750D01*
G01*
X47542000Y-140181250D01*
G75*
G02*
X47273250Y-140450000I-268750J0D01*
G01*
X46735750Y-140450000D01*
G75*
G02*
X46467000Y-140181250I0J268750D01*
G01*
G37*
%TD*%
%TO.C,R7*%
G36*
G01*
X46467000Y-143229250D02*
X46467000Y-142266750D01*
G75*
G02*
X46735750Y-141998000I268750J0D01*
G01*
X47273250Y-141998000D01*
G75*
G02*
X47542000Y-142266750I0J-268750D01*
G01*
X47542000Y-143229250D01*
G75*
G02*
X47273250Y-143498000I-268750J0D01*
G01*
X46735750Y-143498000D01*
G75*
G02*
X46467000Y-143229250I0J268750D01*
G01*
G37*
G36*
G01*
X48342000Y-143229250D02*
X48342000Y-142266750D01*
G75*
G02*
X48610750Y-141998000I268750J0D01*
G01*
X49148250Y-141998000D01*
G75*
G02*
X49417000Y-142266750I0J-268750D01*
G01*
X49417000Y-143229250D01*
G75*
G02*
X49148250Y-143498000I-268750J0D01*
G01*
X48610750Y-143498000D01*
G75*
G02*
X48342000Y-143229250I0J268750D01*
G01*
G37*
%TD*%
%TO.C,R8*%
G36*
G01*
X46467000Y-146277250D02*
X46467000Y-145314750D01*
G75*
G02*
X46735750Y-145046000I268750J0D01*
G01*
X47273250Y-145046000D01*
G75*
G02*
X47542000Y-145314750I0J-268750D01*
G01*
X47542000Y-146277250D01*
G75*
G02*
X47273250Y-146546000I-268750J0D01*
G01*
X46735750Y-146546000D01*
G75*
G02*
X46467000Y-146277250I0J268750D01*
G01*
G37*
G36*
G01*
X48342000Y-146277250D02*
X48342000Y-145314750D01*
G75*
G02*
X48610750Y-145046000I268750J0D01*
G01*
X49148250Y-145046000D01*
G75*
G02*
X49417000Y-145314750I0J-268750D01*
G01*
X49417000Y-146277250D01*
G75*
G02*
X49148250Y-146546000I-268750J0D01*
G01*
X48610750Y-146546000D01*
G75*
G02*
X48342000Y-146277250I0J268750D01*
G01*
G37*
%TD*%
%TO.C,R9*%
G36*
G01*
X48342000Y-148944250D02*
X48342000Y-147981750D01*
G75*
G02*
X48610750Y-147713000I268750J0D01*
G01*
X49148250Y-147713000D01*
G75*
G02*
X49417000Y-147981750I0J-268750D01*
G01*
X49417000Y-148944250D01*
G75*
G02*
X49148250Y-149213000I-268750J0D01*
G01*
X48610750Y-149213000D01*
G75*
G02*
X48342000Y-148944250I0J268750D01*
G01*
G37*
G36*
G01*
X46467000Y-148944250D02*
X46467000Y-147981750D01*
G75*
G02*
X46735750Y-147713000I268750J0D01*
G01*
X47273250Y-147713000D01*
G75*
G02*
X47542000Y-147981750I0J-268750D01*
G01*
X47542000Y-148944250D01*
G75*
G02*
X47273250Y-149213000I-268750J0D01*
G01*
X46735750Y-149213000D01*
G75*
G02*
X46467000Y-148944250I0J268750D01*
G01*
G37*
%TD*%
%TO.C,R10*%
G36*
G01*
X41480000Y-162967750D02*
X41480000Y-163930250D01*
G75*
G02*
X41211250Y-164199000I-268750J0D01*
G01*
X40673750Y-164199000D01*
G75*
G02*
X40405000Y-163930250I0J268750D01*
G01*
X40405000Y-162967750D01*
G75*
G02*
X40673750Y-162699000I268750J0D01*
G01*
X41211250Y-162699000D01*
G75*
G02*
X41480000Y-162967750I0J-268750D01*
G01*
G37*
G36*
G01*
X39605000Y-162967750D02*
X39605000Y-163930250D01*
G75*
G02*
X39336250Y-164199000I-268750J0D01*
G01*
X38798750Y-164199000D01*
G75*
G02*
X38530000Y-163930250I0J268750D01*
G01*
X38530000Y-162967750D01*
G75*
G02*
X38798750Y-162699000I268750J0D01*
G01*
X39336250Y-162699000D01*
G75*
G02*
X39605000Y-162967750I0J-268750D01*
G01*
G37*
%TD*%
%TO.C,R11*%
G36*
G01*
X26481250Y-147600000D02*
X25518750Y-147600000D01*
G75*
G02*
X25250000Y-147331250I0J268750D01*
G01*
X25250000Y-146793750D01*
G75*
G02*
X25518750Y-146525000I268750J0D01*
G01*
X26481250Y-146525000D01*
G75*
G02*
X26750000Y-146793750I0J-268750D01*
G01*
X26750000Y-147331250D01*
G75*
G02*
X26481250Y-147600000I-268750J0D01*
G01*
G37*
G36*
G01*
X26481250Y-149475000D02*
X25518750Y-149475000D01*
G75*
G02*
X25250000Y-149206250I0J268750D01*
G01*
X25250000Y-148668750D01*
G75*
G02*
X25518750Y-148400000I268750J0D01*
G01*
X26481250Y-148400000D01*
G75*
G02*
X26750000Y-148668750I0J-268750D01*
G01*
X26750000Y-149206250D01*
G75*
G02*
X26481250Y-149475000I-268750J0D01*
G01*
G37*
%TD*%
D23*
%TO.C,SW1*%
X69850000Y-167100000D03*
X76150000Y-167100000D03*
X69850000Y-170900000D03*
X76150000Y-170900000D03*
%TD*%
D24*
%TO.C,H1*%
X23000000Y-135000000D03*
%TD*%
%TO.C,H2*%
X23000000Y-176000000D03*
%TD*%
%TO.C,H3*%
X76000000Y-135000000D03*
%TD*%
%TO.C,H4*%
X76000000Y-176000000D03*
%TD*%
D15*
%TO.C,J9*%
X48006000Y-161671000D03*
D14*
X48006000Y-159131000D03*
%TD*%
D25*
%TO.C,U2*%
X46727000Y-171075000D03*
X46727000Y-175635000D03*
D26*
X53027000Y-173355000D03*
%TD*%
D27*
%TO.C,U1*%
X67756000Y-155067000D03*
D28*
X67756000Y-153067000D03*
X67756000Y-151067000D03*
X67756000Y-149067000D03*
X67756000Y-147067000D03*
X67756000Y-145067000D03*
X67756000Y-143067000D03*
X67756000Y-141067000D03*
X52356000Y-141067000D03*
X52456000Y-143067000D03*
X52356000Y-145067000D03*
X52356000Y-147067000D03*
X52356000Y-149067000D03*
X52356000Y-151067000D03*
X52356000Y-153067000D03*
X52356000Y-155067000D03*
D29*
X65066000Y-139367000D03*
X63066000Y-139367000D03*
X61066000Y-139367000D03*
X59066000Y-139367000D03*
X57066000Y-139367000D03*
X55066000Y-139367000D03*
%TD*%
D30*
%TO.C,JP1*%
G36*
X45376398Y-161057111D02*
G01*
X45376398Y-161075534D01*
X45376157Y-161080435D01*
X45371347Y-161129266D01*
X45370627Y-161134119D01*
X45361055Y-161182244D01*
X45359863Y-161187005D01*
X45345619Y-161233960D01*
X45343966Y-161238579D01*
X45325189Y-161283912D01*
X45323091Y-161288349D01*
X45299960Y-161331622D01*
X45297438Y-161335829D01*
X45270178Y-161376628D01*
X45267254Y-161380570D01*
X45236126Y-161418499D01*
X45232831Y-161422134D01*
X45198134Y-161456831D01*
X45194499Y-161460126D01*
X45156570Y-161491254D01*
X45152628Y-161494178D01*
X45111829Y-161521438D01*
X45107622Y-161523960D01*
X45064349Y-161547091D01*
X45059912Y-161549189D01*
X45014579Y-161567966D01*
X45009960Y-161569619D01*
X44963005Y-161583863D01*
X44958244Y-161585055D01*
X44910119Y-161594627D01*
X44905266Y-161595347D01*
X44856435Y-161600157D01*
X44851534Y-161600398D01*
X44833111Y-161600398D01*
X44827000Y-161601000D01*
X44327000Y-161601000D01*
X44320889Y-161600398D01*
X44302466Y-161600398D01*
X44297565Y-161600157D01*
X44248734Y-161595347D01*
X44243881Y-161594627D01*
X44195756Y-161585055D01*
X44190995Y-161583863D01*
X44144040Y-161569619D01*
X44139421Y-161567966D01*
X44094088Y-161549189D01*
X44089651Y-161547091D01*
X44046378Y-161523960D01*
X44042171Y-161521438D01*
X44001372Y-161494178D01*
X43997430Y-161491254D01*
X43959501Y-161460126D01*
X43955866Y-161456831D01*
X43921169Y-161422134D01*
X43917874Y-161418499D01*
X43886746Y-161380570D01*
X43883822Y-161376628D01*
X43856562Y-161335829D01*
X43854040Y-161331622D01*
X43830909Y-161288349D01*
X43828811Y-161283912D01*
X43810034Y-161238579D01*
X43808381Y-161233960D01*
X43794137Y-161187005D01*
X43792945Y-161182244D01*
X43783373Y-161134119D01*
X43782653Y-161129266D01*
X43777843Y-161080435D01*
X43777602Y-161075534D01*
X43777602Y-161057111D01*
X43777000Y-161051000D01*
X43777000Y-160551000D01*
X43777961Y-160541245D01*
X43780806Y-160531866D01*
X43785427Y-160523221D01*
X43791645Y-160515645D01*
X43799221Y-160509427D01*
X43807866Y-160504806D01*
X43817245Y-160501961D01*
X43827000Y-160501000D01*
X45327000Y-160501000D01*
X45336755Y-160501961D01*
X45346134Y-160504806D01*
X45354779Y-160509427D01*
X45362355Y-160515645D01*
X45368573Y-160523221D01*
X45373194Y-160531866D01*
X45376039Y-160541245D01*
X45377000Y-160551000D01*
X45377000Y-161051000D01*
X45376398Y-161057111D01*
G37*
G36*
X45376039Y-160260755D02*
G01*
X45373194Y-160270134D01*
X45368573Y-160278779D01*
X45362355Y-160286355D01*
X45354779Y-160292573D01*
X45346134Y-160297194D01*
X45336755Y-160300039D01*
X45327000Y-160301000D01*
X43827000Y-160301000D01*
X43817245Y-160300039D01*
X43807866Y-160297194D01*
X43799221Y-160292573D01*
X43791645Y-160286355D01*
X43785427Y-160278779D01*
X43780806Y-160270134D01*
X43777961Y-160260755D01*
X43777000Y-160251000D01*
X43777000Y-159751000D01*
X43777602Y-159744889D01*
X43777602Y-159726466D01*
X43777843Y-159721565D01*
X43782653Y-159672734D01*
X43783373Y-159667881D01*
X43792945Y-159619756D01*
X43794137Y-159614995D01*
X43808381Y-159568040D01*
X43810034Y-159563421D01*
X43828811Y-159518088D01*
X43830909Y-159513651D01*
X43854040Y-159470378D01*
X43856562Y-159466171D01*
X43883822Y-159425372D01*
X43886746Y-159421430D01*
X43917874Y-159383501D01*
X43921169Y-159379866D01*
X43955866Y-159345169D01*
X43959501Y-159341874D01*
X43997430Y-159310746D01*
X44001372Y-159307822D01*
X44042171Y-159280562D01*
X44046378Y-159278040D01*
X44089651Y-159254909D01*
X44094088Y-159252811D01*
X44139421Y-159234034D01*
X44144040Y-159232381D01*
X44190995Y-159218137D01*
X44195756Y-159216945D01*
X44243881Y-159207373D01*
X44248734Y-159206653D01*
X44297565Y-159201843D01*
X44302466Y-159201602D01*
X44320889Y-159201602D01*
X44327000Y-159201000D01*
X44827000Y-159201000D01*
X44833111Y-159201602D01*
X44851534Y-159201602D01*
X44856435Y-159201843D01*
X44905266Y-159206653D01*
X44910119Y-159207373D01*
X44958244Y-159216945D01*
X44963005Y-159218137D01*
X45009960Y-159232381D01*
X45014579Y-159234034D01*
X45059912Y-159252811D01*
X45064349Y-159254909D01*
X45107622Y-159278040D01*
X45111829Y-159280562D01*
X45152628Y-159307822D01*
X45156570Y-159310746D01*
X45194499Y-159341874D01*
X45198134Y-159345169D01*
X45232831Y-159379866D01*
X45236126Y-159383501D01*
X45267254Y-159421430D01*
X45270178Y-159425372D01*
X45297438Y-159466171D01*
X45299960Y-159470378D01*
X45323091Y-159513651D01*
X45325189Y-159518088D01*
X45343966Y-159563421D01*
X45345619Y-159568040D01*
X45359863Y-159614995D01*
X45361055Y-159619756D01*
X45370627Y-159667881D01*
X45371347Y-159672734D01*
X45376157Y-159721565D01*
X45376398Y-159726466D01*
X45376398Y-159744889D01*
X45377000Y-159751000D01*
X45377000Y-160251000D01*
X45376039Y-160260755D01*
G37*
%TD*%
M02*
