%TF.GenerationSoftware,KiCad,Pcbnew,5.1.6-c6e7f7d~87~ubuntu18.04.1*%
%TF.CreationDate,2022-02-07T12:13:50+00:00*%
%TF.ProjectId,wifiboard-v4,77696669-626f-4617-9264-2d76342e6b69,rev?*%
%TF.SameCoordinates,Original*%
%TF.FileFunction,Copper,L1,Top*%
%TF.FilePolarity,Positive*%
%FSLAX46Y46*%
G04 Gerber Fmt 4.6, Leading zero omitted, Abs format (unit mm)*
G04 Created by KiCad (PCBNEW 5.1.6-c6e7f7d~87~ubuntu18.04.1) date 2022-02-07 12:13:50*
%MOMM*%
%LPD*%
G01*
G04 APERTURE LIST*
%TA.AperFunction,EtchedComponent*%
%ADD10C,0.100000*%
%TD*%
%TA.AperFunction,ComponentPad*%
%ADD11C,2.000000*%
%TD*%
%TA.AperFunction,ComponentPad*%
%ADD12R,2.000000X2.000000*%
%TD*%
%TA.AperFunction,ComponentPad*%
%ADD13C,1.800000*%
%TD*%
%TA.AperFunction,ComponentPad*%
%ADD14R,1.800000X1.800000*%
%TD*%
%TA.AperFunction,ComponentPad*%
%ADD15O,1.700000X1.700000*%
%TD*%
%TA.AperFunction,ComponentPad*%
%ADD16R,1.700000X1.700000*%
%TD*%
%TA.AperFunction,ComponentPad*%
%ADD17R,3.000000X3.000000*%
%TD*%
%TA.AperFunction,ComponentPad*%
%ADD18C,3.000000*%
%TD*%
%TA.AperFunction,ComponentPad*%
%ADD19C,1.725000*%
%TD*%
%TA.AperFunction,SMDPad,CuDef*%
%ADD20R,5.800000X6.400000*%
%TD*%
%TA.AperFunction,SMDPad,CuDef*%
%ADD21R,1.200000X2.200000*%
%TD*%
%TA.AperFunction,ComponentPad*%
%ADD22C,2.400000*%
%TD*%
%TA.AperFunction,ComponentPad*%
%ADD23O,2.400000X2.400000*%
%TD*%
%TA.AperFunction,SMDPad,CuDef*%
%ADD24R,1.700000X1.000000*%
%TD*%
%TA.AperFunction,SMDPad,CuDef*%
%ADD25R,2.200000X1.200000*%
%TD*%
%TA.AperFunction,SMDPad,CuDef*%
%ADD26R,6.400000X5.800000*%
%TD*%
%TA.AperFunction,ComponentPad*%
%ADD27R,2.500000X1.100000*%
%TD*%
%TA.AperFunction,ComponentPad*%
%ADD28O,2.500000X1.100000*%
%TD*%
%TA.AperFunction,ComponentPad*%
%ADD29O,1.100000X2.500000*%
%TD*%
%TA.AperFunction,SMDPad,CuDef*%
%ADD30C,0.100000*%
%TD*%
%TA.AperFunction,ViaPad*%
%ADD31C,0.800000*%
%TD*%
%TA.AperFunction,Conductor*%
%ADD32C,0.250000*%
%TD*%
%TA.AperFunction,Conductor*%
%ADD33C,2.000000*%
%TD*%
%TA.AperFunction,Conductor*%
%ADD34C,1.000000*%
%TD*%
%TA.AperFunction,Conductor*%
%ADD35C,0.254000*%
%TD*%
G04 APERTURE END LIST*
D10*
%TO.C,JP1*%
G36*
X44877000Y-160651000D02*
G01*
X44877000Y-160151000D01*
X44277000Y-160151000D01*
X44277000Y-160651000D01*
X44877000Y-160651000D01*
G37*
%TD*%
D11*
%TO.P,C1,2*%
%TO.N,GND*%
X39243000Y-175942000D03*
D12*
%TO.P,C1,1*%
%TO.N,Net-(C1-Pad1)*%
X39243000Y-170942000D03*
%TD*%
%TO.P,C2,2*%
%TO.N,GND*%
%TA.AperFunction,SMDPad,CuDef*%
G36*
G01*
X72543750Y-162450000D02*
X73456250Y-162450000D01*
G75*
G02*
X73700000Y-162693750I0J-243750D01*
G01*
X73700000Y-163181250D01*
G75*
G02*
X73456250Y-163425000I-243750J0D01*
G01*
X72543750Y-163425000D01*
G75*
G02*
X72300000Y-163181250I0J243750D01*
G01*
X72300000Y-162693750D01*
G75*
G02*
X72543750Y-162450000I243750J0D01*
G01*
G37*
%TD.AperFunction*%
%TO.P,C2,1*%
%TO.N,Net-(C2-Pad1)*%
%TA.AperFunction,SMDPad,CuDef*%
G36*
G01*
X72543750Y-160575000D02*
X73456250Y-160575000D01*
G75*
G02*
X73700000Y-160818750I0J-243750D01*
G01*
X73700000Y-161306250D01*
G75*
G02*
X73456250Y-161550000I-243750J0D01*
G01*
X72543750Y-161550000D01*
G75*
G02*
X72300000Y-161306250I0J243750D01*
G01*
X72300000Y-160818750D01*
G75*
G02*
X72543750Y-160575000I243750J0D01*
G01*
G37*
%TD.AperFunction*%
%TD*%
%TO.P,C3,1*%
%TO.N,+3V3*%
X63000000Y-170815000D03*
D11*
%TO.P,C3,2*%
%TO.N,GND*%
X63000000Y-175815000D03*
%TD*%
%TO.P,C4,1*%
%TO.N,+3V3*%
%TA.AperFunction,SMDPad,CuDef*%
G36*
G01*
X71068250Y-141379000D02*
X70155750Y-141379000D01*
G75*
G02*
X69912000Y-141135250I0J243750D01*
G01*
X69912000Y-140647750D01*
G75*
G02*
X70155750Y-140404000I243750J0D01*
G01*
X71068250Y-140404000D01*
G75*
G02*
X71312000Y-140647750I0J-243750D01*
G01*
X71312000Y-141135250D01*
G75*
G02*
X71068250Y-141379000I-243750J0D01*
G01*
G37*
%TD.AperFunction*%
%TO.P,C4,2*%
%TO.N,GND*%
%TA.AperFunction,SMDPad,CuDef*%
G36*
G01*
X71068250Y-139504000D02*
X70155750Y-139504000D01*
G75*
G02*
X69912000Y-139260250I0J243750D01*
G01*
X69912000Y-138772750D01*
G75*
G02*
X70155750Y-138529000I243750J0D01*
G01*
X71068250Y-138529000D01*
G75*
G02*
X71312000Y-138772750I0J-243750D01*
G01*
X71312000Y-139260250D01*
G75*
G02*
X71068250Y-139504000I-243750J0D01*
G01*
G37*
%TD.AperFunction*%
%TD*%
%TO.P,C5,1*%
%TO.N,Net-(C5-Pad1)*%
%TA.AperFunction,SMDPad,CuDef*%
G36*
G01*
X70575000Y-153456250D02*
X70575000Y-152543750D01*
G75*
G02*
X70818750Y-152300000I243750J0D01*
G01*
X71306250Y-152300000D01*
G75*
G02*
X71550000Y-152543750I0J-243750D01*
G01*
X71550000Y-153456250D01*
G75*
G02*
X71306250Y-153700000I-243750J0D01*
G01*
X70818750Y-153700000D01*
G75*
G02*
X70575000Y-153456250I0J243750D01*
G01*
G37*
%TD.AperFunction*%
%TO.P,C5,2*%
%TO.N,GND*%
%TA.AperFunction,SMDPad,CuDef*%
G36*
G01*
X72450000Y-153456250D02*
X72450000Y-152543750D01*
G75*
G02*
X72693750Y-152300000I243750J0D01*
G01*
X73181250Y-152300000D01*
G75*
G02*
X73425000Y-152543750I0J-243750D01*
G01*
X73425000Y-153456250D01*
G75*
G02*
X73181250Y-153700000I-243750J0D01*
G01*
X72693750Y-153700000D01*
G75*
G02*
X72450000Y-153456250I0J243750D01*
G01*
G37*
%TD.AperFunction*%
%TD*%
D13*
%TO.P,D1,2*%
%TO.N,Net-(D1-Pad2)*%
X40540000Y-154000000D03*
D14*
%TO.P,D1,1*%
%TO.N,GND*%
X38000000Y-154000000D03*
%TD*%
%TO.P,D2,1*%
%TO.N,GND*%
X38000000Y-160000000D03*
D13*
%TO.P,D2,2*%
%TO.N,Net-(D2-Pad2)*%
X40540000Y-160000000D03*
%TD*%
D15*
%TO.P,J1,2*%
%TO.N,GND*%
X29083000Y-176657000D03*
D16*
%TO.P,J1,1*%
%TO.N,+12V*%
X31623000Y-176657000D03*
%TD*%
%TO.P,J2,1*%
%TO.N,Net-(C2-Pad1)*%
X76000000Y-161000000D03*
D15*
%TO.P,J2,2*%
%TO.N,GND*%
X76000000Y-163540000D03*
%TD*%
D16*
%TO.P,J3,1*%
%TO.N,Net-(J3-Pad1)*%
X76000000Y-152000000D03*
D15*
%TO.P,J3,2*%
%TO.N,Net-(J3-Pad2)*%
X76000000Y-149460000D03*
%TO.P,J3,3*%
%TO.N,Net-(J3-Pad3)*%
X76000000Y-146920000D03*
%TO.P,J3,4*%
%TO.N,Net-(J3-Pad4)*%
X76000000Y-144380000D03*
%TO.P,J3,5*%
%TO.N,GND*%
X76000000Y-141840000D03*
%TD*%
D16*
%TO.P,J4,1*%
%TO.N,GND*%
X70000000Y-135000000D03*
D15*
%TO.P,J4,2*%
%TO.N,Net-(J4-Pad2)*%
X67460000Y-135000000D03*
%TO.P,J4,3*%
%TO.N,Net-(J4-Pad3)*%
X64920000Y-135000000D03*
%TO.P,J4,4*%
%TO.N,Net-(J4-Pad4)*%
X62380000Y-135000000D03*
%TO.P,J4,5*%
%TO.N,Net-(J4-Pad5)*%
X59840000Y-135000000D03*
%TO.P,J4,6*%
%TO.N,Net-(J4-Pad6)*%
X57300000Y-135000000D03*
%TO.P,J4,7*%
%TO.N,Net-(J4-Pad7)*%
X54760000Y-135000000D03*
%TD*%
D16*
%TO.P,J5,1*%
%TO.N,GND*%
X50000000Y-135000000D03*
D15*
%TO.P,J5,2*%
%TO.N,Net-(J5-Pad2)*%
X47460000Y-135000000D03*
%TO.P,J5,3*%
%TO.N,Net-(J5-Pad3)*%
X44920000Y-135000000D03*
%TO.P,J5,4*%
%TO.N,Net-(J5-Pad4)*%
X42380000Y-135000000D03*
%TO.P,J5,5*%
%TO.N,Net-(J5-Pad5)*%
X39840000Y-135000000D03*
%TO.P,J5,6*%
%TO.N,Net-(J5-Pad6)*%
X37300000Y-135000000D03*
%TD*%
D16*
%TO.P,J6,1*%
%TO.N,GND*%
X48000000Y-155000000D03*
D15*
%TO.P,J6,2*%
%TO.N,Net-(J6-Pad2)*%
X48000000Y-152460000D03*
%TD*%
D16*
%TO.P,J7,1*%
%TO.N,GND*%
X33000000Y-135000000D03*
D15*
%TO.P,J7,2*%
%TO.N,Net-(J7-Pad2)*%
X30460000Y-135000000D03*
%TO.P,J7,3*%
%TO.N,+12V*%
X27920000Y-135000000D03*
%TD*%
D17*
%TO.P,J8,1*%
%TO.N,Net-(J8-Pad1)*%
X23000000Y-165000000D03*
D18*
%TO.P,J8,2*%
%TO.N,Net-(J8-Pad2)*%
X23000000Y-159920000D03*
%TD*%
D19*
%TO.P,K1,1*%
%TO.N,Net-(J7-Pad2)*%
X31123000Y-147110000D03*
%TO.P,K1,2*%
%TO.N,Net-(K1-Pad2)*%
X31123000Y-149650000D03*
%TO.P,K1,3*%
%TO.N,Net-(J8-Pad2)*%
X31123000Y-159810000D03*
%TO.P,K1,4*%
%TO.N,Net-(J8-Pad1)*%
X31123000Y-164890000D03*
%TD*%
D20*
%TO.P,Q1,2*%
%TO.N,Net-(J7-Pad2)*%
X39370000Y-146499000D03*
D21*
%TO.P,Q1,3*%
%TO.N,GND*%
X37090000Y-140199000D03*
%TO.P,Q1,1*%
%TO.N,Net-(Q1-Pad1)*%
X41650000Y-140199000D03*
%TD*%
D22*
%TO.P,R1,1*%
%TO.N,+12V*%
X43000000Y-167000000D03*
D23*
%TO.P,R1,2*%
%TO.N,Net-(C1-Pad1)*%
X58240000Y-167000000D03*
%TD*%
%TO.P,R2,1*%
%TO.N,+3V3*%
%TA.AperFunction,SMDPad,CuDef*%
G36*
G01*
X72489000Y-159079250D02*
X72489000Y-158166750D01*
G75*
G02*
X72732750Y-157923000I243750J0D01*
G01*
X73220250Y-157923000D01*
G75*
G02*
X73464000Y-158166750I0J-243750D01*
G01*
X73464000Y-159079250D01*
G75*
G02*
X73220250Y-159323000I-243750J0D01*
G01*
X72732750Y-159323000D01*
G75*
G02*
X72489000Y-159079250I0J243750D01*
G01*
G37*
%TD.AperFunction*%
%TO.P,R2,2*%
%TO.N,Net-(C2-Pad1)*%
%TA.AperFunction,SMDPad,CuDef*%
G36*
G01*
X74364000Y-159079250D02*
X74364000Y-158166750D01*
G75*
G02*
X74607750Y-157923000I243750J0D01*
G01*
X75095250Y-157923000D01*
G75*
G02*
X75339000Y-158166750I0J-243750D01*
G01*
X75339000Y-159079250D01*
G75*
G02*
X75095250Y-159323000I-243750J0D01*
G01*
X74607750Y-159323000D01*
G75*
G02*
X74364000Y-159079250I0J243750D01*
G01*
G37*
%TD.AperFunction*%
%TD*%
%TO.P,R3,2*%
%TO.N,Net-(R3-Pad2)*%
%TA.AperFunction,SMDPad,CuDef*%
G36*
G01*
X70663750Y-144722000D02*
X71576250Y-144722000D01*
G75*
G02*
X71820000Y-144965750I0J-243750D01*
G01*
X71820000Y-145453250D01*
G75*
G02*
X71576250Y-145697000I-243750J0D01*
G01*
X70663750Y-145697000D01*
G75*
G02*
X70420000Y-145453250I0J243750D01*
G01*
X70420000Y-144965750D01*
G75*
G02*
X70663750Y-144722000I243750J0D01*
G01*
G37*
%TD.AperFunction*%
%TO.P,R3,1*%
%TO.N,+3V3*%
%TA.AperFunction,SMDPad,CuDef*%
G36*
G01*
X70663750Y-142847000D02*
X71576250Y-142847000D01*
G75*
G02*
X71820000Y-143090750I0J-243750D01*
G01*
X71820000Y-143578250D01*
G75*
G02*
X71576250Y-143822000I-243750J0D01*
G01*
X70663750Y-143822000D01*
G75*
G02*
X70420000Y-143578250I0J243750D01*
G01*
X70420000Y-143090750D01*
G75*
G02*
X70663750Y-142847000I243750J0D01*
G01*
G37*
%TD.AperFunction*%
%TD*%
%TO.P,R4,1*%
%TO.N,+3V3*%
%TA.AperFunction,SMDPad,CuDef*%
G36*
G01*
X73425000Y-155543750D02*
X73425000Y-156456250D01*
G75*
G02*
X73181250Y-156700000I-243750J0D01*
G01*
X72693750Y-156700000D01*
G75*
G02*
X72450000Y-156456250I0J243750D01*
G01*
X72450000Y-155543750D01*
G75*
G02*
X72693750Y-155300000I243750J0D01*
G01*
X73181250Y-155300000D01*
G75*
G02*
X73425000Y-155543750I0J-243750D01*
G01*
G37*
%TD.AperFunction*%
%TO.P,R4,2*%
%TO.N,Net-(C5-Pad1)*%
%TA.AperFunction,SMDPad,CuDef*%
G36*
G01*
X71550000Y-155543750D02*
X71550000Y-156456250D01*
G75*
G02*
X71306250Y-156700000I-243750J0D01*
G01*
X70818750Y-156700000D01*
G75*
G02*
X70575000Y-156456250I0J243750D01*
G01*
X70575000Y-155543750D01*
G75*
G02*
X70818750Y-155300000I243750J0D01*
G01*
X71306250Y-155300000D01*
G75*
G02*
X71550000Y-155543750I0J-243750D01*
G01*
G37*
%TD.AperFunction*%
%TD*%
%TO.P,R5,2*%
%TO.N,Net-(R5-Pad2)*%
%TA.AperFunction,SMDPad,CuDef*%
G36*
G01*
X44450000Y-154456250D02*
X44450000Y-153543750D01*
G75*
G02*
X44693750Y-153300000I243750J0D01*
G01*
X45181250Y-153300000D01*
G75*
G02*
X45425000Y-153543750I0J-243750D01*
G01*
X45425000Y-154456250D01*
G75*
G02*
X45181250Y-154700000I-243750J0D01*
G01*
X44693750Y-154700000D01*
G75*
G02*
X44450000Y-154456250I0J243750D01*
G01*
G37*
%TD.AperFunction*%
%TO.P,R5,1*%
%TO.N,Net-(D1-Pad2)*%
%TA.AperFunction,SMDPad,CuDef*%
G36*
G01*
X42575000Y-154456250D02*
X42575000Y-153543750D01*
G75*
G02*
X42818750Y-153300000I243750J0D01*
G01*
X43306250Y-153300000D01*
G75*
G02*
X43550000Y-153543750I0J-243750D01*
G01*
X43550000Y-154456250D01*
G75*
G02*
X43306250Y-154700000I-243750J0D01*
G01*
X42818750Y-154700000D01*
G75*
G02*
X42575000Y-154456250I0J243750D01*
G01*
G37*
%TD.AperFunction*%
%TD*%
%TO.P,R6,2*%
%TO.N,Net-(R6-Pad2)*%
%TA.AperFunction,SMDPad,CuDef*%
G36*
G01*
X48392000Y-140156250D02*
X48392000Y-139243750D01*
G75*
G02*
X48635750Y-139000000I243750J0D01*
G01*
X49123250Y-139000000D01*
G75*
G02*
X49367000Y-139243750I0J-243750D01*
G01*
X49367000Y-140156250D01*
G75*
G02*
X49123250Y-140400000I-243750J0D01*
G01*
X48635750Y-140400000D01*
G75*
G02*
X48392000Y-140156250I0J243750D01*
G01*
G37*
%TD.AperFunction*%
%TO.P,R6,1*%
%TO.N,GND*%
%TA.AperFunction,SMDPad,CuDef*%
G36*
G01*
X46517000Y-140156250D02*
X46517000Y-139243750D01*
G75*
G02*
X46760750Y-139000000I243750J0D01*
G01*
X47248250Y-139000000D01*
G75*
G02*
X47492000Y-139243750I0J-243750D01*
G01*
X47492000Y-140156250D01*
G75*
G02*
X47248250Y-140400000I-243750J0D01*
G01*
X46760750Y-140400000D01*
G75*
G02*
X46517000Y-140156250I0J243750D01*
G01*
G37*
%TD.AperFunction*%
%TD*%
%TO.P,R7,1*%
%TO.N,+3V3*%
%TA.AperFunction,SMDPad,CuDef*%
G36*
G01*
X46517000Y-143204250D02*
X46517000Y-142291750D01*
G75*
G02*
X46760750Y-142048000I243750J0D01*
G01*
X47248250Y-142048000D01*
G75*
G02*
X47492000Y-142291750I0J-243750D01*
G01*
X47492000Y-143204250D01*
G75*
G02*
X47248250Y-143448000I-243750J0D01*
G01*
X46760750Y-143448000D01*
G75*
G02*
X46517000Y-143204250I0J243750D01*
G01*
G37*
%TD.AperFunction*%
%TO.P,R7,2*%
%TO.N,Net-(R7-Pad2)*%
%TA.AperFunction,SMDPad,CuDef*%
G36*
G01*
X48392000Y-143204250D02*
X48392000Y-142291750D01*
G75*
G02*
X48635750Y-142048000I243750J0D01*
G01*
X49123250Y-142048000D01*
G75*
G02*
X49367000Y-142291750I0J-243750D01*
G01*
X49367000Y-143204250D01*
G75*
G02*
X49123250Y-143448000I-243750J0D01*
G01*
X48635750Y-143448000D01*
G75*
G02*
X48392000Y-143204250I0J243750D01*
G01*
G37*
%TD.AperFunction*%
%TD*%
%TO.P,R8,1*%
%TO.N,+3V3*%
%TA.AperFunction,SMDPad,CuDef*%
G36*
G01*
X46517000Y-146252250D02*
X46517000Y-145339750D01*
G75*
G02*
X46760750Y-145096000I243750J0D01*
G01*
X47248250Y-145096000D01*
G75*
G02*
X47492000Y-145339750I0J-243750D01*
G01*
X47492000Y-146252250D01*
G75*
G02*
X47248250Y-146496000I-243750J0D01*
G01*
X46760750Y-146496000D01*
G75*
G02*
X46517000Y-146252250I0J243750D01*
G01*
G37*
%TD.AperFunction*%
%TO.P,R8,2*%
%TO.N,Net-(J6-Pad2)*%
%TA.AperFunction,SMDPad,CuDef*%
G36*
G01*
X48392000Y-146252250D02*
X48392000Y-145339750D01*
G75*
G02*
X48635750Y-145096000I243750J0D01*
G01*
X49123250Y-145096000D01*
G75*
G02*
X49367000Y-145339750I0J-243750D01*
G01*
X49367000Y-146252250D01*
G75*
G02*
X49123250Y-146496000I-243750J0D01*
G01*
X48635750Y-146496000D01*
G75*
G02*
X48392000Y-146252250I0J243750D01*
G01*
G37*
%TD.AperFunction*%
%TD*%
%TO.P,R9,2*%
%TO.N,Net-(J9-Pad2)*%
%TA.AperFunction,SMDPad,CuDef*%
G36*
G01*
X48392000Y-148919250D02*
X48392000Y-148006750D01*
G75*
G02*
X48635750Y-147763000I243750J0D01*
G01*
X49123250Y-147763000D01*
G75*
G02*
X49367000Y-148006750I0J-243750D01*
G01*
X49367000Y-148919250D01*
G75*
G02*
X49123250Y-149163000I-243750J0D01*
G01*
X48635750Y-149163000D01*
G75*
G02*
X48392000Y-148919250I0J243750D01*
G01*
G37*
%TD.AperFunction*%
%TO.P,R9,1*%
%TO.N,Net-(Q1-Pad1)*%
%TA.AperFunction,SMDPad,CuDef*%
G36*
G01*
X46517000Y-148919250D02*
X46517000Y-148006750D01*
G75*
G02*
X46760750Y-147763000I243750J0D01*
G01*
X47248250Y-147763000D01*
G75*
G02*
X47492000Y-148006750I0J-243750D01*
G01*
X47492000Y-148919250D01*
G75*
G02*
X47248250Y-149163000I-243750J0D01*
G01*
X46760750Y-149163000D01*
G75*
G02*
X46517000Y-148919250I0J243750D01*
G01*
G37*
%TD.AperFunction*%
%TD*%
%TO.P,R10,1*%
%TO.N,Net-(J9-Pad1)*%
%TA.AperFunction,SMDPad,CuDef*%
G36*
G01*
X41430000Y-162992750D02*
X41430000Y-163905250D01*
G75*
G02*
X41186250Y-164149000I-243750J0D01*
G01*
X40698750Y-164149000D01*
G75*
G02*
X40455000Y-163905250I0J243750D01*
G01*
X40455000Y-162992750D01*
G75*
G02*
X40698750Y-162749000I243750J0D01*
G01*
X41186250Y-162749000D01*
G75*
G02*
X41430000Y-162992750I0J-243750D01*
G01*
G37*
%TD.AperFunction*%
%TO.P,R10,2*%
%TO.N,Net-(D2-Pad2)*%
%TA.AperFunction,SMDPad,CuDef*%
G36*
G01*
X39555000Y-162992750D02*
X39555000Y-163905250D01*
G75*
G02*
X39311250Y-164149000I-243750J0D01*
G01*
X38823750Y-164149000D01*
G75*
G02*
X38580000Y-163905250I0J243750D01*
G01*
X38580000Y-162992750D01*
G75*
G02*
X38823750Y-162749000I243750J0D01*
G01*
X39311250Y-162749000D01*
G75*
G02*
X39555000Y-162992750I0J-243750D01*
G01*
G37*
%TD.AperFunction*%
%TD*%
%TO.P,R11,2*%
%TO.N,+12V*%
%TA.AperFunction,SMDPad,CuDef*%
G36*
G01*
X26456250Y-147550000D02*
X25543750Y-147550000D01*
G75*
G02*
X25300000Y-147306250I0J243750D01*
G01*
X25300000Y-146818750D01*
G75*
G02*
X25543750Y-146575000I243750J0D01*
G01*
X26456250Y-146575000D01*
G75*
G02*
X26700000Y-146818750I0J-243750D01*
G01*
X26700000Y-147306250D01*
G75*
G02*
X26456250Y-147550000I-243750J0D01*
G01*
G37*
%TD.AperFunction*%
%TO.P,R11,1*%
%TO.N,Net-(K1-Pad2)*%
%TA.AperFunction,SMDPad,CuDef*%
G36*
G01*
X26456250Y-149425000D02*
X25543750Y-149425000D01*
G75*
G02*
X25300000Y-149181250I0J243750D01*
G01*
X25300000Y-148693750D01*
G75*
G02*
X25543750Y-148450000I243750J0D01*
G01*
X26456250Y-148450000D01*
G75*
G02*
X26700000Y-148693750I0J-243750D01*
G01*
X26700000Y-149181250D01*
G75*
G02*
X26456250Y-149425000I-243750J0D01*
G01*
G37*
%TD.AperFunction*%
%TD*%
D24*
%TO.P,SW1,1*%
%TO.N,Net-(C5-Pad1)*%
X69850000Y-167100000D03*
X76150000Y-167100000D03*
%TO.P,SW1,2*%
%TO.N,GND*%
X69850000Y-170900000D03*
X76150000Y-170900000D03*
%TD*%
D16*
%TO.P,J9,1*%
%TO.N,Net-(J9-Pad1)*%
X48006000Y-161671000D03*
D15*
%TO.P,J9,2*%
%TO.N,Net-(J9-Pad2)*%
X48006000Y-159131000D03*
%TD*%
D25*
%TO.P,U2,1*%
%TO.N,Net-(C1-Pad1)*%
X46727000Y-171075000D03*
%TO.P,U2,3*%
%TO.N,+3V3*%
X46727000Y-175635000D03*
D26*
%TO.P,U2,2*%
%TO.N,GND*%
X53027000Y-173355000D03*
%TD*%
D27*
%TO.P,U1,1*%
%TO.N,Net-(C5-Pad1)*%
X67756000Y-155067000D03*
D28*
%TO.P,U1,2*%
%TO.N,Net-(C2-Pad1)*%
X67756000Y-153067000D03*
%TO.P,U1,3*%
%TO.N,Net-(R3-Pad2)*%
X67756000Y-151067000D03*
%TO.P,U1,4*%
%TO.N,Net-(J3-Pad1)*%
X67756000Y-149067000D03*
%TO.P,U1,5*%
%TO.N,Net-(J3-Pad2)*%
X67756000Y-147067000D03*
%TO.P,U1,6*%
%TO.N,Net-(J3-Pad3)*%
X67756000Y-145067000D03*
%TO.P,U1,7*%
%TO.N,Net-(J3-Pad4)*%
X67756000Y-143067000D03*
%TO.P,U1,8*%
%TO.N,+3V3*%
X67756000Y-141067000D03*
%TO.P,U1,9*%
%TO.N,GND*%
X52356000Y-141067000D03*
%TO.P,U1,10*%
%TO.N,Net-(R6-Pad2)*%
X52456000Y-143067000D03*
%TO.P,U1,11*%
%TO.N,Net-(R7-Pad2)*%
X52356000Y-145067000D03*
%TO.P,U1,12*%
%TO.N,Net-(J6-Pad2)*%
X52356000Y-147067000D03*
%TO.P,U1,13*%
%TO.N,Net-(R5-Pad2)*%
X52356000Y-149067000D03*
%TO.P,U1,14*%
%TO.N,Net-(J9-Pad2)*%
X52356000Y-151067000D03*
%TO.P,U1,15*%
%TO.N,Net-(J5-Pad4)*%
X52356000Y-153067000D03*
%TO.P,U1,16*%
%TO.N,Net-(J5-Pad5)*%
X52356000Y-155067000D03*
D29*
%TO.P,U1,17*%
%TO.N,Net-(J4-Pad2)*%
X65066000Y-139367000D03*
%TO.P,U1,18*%
%TO.N,Net-(J4-Pad3)*%
X63066000Y-139367000D03*
%TO.P,U1,19*%
%TO.N,Net-(J4-Pad4)*%
X61066000Y-139367000D03*
%TO.P,U1,20*%
%TO.N,Net-(J4-Pad5)*%
X59066000Y-139367000D03*
%TO.P,U1,21*%
%TO.N,Net-(J4-Pad6)*%
X57066000Y-139367000D03*
%TO.P,U1,22*%
%TO.N,Net-(J4-Pad7)*%
X55066000Y-139367000D03*
%TD*%
%TA.AperFunction,SMDPad,CuDef*%
D30*
%TO.P,JP1,2*%
%TO.N,Net-(J9-Pad1)*%
G36*
X45326398Y-161051000D02*
G01*
X45326398Y-161075534D01*
X45321588Y-161124365D01*
X45312016Y-161172490D01*
X45297772Y-161219445D01*
X45278995Y-161264778D01*
X45255864Y-161308051D01*
X45228604Y-161348850D01*
X45197476Y-161386779D01*
X45162779Y-161421476D01*
X45124850Y-161452604D01*
X45084051Y-161479864D01*
X45040778Y-161502995D01*
X44995445Y-161521772D01*
X44948490Y-161536016D01*
X44900365Y-161545588D01*
X44851534Y-161550398D01*
X44827000Y-161550398D01*
X44827000Y-161551000D01*
X44327000Y-161551000D01*
X44327000Y-161550398D01*
X44302466Y-161550398D01*
X44253635Y-161545588D01*
X44205510Y-161536016D01*
X44158555Y-161521772D01*
X44113222Y-161502995D01*
X44069949Y-161479864D01*
X44029150Y-161452604D01*
X43991221Y-161421476D01*
X43956524Y-161386779D01*
X43925396Y-161348850D01*
X43898136Y-161308051D01*
X43875005Y-161264778D01*
X43856228Y-161219445D01*
X43841984Y-161172490D01*
X43832412Y-161124365D01*
X43827602Y-161075534D01*
X43827602Y-161051000D01*
X43827000Y-161051000D01*
X43827000Y-160551000D01*
X45327000Y-160551000D01*
X45327000Y-161051000D01*
X45326398Y-161051000D01*
G37*
%TD.AperFunction*%
%TA.AperFunction,SMDPad,CuDef*%
%TO.P,JP1,1*%
%TO.N,Net-(J9-Pad2)*%
G36*
X43827000Y-160251000D02*
G01*
X43827000Y-159751000D01*
X43827602Y-159751000D01*
X43827602Y-159726466D01*
X43832412Y-159677635D01*
X43841984Y-159629510D01*
X43856228Y-159582555D01*
X43875005Y-159537222D01*
X43898136Y-159493949D01*
X43925396Y-159453150D01*
X43956524Y-159415221D01*
X43991221Y-159380524D01*
X44029150Y-159349396D01*
X44069949Y-159322136D01*
X44113222Y-159299005D01*
X44158555Y-159280228D01*
X44205510Y-159265984D01*
X44253635Y-159256412D01*
X44302466Y-159251602D01*
X44327000Y-159251602D01*
X44327000Y-159251000D01*
X44827000Y-159251000D01*
X44827000Y-159251602D01*
X44851534Y-159251602D01*
X44900365Y-159256412D01*
X44948490Y-159265984D01*
X44995445Y-159280228D01*
X45040778Y-159299005D01*
X45084051Y-159322136D01*
X45124850Y-159349396D01*
X45162779Y-159380524D01*
X45197476Y-159415221D01*
X45228604Y-159453150D01*
X45255864Y-159493949D01*
X45278995Y-159537222D01*
X45297772Y-159582555D01*
X45312016Y-159629510D01*
X45321588Y-159677635D01*
X45326398Y-159726466D01*
X45326398Y-159751000D01*
X45327000Y-159751000D01*
X45327000Y-160251000D01*
X43827000Y-160251000D01*
G37*
%TD.AperFunction*%
%TD*%
D31*
%TO.N,GND*%
X60000000Y-147000000D03*
X53467000Y-138557000D03*
%TO.N,+3V3*%
X74549000Y-156083000D03*
%TO.N,Net-(J6-Pad2)*%
X50200000Y-150200000D03*
X50200000Y-145800000D03*
%TO.N,Net-(J9-Pad2)*%
X45800000Y-150000000D03*
%TD*%
D32*
%TO.N,GND*%
X75397500Y-162937500D02*
X76000000Y-163540000D01*
X73000000Y-162937500D02*
X75397500Y-162937500D01*
X76000000Y-163540000D02*
X77800000Y-165340000D01*
X77800000Y-169250000D02*
X76150000Y-170900000D01*
X77800000Y-165340000D02*
X77800000Y-169250000D01*
X76000000Y-141840000D02*
X74314000Y-141840000D01*
X72937500Y-143216500D02*
X72937500Y-153000000D01*
X74314000Y-141840000D02*
X72937500Y-143216500D01*
X52862000Y-141000000D02*
X53000000Y-141000000D01*
X49784000Y-137922000D02*
X52862000Y-141000000D01*
X48006000Y-137922000D02*
X49784000Y-137922000D01*
X47004500Y-138923500D02*
X48006000Y-137922000D01*
X47004500Y-139700000D02*
X47004500Y-138923500D01*
D33*
%TO.N,Net-(C1-Pad1)*%
X46727000Y-171075000D02*
X46727000Y-170189000D01*
X46727000Y-170189000D02*
X48260000Y-168656000D01*
X56584000Y-168656000D02*
X58240000Y-167000000D01*
X48260000Y-168656000D02*
X56584000Y-168656000D01*
X46594000Y-170942000D02*
X46727000Y-171075000D01*
X39243000Y-170942000D02*
X46594000Y-170942000D01*
D32*
%TO.N,Net-(C2-Pad1)*%
X75937500Y-161062500D02*
X76000000Y-161000000D01*
X73000000Y-161062500D02*
X75937500Y-161062500D01*
X76000000Y-159771500D02*
X74851500Y-158623000D01*
X76000000Y-161000000D02*
X76000000Y-159771500D01*
%TO.N,+3V3*%
X47004500Y-142748000D02*
X47004500Y-145796000D01*
D34*
X67108500Y-140891500D02*
X67000000Y-141000000D01*
X70612000Y-140891500D02*
X67108500Y-140891500D01*
D32*
X70612000Y-140891500D02*
X70660500Y-140891500D01*
X71120000Y-141351000D02*
X71120000Y-143334500D01*
X70660500Y-140891500D02*
X71120000Y-141351000D01*
X72937500Y-158584000D02*
X72976500Y-158623000D01*
X72937500Y-156000000D02*
X72937500Y-158584000D01*
X73020500Y-156083000D02*
X72937500Y-156000000D01*
X74549000Y-156083000D02*
X73020500Y-156083000D01*
D33*
X47073990Y-177774990D02*
X46727000Y-177428000D01*
X58928000Y-177419000D02*
X58572010Y-177774990D01*
X46727000Y-177428000D02*
X46727000Y-175635000D01*
X58928000Y-172466000D02*
X58928000Y-177419000D01*
X60579000Y-170815000D02*
X58928000Y-172466000D01*
X58572010Y-177774990D02*
X47073990Y-177774990D01*
X63000000Y-170815000D02*
X60579000Y-170815000D01*
D32*
X68000000Y-140000000D02*
X67000000Y-141000000D01*
X68000000Y-137800000D02*
X68000000Y-140000000D01*
X46863000Y-137160000D02*
X67360000Y-137160000D01*
X67360000Y-137160000D02*
X68000000Y-137800000D01*
X45466000Y-142367000D02*
X45466000Y-138557000D01*
X45466000Y-138557000D02*
X46863000Y-137160000D01*
X45847000Y-142748000D02*
X45466000Y-142367000D01*
X47004500Y-142748000D02*
X45847000Y-142748000D01*
%TO.N,Net-(C5-Pad1)*%
X69850000Y-167100000D02*
X76150000Y-167100000D01*
X70062500Y-155000000D02*
X71062500Y-156000000D01*
X67000000Y-155000000D02*
X70062500Y-155000000D01*
X71062500Y-156000000D02*
X71062500Y-153000000D01*
X69850000Y-167100000D02*
X69850000Y-166751000D01*
X71062500Y-165538500D02*
X71062500Y-156000000D01*
X69850000Y-166751000D02*
X71062500Y-165538500D01*
%TO.N,Net-(D1-Pad2)*%
X40540000Y-154000000D02*
X43062500Y-154000000D01*
%TO.N,Net-(D2-Pad2)*%
X40540000Y-160000000D02*
X40540000Y-161263000D01*
X40540000Y-161263000D02*
X39624000Y-162179000D01*
X39624000Y-162179000D02*
X39243000Y-162179000D01*
X39067500Y-162354500D02*
X39067500Y-163449000D01*
X39243000Y-162179000D02*
X39067500Y-162354500D01*
%TO.N,+12V*%
X27920000Y-135000000D02*
X27920000Y-138480000D01*
X26000000Y-140400000D02*
X26000000Y-147062500D01*
X27920000Y-138480000D02*
X26000000Y-140400000D01*
D33*
X37343000Y-167000000D02*
X43000000Y-167000000D01*
X35560000Y-168783000D02*
X37343000Y-167000000D01*
X35560000Y-174752000D02*
X35560000Y-168783000D01*
X33655000Y-176657000D02*
X35560000Y-174752000D01*
X31623000Y-176657000D02*
X33655000Y-176657000D01*
D32*
%TO.N,Net-(J6-Pad2)*%
X48000000Y-152460000D02*
X48335010Y-152124990D01*
X50200000Y-150260000D02*
X50200000Y-150200000D01*
X48000000Y-152460000D02*
X50200000Y-150260000D01*
X51400000Y-147000000D02*
X53000000Y-147000000D01*
X50200000Y-145800000D02*
X51400000Y-147000000D01*
X48883500Y-145800000D02*
X48879500Y-145796000D01*
X50200000Y-145800000D02*
X48883500Y-145800000D01*
D33*
%TO.N,Net-(J8-Pad1)*%
X23083000Y-164890000D02*
X23000000Y-164973000D01*
X31123000Y-164890000D02*
X23083000Y-164890000D01*
%TO.N,Net-(J8-Pad2)*%
X23070000Y-159810000D02*
X22987000Y-159893000D01*
X31123000Y-159810000D02*
X23070000Y-159810000D01*
D32*
%TO.N,Net-(K1-Pad2)*%
X30410500Y-148937500D02*
X31123000Y-149650000D01*
X26000000Y-148937500D02*
X30410500Y-148937500D01*
%TO.N,Net-(R3-Pad2)*%
X67000000Y-151000000D02*
X69218000Y-151000000D01*
X69218000Y-151000000D02*
X70104000Y-150114000D01*
X70104000Y-146225500D02*
X71120000Y-145209500D01*
X70104000Y-150114000D02*
X70104000Y-146225500D01*
%TO.N,Net-(R5-Pad2)*%
X47937750Y-150299750D02*
X44937500Y-153300000D01*
X48709250Y-150299750D02*
X47937750Y-150299750D01*
X44937500Y-153300000D02*
X44937500Y-154000000D01*
X49520990Y-149488010D02*
X48709250Y-150299750D01*
X52511990Y-149488010D02*
X49520990Y-149488010D01*
X53000000Y-149000000D02*
X52511990Y-149488010D01*
%TO.N,Net-(R6-Pad2)*%
X53000000Y-143000000D02*
X50400000Y-143000000D01*
X50400000Y-141220500D02*
X48879500Y-139700000D01*
X50400000Y-143000000D02*
X50400000Y-141220500D01*
%TO.N,Net-(R7-Pad2)*%
X48879500Y-142748000D02*
X48879500Y-143479500D01*
X50400000Y-145000000D02*
X53000000Y-145000000D01*
X48879500Y-143479500D02*
X50400000Y-145000000D01*
%TO.N,Net-(Q1-Pad1)*%
X47004500Y-148463000D02*
X45212000Y-148463000D01*
X45212000Y-148463000D02*
X43688000Y-146939000D01*
X43688000Y-146939000D02*
X43688000Y-141351000D01*
X42536000Y-140199000D02*
X41650000Y-140199000D01*
X43688000Y-141351000D02*
X42536000Y-140199000D01*
%TO.N,Net-(J7-Pad2)*%
X38759000Y-147110000D02*
X39370000Y-146499000D01*
X31123000Y-147110000D02*
X38759000Y-147110000D01*
D33*
X30460000Y-135000000D02*
X30460000Y-140061000D01*
X36898000Y-146499000D02*
X39370000Y-146499000D01*
X30460000Y-140061000D02*
X36898000Y-146499000D01*
D32*
%TO.N,Net-(J9-Pad1)*%
X44577000Y-161051000D02*
X44577000Y-161290000D01*
X44958000Y-161671000D02*
X48006000Y-161671000D01*
X44577000Y-161290000D02*
X44958000Y-161671000D01*
X42179000Y-163449000D02*
X44577000Y-161051000D01*
X40942500Y-163449000D02*
X42179000Y-163449000D01*
%TO.N,Net-(J9-Pad2)*%
X47342500Y-150000000D02*
X45800000Y-150000000D01*
X48879500Y-148463000D02*
X47342500Y-150000000D01*
X53056000Y-151067000D02*
X50990000Y-151067000D01*
X50990000Y-151067000D02*
X49911000Y-152146000D01*
X49911000Y-157226000D02*
X48006000Y-159131000D01*
X49911000Y-152146000D02*
X49911000Y-157226000D01*
X44577000Y-159751000D02*
X44577000Y-159131000D01*
X44577000Y-159131000D02*
X48006000Y-159131000D01*
%TD*%
D35*
%TO.N,GND*%
G36*
X78340000Y-154873000D02*
G01*
X73747269Y-154873000D01*
X73671164Y-154810542D01*
X73518709Y-154729053D01*
X73353285Y-154678872D01*
X73181250Y-154661928D01*
X72693750Y-154661928D01*
X72521715Y-154678872D01*
X72356291Y-154729053D01*
X72203836Y-154810542D01*
X72127731Y-154873000D01*
X71872269Y-154873000D01*
X71822500Y-154832155D01*
X71822500Y-154167845D01*
X71929792Y-154079792D01*
X71935008Y-154073436D01*
X71998815Y-154151185D01*
X72095506Y-154230537D01*
X72205820Y-154289502D01*
X72325518Y-154325812D01*
X72450000Y-154338072D01*
X72651750Y-154335000D01*
X72810500Y-154176250D01*
X72810500Y-153127000D01*
X73064500Y-153127000D01*
X73064500Y-154176250D01*
X73223250Y-154335000D01*
X73425000Y-154338072D01*
X73549482Y-154325812D01*
X73669180Y-154289502D01*
X73779494Y-154230537D01*
X73876185Y-154151185D01*
X73955537Y-154054494D01*
X74014502Y-153944180D01*
X74050812Y-153824482D01*
X74063072Y-153700000D01*
X74060000Y-153285750D01*
X73901250Y-153127000D01*
X73064500Y-153127000D01*
X72810500Y-153127000D01*
X72790500Y-153127000D01*
X72790500Y-152873000D01*
X72810500Y-152873000D01*
X72810500Y-151823750D01*
X73064500Y-151823750D01*
X73064500Y-152873000D01*
X73901250Y-152873000D01*
X74060000Y-152714250D01*
X74063072Y-152300000D01*
X74050812Y-152175518D01*
X74014502Y-152055820D01*
X73955537Y-151945506D01*
X73876185Y-151848815D01*
X73779494Y-151769463D01*
X73669180Y-151710498D01*
X73549482Y-151674188D01*
X73425000Y-151661928D01*
X73223250Y-151665000D01*
X73064500Y-151823750D01*
X72810500Y-151823750D01*
X72651750Y-151665000D01*
X72450000Y-151661928D01*
X72325518Y-151674188D01*
X72205820Y-151710498D01*
X72095506Y-151769463D01*
X71998815Y-151848815D01*
X71935008Y-151926564D01*
X71929792Y-151920208D01*
X71796164Y-151810542D01*
X71643709Y-151729053D01*
X71478285Y-151678872D01*
X71306250Y-151661928D01*
X70818750Y-151661928D01*
X70646715Y-151678872D01*
X70481291Y-151729053D01*
X70328836Y-151810542D01*
X70195208Y-151920208D01*
X70085542Y-152053836D01*
X70004053Y-152206291D01*
X69953872Y-152371715D01*
X69936928Y-152543750D01*
X69936928Y-153456250D01*
X69953872Y-153628285D01*
X70004053Y-153793709D01*
X70085542Y-153946164D01*
X70195208Y-154079792D01*
X70302501Y-154167845D01*
X70302501Y-154278605D01*
X70211486Y-154250997D01*
X70099833Y-154240000D01*
X70099822Y-154240000D01*
X70062500Y-154236324D01*
X70025178Y-154240000D01*
X69577959Y-154240000D01*
X69536537Y-154162506D01*
X69457185Y-154065815D01*
X69360494Y-153986463D01*
X69265456Y-153935663D01*
X69297975Y-153908975D01*
X69446058Y-153728536D01*
X69556094Y-153522674D01*
X69623853Y-153299300D01*
X69646733Y-153067000D01*
X69623853Y-152834700D01*
X69556094Y-152611326D01*
X69446058Y-152405464D01*
X69297975Y-152225025D01*
X69117536Y-152076942D01*
X69098936Y-152067000D01*
X69117536Y-152057058D01*
X69297975Y-151908975D01*
X69446058Y-151728536D01*
X69448303Y-151724336D01*
X69510247Y-151705546D01*
X69642276Y-151634974D01*
X69758001Y-151540001D01*
X69781803Y-151510998D01*
X70142801Y-151150000D01*
X74511928Y-151150000D01*
X74511928Y-152850000D01*
X74524188Y-152974482D01*
X74560498Y-153094180D01*
X74619463Y-153204494D01*
X74698815Y-153301185D01*
X74795506Y-153380537D01*
X74905820Y-153439502D01*
X75025518Y-153475812D01*
X75150000Y-153488072D01*
X76850000Y-153488072D01*
X76974482Y-153475812D01*
X77094180Y-153439502D01*
X77204494Y-153380537D01*
X77301185Y-153301185D01*
X77380537Y-153204494D01*
X77439502Y-153094180D01*
X77475812Y-152974482D01*
X77488072Y-152850000D01*
X77488072Y-151150000D01*
X77475812Y-151025518D01*
X77439502Y-150905820D01*
X77380537Y-150795506D01*
X77301185Y-150698815D01*
X77204494Y-150619463D01*
X77094180Y-150560498D01*
X77021620Y-150538487D01*
X77153475Y-150406632D01*
X77315990Y-150163411D01*
X77427932Y-149893158D01*
X77485000Y-149606260D01*
X77485000Y-149313740D01*
X77427932Y-149026842D01*
X77315990Y-148756589D01*
X77153475Y-148513368D01*
X76946632Y-148306525D01*
X76772240Y-148190000D01*
X76946632Y-148073475D01*
X77153475Y-147866632D01*
X77315990Y-147623411D01*
X77427932Y-147353158D01*
X77485000Y-147066260D01*
X77485000Y-146773740D01*
X77427932Y-146486842D01*
X77315990Y-146216589D01*
X77153475Y-145973368D01*
X76946632Y-145766525D01*
X76772240Y-145650000D01*
X76946632Y-145533475D01*
X77153475Y-145326632D01*
X77315990Y-145083411D01*
X77427932Y-144813158D01*
X77485000Y-144526260D01*
X77485000Y-144233740D01*
X77427932Y-143946842D01*
X77315990Y-143676589D01*
X77153475Y-143433368D01*
X76946632Y-143226525D01*
X76764466Y-143104805D01*
X76881355Y-143035178D01*
X77097588Y-142840269D01*
X77271641Y-142606920D01*
X77396825Y-142344099D01*
X77441476Y-142196890D01*
X77320155Y-141967000D01*
X76127000Y-141967000D01*
X76127000Y-141987000D01*
X75873000Y-141987000D01*
X75873000Y-141967000D01*
X74679845Y-141967000D01*
X74558524Y-142196890D01*
X74603175Y-142344099D01*
X74728359Y-142606920D01*
X74902412Y-142840269D01*
X75118645Y-143035178D01*
X75235534Y-143104805D01*
X75053368Y-143226525D01*
X74846525Y-143433368D01*
X74684010Y-143676589D01*
X74572068Y-143946842D01*
X74515000Y-144233740D01*
X74515000Y-144526260D01*
X74572068Y-144813158D01*
X74684010Y-145083411D01*
X74846525Y-145326632D01*
X75053368Y-145533475D01*
X75227760Y-145650000D01*
X75053368Y-145766525D01*
X74846525Y-145973368D01*
X74684010Y-146216589D01*
X74572068Y-146486842D01*
X74515000Y-146773740D01*
X74515000Y-147066260D01*
X74572068Y-147353158D01*
X74684010Y-147623411D01*
X74846525Y-147866632D01*
X75053368Y-148073475D01*
X75227760Y-148190000D01*
X75053368Y-148306525D01*
X74846525Y-148513368D01*
X74684010Y-148756589D01*
X74572068Y-149026842D01*
X74515000Y-149313740D01*
X74515000Y-149606260D01*
X74572068Y-149893158D01*
X74684010Y-150163411D01*
X74846525Y-150406632D01*
X74978380Y-150538487D01*
X74905820Y-150560498D01*
X74795506Y-150619463D01*
X74698815Y-150698815D01*
X74619463Y-150795506D01*
X74560498Y-150905820D01*
X74524188Y-151025518D01*
X74511928Y-151150000D01*
X70142801Y-151150000D01*
X70615004Y-150677798D01*
X70644001Y-150654001D01*
X70738974Y-150538276D01*
X70809546Y-150406247D01*
X70853003Y-150262986D01*
X70864000Y-150151333D01*
X70864000Y-150151324D01*
X70867676Y-150114001D01*
X70864000Y-150076678D01*
X70864000Y-146540301D01*
X71069229Y-146335072D01*
X71576250Y-146335072D01*
X71748285Y-146318128D01*
X71913709Y-146267947D01*
X72066164Y-146186458D01*
X72199792Y-146076792D01*
X72309458Y-145943164D01*
X72390947Y-145790709D01*
X72441128Y-145625285D01*
X72458072Y-145453250D01*
X72458072Y-144965750D01*
X72441128Y-144793715D01*
X72390947Y-144628291D01*
X72309458Y-144475836D01*
X72199792Y-144342208D01*
X72114244Y-144272000D01*
X72199792Y-144201792D01*
X72309458Y-144068164D01*
X72390947Y-143915709D01*
X72441128Y-143750285D01*
X72458072Y-143578250D01*
X72458072Y-143090750D01*
X72441128Y-142918715D01*
X72390947Y-142753291D01*
X72309458Y-142600836D01*
X72199792Y-142467208D01*
X72066164Y-142357542D01*
X71913709Y-142276053D01*
X71880000Y-142265827D01*
X71880000Y-141483110D01*
X74558524Y-141483110D01*
X74679845Y-141713000D01*
X75873000Y-141713000D01*
X75873000Y-140519186D01*
X76127000Y-140519186D01*
X76127000Y-141713000D01*
X77320155Y-141713000D01*
X77441476Y-141483110D01*
X77396825Y-141335901D01*
X77271641Y-141073080D01*
X77097588Y-140839731D01*
X76881355Y-140644822D01*
X76631252Y-140495843D01*
X76356891Y-140398519D01*
X76127000Y-140519186D01*
X75873000Y-140519186D01*
X75643109Y-140398519D01*
X75368748Y-140495843D01*
X75118645Y-140644822D01*
X74902412Y-140839731D01*
X74728359Y-141073080D01*
X74603175Y-141335901D01*
X74558524Y-141483110D01*
X71880000Y-141483110D01*
X71880000Y-141478222D01*
X71882947Y-141472709D01*
X71933128Y-141307285D01*
X71950072Y-141135250D01*
X71950072Y-140647750D01*
X71933128Y-140475715D01*
X71882947Y-140310291D01*
X71801458Y-140157836D01*
X71691792Y-140024208D01*
X71685436Y-140018992D01*
X71763185Y-139955185D01*
X71842537Y-139858494D01*
X71901502Y-139748180D01*
X71937812Y-139628482D01*
X71950072Y-139504000D01*
X71947000Y-139302250D01*
X71788250Y-139143500D01*
X70739000Y-139143500D01*
X70739000Y-139163500D01*
X70485000Y-139163500D01*
X70485000Y-139143500D01*
X69435750Y-139143500D01*
X69277000Y-139302250D01*
X69273928Y-139504000D01*
X69286188Y-139628482D01*
X69322498Y-139748180D01*
X69326945Y-139756500D01*
X68760000Y-139756500D01*
X68760000Y-138529000D01*
X69273928Y-138529000D01*
X69277000Y-138730750D01*
X69435750Y-138889500D01*
X70485000Y-138889500D01*
X70485000Y-138052750D01*
X70739000Y-138052750D01*
X70739000Y-138889500D01*
X71788250Y-138889500D01*
X71947000Y-138730750D01*
X71950072Y-138529000D01*
X71937812Y-138404518D01*
X71901502Y-138284820D01*
X71842537Y-138174506D01*
X71763185Y-138077815D01*
X71666494Y-137998463D01*
X71556180Y-137939498D01*
X71436482Y-137903188D01*
X71312000Y-137890928D01*
X70897750Y-137894000D01*
X70739000Y-138052750D01*
X70485000Y-138052750D01*
X70326250Y-137894000D01*
X69912000Y-137890928D01*
X69787518Y-137903188D01*
X69667820Y-137939498D01*
X69557506Y-137998463D01*
X69460815Y-138077815D01*
X69381463Y-138174506D01*
X69322498Y-138284820D01*
X69286188Y-138404518D01*
X69273928Y-138529000D01*
X68760000Y-138529000D01*
X68760000Y-137837325D01*
X68763676Y-137800000D01*
X68760000Y-137762675D01*
X68760000Y-137762667D01*
X68749003Y-137651014D01*
X68705546Y-137507753D01*
X68634974Y-137375724D01*
X68540001Y-137259999D01*
X68511004Y-137236202D01*
X67923803Y-136649002D01*
X67900001Y-136619999D01*
X67784276Y-136525026D01*
X67681423Y-136470049D01*
X67893158Y-136427932D01*
X68163411Y-136315990D01*
X68406632Y-136153475D01*
X68538487Y-136021620D01*
X68560498Y-136094180D01*
X68619463Y-136204494D01*
X68698815Y-136301185D01*
X68795506Y-136380537D01*
X68905820Y-136439502D01*
X69025518Y-136475812D01*
X69150000Y-136488072D01*
X69714250Y-136485000D01*
X69873000Y-136326250D01*
X69873000Y-135127000D01*
X70127000Y-135127000D01*
X70127000Y-136326250D01*
X70285750Y-136485000D01*
X70850000Y-136488072D01*
X70974482Y-136475812D01*
X71094180Y-136439502D01*
X71204494Y-136380537D01*
X71301185Y-136301185D01*
X71380537Y-136204494D01*
X71439502Y-136094180D01*
X71475812Y-135974482D01*
X71488072Y-135850000D01*
X71485000Y-135285750D01*
X71326250Y-135127000D01*
X70127000Y-135127000D01*
X69873000Y-135127000D01*
X69853000Y-135127000D01*
X69853000Y-134873000D01*
X69873000Y-134873000D01*
X69873000Y-133673750D01*
X70127000Y-133673750D01*
X70127000Y-134873000D01*
X71326250Y-134873000D01*
X71384906Y-134814344D01*
X74115000Y-134814344D01*
X74115000Y-135185656D01*
X74187439Y-135549834D01*
X74329534Y-135892882D01*
X74535825Y-136201618D01*
X74798382Y-136464175D01*
X75107118Y-136670466D01*
X75450166Y-136812561D01*
X75814344Y-136885000D01*
X76185656Y-136885000D01*
X76549834Y-136812561D01*
X76892882Y-136670466D01*
X77201618Y-136464175D01*
X77464175Y-136201618D01*
X77670466Y-135892882D01*
X77812561Y-135549834D01*
X77885000Y-135185656D01*
X77885000Y-134814344D01*
X77812561Y-134450166D01*
X77670466Y-134107118D01*
X77464175Y-133798382D01*
X77201618Y-133535825D01*
X76892882Y-133329534D01*
X76549834Y-133187439D01*
X76185656Y-133115000D01*
X75814344Y-133115000D01*
X75450166Y-133187439D01*
X75107118Y-133329534D01*
X74798382Y-133535825D01*
X74535825Y-133798382D01*
X74329534Y-134107118D01*
X74187439Y-134450166D01*
X74115000Y-134814344D01*
X71384906Y-134814344D01*
X71485000Y-134714250D01*
X71488072Y-134150000D01*
X71475812Y-134025518D01*
X71439502Y-133905820D01*
X71380537Y-133795506D01*
X71301185Y-133698815D01*
X71204494Y-133619463D01*
X71094180Y-133560498D01*
X70974482Y-133524188D01*
X70850000Y-133511928D01*
X70285750Y-133515000D01*
X70127000Y-133673750D01*
X69873000Y-133673750D01*
X69714250Y-133515000D01*
X69150000Y-133511928D01*
X69025518Y-133524188D01*
X68905820Y-133560498D01*
X68795506Y-133619463D01*
X68698815Y-133698815D01*
X68619463Y-133795506D01*
X68560498Y-133905820D01*
X68538487Y-133978380D01*
X68406632Y-133846525D01*
X68163411Y-133684010D01*
X67893158Y-133572068D01*
X67606260Y-133515000D01*
X67313740Y-133515000D01*
X67026842Y-133572068D01*
X66756589Y-133684010D01*
X66513368Y-133846525D01*
X66306525Y-134053368D01*
X66190000Y-134227760D01*
X66073475Y-134053368D01*
X65866632Y-133846525D01*
X65623411Y-133684010D01*
X65353158Y-133572068D01*
X65066260Y-133515000D01*
X64773740Y-133515000D01*
X64486842Y-133572068D01*
X64216589Y-133684010D01*
X63973368Y-133846525D01*
X63766525Y-134053368D01*
X63650000Y-134227760D01*
X63533475Y-134053368D01*
X63326632Y-133846525D01*
X63083411Y-133684010D01*
X62813158Y-133572068D01*
X62526260Y-133515000D01*
X62233740Y-133515000D01*
X61946842Y-133572068D01*
X61676589Y-133684010D01*
X61433368Y-133846525D01*
X61226525Y-134053368D01*
X61110000Y-134227760D01*
X60993475Y-134053368D01*
X60786632Y-133846525D01*
X60543411Y-133684010D01*
X60273158Y-133572068D01*
X59986260Y-133515000D01*
X59693740Y-133515000D01*
X59406842Y-133572068D01*
X59136589Y-133684010D01*
X58893368Y-133846525D01*
X58686525Y-134053368D01*
X58570000Y-134227760D01*
X58453475Y-134053368D01*
X58246632Y-133846525D01*
X58003411Y-133684010D01*
X57733158Y-133572068D01*
X57446260Y-133515000D01*
X57153740Y-133515000D01*
X56866842Y-133572068D01*
X56596589Y-133684010D01*
X56353368Y-133846525D01*
X56146525Y-134053368D01*
X56030000Y-134227760D01*
X55913475Y-134053368D01*
X55706632Y-133846525D01*
X55463411Y-133684010D01*
X55193158Y-133572068D01*
X54906260Y-133515000D01*
X54613740Y-133515000D01*
X54326842Y-133572068D01*
X54056589Y-133684010D01*
X53813368Y-133846525D01*
X53606525Y-134053368D01*
X53444010Y-134296589D01*
X53332068Y-134566842D01*
X53275000Y-134853740D01*
X53275000Y-135146260D01*
X53332068Y-135433158D01*
X53444010Y-135703411D01*
X53606525Y-135946632D01*
X53813368Y-136153475D01*
X54056589Y-136315990D01*
X54259408Y-136400000D01*
X51168082Y-136400000D01*
X51204494Y-136380537D01*
X51301185Y-136301185D01*
X51380537Y-136204494D01*
X51439502Y-136094180D01*
X51475812Y-135974482D01*
X51488072Y-135850000D01*
X51485000Y-135285750D01*
X51326250Y-135127000D01*
X50127000Y-135127000D01*
X50127000Y-135147000D01*
X49873000Y-135147000D01*
X49873000Y-135127000D01*
X49853000Y-135127000D01*
X49853000Y-134873000D01*
X49873000Y-134873000D01*
X49873000Y-133673750D01*
X50127000Y-133673750D01*
X50127000Y-134873000D01*
X51326250Y-134873000D01*
X51485000Y-134714250D01*
X51488072Y-134150000D01*
X51475812Y-134025518D01*
X51439502Y-133905820D01*
X51380537Y-133795506D01*
X51301185Y-133698815D01*
X51204494Y-133619463D01*
X51094180Y-133560498D01*
X50974482Y-133524188D01*
X50850000Y-133511928D01*
X50285750Y-133515000D01*
X50127000Y-133673750D01*
X49873000Y-133673750D01*
X49714250Y-133515000D01*
X49150000Y-133511928D01*
X49025518Y-133524188D01*
X48905820Y-133560498D01*
X48795506Y-133619463D01*
X48698815Y-133698815D01*
X48619463Y-133795506D01*
X48560498Y-133905820D01*
X48538487Y-133978380D01*
X48406632Y-133846525D01*
X48163411Y-133684010D01*
X47893158Y-133572068D01*
X47606260Y-133515000D01*
X47313740Y-133515000D01*
X47026842Y-133572068D01*
X46756589Y-133684010D01*
X46513368Y-133846525D01*
X46306525Y-134053368D01*
X46190000Y-134227760D01*
X46073475Y-134053368D01*
X45866632Y-133846525D01*
X45623411Y-133684010D01*
X45353158Y-133572068D01*
X45066260Y-133515000D01*
X44773740Y-133515000D01*
X44486842Y-133572068D01*
X44216589Y-133684010D01*
X43973368Y-133846525D01*
X43766525Y-134053368D01*
X43650000Y-134227760D01*
X43533475Y-134053368D01*
X43326632Y-133846525D01*
X43083411Y-133684010D01*
X42813158Y-133572068D01*
X42526260Y-133515000D01*
X42233740Y-133515000D01*
X41946842Y-133572068D01*
X41676589Y-133684010D01*
X41433368Y-133846525D01*
X41226525Y-134053368D01*
X41110000Y-134227760D01*
X40993475Y-134053368D01*
X40786632Y-133846525D01*
X40543411Y-133684010D01*
X40273158Y-133572068D01*
X39986260Y-133515000D01*
X39693740Y-133515000D01*
X39406842Y-133572068D01*
X39136589Y-133684010D01*
X38893368Y-133846525D01*
X38686525Y-134053368D01*
X38570000Y-134227760D01*
X38453475Y-134053368D01*
X38246632Y-133846525D01*
X38003411Y-133684010D01*
X37733158Y-133572068D01*
X37446260Y-133515000D01*
X37153740Y-133515000D01*
X36866842Y-133572068D01*
X36596589Y-133684010D01*
X36353368Y-133846525D01*
X36146525Y-134053368D01*
X35984010Y-134296589D01*
X35872068Y-134566842D01*
X35815000Y-134853740D01*
X35815000Y-135146260D01*
X35872068Y-135433158D01*
X35984010Y-135703411D01*
X36146525Y-135946632D01*
X36353368Y-136153475D01*
X36596589Y-136315990D01*
X36866842Y-136427932D01*
X37153740Y-136485000D01*
X37446260Y-136485000D01*
X37733158Y-136427932D01*
X38003411Y-136315990D01*
X38246632Y-136153475D01*
X38453475Y-135946632D01*
X38570000Y-135772240D01*
X38686525Y-135946632D01*
X38893368Y-136153475D01*
X39136589Y-136315990D01*
X39406842Y-136427932D01*
X39693740Y-136485000D01*
X39986260Y-136485000D01*
X40273158Y-136427932D01*
X40543411Y-136315990D01*
X40786632Y-136153475D01*
X40993475Y-135946632D01*
X41110000Y-135772240D01*
X41226525Y-135946632D01*
X41433368Y-136153475D01*
X41676589Y-136315990D01*
X41946842Y-136427932D01*
X42233740Y-136485000D01*
X42526260Y-136485000D01*
X42813158Y-136427932D01*
X43083411Y-136315990D01*
X43326632Y-136153475D01*
X43533475Y-135946632D01*
X43650000Y-135772240D01*
X43766525Y-135946632D01*
X43973368Y-136153475D01*
X44216589Y-136315990D01*
X44486842Y-136427932D01*
X44773740Y-136485000D01*
X45066260Y-136485000D01*
X45353158Y-136427932D01*
X45623411Y-136315990D01*
X45866632Y-136153475D01*
X46073475Y-135946632D01*
X46190000Y-135772240D01*
X46306525Y-135946632D01*
X46513368Y-136153475D01*
X46756589Y-136315990D01*
X46959408Y-136400000D01*
X46900322Y-136400000D01*
X46862999Y-136396324D01*
X46825676Y-136400000D01*
X46825667Y-136400000D01*
X46714014Y-136410997D01*
X46570753Y-136454454D01*
X46438724Y-136525026D01*
X46322999Y-136619999D01*
X46299201Y-136648997D01*
X44954998Y-137993201D01*
X44926000Y-138016999D01*
X44902202Y-138045997D01*
X44902201Y-138045998D01*
X44831026Y-138132724D01*
X44760454Y-138264754D01*
X44740355Y-138331015D01*
X44718059Y-138404518D01*
X44716998Y-138408015D01*
X44702324Y-138557000D01*
X44706001Y-138594332D01*
X44706000Y-142329677D01*
X44702324Y-142367000D01*
X44706000Y-142404322D01*
X44706000Y-142404332D01*
X44716997Y-142515985D01*
X44745918Y-142611326D01*
X44760454Y-142659246D01*
X44831026Y-142791276D01*
X44866664Y-142834700D01*
X44925999Y-142907001D01*
X44955003Y-142930804D01*
X45283196Y-143258997D01*
X45306999Y-143288001D01*
X45422724Y-143382974D01*
X45554753Y-143453546D01*
X45698014Y-143497003D01*
X45809667Y-143508000D01*
X45809676Y-143508000D01*
X45846999Y-143511676D01*
X45884322Y-143508000D01*
X45935827Y-143508000D01*
X45946053Y-143541709D01*
X46027542Y-143694164D01*
X46137208Y-143827792D01*
X46244500Y-143915845D01*
X46244501Y-144628155D01*
X46137208Y-144716208D01*
X46027542Y-144849836D01*
X45946053Y-145002291D01*
X45895872Y-145167715D01*
X45878928Y-145339750D01*
X45878928Y-146252250D01*
X45895872Y-146424285D01*
X45946053Y-146589709D01*
X46027542Y-146742164D01*
X46137208Y-146875792D01*
X46270836Y-146985458D01*
X46423291Y-147066947D01*
X46588715Y-147117128D01*
X46714330Y-147129500D01*
X46588715Y-147141872D01*
X46423291Y-147192053D01*
X46270836Y-147273542D01*
X46137208Y-147383208D01*
X46027542Y-147516836D01*
X45946053Y-147669291D01*
X45935827Y-147703000D01*
X45526803Y-147703000D01*
X44448000Y-146624199D01*
X44448000Y-141388322D01*
X44451676Y-141350999D01*
X44448000Y-141313676D01*
X44448000Y-141313667D01*
X44437003Y-141202014D01*
X44393546Y-141058753D01*
X44380836Y-141034974D01*
X44322974Y-140926723D01*
X44251799Y-140839997D01*
X44228001Y-140810999D01*
X44199003Y-140787201D01*
X43099804Y-139688003D01*
X43076001Y-139658999D01*
X42960276Y-139564026D01*
X42888072Y-139525432D01*
X42888072Y-139099000D01*
X42875812Y-138974518D01*
X42839502Y-138854820D01*
X42780537Y-138744506D01*
X42701185Y-138647815D01*
X42604494Y-138568463D01*
X42494180Y-138509498D01*
X42374482Y-138473188D01*
X42250000Y-138460928D01*
X41050000Y-138460928D01*
X40925518Y-138473188D01*
X40805820Y-138509498D01*
X40695506Y-138568463D01*
X40598815Y-138647815D01*
X40519463Y-138744506D01*
X40460498Y-138854820D01*
X40424188Y-138974518D01*
X40411928Y-139099000D01*
X40411928Y-141299000D01*
X40424188Y-141423482D01*
X40460498Y-141543180D01*
X40519463Y-141653494D01*
X40598815Y-141750185D01*
X40695506Y-141829537D01*
X40805820Y-141888502D01*
X40925518Y-141924812D01*
X41050000Y-141937072D01*
X42250000Y-141937072D01*
X42374482Y-141924812D01*
X42494180Y-141888502D01*
X42604494Y-141829537D01*
X42701185Y-141750185D01*
X42780537Y-141653494D01*
X42827616Y-141565417D01*
X42928001Y-141665803D01*
X42928000Y-146901677D01*
X42924324Y-146939000D01*
X42928000Y-146976322D01*
X42928000Y-146976332D01*
X42938997Y-147087985D01*
X42970565Y-147192053D01*
X42982454Y-147231246D01*
X43053026Y-147363276D01*
X43069384Y-147383208D01*
X43147999Y-147479001D01*
X43177002Y-147502803D01*
X44648205Y-148974008D01*
X44671999Y-149003001D01*
X44700992Y-149026795D01*
X44700996Y-149026799D01*
X44746002Y-149063734D01*
X44787724Y-149097974D01*
X44919753Y-149168546D01*
X45063014Y-149212003D01*
X45118792Y-149217497D01*
X44996063Y-149340226D01*
X44882795Y-149509744D01*
X44804774Y-149698102D01*
X44765000Y-149898061D01*
X44765000Y-150101939D01*
X44804774Y-150301898D01*
X44882795Y-150490256D01*
X44996063Y-150659774D01*
X45140226Y-150803937D01*
X45309744Y-150917205D01*
X45498102Y-150995226D01*
X45698061Y-151035000D01*
X45901939Y-151035000D01*
X46101898Y-150995226D01*
X46213841Y-150948857D01*
X44467329Y-152695370D01*
X44356291Y-152729053D01*
X44203836Y-152810542D01*
X44070208Y-152920208D01*
X44000000Y-153005756D01*
X43929792Y-152920208D01*
X43796164Y-152810542D01*
X43643709Y-152729053D01*
X43478285Y-152678872D01*
X43306250Y-152661928D01*
X42818750Y-152661928D01*
X42646715Y-152678872D01*
X42481291Y-152729053D01*
X42328836Y-152810542D01*
X42195208Y-152920208D01*
X42085542Y-153053836D01*
X42004053Y-153206291D01*
X41993827Y-153240000D01*
X41878313Y-153240000D01*
X41732312Y-153021495D01*
X41518505Y-152807688D01*
X41267095Y-152639701D01*
X40987743Y-152523989D01*
X40691184Y-152465000D01*
X40388816Y-152465000D01*
X40092257Y-152523989D01*
X39812905Y-152639701D01*
X39561495Y-152807688D01*
X39495056Y-152874127D01*
X39489502Y-152855820D01*
X39430537Y-152745506D01*
X39351185Y-152648815D01*
X39254494Y-152569463D01*
X39144180Y-152510498D01*
X39024482Y-152474188D01*
X38900000Y-152461928D01*
X38285750Y-152465000D01*
X38127000Y-152623750D01*
X38127000Y-153873000D01*
X38147000Y-153873000D01*
X38147000Y-154127000D01*
X38127000Y-154127000D01*
X38127000Y-155376250D01*
X38285750Y-155535000D01*
X38900000Y-155538072D01*
X39024482Y-155525812D01*
X39144180Y-155489502D01*
X39254494Y-155430537D01*
X39351185Y-155351185D01*
X39430537Y-155254494D01*
X39489502Y-155144180D01*
X39495056Y-155125873D01*
X39561495Y-155192312D01*
X39812905Y-155360299D01*
X40092257Y-155476011D01*
X40388816Y-155535000D01*
X40691184Y-155535000D01*
X40987743Y-155476011D01*
X41267095Y-155360299D01*
X41518505Y-155192312D01*
X41732312Y-154978505D01*
X41878313Y-154760000D01*
X41993827Y-154760000D01*
X42004053Y-154793709D01*
X42085542Y-154946164D01*
X42195208Y-155079792D01*
X42328836Y-155189458D01*
X42481291Y-155270947D01*
X42646715Y-155321128D01*
X42818750Y-155338072D01*
X43306250Y-155338072D01*
X43478285Y-155321128D01*
X43643709Y-155270947D01*
X43796164Y-155189458D01*
X43929792Y-155079792D01*
X44000000Y-154994244D01*
X44070208Y-155079792D01*
X44203836Y-155189458D01*
X44356291Y-155270947D01*
X44521715Y-155321128D01*
X44693750Y-155338072D01*
X45181250Y-155338072D01*
X45353285Y-155321128D01*
X45518709Y-155270947D01*
X45671164Y-155189458D01*
X45804792Y-155079792D01*
X45914458Y-154946164D01*
X45995947Y-154793709D01*
X46046128Y-154628285D01*
X46063072Y-154456250D01*
X46063072Y-153543750D01*
X46046128Y-153371715D01*
X46021564Y-153290738D01*
X46546696Y-152765605D01*
X46572068Y-152893158D01*
X46684010Y-153163411D01*
X46846525Y-153406632D01*
X46978380Y-153538487D01*
X46905820Y-153560498D01*
X46795506Y-153619463D01*
X46698815Y-153698815D01*
X46619463Y-153795506D01*
X46560498Y-153905820D01*
X46524188Y-154025518D01*
X46511928Y-154150000D01*
X46515000Y-154714250D01*
X46673750Y-154873000D01*
X47873000Y-154873000D01*
X47873000Y-154853000D01*
X48127000Y-154853000D01*
X48127000Y-154873000D01*
X48147000Y-154873000D01*
X48147000Y-155127000D01*
X48127000Y-155127000D01*
X48127000Y-156326250D01*
X48285750Y-156485000D01*
X48850000Y-156488072D01*
X48873000Y-156485807D01*
X48873000Y-157189198D01*
X48372408Y-157689791D01*
X48152260Y-157646000D01*
X47859740Y-157646000D01*
X47572842Y-157703068D01*
X47302589Y-157815010D01*
X47059368Y-157977525D01*
X46852525Y-158184368D01*
X46727822Y-158371000D01*
X44614333Y-158371000D01*
X44577000Y-158367323D01*
X44539667Y-158371000D01*
X44428014Y-158381997D01*
X44284753Y-158425454D01*
X44152724Y-158496026D01*
X44036999Y-158590999D01*
X43969360Y-158673417D01*
X43937681Y-158683027D01*
X43847125Y-158720536D01*
X43736808Y-158779502D01*
X43655309Y-158833958D01*
X43558618Y-158913310D01*
X43489310Y-158982618D01*
X43409958Y-159079309D01*
X43355502Y-159160808D01*
X43296536Y-159271125D01*
X43259027Y-159361681D01*
X43222718Y-159481377D01*
X43203596Y-159577510D01*
X43191336Y-159701991D01*
X43191336Y-159726550D01*
X43188928Y-159751000D01*
X43188928Y-160251000D01*
X43201188Y-160375482D01*
X43208929Y-160401000D01*
X43201188Y-160426518D01*
X43188928Y-160551000D01*
X43188928Y-161051000D01*
X43191336Y-161075450D01*
X43191336Y-161100009D01*
X43203596Y-161224490D01*
X43222718Y-161320623D01*
X43225012Y-161328186D01*
X41965056Y-162588143D01*
X41919458Y-162502836D01*
X41809792Y-162369208D01*
X41676164Y-162259542D01*
X41523709Y-162178053D01*
X41358285Y-162127872D01*
X41186250Y-162110928D01*
X40766874Y-162110928D01*
X41051003Y-161826799D01*
X41080001Y-161803001D01*
X41174974Y-161687276D01*
X41245546Y-161555247D01*
X41289003Y-161411986D01*
X41295996Y-161340988D01*
X41518505Y-161192312D01*
X41732312Y-160978505D01*
X41900299Y-160727095D01*
X42016011Y-160447743D01*
X42075000Y-160151184D01*
X42075000Y-159848816D01*
X42016011Y-159552257D01*
X41900299Y-159272905D01*
X41732312Y-159021495D01*
X41518505Y-158807688D01*
X41267095Y-158639701D01*
X40987743Y-158523989D01*
X40691184Y-158465000D01*
X40388816Y-158465000D01*
X40092257Y-158523989D01*
X39812905Y-158639701D01*
X39561495Y-158807688D01*
X39495056Y-158874127D01*
X39489502Y-158855820D01*
X39430537Y-158745506D01*
X39351185Y-158648815D01*
X39254494Y-158569463D01*
X39144180Y-158510498D01*
X39024482Y-158474188D01*
X38900000Y-158461928D01*
X38285750Y-158465000D01*
X38127000Y-158623750D01*
X38127000Y-159873000D01*
X38147000Y-159873000D01*
X38147000Y-160127000D01*
X38127000Y-160127000D01*
X38127000Y-161376250D01*
X38285750Y-161535000D01*
X38830513Y-161537724D01*
X38818724Y-161544026D01*
X38702999Y-161638999D01*
X38679200Y-161667998D01*
X38556501Y-161790697D01*
X38527499Y-161814499D01*
X38489749Y-161860498D01*
X38432526Y-161930224D01*
X38379187Y-162030014D01*
X38361954Y-162062254D01*
X38318497Y-162205515D01*
X38311359Y-162277989D01*
X38200208Y-162369208D01*
X38090542Y-162502836D01*
X38009053Y-162655291D01*
X37958872Y-162820715D01*
X37941928Y-162992750D01*
X37941928Y-163905250D01*
X37958872Y-164077285D01*
X38009053Y-164242709D01*
X38090542Y-164395164D01*
X38200208Y-164528792D01*
X38333836Y-164638458D01*
X38486291Y-164719947D01*
X38651715Y-164770128D01*
X38823750Y-164787072D01*
X39311250Y-164787072D01*
X39483285Y-164770128D01*
X39648709Y-164719947D01*
X39801164Y-164638458D01*
X39934792Y-164528792D01*
X40005000Y-164443244D01*
X40075208Y-164528792D01*
X40208836Y-164638458D01*
X40361291Y-164719947D01*
X40526715Y-164770128D01*
X40698750Y-164787072D01*
X41186250Y-164787072D01*
X41358285Y-164770128D01*
X41523709Y-164719947D01*
X41676164Y-164638458D01*
X41809792Y-164528792D01*
X41919458Y-164395164D01*
X42000947Y-164242709D01*
X42011173Y-164209000D01*
X42141678Y-164209000D01*
X42179000Y-164212676D01*
X42216322Y-164209000D01*
X42216333Y-164209000D01*
X42327986Y-164198003D01*
X42471247Y-164154546D01*
X42603276Y-164083974D01*
X42719001Y-163989001D01*
X42742804Y-163959997D01*
X44458534Y-162244267D01*
X44533724Y-162305974D01*
X44665753Y-162376546D01*
X44809014Y-162420003D01*
X44920667Y-162431000D01*
X44920676Y-162431000D01*
X44957999Y-162434676D01*
X44995322Y-162431000D01*
X46517928Y-162431000D01*
X46517928Y-162521000D01*
X46530188Y-162645482D01*
X46566498Y-162765180D01*
X46625463Y-162875494D01*
X46704815Y-162972185D01*
X46801506Y-163051537D01*
X46911820Y-163110502D01*
X47031518Y-163146812D01*
X47156000Y-163159072D01*
X48856000Y-163159072D01*
X48873000Y-163157398D01*
X48873000Y-166000000D01*
X48875440Y-166024776D01*
X48882667Y-166048601D01*
X48894403Y-166070557D01*
X48910197Y-166089803D01*
X48929443Y-166105597D01*
X48951399Y-166117333D01*
X48975224Y-166124560D01*
X49000000Y-166127000D01*
X56616384Y-166127000D01*
X56613844Y-166130801D01*
X56484362Y-166443399D01*
X55906761Y-167021000D01*
X48340319Y-167021000D01*
X48259999Y-167013089D01*
X48179680Y-167021000D01*
X48179678Y-167021000D01*
X47939484Y-167044657D01*
X47631285Y-167138148D01*
X47347248Y-167289969D01*
X47098286Y-167494286D01*
X47047079Y-167556682D01*
X45627682Y-168976080D01*
X45565287Y-169027286D01*
X45360969Y-169276248D01*
X45344532Y-169307000D01*
X40274192Y-169307000D01*
X40243000Y-169303928D01*
X38243000Y-169303928D01*
X38118518Y-169316188D01*
X37998820Y-169352498D01*
X37888506Y-169411463D01*
X37791815Y-169490815D01*
X37712463Y-169587506D01*
X37653498Y-169697820D01*
X37617188Y-169817518D01*
X37604928Y-169942000D01*
X37604928Y-170892869D01*
X37600089Y-170942000D01*
X37604928Y-170991131D01*
X37604928Y-171942000D01*
X37617188Y-172066482D01*
X37653498Y-172186180D01*
X37712463Y-172296494D01*
X37791815Y-172393185D01*
X37888506Y-172472537D01*
X37998820Y-172531502D01*
X38118518Y-172567812D01*
X38243000Y-172580072D01*
X40243000Y-172580072D01*
X40274192Y-172577000D01*
X46068628Y-172577000D01*
X46098285Y-172592852D01*
X46406484Y-172686343D01*
X46698261Y-172715081D01*
X46726999Y-172717911D01*
X46727000Y-172717911D01*
X47047515Y-172686343D01*
X47355714Y-172592852D01*
X47639751Y-172441031D01*
X47795671Y-172313072D01*
X47827000Y-172313072D01*
X47951482Y-172300812D01*
X48071180Y-172264502D01*
X48181494Y-172205537D01*
X48278185Y-172126185D01*
X48357537Y-172029494D01*
X48416502Y-171919180D01*
X48452812Y-171799482D01*
X48465072Y-171675000D01*
X48465072Y-170763166D01*
X48937239Y-170291000D01*
X49213176Y-170291000D01*
X49201188Y-170330518D01*
X49188928Y-170455000D01*
X49192000Y-173069250D01*
X49350750Y-173228000D01*
X52900000Y-173228000D01*
X52900000Y-173208000D01*
X53154000Y-173208000D01*
X53154000Y-173228000D01*
X56703250Y-173228000D01*
X56862000Y-173069250D01*
X56865072Y-170455000D01*
X56852812Y-170330518D01*
X56835704Y-170274120D01*
X56904516Y-170267343D01*
X57212715Y-170173852D01*
X57496752Y-170022031D01*
X57745714Y-169817714D01*
X57796924Y-169755314D01*
X58796601Y-168755638D01*
X59109199Y-168626156D01*
X59409744Y-168425338D01*
X59665338Y-168169744D01*
X59866156Y-167869199D01*
X60004482Y-167535250D01*
X60075000Y-167180732D01*
X60075000Y-166819268D01*
X60004482Y-166464750D01*
X59866156Y-166130801D01*
X59863616Y-166127000D01*
X68575397Y-166127000D01*
X68548815Y-166148815D01*
X68469463Y-166245506D01*
X68410498Y-166355820D01*
X68374188Y-166475518D01*
X68361928Y-166600000D01*
X68361928Y-167600000D01*
X68374188Y-167724482D01*
X68410498Y-167844180D01*
X68469463Y-167954494D01*
X68548815Y-168051185D01*
X68645506Y-168130537D01*
X68755820Y-168189502D01*
X68875518Y-168225812D01*
X69000000Y-168238072D01*
X70700000Y-168238072D01*
X70824482Y-168225812D01*
X70944180Y-168189502D01*
X71054494Y-168130537D01*
X71151185Y-168051185D01*
X71230537Y-167954494D01*
X71281046Y-167860000D01*
X74718954Y-167860000D01*
X74769463Y-167954494D01*
X74848815Y-168051185D01*
X74945506Y-168130537D01*
X75055820Y-168189502D01*
X75175518Y-168225812D01*
X75300000Y-168238072D01*
X77000000Y-168238072D01*
X77124482Y-168225812D01*
X77244180Y-168189502D01*
X77354494Y-168130537D01*
X77451185Y-168051185D01*
X77530537Y-167954494D01*
X77589502Y-167844180D01*
X77625812Y-167724482D01*
X77638072Y-167600000D01*
X77638072Y-166600000D01*
X77625812Y-166475518D01*
X77589502Y-166355820D01*
X77530537Y-166245506D01*
X77451185Y-166148815D01*
X77424603Y-166127000D01*
X78340001Y-166127000D01*
X78340001Y-178340000D01*
X60287262Y-178340000D01*
X60294031Y-178331752D01*
X60445852Y-178047715D01*
X60539343Y-177739516D01*
X60563000Y-177499322D01*
X60563000Y-177499320D01*
X60570911Y-177419000D01*
X60563000Y-177338681D01*
X60563000Y-176950413D01*
X62044192Y-176950413D01*
X62139956Y-177214814D01*
X62429571Y-177355704D01*
X62741108Y-177437384D01*
X63062595Y-177456718D01*
X63381675Y-177412961D01*
X63686088Y-177307795D01*
X63860044Y-177214814D01*
X63955808Y-176950413D01*
X63000000Y-175994605D01*
X62044192Y-176950413D01*
X60563000Y-176950413D01*
X60563000Y-175877595D01*
X61358282Y-175877595D01*
X61402039Y-176196675D01*
X61507205Y-176501088D01*
X61600186Y-176675044D01*
X61864587Y-176770808D01*
X62820395Y-175815000D01*
X63179605Y-175815000D01*
X64135413Y-176770808D01*
X64399814Y-176675044D01*
X64540704Y-176385429D01*
X64622384Y-176073892D01*
X64637993Y-175814344D01*
X74115000Y-175814344D01*
X74115000Y-176185656D01*
X74187439Y-176549834D01*
X74329534Y-176892882D01*
X74535825Y-177201618D01*
X74798382Y-177464175D01*
X75107118Y-177670466D01*
X75450166Y-177812561D01*
X75814344Y-177885000D01*
X76185656Y-177885000D01*
X76549834Y-177812561D01*
X76892882Y-177670466D01*
X77201618Y-177464175D01*
X77464175Y-177201618D01*
X77670466Y-176892882D01*
X77812561Y-176549834D01*
X77885000Y-176185656D01*
X77885000Y-175814344D01*
X77812561Y-175450166D01*
X77670466Y-175107118D01*
X77464175Y-174798382D01*
X77201618Y-174535825D01*
X76892882Y-174329534D01*
X76549834Y-174187439D01*
X76185656Y-174115000D01*
X75814344Y-174115000D01*
X75450166Y-174187439D01*
X75107118Y-174329534D01*
X74798382Y-174535825D01*
X74535825Y-174798382D01*
X74329534Y-175107118D01*
X74187439Y-175450166D01*
X74115000Y-175814344D01*
X64637993Y-175814344D01*
X64641718Y-175752405D01*
X64597961Y-175433325D01*
X64492795Y-175128912D01*
X64399814Y-174954956D01*
X64135413Y-174859192D01*
X63179605Y-175815000D01*
X62820395Y-175815000D01*
X61864587Y-174859192D01*
X61600186Y-174954956D01*
X61459296Y-175244571D01*
X61377616Y-175556108D01*
X61358282Y-175877595D01*
X60563000Y-175877595D01*
X60563000Y-174679587D01*
X62044192Y-174679587D01*
X63000000Y-175635395D01*
X63955808Y-174679587D01*
X63860044Y-174415186D01*
X63570429Y-174274296D01*
X63258892Y-174192616D01*
X62937405Y-174173282D01*
X62618325Y-174217039D01*
X62313912Y-174322205D01*
X62139956Y-174415186D01*
X62044192Y-174679587D01*
X60563000Y-174679587D01*
X60563000Y-173143239D01*
X61256239Y-172450000D01*
X61968808Y-172450000D01*
X62000000Y-172453072D01*
X64000000Y-172453072D01*
X64124482Y-172440812D01*
X64244180Y-172404502D01*
X64354494Y-172345537D01*
X64451185Y-172266185D01*
X64530537Y-172169494D01*
X64589502Y-172059180D01*
X64625812Y-171939482D01*
X64638072Y-171815000D01*
X64638072Y-171400000D01*
X68361928Y-171400000D01*
X68374188Y-171524482D01*
X68410498Y-171644180D01*
X68469463Y-171754494D01*
X68548815Y-171851185D01*
X68645506Y-171930537D01*
X68755820Y-171989502D01*
X68875518Y-172025812D01*
X69000000Y-172038072D01*
X69564250Y-172035000D01*
X69723000Y-171876250D01*
X69723000Y-171027000D01*
X69977000Y-171027000D01*
X69977000Y-171876250D01*
X70135750Y-172035000D01*
X70700000Y-172038072D01*
X70824482Y-172025812D01*
X70944180Y-171989502D01*
X71054494Y-171930537D01*
X71151185Y-171851185D01*
X71230537Y-171754494D01*
X71289502Y-171644180D01*
X71325812Y-171524482D01*
X71338072Y-171400000D01*
X74661928Y-171400000D01*
X74674188Y-171524482D01*
X74710498Y-171644180D01*
X74769463Y-171754494D01*
X74848815Y-171851185D01*
X74945506Y-171930537D01*
X75055820Y-171989502D01*
X75175518Y-172025812D01*
X75300000Y-172038072D01*
X75864250Y-172035000D01*
X76023000Y-171876250D01*
X76023000Y-171027000D01*
X76277000Y-171027000D01*
X76277000Y-171876250D01*
X76435750Y-172035000D01*
X77000000Y-172038072D01*
X77124482Y-172025812D01*
X77244180Y-171989502D01*
X77354494Y-171930537D01*
X77451185Y-171851185D01*
X77530537Y-171754494D01*
X77589502Y-171644180D01*
X77625812Y-171524482D01*
X77638072Y-171400000D01*
X77635000Y-171185750D01*
X77476250Y-171027000D01*
X76277000Y-171027000D01*
X76023000Y-171027000D01*
X74823750Y-171027000D01*
X74665000Y-171185750D01*
X74661928Y-171400000D01*
X71338072Y-171400000D01*
X71335000Y-171185750D01*
X71176250Y-171027000D01*
X69977000Y-171027000D01*
X69723000Y-171027000D01*
X68523750Y-171027000D01*
X68365000Y-171185750D01*
X68361928Y-171400000D01*
X64638072Y-171400000D01*
X64638072Y-170864131D01*
X64642911Y-170815000D01*
X64638072Y-170765869D01*
X64638072Y-170400000D01*
X68361928Y-170400000D01*
X68365000Y-170614250D01*
X68523750Y-170773000D01*
X69723000Y-170773000D01*
X69723000Y-169923750D01*
X69977000Y-169923750D01*
X69977000Y-170773000D01*
X71176250Y-170773000D01*
X71335000Y-170614250D01*
X71338072Y-170400000D01*
X74661928Y-170400000D01*
X74665000Y-170614250D01*
X74823750Y-170773000D01*
X76023000Y-170773000D01*
X76023000Y-169923750D01*
X76277000Y-169923750D01*
X76277000Y-170773000D01*
X77476250Y-170773000D01*
X77635000Y-170614250D01*
X77638072Y-170400000D01*
X77625812Y-170275518D01*
X77589502Y-170155820D01*
X77530537Y-170045506D01*
X77451185Y-169948815D01*
X77354494Y-169869463D01*
X77244180Y-169810498D01*
X77124482Y-169774188D01*
X77000000Y-169761928D01*
X76435750Y-169765000D01*
X76277000Y-169923750D01*
X76023000Y-169923750D01*
X75864250Y-169765000D01*
X75300000Y-169761928D01*
X75175518Y-169774188D01*
X75055820Y-169810498D01*
X74945506Y-169869463D01*
X74848815Y-169948815D01*
X74769463Y-170045506D01*
X74710498Y-170155820D01*
X74674188Y-170275518D01*
X74661928Y-170400000D01*
X71338072Y-170400000D01*
X71325812Y-170275518D01*
X71289502Y-170155820D01*
X71230537Y-170045506D01*
X71151185Y-169948815D01*
X71054494Y-169869463D01*
X70944180Y-169810498D01*
X70824482Y-169774188D01*
X70700000Y-169761928D01*
X70135750Y-169765000D01*
X69977000Y-169923750D01*
X69723000Y-169923750D01*
X69564250Y-169765000D01*
X69000000Y-169761928D01*
X68875518Y-169774188D01*
X68755820Y-169810498D01*
X68645506Y-169869463D01*
X68548815Y-169948815D01*
X68469463Y-170045506D01*
X68410498Y-170155820D01*
X68374188Y-170275518D01*
X68361928Y-170400000D01*
X64638072Y-170400000D01*
X64638072Y-169815000D01*
X64625812Y-169690518D01*
X64589502Y-169570820D01*
X64530537Y-169460506D01*
X64451185Y-169363815D01*
X64354494Y-169284463D01*
X64244180Y-169225498D01*
X64124482Y-169189188D01*
X64000000Y-169176928D01*
X62000000Y-169176928D01*
X61968808Y-169180000D01*
X60659322Y-169180000D01*
X60579000Y-169172089D01*
X60258483Y-169203657D01*
X60019183Y-169276248D01*
X59950285Y-169297148D01*
X59666248Y-169448969D01*
X59417286Y-169653286D01*
X59366084Y-169715676D01*
X57828686Y-171253076D01*
X57766286Y-171304286D01*
X57561969Y-171553249D01*
X57410148Y-171837286D01*
X57316657Y-172145485D01*
X57298203Y-172332852D01*
X57285089Y-172466000D01*
X57293000Y-172546320D01*
X57293001Y-176139990D01*
X56864937Y-176139990D01*
X56862000Y-173640750D01*
X56703250Y-173482000D01*
X53154000Y-173482000D01*
X53154000Y-173502000D01*
X52900000Y-173502000D01*
X52900000Y-173482000D01*
X49350750Y-173482000D01*
X49192000Y-173640750D01*
X49189063Y-176139990D01*
X48465072Y-176139990D01*
X48465072Y-175035000D01*
X48452812Y-174910518D01*
X48416502Y-174790820D01*
X48357537Y-174680506D01*
X48278185Y-174583815D01*
X48181494Y-174504463D01*
X48071180Y-174445498D01*
X47951482Y-174409188D01*
X47827000Y-174396928D01*
X47795671Y-174396928D01*
X47639752Y-174268969D01*
X47355715Y-174117148D01*
X47047516Y-174023657D01*
X46727000Y-173992089D01*
X46406485Y-174023657D01*
X46098286Y-174117148D01*
X45814249Y-174268969D01*
X45658330Y-174396928D01*
X45627000Y-174396928D01*
X45502518Y-174409188D01*
X45382820Y-174445498D01*
X45272506Y-174504463D01*
X45175815Y-174583815D01*
X45096463Y-174680506D01*
X45037498Y-174790820D01*
X45001188Y-174910518D01*
X44988928Y-175035000D01*
X44988928Y-176235000D01*
X45001188Y-176359482D01*
X45037498Y-176479180D01*
X45092000Y-176581144D01*
X45092000Y-177347681D01*
X45084089Y-177428000D01*
X45092000Y-177508319D01*
X45092000Y-177508321D01*
X45115657Y-177748515D01*
X45209148Y-178056714D01*
X45360568Y-178340000D01*
X20660000Y-178340000D01*
X20660000Y-175814344D01*
X21115000Y-175814344D01*
X21115000Y-176185656D01*
X21187439Y-176549834D01*
X21329534Y-176892882D01*
X21535825Y-177201618D01*
X21798382Y-177464175D01*
X22107118Y-177670466D01*
X22450166Y-177812561D01*
X22814344Y-177885000D01*
X23185656Y-177885000D01*
X23549834Y-177812561D01*
X23892882Y-177670466D01*
X24201618Y-177464175D01*
X24464175Y-177201618D01*
X24589610Y-177013891D01*
X27641519Y-177013891D01*
X27738843Y-177288252D01*
X27887822Y-177538355D01*
X28082731Y-177754588D01*
X28316080Y-177928641D01*
X28578901Y-178053825D01*
X28726110Y-178098476D01*
X28956000Y-177977155D01*
X28956000Y-176784000D01*
X27762186Y-176784000D01*
X27641519Y-177013891D01*
X24589610Y-177013891D01*
X24670466Y-176892882D01*
X24812561Y-176549834D01*
X24862234Y-176300109D01*
X27641519Y-176300109D01*
X27762186Y-176530000D01*
X28956000Y-176530000D01*
X28956000Y-175336845D01*
X28726110Y-175215524D01*
X28578901Y-175260175D01*
X28316080Y-175385359D01*
X28082731Y-175559412D01*
X27887822Y-175775645D01*
X27738843Y-176025748D01*
X27641519Y-176300109D01*
X24862234Y-176300109D01*
X24885000Y-176185656D01*
X24885000Y-175814344D01*
X24812561Y-175450166D01*
X24670466Y-175107118D01*
X24464175Y-174798382D01*
X24201618Y-174535825D01*
X23892882Y-174329534D01*
X23549834Y-174187439D01*
X23185656Y-174115000D01*
X22814344Y-174115000D01*
X22450166Y-174187439D01*
X22107118Y-174329534D01*
X21798382Y-174535825D01*
X21535825Y-174798382D01*
X21329534Y-175107118D01*
X21187439Y-175450166D01*
X21115000Y-175814344D01*
X20660000Y-175814344D01*
X20660000Y-171127000D01*
X33925001Y-171127000D01*
X33925000Y-174074761D01*
X32977762Y-175022000D01*
X31542678Y-175022000D01*
X31302484Y-175045657D01*
X30994285Y-175139148D01*
X30938571Y-175168928D01*
X30773000Y-175168928D01*
X30648518Y-175181188D01*
X30528820Y-175217498D01*
X30418506Y-175276463D01*
X30321815Y-175355815D01*
X30242463Y-175452506D01*
X30183498Y-175562820D01*
X30159034Y-175643466D01*
X30083269Y-175559412D01*
X29849920Y-175385359D01*
X29587099Y-175260175D01*
X29439890Y-175215524D01*
X29210000Y-175336845D01*
X29210000Y-176530000D01*
X29230000Y-176530000D01*
X29230000Y-176784000D01*
X29210000Y-176784000D01*
X29210000Y-177977155D01*
X29439890Y-178098476D01*
X29587099Y-178053825D01*
X29849920Y-177928641D01*
X30083269Y-177754588D01*
X30159034Y-177670534D01*
X30183498Y-177751180D01*
X30242463Y-177861494D01*
X30321815Y-177958185D01*
X30418506Y-178037537D01*
X30528820Y-178096502D01*
X30648518Y-178132812D01*
X30773000Y-178145072D01*
X30938571Y-178145072D01*
X30994285Y-178174852D01*
X31302484Y-178268343D01*
X31542678Y-178292000D01*
X33574681Y-178292000D01*
X33655000Y-178299911D01*
X33735319Y-178292000D01*
X33735322Y-178292000D01*
X33975516Y-178268343D01*
X34283715Y-178174852D01*
X34567752Y-178023031D01*
X34816714Y-177818714D01*
X34867925Y-177756313D01*
X35546825Y-177077413D01*
X38287192Y-177077413D01*
X38382956Y-177341814D01*
X38672571Y-177482704D01*
X38984108Y-177564384D01*
X39305595Y-177583718D01*
X39624675Y-177539961D01*
X39929088Y-177434795D01*
X40103044Y-177341814D01*
X40198808Y-177077413D01*
X39243000Y-176121605D01*
X38287192Y-177077413D01*
X35546825Y-177077413D01*
X36619643Y-176004595D01*
X37601282Y-176004595D01*
X37645039Y-176323675D01*
X37750205Y-176628088D01*
X37843186Y-176802044D01*
X38107587Y-176897808D01*
X39063395Y-175942000D01*
X39422605Y-175942000D01*
X40378413Y-176897808D01*
X40642814Y-176802044D01*
X40783704Y-176512429D01*
X40865384Y-176200892D01*
X40884718Y-175879405D01*
X40840961Y-175560325D01*
X40735795Y-175255912D01*
X40642814Y-175081956D01*
X40378413Y-174986192D01*
X39422605Y-175942000D01*
X39063395Y-175942000D01*
X38107587Y-174986192D01*
X37843186Y-175081956D01*
X37702296Y-175371571D01*
X37620616Y-175683108D01*
X37601282Y-176004595D01*
X36619643Y-176004595D01*
X36659320Y-175964919D01*
X36721714Y-175913714D01*
X36926031Y-175664752D01*
X37077852Y-175380715D01*
X37105076Y-175290969D01*
X37171343Y-175072517D01*
X37197534Y-174806587D01*
X38287192Y-174806587D01*
X39243000Y-175762395D01*
X40198808Y-174806587D01*
X40103044Y-174542186D01*
X39813429Y-174401296D01*
X39501892Y-174319616D01*
X39180405Y-174300282D01*
X38861325Y-174344039D01*
X38556912Y-174449205D01*
X38382956Y-174542186D01*
X38287192Y-174806587D01*
X37197534Y-174806587D01*
X37202911Y-174752000D01*
X37195000Y-174671678D01*
X37195000Y-169460238D01*
X38020239Y-168635000D01*
X42152152Y-168635000D01*
X42464750Y-168764482D01*
X42819268Y-168835000D01*
X43180732Y-168835000D01*
X43535250Y-168764482D01*
X43869199Y-168626156D01*
X44169744Y-168425338D01*
X44425338Y-168169744D01*
X44626156Y-167869199D01*
X44764482Y-167535250D01*
X44835000Y-167180732D01*
X44835000Y-166819268D01*
X44764482Y-166464750D01*
X44626156Y-166130801D01*
X44425338Y-165830256D01*
X44169744Y-165574662D01*
X43869199Y-165373844D01*
X43535250Y-165235518D01*
X43180732Y-165165000D01*
X42819268Y-165165000D01*
X42464750Y-165235518D01*
X42152152Y-165365000D01*
X37423322Y-165365000D01*
X37343000Y-165357089D01*
X37022483Y-165388657D01*
X36714285Y-165482148D01*
X36430248Y-165633969D01*
X36181286Y-165838286D01*
X36130079Y-165900682D01*
X36127000Y-165903761D01*
X36127000Y-160900000D01*
X36461928Y-160900000D01*
X36474188Y-161024482D01*
X36510498Y-161144180D01*
X36569463Y-161254494D01*
X36648815Y-161351185D01*
X36745506Y-161430537D01*
X36855820Y-161489502D01*
X36975518Y-161525812D01*
X37100000Y-161538072D01*
X37714250Y-161535000D01*
X37873000Y-161376250D01*
X37873000Y-160127000D01*
X36623750Y-160127000D01*
X36465000Y-160285750D01*
X36461928Y-160900000D01*
X36127000Y-160900000D01*
X36127000Y-159100000D01*
X36461928Y-159100000D01*
X36465000Y-159714250D01*
X36623750Y-159873000D01*
X37873000Y-159873000D01*
X37873000Y-158623750D01*
X37714250Y-158465000D01*
X37100000Y-158461928D01*
X36975518Y-158474188D01*
X36855820Y-158510498D01*
X36745506Y-158569463D01*
X36648815Y-158648815D01*
X36569463Y-158745506D01*
X36510498Y-158855820D01*
X36474188Y-158975518D01*
X36461928Y-159100000D01*
X36127000Y-159100000D01*
X36127000Y-155850000D01*
X46511928Y-155850000D01*
X46524188Y-155974482D01*
X46560498Y-156094180D01*
X46619463Y-156204494D01*
X46698815Y-156301185D01*
X46795506Y-156380537D01*
X46905820Y-156439502D01*
X47025518Y-156475812D01*
X47150000Y-156488072D01*
X47714250Y-156485000D01*
X47873000Y-156326250D01*
X47873000Y-155127000D01*
X46673750Y-155127000D01*
X46515000Y-155285750D01*
X46511928Y-155850000D01*
X36127000Y-155850000D01*
X36127000Y-155000000D01*
X36124560Y-154975224D01*
X36117333Y-154951399D01*
X36105597Y-154929443D01*
X36089803Y-154910197D01*
X36077378Y-154900000D01*
X36461928Y-154900000D01*
X36474188Y-155024482D01*
X36510498Y-155144180D01*
X36569463Y-155254494D01*
X36648815Y-155351185D01*
X36745506Y-155430537D01*
X36855820Y-155489502D01*
X36975518Y-155525812D01*
X37100000Y-155538072D01*
X37714250Y-155535000D01*
X37873000Y-155376250D01*
X37873000Y-154127000D01*
X36623750Y-154127000D01*
X36465000Y-154285750D01*
X36461928Y-154900000D01*
X36077378Y-154900000D01*
X36070557Y-154894403D01*
X36048601Y-154882667D01*
X36024776Y-154875440D01*
X36000000Y-154873000D01*
X20660000Y-154873000D01*
X20660000Y-153100000D01*
X36461928Y-153100000D01*
X36465000Y-153714250D01*
X36623750Y-153873000D01*
X37873000Y-153873000D01*
X37873000Y-152623750D01*
X37714250Y-152465000D01*
X37100000Y-152461928D01*
X36975518Y-152474188D01*
X36855820Y-152510498D01*
X36745506Y-152569463D01*
X36648815Y-152648815D01*
X36569463Y-152745506D01*
X36510498Y-152855820D01*
X36474188Y-152975518D01*
X36461928Y-153100000D01*
X20660000Y-153100000D01*
X20660000Y-146818750D01*
X24661928Y-146818750D01*
X24661928Y-147306250D01*
X24678872Y-147478285D01*
X24729053Y-147643709D01*
X24810542Y-147796164D01*
X24920208Y-147929792D01*
X25005756Y-148000000D01*
X24920208Y-148070208D01*
X24810542Y-148203836D01*
X24729053Y-148356291D01*
X24678872Y-148521715D01*
X24661928Y-148693750D01*
X24661928Y-149181250D01*
X24678872Y-149353285D01*
X24729053Y-149518709D01*
X24810542Y-149671164D01*
X24920208Y-149804792D01*
X25053836Y-149914458D01*
X25206291Y-149995947D01*
X25371715Y-150046128D01*
X25543750Y-150063072D01*
X26456250Y-150063072D01*
X26628285Y-150046128D01*
X26793709Y-149995947D01*
X26946164Y-149914458D01*
X27079792Y-149804792D01*
X27167845Y-149697500D01*
X29625500Y-149697500D01*
X29625500Y-149797491D01*
X29683048Y-150086805D01*
X29795933Y-150359332D01*
X29959816Y-150604601D01*
X30168399Y-150813184D01*
X30413668Y-150977067D01*
X30686195Y-151089952D01*
X30975509Y-151147500D01*
X31270491Y-151147500D01*
X31559805Y-151089952D01*
X31832332Y-150977067D01*
X32077601Y-150813184D01*
X32286184Y-150604601D01*
X32450067Y-150359332D01*
X32562952Y-150086805D01*
X32620500Y-149797491D01*
X32620500Y-149502509D01*
X32562952Y-149213195D01*
X32450067Y-148940668D01*
X32286184Y-148695399D01*
X32077601Y-148486816D01*
X31917739Y-148380000D01*
X32077601Y-148273184D01*
X32286184Y-148064601D01*
X32416212Y-147870000D01*
X35831928Y-147870000D01*
X35831928Y-149699000D01*
X35844188Y-149823482D01*
X35880498Y-149943180D01*
X35939463Y-150053494D01*
X36018815Y-150150185D01*
X36115506Y-150229537D01*
X36225820Y-150288502D01*
X36345518Y-150324812D01*
X36470000Y-150337072D01*
X42270000Y-150337072D01*
X42394482Y-150324812D01*
X42514180Y-150288502D01*
X42624494Y-150229537D01*
X42721185Y-150150185D01*
X42800537Y-150053494D01*
X42859502Y-149943180D01*
X42895812Y-149823482D01*
X42908072Y-149699000D01*
X42908072Y-143299000D01*
X42895812Y-143174518D01*
X42859502Y-143054820D01*
X42800537Y-142944506D01*
X42721185Y-142847815D01*
X42624494Y-142768463D01*
X42514180Y-142709498D01*
X42394482Y-142673188D01*
X42270000Y-142660928D01*
X36470000Y-142660928D01*
X36345518Y-142673188D01*
X36225820Y-142709498D01*
X36115506Y-142768463D01*
X36018815Y-142847815D01*
X35939463Y-142944506D01*
X35880498Y-143054820D01*
X35853863Y-143142624D01*
X34010239Y-141299000D01*
X35851928Y-141299000D01*
X35864188Y-141423482D01*
X35900498Y-141543180D01*
X35959463Y-141653494D01*
X36038815Y-141750185D01*
X36135506Y-141829537D01*
X36245820Y-141888502D01*
X36365518Y-141924812D01*
X36490000Y-141937072D01*
X36804250Y-141934000D01*
X36963000Y-141775250D01*
X36963000Y-140326000D01*
X37217000Y-140326000D01*
X37217000Y-141775250D01*
X37375750Y-141934000D01*
X37690000Y-141937072D01*
X37814482Y-141924812D01*
X37934180Y-141888502D01*
X38044494Y-141829537D01*
X38141185Y-141750185D01*
X38220537Y-141653494D01*
X38279502Y-141543180D01*
X38315812Y-141423482D01*
X38328072Y-141299000D01*
X38325000Y-140484750D01*
X38166250Y-140326000D01*
X37217000Y-140326000D01*
X36963000Y-140326000D01*
X36013750Y-140326000D01*
X35855000Y-140484750D01*
X35851928Y-141299000D01*
X34010239Y-141299000D01*
X32095000Y-139383762D01*
X32095000Y-139099000D01*
X35851928Y-139099000D01*
X35855000Y-139913250D01*
X36013750Y-140072000D01*
X36963000Y-140072000D01*
X36963000Y-138622750D01*
X37217000Y-138622750D01*
X37217000Y-140072000D01*
X38166250Y-140072000D01*
X38325000Y-139913250D01*
X38328072Y-139099000D01*
X38315812Y-138974518D01*
X38279502Y-138854820D01*
X38220537Y-138744506D01*
X38141185Y-138647815D01*
X38044494Y-138568463D01*
X37934180Y-138509498D01*
X37814482Y-138473188D01*
X37690000Y-138460928D01*
X37375750Y-138464000D01*
X37217000Y-138622750D01*
X36963000Y-138622750D01*
X36804250Y-138464000D01*
X36490000Y-138460928D01*
X36365518Y-138473188D01*
X36245820Y-138509498D01*
X36135506Y-138568463D01*
X36038815Y-138647815D01*
X35959463Y-138744506D01*
X35900498Y-138854820D01*
X35864188Y-138974518D01*
X35851928Y-139099000D01*
X32095000Y-139099000D01*
X32095000Y-136482655D01*
X32150000Y-136488072D01*
X32714250Y-136485000D01*
X32873000Y-136326250D01*
X32873000Y-135127000D01*
X33127000Y-135127000D01*
X33127000Y-136326250D01*
X33285750Y-136485000D01*
X33850000Y-136488072D01*
X33974482Y-136475812D01*
X34094180Y-136439502D01*
X34204494Y-136380537D01*
X34301185Y-136301185D01*
X34380537Y-136204494D01*
X34439502Y-136094180D01*
X34475812Y-135974482D01*
X34488072Y-135850000D01*
X34485000Y-135285750D01*
X34326250Y-135127000D01*
X33127000Y-135127000D01*
X32873000Y-135127000D01*
X32853000Y-135127000D01*
X32853000Y-134873000D01*
X32873000Y-134873000D01*
X32873000Y-133673750D01*
X33127000Y-133673750D01*
X33127000Y-134873000D01*
X34326250Y-134873000D01*
X34485000Y-134714250D01*
X34488072Y-134150000D01*
X34475812Y-134025518D01*
X34439502Y-133905820D01*
X34380537Y-133795506D01*
X34301185Y-133698815D01*
X34204494Y-133619463D01*
X34094180Y-133560498D01*
X33974482Y-133524188D01*
X33850000Y-133511928D01*
X33285750Y-133515000D01*
X33127000Y-133673750D01*
X32873000Y-133673750D01*
X32714250Y-133515000D01*
X32150000Y-133511928D01*
X32025518Y-133524188D01*
X31905820Y-133560498D01*
X31795506Y-133619463D01*
X31698815Y-133698815D01*
X31619463Y-133795506D01*
X31604255Y-133823958D01*
X31372751Y-133633969D01*
X31088714Y-133482148D01*
X30780515Y-133388657D01*
X30460000Y-133357089D01*
X30139484Y-133388657D01*
X29831285Y-133482148D01*
X29547248Y-133633969D01*
X29298286Y-133838286D01*
X29095151Y-134085809D01*
X29073475Y-134053368D01*
X28866632Y-133846525D01*
X28623411Y-133684010D01*
X28353158Y-133572068D01*
X28066260Y-133515000D01*
X27773740Y-133515000D01*
X27486842Y-133572068D01*
X27216589Y-133684010D01*
X26973368Y-133846525D01*
X26766525Y-134053368D01*
X26604010Y-134296589D01*
X26492068Y-134566842D01*
X26435000Y-134853740D01*
X26435000Y-135146260D01*
X26492068Y-135433158D01*
X26604010Y-135703411D01*
X26766525Y-135946632D01*
X26973368Y-136153475D01*
X27160000Y-136278179D01*
X27160001Y-138165197D01*
X25489003Y-139836196D01*
X25459999Y-139859999D01*
X25415237Y-139914542D01*
X25365026Y-139975724D01*
X25306589Y-140085051D01*
X25294454Y-140107754D01*
X25250997Y-140251015D01*
X25240000Y-140362668D01*
X25240000Y-140362678D01*
X25236324Y-140400000D01*
X25240000Y-140437323D01*
X25240001Y-145993827D01*
X25206291Y-146004053D01*
X25053836Y-146085542D01*
X24920208Y-146195208D01*
X24810542Y-146328836D01*
X24729053Y-146481291D01*
X24678872Y-146646715D01*
X24661928Y-146818750D01*
X20660000Y-146818750D01*
X20660000Y-134814344D01*
X21115000Y-134814344D01*
X21115000Y-135185656D01*
X21187439Y-135549834D01*
X21329534Y-135892882D01*
X21535825Y-136201618D01*
X21798382Y-136464175D01*
X22107118Y-136670466D01*
X22450166Y-136812561D01*
X22814344Y-136885000D01*
X23185656Y-136885000D01*
X23549834Y-136812561D01*
X23892882Y-136670466D01*
X24201618Y-136464175D01*
X24464175Y-136201618D01*
X24670466Y-135892882D01*
X24812561Y-135549834D01*
X24885000Y-135185656D01*
X24885000Y-134814344D01*
X24812561Y-134450166D01*
X24670466Y-134107118D01*
X24464175Y-133798382D01*
X24201618Y-133535825D01*
X23892882Y-133329534D01*
X23549834Y-133187439D01*
X23185656Y-133115000D01*
X22814344Y-133115000D01*
X22450166Y-133187439D01*
X22107118Y-133329534D01*
X21798382Y-133535825D01*
X21535825Y-133798382D01*
X21329534Y-134107118D01*
X21187439Y-134450166D01*
X21115000Y-134814344D01*
X20660000Y-134814344D01*
X20660000Y-132660000D01*
X78340000Y-132660000D01*
X78340000Y-154873000D01*
G37*
X78340000Y-154873000D02*
X73747269Y-154873000D01*
X73671164Y-154810542D01*
X73518709Y-154729053D01*
X73353285Y-154678872D01*
X73181250Y-154661928D01*
X72693750Y-154661928D01*
X72521715Y-154678872D01*
X72356291Y-154729053D01*
X72203836Y-154810542D01*
X72127731Y-154873000D01*
X71872269Y-154873000D01*
X71822500Y-154832155D01*
X71822500Y-154167845D01*
X71929792Y-154079792D01*
X71935008Y-154073436D01*
X71998815Y-154151185D01*
X72095506Y-154230537D01*
X72205820Y-154289502D01*
X72325518Y-154325812D01*
X72450000Y-154338072D01*
X72651750Y-154335000D01*
X72810500Y-154176250D01*
X72810500Y-153127000D01*
X73064500Y-153127000D01*
X73064500Y-154176250D01*
X73223250Y-154335000D01*
X73425000Y-154338072D01*
X73549482Y-154325812D01*
X73669180Y-154289502D01*
X73779494Y-154230537D01*
X73876185Y-154151185D01*
X73955537Y-154054494D01*
X74014502Y-153944180D01*
X74050812Y-153824482D01*
X74063072Y-153700000D01*
X74060000Y-153285750D01*
X73901250Y-153127000D01*
X73064500Y-153127000D01*
X72810500Y-153127000D01*
X72790500Y-153127000D01*
X72790500Y-152873000D01*
X72810500Y-152873000D01*
X72810500Y-151823750D01*
X73064500Y-151823750D01*
X73064500Y-152873000D01*
X73901250Y-152873000D01*
X74060000Y-152714250D01*
X74063072Y-152300000D01*
X74050812Y-152175518D01*
X74014502Y-152055820D01*
X73955537Y-151945506D01*
X73876185Y-151848815D01*
X73779494Y-151769463D01*
X73669180Y-151710498D01*
X73549482Y-151674188D01*
X73425000Y-151661928D01*
X73223250Y-151665000D01*
X73064500Y-151823750D01*
X72810500Y-151823750D01*
X72651750Y-151665000D01*
X72450000Y-151661928D01*
X72325518Y-151674188D01*
X72205820Y-151710498D01*
X72095506Y-151769463D01*
X71998815Y-151848815D01*
X71935008Y-151926564D01*
X71929792Y-151920208D01*
X71796164Y-151810542D01*
X71643709Y-151729053D01*
X71478285Y-151678872D01*
X71306250Y-151661928D01*
X70818750Y-151661928D01*
X70646715Y-151678872D01*
X70481291Y-151729053D01*
X70328836Y-151810542D01*
X70195208Y-151920208D01*
X70085542Y-152053836D01*
X70004053Y-152206291D01*
X69953872Y-152371715D01*
X69936928Y-152543750D01*
X69936928Y-153456250D01*
X69953872Y-153628285D01*
X70004053Y-153793709D01*
X70085542Y-153946164D01*
X70195208Y-154079792D01*
X70302501Y-154167845D01*
X70302501Y-154278605D01*
X70211486Y-154250997D01*
X70099833Y-154240000D01*
X70099822Y-154240000D01*
X70062500Y-154236324D01*
X70025178Y-154240000D01*
X69577959Y-154240000D01*
X69536537Y-154162506D01*
X69457185Y-154065815D01*
X69360494Y-153986463D01*
X69265456Y-153935663D01*
X69297975Y-153908975D01*
X69446058Y-153728536D01*
X69556094Y-153522674D01*
X69623853Y-153299300D01*
X69646733Y-153067000D01*
X69623853Y-152834700D01*
X69556094Y-152611326D01*
X69446058Y-152405464D01*
X69297975Y-152225025D01*
X69117536Y-152076942D01*
X69098936Y-152067000D01*
X69117536Y-152057058D01*
X69297975Y-151908975D01*
X69446058Y-151728536D01*
X69448303Y-151724336D01*
X69510247Y-151705546D01*
X69642276Y-151634974D01*
X69758001Y-151540001D01*
X69781803Y-151510998D01*
X70142801Y-151150000D01*
X74511928Y-151150000D01*
X74511928Y-152850000D01*
X74524188Y-152974482D01*
X74560498Y-153094180D01*
X74619463Y-153204494D01*
X74698815Y-153301185D01*
X74795506Y-153380537D01*
X74905820Y-153439502D01*
X75025518Y-153475812D01*
X75150000Y-153488072D01*
X76850000Y-153488072D01*
X76974482Y-153475812D01*
X77094180Y-153439502D01*
X77204494Y-153380537D01*
X77301185Y-153301185D01*
X77380537Y-153204494D01*
X77439502Y-153094180D01*
X77475812Y-152974482D01*
X77488072Y-152850000D01*
X77488072Y-151150000D01*
X77475812Y-151025518D01*
X77439502Y-150905820D01*
X77380537Y-150795506D01*
X77301185Y-150698815D01*
X77204494Y-150619463D01*
X77094180Y-150560498D01*
X77021620Y-150538487D01*
X77153475Y-150406632D01*
X77315990Y-150163411D01*
X77427932Y-149893158D01*
X77485000Y-149606260D01*
X77485000Y-149313740D01*
X77427932Y-149026842D01*
X77315990Y-148756589D01*
X77153475Y-148513368D01*
X76946632Y-148306525D01*
X76772240Y-148190000D01*
X76946632Y-148073475D01*
X77153475Y-147866632D01*
X77315990Y-147623411D01*
X77427932Y-147353158D01*
X77485000Y-147066260D01*
X77485000Y-146773740D01*
X77427932Y-146486842D01*
X77315990Y-146216589D01*
X77153475Y-145973368D01*
X76946632Y-145766525D01*
X76772240Y-145650000D01*
X76946632Y-145533475D01*
X77153475Y-145326632D01*
X77315990Y-145083411D01*
X77427932Y-144813158D01*
X77485000Y-144526260D01*
X77485000Y-144233740D01*
X77427932Y-143946842D01*
X77315990Y-143676589D01*
X77153475Y-143433368D01*
X76946632Y-143226525D01*
X76764466Y-143104805D01*
X76881355Y-143035178D01*
X77097588Y-142840269D01*
X77271641Y-142606920D01*
X77396825Y-142344099D01*
X77441476Y-142196890D01*
X77320155Y-141967000D01*
X76127000Y-141967000D01*
X76127000Y-141987000D01*
X75873000Y-141987000D01*
X75873000Y-141967000D01*
X74679845Y-141967000D01*
X74558524Y-142196890D01*
X74603175Y-142344099D01*
X74728359Y-142606920D01*
X74902412Y-142840269D01*
X75118645Y-143035178D01*
X75235534Y-143104805D01*
X75053368Y-143226525D01*
X74846525Y-143433368D01*
X74684010Y-143676589D01*
X74572068Y-143946842D01*
X74515000Y-144233740D01*
X74515000Y-144526260D01*
X74572068Y-144813158D01*
X74684010Y-145083411D01*
X74846525Y-145326632D01*
X75053368Y-145533475D01*
X75227760Y-145650000D01*
X75053368Y-145766525D01*
X74846525Y-145973368D01*
X74684010Y-146216589D01*
X74572068Y-146486842D01*
X74515000Y-146773740D01*
X74515000Y-147066260D01*
X74572068Y-147353158D01*
X74684010Y-147623411D01*
X74846525Y-147866632D01*
X75053368Y-148073475D01*
X75227760Y-148190000D01*
X75053368Y-148306525D01*
X74846525Y-148513368D01*
X74684010Y-148756589D01*
X74572068Y-149026842D01*
X74515000Y-149313740D01*
X74515000Y-149606260D01*
X74572068Y-149893158D01*
X74684010Y-150163411D01*
X74846525Y-150406632D01*
X74978380Y-150538487D01*
X74905820Y-150560498D01*
X74795506Y-150619463D01*
X74698815Y-150698815D01*
X74619463Y-150795506D01*
X74560498Y-150905820D01*
X74524188Y-151025518D01*
X74511928Y-151150000D01*
X70142801Y-151150000D01*
X70615004Y-150677798D01*
X70644001Y-150654001D01*
X70738974Y-150538276D01*
X70809546Y-150406247D01*
X70853003Y-150262986D01*
X70864000Y-150151333D01*
X70864000Y-150151324D01*
X70867676Y-150114001D01*
X70864000Y-150076678D01*
X70864000Y-146540301D01*
X71069229Y-146335072D01*
X71576250Y-146335072D01*
X71748285Y-146318128D01*
X71913709Y-146267947D01*
X72066164Y-146186458D01*
X72199792Y-146076792D01*
X72309458Y-145943164D01*
X72390947Y-145790709D01*
X72441128Y-145625285D01*
X72458072Y-145453250D01*
X72458072Y-144965750D01*
X72441128Y-144793715D01*
X72390947Y-144628291D01*
X72309458Y-144475836D01*
X72199792Y-144342208D01*
X72114244Y-144272000D01*
X72199792Y-144201792D01*
X72309458Y-144068164D01*
X72390947Y-143915709D01*
X72441128Y-143750285D01*
X72458072Y-143578250D01*
X72458072Y-143090750D01*
X72441128Y-142918715D01*
X72390947Y-142753291D01*
X72309458Y-142600836D01*
X72199792Y-142467208D01*
X72066164Y-142357542D01*
X71913709Y-142276053D01*
X71880000Y-142265827D01*
X71880000Y-141483110D01*
X74558524Y-141483110D01*
X74679845Y-141713000D01*
X75873000Y-141713000D01*
X75873000Y-140519186D01*
X76127000Y-140519186D01*
X76127000Y-141713000D01*
X77320155Y-141713000D01*
X77441476Y-141483110D01*
X77396825Y-141335901D01*
X77271641Y-141073080D01*
X77097588Y-140839731D01*
X76881355Y-140644822D01*
X76631252Y-140495843D01*
X76356891Y-140398519D01*
X76127000Y-140519186D01*
X75873000Y-140519186D01*
X75643109Y-140398519D01*
X75368748Y-140495843D01*
X75118645Y-140644822D01*
X74902412Y-140839731D01*
X74728359Y-141073080D01*
X74603175Y-141335901D01*
X74558524Y-141483110D01*
X71880000Y-141483110D01*
X71880000Y-141478222D01*
X71882947Y-141472709D01*
X71933128Y-141307285D01*
X71950072Y-141135250D01*
X71950072Y-140647750D01*
X71933128Y-140475715D01*
X71882947Y-140310291D01*
X71801458Y-140157836D01*
X71691792Y-140024208D01*
X71685436Y-140018992D01*
X71763185Y-139955185D01*
X71842537Y-139858494D01*
X71901502Y-139748180D01*
X71937812Y-139628482D01*
X71950072Y-139504000D01*
X71947000Y-139302250D01*
X71788250Y-139143500D01*
X70739000Y-139143500D01*
X70739000Y-139163500D01*
X70485000Y-139163500D01*
X70485000Y-139143500D01*
X69435750Y-139143500D01*
X69277000Y-139302250D01*
X69273928Y-139504000D01*
X69286188Y-139628482D01*
X69322498Y-139748180D01*
X69326945Y-139756500D01*
X68760000Y-139756500D01*
X68760000Y-138529000D01*
X69273928Y-138529000D01*
X69277000Y-138730750D01*
X69435750Y-138889500D01*
X70485000Y-138889500D01*
X70485000Y-138052750D01*
X70739000Y-138052750D01*
X70739000Y-138889500D01*
X71788250Y-138889500D01*
X71947000Y-138730750D01*
X71950072Y-138529000D01*
X71937812Y-138404518D01*
X71901502Y-138284820D01*
X71842537Y-138174506D01*
X71763185Y-138077815D01*
X71666494Y-137998463D01*
X71556180Y-137939498D01*
X71436482Y-137903188D01*
X71312000Y-137890928D01*
X70897750Y-137894000D01*
X70739000Y-138052750D01*
X70485000Y-138052750D01*
X70326250Y-137894000D01*
X69912000Y-137890928D01*
X69787518Y-137903188D01*
X69667820Y-137939498D01*
X69557506Y-137998463D01*
X69460815Y-138077815D01*
X69381463Y-138174506D01*
X69322498Y-138284820D01*
X69286188Y-138404518D01*
X69273928Y-138529000D01*
X68760000Y-138529000D01*
X68760000Y-137837325D01*
X68763676Y-137800000D01*
X68760000Y-137762675D01*
X68760000Y-137762667D01*
X68749003Y-137651014D01*
X68705546Y-137507753D01*
X68634974Y-137375724D01*
X68540001Y-137259999D01*
X68511004Y-137236202D01*
X67923803Y-136649002D01*
X67900001Y-136619999D01*
X67784276Y-136525026D01*
X67681423Y-136470049D01*
X67893158Y-136427932D01*
X68163411Y-136315990D01*
X68406632Y-136153475D01*
X68538487Y-136021620D01*
X68560498Y-136094180D01*
X68619463Y-136204494D01*
X68698815Y-136301185D01*
X68795506Y-136380537D01*
X68905820Y-136439502D01*
X69025518Y-136475812D01*
X69150000Y-136488072D01*
X69714250Y-136485000D01*
X69873000Y-136326250D01*
X69873000Y-135127000D01*
X70127000Y-135127000D01*
X70127000Y-136326250D01*
X70285750Y-136485000D01*
X70850000Y-136488072D01*
X70974482Y-136475812D01*
X71094180Y-136439502D01*
X71204494Y-136380537D01*
X71301185Y-136301185D01*
X71380537Y-136204494D01*
X71439502Y-136094180D01*
X71475812Y-135974482D01*
X71488072Y-135850000D01*
X71485000Y-135285750D01*
X71326250Y-135127000D01*
X70127000Y-135127000D01*
X69873000Y-135127000D01*
X69853000Y-135127000D01*
X69853000Y-134873000D01*
X69873000Y-134873000D01*
X69873000Y-133673750D01*
X70127000Y-133673750D01*
X70127000Y-134873000D01*
X71326250Y-134873000D01*
X71384906Y-134814344D01*
X74115000Y-134814344D01*
X74115000Y-135185656D01*
X74187439Y-135549834D01*
X74329534Y-135892882D01*
X74535825Y-136201618D01*
X74798382Y-136464175D01*
X75107118Y-136670466D01*
X75450166Y-136812561D01*
X75814344Y-136885000D01*
X76185656Y-136885000D01*
X76549834Y-136812561D01*
X76892882Y-136670466D01*
X77201618Y-136464175D01*
X77464175Y-136201618D01*
X77670466Y-135892882D01*
X77812561Y-135549834D01*
X77885000Y-135185656D01*
X77885000Y-134814344D01*
X77812561Y-134450166D01*
X77670466Y-134107118D01*
X77464175Y-133798382D01*
X77201618Y-133535825D01*
X76892882Y-133329534D01*
X76549834Y-133187439D01*
X76185656Y-133115000D01*
X75814344Y-133115000D01*
X75450166Y-133187439D01*
X75107118Y-133329534D01*
X74798382Y-133535825D01*
X74535825Y-133798382D01*
X74329534Y-134107118D01*
X74187439Y-134450166D01*
X74115000Y-134814344D01*
X71384906Y-134814344D01*
X71485000Y-134714250D01*
X71488072Y-134150000D01*
X71475812Y-134025518D01*
X71439502Y-133905820D01*
X71380537Y-133795506D01*
X71301185Y-133698815D01*
X71204494Y-133619463D01*
X71094180Y-133560498D01*
X70974482Y-133524188D01*
X70850000Y-133511928D01*
X70285750Y-133515000D01*
X70127000Y-133673750D01*
X69873000Y-133673750D01*
X69714250Y-133515000D01*
X69150000Y-133511928D01*
X69025518Y-133524188D01*
X68905820Y-133560498D01*
X68795506Y-133619463D01*
X68698815Y-133698815D01*
X68619463Y-133795506D01*
X68560498Y-133905820D01*
X68538487Y-133978380D01*
X68406632Y-133846525D01*
X68163411Y-133684010D01*
X67893158Y-133572068D01*
X67606260Y-133515000D01*
X67313740Y-133515000D01*
X67026842Y-133572068D01*
X66756589Y-133684010D01*
X66513368Y-133846525D01*
X66306525Y-134053368D01*
X66190000Y-134227760D01*
X66073475Y-134053368D01*
X65866632Y-133846525D01*
X65623411Y-133684010D01*
X65353158Y-133572068D01*
X65066260Y-133515000D01*
X64773740Y-133515000D01*
X64486842Y-133572068D01*
X64216589Y-133684010D01*
X63973368Y-133846525D01*
X63766525Y-134053368D01*
X63650000Y-134227760D01*
X63533475Y-134053368D01*
X63326632Y-133846525D01*
X63083411Y-133684010D01*
X62813158Y-133572068D01*
X62526260Y-133515000D01*
X62233740Y-133515000D01*
X61946842Y-133572068D01*
X61676589Y-133684010D01*
X61433368Y-133846525D01*
X61226525Y-134053368D01*
X61110000Y-134227760D01*
X60993475Y-134053368D01*
X60786632Y-133846525D01*
X60543411Y-133684010D01*
X60273158Y-133572068D01*
X59986260Y-133515000D01*
X59693740Y-133515000D01*
X59406842Y-133572068D01*
X59136589Y-133684010D01*
X58893368Y-133846525D01*
X58686525Y-134053368D01*
X58570000Y-134227760D01*
X58453475Y-134053368D01*
X58246632Y-133846525D01*
X58003411Y-133684010D01*
X57733158Y-133572068D01*
X57446260Y-133515000D01*
X57153740Y-133515000D01*
X56866842Y-133572068D01*
X56596589Y-133684010D01*
X56353368Y-133846525D01*
X56146525Y-134053368D01*
X56030000Y-134227760D01*
X55913475Y-134053368D01*
X55706632Y-133846525D01*
X55463411Y-133684010D01*
X55193158Y-133572068D01*
X54906260Y-133515000D01*
X54613740Y-133515000D01*
X54326842Y-133572068D01*
X54056589Y-133684010D01*
X53813368Y-133846525D01*
X53606525Y-134053368D01*
X53444010Y-134296589D01*
X53332068Y-134566842D01*
X53275000Y-134853740D01*
X53275000Y-135146260D01*
X53332068Y-135433158D01*
X53444010Y-135703411D01*
X53606525Y-135946632D01*
X53813368Y-136153475D01*
X54056589Y-136315990D01*
X54259408Y-136400000D01*
X51168082Y-136400000D01*
X51204494Y-136380537D01*
X51301185Y-136301185D01*
X51380537Y-136204494D01*
X51439502Y-136094180D01*
X51475812Y-135974482D01*
X51488072Y-135850000D01*
X51485000Y-135285750D01*
X51326250Y-135127000D01*
X50127000Y-135127000D01*
X50127000Y-135147000D01*
X49873000Y-135147000D01*
X49873000Y-135127000D01*
X49853000Y-135127000D01*
X49853000Y-134873000D01*
X49873000Y-134873000D01*
X49873000Y-133673750D01*
X50127000Y-133673750D01*
X50127000Y-134873000D01*
X51326250Y-134873000D01*
X51485000Y-134714250D01*
X51488072Y-134150000D01*
X51475812Y-134025518D01*
X51439502Y-133905820D01*
X51380537Y-133795506D01*
X51301185Y-133698815D01*
X51204494Y-133619463D01*
X51094180Y-133560498D01*
X50974482Y-133524188D01*
X50850000Y-133511928D01*
X50285750Y-133515000D01*
X50127000Y-133673750D01*
X49873000Y-133673750D01*
X49714250Y-133515000D01*
X49150000Y-133511928D01*
X49025518Y-133524188D01*
X48905820Y-133560498D01*
X48795506Y-133619463D01*
X48698815Y-133698815D01*
X48619463Y-133795506D01*
X48560498Y-133905820D01*
X48538487Y-133978380D01*
X48406632Y-133846525D01*
X48163411Y-133684010D01*
X47893158Y-133572068D01*
X47606260Y-133515000D01*
X47313740Y-133515000D01*
X47026842Y-133572068D01*
X46756589Y-133684010D01*
X46513368Y-133846525D01*
X46306525Y-134053368D01*
X46190000Y-134227760D01*
X46073475Y-134053368D01*
X45866632Y-133846525D01*
X45623411Y-133684010D01*
X45353158Y-133572068D01*
X45066260Y-133515000D01*
X44773740Y-133515000D01*
X44486842Y-133572068D01*
X44216589Y-133684010D01*
X43973368Y-133846525D01*
X43766525Y-134053368D01*
X43650000Y-134227760D01*
X43533475Y-134053368D01*
X43326632Y-133846525D01*
X43083411Y-133684010D01*
X42813158Y-133572068D01*
X42526260Y-133515000D01*
X42233740Y-133515000D01*
X41946842Y-133572068D01*
X41676589Y-133684010D01*
X41433368Y-133846525D01*
X41226525Y-134053368D01*
X41110000Y-134227760D01*
X40993475Y-134053368D01*
X40786632Y-133846525D01*
X40543411Y-133684010D01*
X40273158Y-133572068D01*
X39986260Y-133515000D01*
X39693740Y-133515000D01*
X39406842Y-133572068D01*
X39136589Y-133684010D01*
X38893368Y-133846525D01*
X38686525Y-134053368D01*
X38570000Y-134227760D01*
X38453475Y-134053368D01*
X38246632Y-133846525D01*
X38003411Y-133684010D01*
X37733158Y-133572068D01*
X37446260Y-133515000D01*
X37153740Y-133515000D01*
X36866842Y-133572068D01*
X36596589Y-133684010D01*
X36353368Y-133846525D01*
X36146525Y-134053368D01*
X35984010Y-134296589D01*
X35872068Y-134566842D01*
X35815000Y-134853740D01*
X35815000Y-135146260D01*
X35872068Y-135433158D01*
X35984010Y-135703411D01*
X36146525Y-135946632D01*
X36353368Y-136153475D01*
X36596589Y-136315990D01*
X36866842Y-136427932D01*
X37153740Y-136485000D01*
X37446260Y-136485000D01*
X37733158Y-136427932D01*
X38003411Y-136315990D01*
X38246632Y-136153475D01*
X38453475Y-135946632D01*
X38570000Y-135772240D01*
X38686525Y-135946632D01*
X38893368Y-136153475D01*
X39136589Y-136315990D01*
X39406842Y-136427932D01*
X39693740Y-136485000D01*
X39986260Y-136485000D01*
X40273158Y-136427932D01*
X40543411Y-136315990D01*
X40786632Y-136153475D01*
X40993475Y-135946632D01*
X41110000Y-135772240D01*
X41226525Y-135946632D01*
X41433368Y-136153475D01*
X41676589Y-136315990D01*
X41946842Y-136427932D01*
X42233740Y-136485000D01*
X42526260Y-136485000D01*
X42813158Y-136427932D01*
X43083411Y-136315990D01*
X43326632Y-136153475D01*
X43533475Y-135946632D01*
X43650000Y-135772240D01*
X43766525Y-135946632D01*
X43973368Y-136153475D01*
X44216589Y-136315990D01*
X44486842Y-136427932D01*
X44773740Y-136485000D01*
X45066260Y-136485000D01*
X45353158Y-136427932D01*
X45623411Y-136315990D01*
X45866632Y-136153475D01*
X46073475Y-135946632D01*
X46190000Y-135772240D01*
X46306525Y-135946632D01*
X46513368Y-136153475D01*
X46756589Y-136315990D01*
X46959408Y-136400000D01*
X46900322Y-136400000D01*
X46862999Y-136396324D01*
X46825676Y-136400000D01*
X46825667Y-136400000D01*
X46714014Y-136410997D01*
X46570753Y-136454454D01*
X46438724Y-136525026D01*
X46322999Y-136619999D01*
X46299201Y-136648997D01*
X44954998Y-137993201D01*
X44926000Y-138016999D01*
X44902202Y-138045997D01*
X44902201Y-138045998D01*
X44831026Y-138132724D01*
X44760454Y-138264754D01*
X44740355Y-138331015D01*
X44718059Y-138404518D01*
X44716998Y-138408015D01*
X44702324Y-138557000D01*
X44706001Y-138594332D01*
X44706000Y-142329677D01*
X44702324Y-142367000D01*
X44706000Y-142404322D01*
X44706000Y-142404332D01*
X44716997Y-142515985D01*
X44745918Y-142611326D01*
X44760454Y-142659246D01*
X44831026Y-142791276D01*
X44866664Y-142834700D01*
X44925999Y-142907001D01*
X44955003Y-142930804D01*
X45283196Y-143258997D01*
X45306999Y-143288001D01*
X45422724Y-143382974D01*
X45554753Y-143453546D01*
X45698014Y-143497003D01*
X45809667Y-143508000D01*
X45809676Y-143508000D01*
X45846999Y-143511676D01*
X45884322Y-143508000D01*
X45935827Y-143508000D01*
X45946053Y-143541709D01*
X46027542Y-143694164D01*
X46137208Y-143827792D01*
X46244500Y-143915845D01*
X46244501Y-144628155D01*
X46137208Y-144716208D01*
X46027542Y-144849836D01*
X45946053Y-145002291D01*
X45895872Y-145167715D01*
X45878928Y-145339750D01*
X45878928Y-146252250D01*
X45895872Y-146424285D01*
X45946053Y-146589709D01*
X46027542Y-146742164D01*
X46137208Y-146875792D01*
X46270836Y-146985458D01*
X46423291Y-147066947D01*
X46588715Y-147117128D01*
X46714330Y-147129500D01*
X46588715Y-147141872D01*
X46423291Y-147192053D01*
X46270836Y-147273542D01*
X46137208Y-147383208D01*
X46027542Y-147516836D01*
X45946053Y-147669291D01*
X45935827Y-147703000D01*
X45526803Y-147703000D01*
X44448000Y-146624199D01*
X44448000Y-141388322D01*
X44451676Y-141350999D01*
X44448000Y-141313676D01*
X44448000Y-141313667D01*
X44437003Y-141202014D01*
X44393546Y-141058753D01*
X44380836Y-141034974D01*
X44322974Y-140926723D01*
X44251799Y-140839997D01*
X44228001Y-140810999D01*
X44199003Y-140787201D01*
X43099804Y-139688003D01*
X43076001Y-139658999D01*
X42960276Y-139564026D01*
X42888072Y-139525432D01*
X42888072Y-139099000D01*
X42875812Y-138974518D01*
X42839502Y-138854820D01*
X42780537Y-138744506D01*
X42701185Y-138647815D01*
X42604494Y-138568463D01*
X42494180Y-138509498D01*
X42374482Y-138473188D01*
X42250000Y-138460928D01*
X41050000Y-138460928D01*
X40925518Y-138473188D01*
X40805820Y-138509498D01*
X40695506Y-138568463D01*
X40598815Y-138647815D01*
X40519463Y-138744506D01*
X40460498Y-138854820D01*
X40424188Y-138974518D01*
X40411928Y-139099000D01*
X40411928Y-141299000D01*
X40424188Y-141423482D01*
X40460498Y-141543180D01*
X40519463Y-141653494D01*
X40598815Y-141750185D01*
X40695506Y-141829537D01*
X40805820Y-141888502D01*
X40925518Y-141924812D01*
X41050000Y-141937072D01*
X42250000Y-141937072D01*
X42374482Y-141924812D01*
X42494180Y-141888502D01*
X42604494Y-141829537D01*
X42701185Y-141750185D01*
X42780537Y-141653494D01*
X42827616Y-141565417D01*
X42928001Y-141665803D01*
X42928000Y-146901677D01*
X42924324Y-146939000D01*
X42928000Y-146976322D01*
X42928000Y-146976332D01*
X42938997Y-147087985D01*
X42970565Y-147192053D01*
X42982454Y-147231246D01*
X43053026Y-147363276D01*
X43069384Y-147383208D01*
X43147999Y-147479001D01*
X43177002Y-147502803D01*
X44648205Y-148974008D01*
X44671999Y-149003001D01*
X44700992Y-149026795D01*
X44700996Y-149026799D01*
X44746002Y-149063734D01*
X44787724Y-149097974D01*
X44919753Y-149168546D01*
X45063014Y-149212003D01*
X45118792Y-149217497D01*
X44996063Y-149340226D01*
X44882795Y-149509744D01*
X44804774Y-149698102D01*
X44765000Y-149898061D01*
X44765000Y-150101939D01*
X44804774Y-150301898D01*
X44882795Y-150490256D01*
X44996063Y-150659774D01*
X45140226Y-150803937D01*
X45309744Y-150917205D01*
X45498102Y-150995226D01*
X45698061Y-151035000D01*
X45901939Y-151035000D01*
X46101898Y-150995226D01*
X46213841Y-150948857D01*
X44467329Y-152695370D01*
X44356291Y-152729053D01*
X44203836Y-152810542D01*
X44070208Y-152920208D01*
X44000000Y-153005756D01*
X43929792Y-152920208D01*
X43796164Y-152810542D01*
X43643709Y-152729053D01*
X43478285Y-152678872D01*
X43306250Y-152661928D01*
X42818750Y-152661928D01*
X42646715Y-152678872D01*
X42481291Y-152729053D01*
X42328836Y-152810542D01*
X42195208Y-152920208D01*
X42085542Y-153053836D01*
X42004053Y-153206291D01*
X41993827Y-153240000D01*
X41878313Y-153240000D01*
X41732312Y-153021495D01*
X41518505Y-152807688D01*
X41267095Y-152639701D01*
X40987743Y-152523989D01*
X40691184Y-152465000D01*
X40388816Y-152465000D01*
X40092257Y-152523989D01*
X39812905Y-152639701D01*
X39561495Y-152807688D01*
X39495056Y-152874127D01*
X39489502Y-152855820D01*
X39430537Y-152745506D01*
X39351185Y-152648815D01*
X39254494Y-152569463D01*
X39144180Y-152510498D01*
X39024482Y-152474188D01*
X38900000Y-152461928D01*
X38285750Y-152465000D01*
X38127000Y-152623750D01*
X38127000Y-153873000D01*
X38147000Y-153873000D01*
X38147000Y-154127000D01*
X38127000Y-154127000D01*
X38127000Y-155376250D01*
X38285750Y-155535000D01*
X38900000Y-155538072D01*
X39024482Y-155525812D01*
X39144180Y-155489502D01*
X39254494Y-155430537D01*
X39351185Y-155351185D01*
X39430537Y-155254494D01*
X39489502Y-155144180D01*
X39495056Y-155125873D01*
X39561495Y-155192312D01*
X39812905Y-155360299D01*
X40092257Y-155476011D01*
X40388816Y-155535000D01*
X40691184Y-155535000D01*
X40987743Y-155476011D01*
X41267095Y-155360299D01*
X41518505Y-155192312D01*
X41732312Y-154978505D01*
X41878313Y-154760000D01*
X41993827Y-154760000D01*
X42004053Y-154793709D01*
X42085542Y-154946164D01*
X42195208Y-155079792D01*
X42328836Y-155189458D01*
X42481291Y-155270947D01*
X42646715Y-155321128D01*
X42818750Y-155338072D01*
X43306250Y-155338072D01*
X43478285Y-155321128D01*
X43643709Y-155270947D01*
X43796164Y-155189458D01*
X43929792Y-155079792D01*
X44000000Y-154994244D01*
X44070208Y-155079792D01*
X44203836Y-155189458D01*
X44356291Y-155270947D01*
X44521715Y-155321128D01*
X44693750Y-155338072D01*
X45181250Y-155338072D01*
X45353285Y-155321128D01*
X45518709Y-155270947D01*
X45671164Y-155189458D01*
X45804792Y-155079792D01*
X45914458Y-154946164D01*
X45995947Y-154793709D01*
X46046128Y-154628285D01*
X46063072Y-154456250D01*
X46063072Y-153543750D01*
X46046128Y-153371715D01*
X46021564Y-153290738D01*
X46546696Y-152765605D01*
X46572068Y-152893158D01*
X46684010Y-153163411D01*
X46846525Y-153406632D01*
X46978380Y-153538487D01*
X46905820Y-153560498D01*
X46795506Y-153619463D01*
X46698815Y-153698815D01*
X46619463Y-153795506D01*
X46560498Y-153905820D01*
X46524188Y-154025518D01*
X46511928Y-154150000D01*
X46515000Y-154714250D01*
X46673750Y-154873000D01*
X47873000Y-154873000D01*
X47873000Y-154853000D01*
X48127000Y-154853000D01*
X48127000Y-154873000D01*
X48147000Y-154873000D01*
X48147000Y-155127000D01*
X48127000Y-155127000D01*
X48127000Y-156326250D01*
X48285750Y-156485000D01*
X48850000Y-156488072D01*
X48873000Y-156485807D01*
X48873000Y-157189198D01*
X48372408Y-157689791D01*
X48152260Y-157646000D01*
X47859740Y-157646000D01*
X47572842Y-157703068D01*
X47302589Y-157815010D01*
X47059368Y-157977525D01*
X46852525Y-158184368D01*
X46727822Y-158371000D01*
X44614333Y-158371000D01*
X44577000Y-158367323D01*
X44539667Y-158371000D01*
X44428014Y-158381997D01*
X44284753Y-158425454D01*
X44152724Y-158496026D01*
X44036999Y-158590999D01*
X43969360Y-158673417D01*
X43937681Y-158683027D01*
X43847125Y-158720536D01*
X43736808Y-158779502D01*
X43655309Y-158833958D01*
X43558618Y-158913310D01*
X43489310Y-158982618D01*
X43409958Y-159079309D01*
X43355502Y-159160808D01*
X43296536Y-159271125D01*
X43259027Y-159361681D01*
X43222718Y-159481377D01*
X43203596Y-159577510D01*
X43191336Y-159701991D01*
X43191336Y-159726550D01*
X43188928Y-159751000D01*
X43188928Y-160251000D01*
X43201188Y-160375482D01*
X43208929Y-160401000D01*
X43201188Y-160426518D01*
X43188928Y-160551000D01*
X43188928Y-161051000D01*
X43191336Y-161075450D01*
X43191336Y-161100009D01*
X43203596Y-161224490D01*
X43222718Y-161320623D01*
X43225012Y-161328186D01*
X41965056Y-162588143D01*
X41919458Y-162502836D01*
X41809792Y-162369208D01*
X41676164Y-162259542D01*
X41523709Y-162178053D01*
X41358285Y-162127872D01*
X41186250Y-162110928D01*
X40766874Y-162110928D01*
X41051003Y-161826799D01*
X41080001Y-161803001D01*
X41174974Y-161687276D01*
X41245546Y-161555247D01*
X41289003Y-161411986D01*
X41295996Y-161340988D01*
X41518505Y-161192312D01*
X41732312Y-160978505D01*
X41900299Y-160727095D01*
X42016011Y-160447743D01*
X42075000Y-160151184D01*
X42075000Y-159848816D01*
X42016011Y-159552257D01*
X41900299Y-159272905D01*
X41732312Y-159021495D01*
X41518505Y-158807688D01*
X41267095Y-158639701D01*
X40987743Y-158523989D01*
X40691184Y-158465000D01*
X40388816Y-158465000D01*
X40092257Y-158523989D01*
X39812905Y-158639701D01*
X39561495Y-158807688D01*
X39495056Y-158874127D01*
X39489502Y-158855820D01*
X39430537Y-158745506D01*
X39351185Y-158648815D01*
X39254494Y-158569463D01*
X39144180Y-158510498D01*
X39024482Y-158474188D01*
X38900000Y-158461928D01*
X38285750Y-158465000D01*
X38127000Y-158623750D01*
X38127000Y-159873000D01*
X38147000Y-159873000D01*
X38147000Y-160127000D01*
X38127000Y-160127000D01*
X38127000Y-161376250D01*
X38285750Y-161535000D01*
X38830513Y-161537724D01*
X38818724Y-161544026D01*
X38702999Y-161638999D01*
X38679200Y-161667998D01*
X38556501Y-161790697D01*
X38527499Y-161814499D01*
X38489749Y-161860498D01*
X38432526Y-161930224D01*
X38379187Y-162030014D01*
X38361954Y-162062254D01*
X38318497Y-162205515D01*
X38311359Y-162277989D01*
X38200208Y-162369208D01*
X38090542Y-162502836D01*
X38009053Y-162655291D01*
X37958872Y-162820715D01*
X37941928Y-162992750D01*
X37941928Y-163905250D01*
X37958872Y-164077285D01*
X38009053Y-164242709D01*
X38090542Y-164395164D01*
X38200208Y-164528792D01*
X38333836Y-164638458D01*
X38486291Y-164719947D01*
X38651715Y-164770128D01*
X38823750Y-164787072D01*
X39311250Y-164787072D01*
X39483285Y-164770128D01*
X39648709Y-164719947D01*
X39801164Y-164638458D01*
X39934792Y-164528792D01*
X40005000Y-164443244D01*
X40075208Y-164528792D01*
X40208836Y-164638458D01*
X40361291Y-164719947D01*
X40526715Y-164770128D01*
X40698750Y-164787072D01*
X41186250Y-164787072D01*
X41358285Y-164770128D01*
X41523709Y-164719947D01*
X41676164Y-164638458D01*
X41809792Y-164528792D01*
X41919458Y-164395164D01*
X42000947Y-164242709D01*
X42011173Y-164209000D01*
X42141678Y-164209000D01*
X42179000Y-164212676D01*
X42216322Y-164209000D01*
X42216333Y-164209000D01*
X42327986Y-164198003D01*
X42471247Y-164154546D01*
X42603276Y-164083974D01*
X42719001Y-163989001D01*
X42742804Y-163959997D01*
X44458534Y-162244267D01*
X44533724Y-162305974D01*
X44665753Y-162376546D01*
X44809014Y-162420003D01*
X44920667Y-162431000D01*
X44920676Y-162431000D01*
X44957999Y-162434676D01*
X44995322Y-162431000D01*
X46517928Y-162431000D01*
X46517928Y-162521000D01*
X46530188Y-162645482D01*
X46566498Y-162765180D01*
X46625463Y-162875494D01*
X46704815Y-162972185D01*
X46801506Y-163051537D01*
X46911820Y-163110502D01*
X47031518Y-163146812D01*
X47156000Y-163159072D01*
X48856000Y-163159072D01*
X48873000Y-163157398D01*
X48873000Y-166000000D01*
X48875440Y-166024776D01*
X48882667Y-166048601D01*
X48894403Y-166070557D01*
X48910197Y-166089803D01*
X48929443Y-166105597D01*
X48951399Y-166117333D01*
X48975224Y-166124560D01*
X49000000Y-166127000D01*
X56616384Y-166127000D01*
X56613844Y-166130801D01*
X56484362Y-166443399D01*
X55906761Y-167021000D01*
X48340319Y-167021000D01*
X48259999Y-167013089D01*
X48179680Y-167021000D01*
X48179678Y-167021000D01*
X47939484Y-167044657D01*
X47631285Y-167138148D01*
X47347248Y-167289969D01*
X47098286Y-167494286D01*
X47047079Y-167556682D01*
X45627682Y-168976080D01*
X45565287Y-169027286D01*
X45360969Y-169276248D01*
X45344532Y-169307000D01*
X40274192Y-169307000D01*
X40243000Y-169303928D01*
X38243000Y-169303928D01*
X38118518Y-169316188D01*
X37998820Y-169352498D01*
X37888506Y-169411463D01*
X37791815Y-169490815D01*
X37712463Y-169587506D01*
X37653498Y-169697820D01*
X37617188Y-169817518D01*
X37604928Y-169942000D01*
X37604928Y-170892869D01*
X37600089Y-170942000D01*
X37604928Y-170991131D01*
X37604928Y-171942000D01*
X37617188Y-172066482D01*
X37653498Y-172186180D01*
X37712463Y-172296494D01*
X37791815Y-172393185D01*
X37888506Y-172472537D01*
X37998820Y-172531502D01*
X38118518Y-172567812D01*
X38243000Y-172580072D01*
X40243000Y-172580072D01*
X40274192Y-172577000D01*
X46068628Y-172577000D01*
X46098285Y-172592852D01*
X46406484Y-172686343D01*
X46698261Y-172715081D01*
X46726999Y-172717911D01*
X46727000Y-172717911D01*
X47047515Y-172686343D01*
X47355714Y-172592852D01*
X47639751Y-172441031D01*
X47795671Y-172313072D01*
X47827000Y-172313072D01*
X47951482Y-172300812D01*
X48071180Y-172264502D01*
X48181494Y-172205537D01*
X48278185Y-172126185D01*
X48357537Y-172029494D01*
X48416502Y-171919180D01*
X48452812Y-171799482D01*
X48465072Y-171675000D01*
X48465072Y-170763166D01*
X48937239Y-170291000D01*
X49213176Y-170291000D01*
X49201188Y-170330518D01*
X49188928Y-170455000D01*
X49192000Y-173069250D01*
X49350750Y-173228000D01*
X52900000Y-173228000D01*
X52900000Y-173208000D01*
X53154000Y-173208000D01*
X53154000Y-173228000D01*
X56703250Y-173228000D01*
X56862000Y-173069250D01*
X56865072Y-170455000D01*
X56852812Y-170330518D01*
X56835704Y-170274120D01*
X56904516Y-170267343D01*
X57212715Y-170173852D01*
X57496752Y-170022031D01*
X57745714Y-169817714D01*
X57796924Y-169755314D01*
X58796601Y-168755638D01*
X59109199Y-168626156D01*
X59409744Y-168425338D01*
X59665338Y-168169744D01*
X59866156Y-167869199D01*
X60004482Y-167535250D01*
X60075000Y-167180732D01*
X60075000Y-166819268D01*
X60004482Y-166464750D01*
X59866156Y-166130801D01*
X59863616Y-166127000D01*
X68575397Y-166127000D01*
X68548815Y-166148815D01*
X68469463Y-166245506D01*
X68410498Y-166355820D01*
X68374188Y-166475518D01*
X68361928Y-166600000D01*
X68361928Y-167600000D01*
X68374188Y-167724482D01*
X68410498Y-167844180D01*
X68469463Y-167954494D01*
X68548815Y-168051185D01*
X68645506Y-168130537D01*
X68755820Y-168189502D01*
X68875518Y-168225812D01*
X69000000Y-168238072D01*
X70700000Y-168238072D01*
X70824482Y-168225812D01*
X70944180Y-168189502D01*
X71054494Y-168130537D01*
X71151185Y-168051185D01*
X71230537Y-167954494D01*
X71281046Y-167860000D01*
X74718954Y-167860000D01*
X74769463Y-167954494D01*
X74848815Y-168051185D01*
X74945506Y-168130537D01*
X75055820Y-168189502D01*
X75175518Y-168225812D01*
X75300000Y-168238072D01*
X77000000Y-168238072D01*
X77124482Y-168225812D01*
X77244180Y-168189502D01*
X77354494Y-168130537D01*
X77451185Y-168051185D01*
X77530537Y-167954494D01*
X77589502Y-167844180D01*
X77625812Y-167724482D01*
X77638072Y-167600000D01*
X77638072Y-166600000D01*
X77625812Y-166475518D01*
X77589502Y-166355820D01*
X77530537Y-166245506D01*
X77451185Y-166148815D01*
X77424603Y-166127000D01*
X78340001Y-166127000D01*
X78340001Y-178340000D01*
X60287262Y-178340000D01*
X60294031Y-178331752D01*
X60445852Y-178047715D01*
X60539343Y-177739516D01*
X60563000Y-177499322D01*
X60563000Y-177499320D01*
X60570911Y-177419000D01*
X60563000Y-177338681D01*
X60563000Y-176950413D01*
X62044192Y-176950413D01*
X62139956Y-177214814D01*
X62429571Y-177355704D01*
X62741108Y-177437384D01*
X63062595Y-177456718D01*
X63381675Y-177412961D01*
X63686088Y-177307795D01*
X63860044Y-177214814D01*
X63955808Y-176950413D01*
X63000000Y-175994605D01*
X62044192Y-176950413D01*
X60563000Y-176950413D01*
X60563000Y-175877595D01*
X61358282Y-175877595D01*
X61402039Y-176196675D01*
X61507205Y-176501088D01*
X61600186Y-176675044D01*
X61864587Y-176770808D01*
X62820395Y-175815000D01*
X63179605Y-175815000D01*
X64135413Y-176770808D01*
X64399814Y-176675044D01*
X64540704Y-176385429D01*
X64622384Y-176073892D01*
X64637993Y-175814344D01*
X74115000Y-175814344D01*
X74115000Y-176185656D01*
X74187439Y-176549834D01*
X74329534Y-176892882D01*
X74535825Y-177201618D01*
X74798382Y-177464175D01*
X75107118Y-177670466D01*
X75450166Y-177812561D01*
X75814344Y-177885000D01*
X76185656Y-177885000D01*
X76549834Y-177812561D01*
X76892882Y-177670466D01*
X77201618Y-177464175D01*
X77464175Y-177201618D01*
X77670466Y-176892882D01*
X77812561Y-176549834D01*
X77885000Y-176185656D01*
X77885000Y-175814344D01*
X77812561Y-175450166D01*
X77670466Y-175107118D01*
X77464175Y-174798382D01*
X77201618Y-174535825D01*
X76892882Y-174329534D01*
X76549834Y-174187439D01*
X76185656Y-174115000D01*
X75814344Y-174115000D01*
X75450166Y-174187439D01*
X75107118Y-174329534D01*
X74798382Y-174535825D01*
X74535825Y-174798382D01*
X74329534Y-175107118D01*
X74187439Y-175450166D01*
X74115000Y-175814344D01*
X64637993Y-175814344D01*
X64641718Y-175752405D01*
X64597961Y-175433325D01*
X64492795Y-175128912D01*
X64399814Y-174954956D01*
X64135413Y-174859192D01*
X63179605Y-175815000D01*
X62820395Y-175815000D01*
X61864587Y-174859192D01*
X61600186Y-174954956D01*
X61459296Y-175244571D01*
X61377616Y-175556108D01*
X61358282Y-175877595D01*
X60563000Y-175877595D01*
X60563000Y-174679587D01*
X62044192Y-174679587D01*
X63000000Y-175635395D01*
X63955808Y-174679587D01*
X63860044Y-174415186D01*
X63570429Y-174274296D01*
X63258892Y-174192616D01*
X62937405Y-174173282D01*
X62618325Y-174217039D01*
X62313912Y-174322205D01*
X62139956Y-174415186D01*
X62044192Y-174679587D01*
X60563000Y-174679587D01*
X60563000Y-173143239D01*
X61256239Y-172450000D01*
X61968808Y-172450000D01*
X62000000Y-172453072D01*
X64000000Y-172453072D01*
X64124482Y-172440812D01*
X64244180Y-172404502D01*
X64354494Y-172345537D01*
X64451185Y-172266185D01*
X64530537Y-172169494D01*
X64589502Y-172059180D01*
X64625812Y-171939482D01*
X64638072Y-171815000D01*
X64638072Y-171400000D01*
X68361928Y-171400000D01*
X68374188Y-171524482D01*
X68410498Y-171644180D01*
X68469463Y-171754494D01*
X68548815Y-171851185D01*
X68645506Y-171930537D01*
X68755820Y-171989502D01*
X68875518Y-172025812D01*
X69000000Y-172038072D01*
X69564250Y-172035000D01*
X69723000Y-171876250D01*
X69723000Y-171027000D01*
X69977000Y-171027000D01*
X69977000Y-171876250D01*
X70135750Y-172035000D01*
X70700000Y-172038072D01*
X70824482Y-172025812D01*
X70944180Y-171989502D01*
X71054494Y-171930537D01*
X71151185Y-171851185D01*
X71230537Y-171754494D01*
X71289502Y-171644180D01*
X71325812Y-171524482D01*
X71338072Y-171400000D01*
X74661928Y-171400000D01*
X74674188Y-171524482D01*
X74710498Y-171644180D01*
X74769463Y-171754494D01*
X74848815Y-171851185D01*
X74945506Y-171930537D01*
X75055820Y-171989502D01*
X75175518Y-172025812D01*
X75300000Y-172038072D01*
X75864250Y-172035000D01*
X76023000Y-171876250D01*
X76023000Y-171027000D01*
X76277000Y-171027000D01*
X76277000Y-171876250D01*
X76435750Y-172035000D01*
X77000000Y-172038072D01*
X77124482Y-172025812D01*
X77244180Y-171989502D01*
X77354494Y-171930537D01*
X77451185Y-171851185D01*
X77530537Y-171754494D01*
X77589502Y-171644180D01*
X77625812Y-171524482D01*
X77638072Y-171400000D01*
X77635000Y-171185750D01*
X77476250Y-171027000D01*
X76277000Y-171027000D01*
X76023000Y-171027000D01*
X74823750Y-171027000D01*
X74665000Y-171185750D01*
X74661928Y-171400000D01*
X71338072Y-171400000D01*
X71335000Y-171185750D01*
X71176250Y-171027000D01*
X69977000Y-171027000D01*
X69723000Y-171027000D01*
X68523750Y-171027000D01*
X68365000Y-171185750D01*
X68361928Y-171400000D01*
X64638072Y-171400000D01*
X64638072Y-170864131D01*
X64642911Y-170815000D01*
X64638072Y-170765869D01*
X64638072Y-170400000D01*
X68361928Y-170400000D01*
X68365000Y-170614250D01*
X68523750Y-170773000D01*
X69723000Y-170773000D01*
X69723000Y-169923750D01*
X69977000Y-169923750D01*
X69977000Y-170773000D01*
X71176250Y-170773000D01*
X71335000Y-170614250D01*
X71338072Y-170400000D01*
X74661928Y-170400000D01*
X74665000Y-170614250D01*
X74823750Y-170773000D01*
X76023000Y-170773000D01*
X76023000Y-169923750D01*
X76277000Y-169923750D01*
X76277000Y-170773000D01*
X77476250Y-170773000D01*
X77635000Y-170614250D01*
X77638072Y-170400000D01*
X77625812Y-170275518D01*
X77589502Y-170155820D01*
X77530537Y-170045506D01*
X77451185Y-169948815D01*
X77354494Y-169869463D01*
X77244180Y-169810498D01*
X77124482Y-169774188D01*
X77000000Y-169761928D01*
X76435750Y-169765000D01*
X76277000Y-169923750D01*
X76023000Y-169923750D01*
X75864250Y-169765000D01*
X75300000Y-169761928D01*
X75175518Y-169774188D01*
X75055820Y-169810498D01*
X74945506Y-169869463D01*
X74848815Y-169948815D01*
X74769463Y-170045506D01*
X74710498Y-170155820D01*
X74674188Y-170275518D01*
X74661928Y-170400000D01*
X71338072Y-170400000D01*
X71325812Y-170275518D01*
X71289502Y-170155820D01*
X71230537Y-170045506D01*
X71151185Y-169948815D01*
X71054494Y-169869463D01*
X70944180Y-169810498D01*
X70824482Y-169774188D01*
X70700000Y-169761928D01*
X70135750Y-169765000D01*
X69977000Y-169923750D01*
X69723000Y-169923750D01*
X69564250Y-169765000D01*
X69000000Y-169761928D01*
X68875518Y-169774188D01*
X68755820Y-169810498D01*
X68645506Y-169869463D01*
X68548815Y-169948815D01*
X68469463Y-170045506D01*
X68410498Y-170155820D01*
X68374188Y-170275518D01*
X68361928Y-170400000D01*
X64638072Y-170400000D01*
X64638072Y-169815000D01*
X64625812Y-169690518D01*
X64589502Y-169570820D01*
X64530537Y-169460506D01*
X64451185Y-169363815D01*
X64354494Y-169284463D01*
X64244180Y-169225498D01*
X64124482Y-169189188D01*
X64000000Y-169176928D01*
X62000000Y-169176928D01*
X61968808Y-169180000D01*
X60659322Y-169180000D01*
X60579000Y-169172089D01*
X60258483Y-169203657D01*
X60019183Y-169276248D01*
X59950285Y-169297148D01*
X59666248Y-169448969D01*
X59417286Y-169653286D01*
X59366084Y-169715676D01*
X57828686Y-171253076D01*
X57766286Y-171304286D01*
X57561969Y-171553249D01*
X57410148Y-171837286D01*
X57316657Y-172145485D01*
X57298203Y-172332852D01*
X57285089Y-172466000D01*
X57293000Y-172546320D01*
X57293001Y-176139990D01*
X56864937Y-176139990D01*
X56862000Y-173640750D01*
X56703250Y-173482000D01*
X53154000Y-173482000D01*
X53154000Y-173502000D01*
X52900000Y-173502000D01*
X52900000Y-173482000D01*
X49350750Y-173482000D01*
X49192000Y-173640750D01*
X49189063Y-176139990D01*
X48465072Y-176139990D01*
X48465072Y-175035000D01*
X48452812Y-174910518D01*
X48416502Y-174790820D01*
X48357537Y-174680506D01*
X48278185Y-174583815D01*
X48181494Y-174504463D01*
X48071180Y-174445498D01*
X47951482Y-174409188D01*
X47827000Y-174396928D01*
X47795671Y-174396928D01*
X47639752Y-174268969D01*
X47355715Y-174117148D01*
X47047516Y-174023657D01*
X46727000Y-173992089D01*
X46406485Y-174023657D01*
X46098286Y-174117148D01*
X45814249Y-174268969D01*
X45658330Y-174396928D01*
X45627000Y-174396928D01*
X45502518Y-174409188D01*
X45382820Y-174445498D01*
X45272506Y-174504463D01*
X45175815Y-174583815D01*
X45096463Y-174680506D01*
X45037498Y-174790820D01*
X45001188Y-174910518D01*
X44988928Y-175035000D01*
X44988928Y-176235000D01*
X45001188Y-176359482D01*
X45037498Y-176479180D01*
X45092000Y-176581144D01*
X45092000Y-177347681D01*
X45084089Y-177428000D01*
X45092000Y-177508319D01*
X45092000Y-177508321D01*
X45115657Y-177748515D01*
X45209148Y-178056714D01*
X45360568Y-178340000D01*
X20660000Y-178340000D01*
X20660000Y-175814344D01*
X21115000Y-175814344D01*
X21115000Y-176185656D01*
X21187439Y-176549834D01*
X21329534Y-176892882D01*
X21535825Y-177201618D01*
X21798382Y-177464175D01*
X22107118Y-177670466D01*
X22450166Y-177812561D01*
X22814344Y-177885000D01*
X23185656Y-177885000D01*
X23549834Y-177812561D01*
X23892882Y-177670466D01*
X24201618Y-177464175D01*
X24464175Y-177201618D01*
X24589610Y-177013891D01*
X27641519Y-177013891D01*
X27738843Y-177288252D01*
X27887822Y-177538355D01*
X28082731Y-177754588D01*
X28316080Y-177928641D01*
X28578901Y-178053825D01*
X28726110Y-178098476D01*
X28956000Y-177977155D01*
X28956000Y-176784000D01*
X27762186Y-176784000D01*
X27641519Y-177013891D01*
X24589610Y-177013891D01*
X24670466Y-176892882D01*
X24812561Y-176549834D01*
X24862234Y-176300109D01*
X27641519Y-176300109D01*
X27762186Y-176530000D01*
X28956000Y-176530000D01*
X28956000Y-175336845D01*
X28726110Y-175215524D01*
X28578901Y-175260175D01*
X28316080Y-175385359D01*
X28082731Y-175559412D01*
X27887822Y-175775645D01*
X27738843Y-176025748D01*
X27641519Y-176300109D01*
X24862234Y-176300109D01*
X24885000Y-176185656D01*
X24885000Y-175814344D01*
X24812561Y-175450166D01*
X24670466Y-175107118D01*
X24464175Y-174798382D01*
X24201618Y-174535825D01*
X23892882Y-174329534D01*
X23549834Y-174187439D01*
X23185656Y-174115000D01*
X22814344Y-174115000D01*
X22450166Y-174187439D01*
X22107118Y-174329534D01*
X21798382Y-174535825D01*
X21535825Y-174798382D01*
X21329534Y-175107118D01*
X21187439Y-175450166D01*
X21115000Y-175814344D01*
X20660000Y-175814344D01*
X20660000Y-171127000D01*
X33925001Y-171127000D01*
X33925000Y-174074761D01*
X32977762Y-175022000D01*
X31542678Y-175022000D01*
X31302484Y-175045657D01*
X30994285Y-175139148D01*
X30938571Y-175168928D01*
X30773000Y-175168928D01*
X30648518Y-175181188D01*
X30528820Y-175217498D01*
X30418506Y-175276463D01*
X30321815Y-175355815D01*
X30242463Y-175452506D01*
X30183498Y-175562820D01*
X30159034Y-175643466D01*
X30083269Y-175559412D01*
X29849920Y-175385359D01*
X29587099Y-175260175D01*
X29439890Y-175215524D01*
X29210000Y-175336845D01*
X29210000Y-176530000D01*
X29230000Y-176530000D01*
X29230000Y-176784000D01*
X29210000Y-176784000D01*
X29210000Y-177977155D01*
X29439890Y-178098476D01*
X29587099Y-178053825D01*
X29849920Y-177928641D01*
X30083269Y-177754588D01*
X30159034Y-177670534D01*
X30183498Y-177751180D01*
X30242463Y-177861494D01*
X30321815Y-177958185D01*
X30418506Y-178037537D01*
X30528820Y-178096502D01*
X30648518Y-178132812D01*
X30773000Y-178145072D01*
X30938571Y-178145072D01*
X30994285Y-178174852D01*
X31302484Y-178268343D01*
X31542678Y-178292000D01*
X33574681Y-178292000D01*
X33655000Y-178299911D01*
X33735319Y-178292000D01*
X33735322Y-178292000D01*
X33975516Y-178268343D01*
X34283715Y-178174852D01*
X34567752Y-178023031D01*
X34816714Y-177818714D01*
X34867925Y-177756313D01*
X35546825Y-177077413D01*
X38287192Y-177077413D01*
X38382956Y-177341814D01*
X38672571Y-177482704D01*
X38984108Y-177564384D01*
X39305595Y-177583718D01*
X39624675Y-177539961D01*
X39929088Y-177434795D01*
X40103044Y-177341814D01*
X40198808Y-177077413D01*
X39243000Y-176121605D01*
X38287192Y-177077413D01*
X35546825Y-177077413D01*
X36619643Y-176004595D01*
X37601282Y-176004595D01*
X37645039Y-176323675D01*
X37750205Y-176628088D01*
X37843186Y-176802044D01*
X38107587Y-176897808D01*
X39063395Y-175942000D01*
X39422605Y-175942000D01*
X40378413Y-176897808D01*
X40642814Y-176802044D01*
X40783704Y-176512429D01*
X40865384Y-176200892D01*
X40884718Y-175879405D01*
X40840961Y-175560325D01*
X40735795Y-175255912D01*
X40642814Y-175081956D01*
X40378413Y-174986192D01*
X39422605Y-175942000D01*
X39063395Y-175942000D01*
X38107587Y-174986192D01*
X37843186Y-175081956D01*
X37702296Y-175371571D01*
X37620616Y-175683108D01*
X37601282Y-176004595D01*
X36619643Y-176004595D01*
X36659320Y-175964919D01*
X36721714Y-175913714D01*
X36926031Y-175664752D01*
X37077852Y-175380715D01*
X37105076Y-175290969D01*
X37171343Y-175072517D01*
X37197534Y-174806587D01*
X38287192Y-174806587D01*
X39243000Y-175762395D01*
X40198808Y-174806587D01*
X40103044Y-174542186D01*
X39813429Y-174401296D01*
X39501892Y-174319616D01*
X39180405Y-174300282D01*
X38861325Y-174344039D01*
X38556912Y-174449205D01*
X38382956Y-174542186D01*
X38287192Y-174806587D01*
X37197534Y-174806587D01*
X37202911Y-174752000D01*
X37195000Y-174671678D01*
X37195000Y-169460238D01*
X38020239Y-168635000D01*
X42152152Y-168635000D01*
X42464750Y-168764482D01*
X42819268Y-168835000D01*
X43180732Y-168835000D01*
X43535250Y-168764482D01*
X43869199Y-168626156D01*
X44169744Y-168425338D01*
X44425338Y-168169744D01*
X44626156Y-167869199D01*
X44764482Y-167535250D01*
X44835000Y-167180732D01*
X44835000Y-166819268D01*
X44764482Y-166464750D01*
X44626156Y-166130801D01*
X44425338Y-165830256D01*
X44169744Y-165574662D01*
X43869199Y-165373844D01*
X43535250Y-165235518D01*
X43180732Y-165165000D01*
X42819268Y-165165000D01*
X42464750Y-165235518D01*
X42152152Y-165365000D01*
X37423322Y-165365000D01*
X37343000Y-165357089D01*
X37022483Y-165388657D01*
X36714285Y-165482148D01*
X36430248Y-165633969D01*
X36181286Y-165838286D01*
X36130079Y-165900682D01*
X36127000Y-165903761D01*
X36127000Y-160900000D01*
X36461928Y-160900000D01*
X36474188Y-161024482D01*
X36510498Y-161144180D01*
X36569463Y-161254494D01*
X36648815Y-161351185D01*
X36745506Y-161430537D01*
X36855820Y-161489502D01*
X36975518Y-161525812D01*
X37100000Y-161538072D01*
X37714250Y-161535000D01*
X37873000Y-161376250D01*
X37873000Y-160127000D01*
X36623750Y-160127000D01*
X36465000Y-160285750D01*
X36461928Y-160900000D01*
X36127000Y-160900000D01*
X36127000Y-159100000D01*
X36461928Y-159100000D01*
X36465000Y-159714250D01*
X36623750Y-159873000D01*
X37873000Y-159873000D01*
X37873000Y-158623750D01*
X37714250Y-158465000D01*
X37100000Y-158461928D01*
X36975518Y-158474188D01*
X36855820Y-158510498D01*
X36745506Y-158569463D01*
X36648815Y-158648815D01*
X36569463Y-158745506D01*
X36510498Y-158855820D01*
X36474188Y-158975518D01*
X36461928Y-159100000D01*
X36127000Y-159100000D01*
X36127000Y-155850000D01*
X46511928Y-155850000D01*
X46524188Y-155974482D01*
X46560498Y-156094180D01*
X46619463Y-156204494D01*
X46698815Y-156301185D01*
X46795506Y-156380537D01*
X46905820Y-156439502D01*
X47025518Y-156475812D01*
X47150000Y-156488072D01*
X47714250Y-156485000D01*
X47873000Y-156326250D01*
X47873000Y-155127000D01*
X46673750Y-155127000D01*
X46515000Y-155285750D01*
X46511928Y-155850000D01*
X36127000Y-155850000D01*
X36127000Y-155000000D01*
X36124560Y-154975224D01*
X36117333Y-154951399D01*
X36105597Y-154929443D01*
X36089803Y-154910197D01*
X36077378Y-154900000D01*
X36461928Y-154900000D01*
X36474188Y-155024482D01*
X36510498Y-155144180D01*
X36569463Y-155254494D01*
X36648815Y-155351185D01*
X36745506Y-155430537D01*
X36855820Y-155489502D01*
X36975518Y-155525812D01*
X37100000Y-155538072D01*
X37714250Y-155535000D01*
X37873000Y-155376250D01*
X37873000Y-154127000D01*
X36623750Y-154127000D01*
X36465000Y-154285750D01*
X36461928Y-154900000D01*
X36077378Y-154900000D01*
X36070557Y-154894403D01*
X36048601Y-154882667D01*
X36024776Y-154875440D01*
X36000000Y-154873000D01*
X20660000Y-154873000D01*
X20660000Y-153100000D01*
X36461928Y-153100000D01*
X36465000Y-153714250D01*
X36623750Y-153873000D01*
X37873000Y-153873000D01*
X37873000Y-152623750D01*
X37714250Y-152465000D01*
X37100000Y-152461928D01*
X36975518Y-152474188D01*
X36855820Y-152510498D01*
X36745506Y-152569463D01*
X36648815Y-152648815D01*
X36569463Y-152745506D01*
X36510498Y-152855820D01*
X36474188Y-152975518D01*
X36461928Y-153100000D01*
X20660000Y-153100000D01*
X20660000Y-146818750D01*
X24661928Y-146818750D01*
X24661928Y-147306250D01*
X24678872Y-147478285D01*
X24729053Y-147643709D01*
X24810542Y-147796164D01*
X24920208Y-147929792D01*
X25005756Y-148000000D01*
X24920208Y-148070208D01*
X24810542Y-148203836D01*
X24729053Y-148356291D01*
X24678872Y-148521715D01*
X24661928Y-148693750D01*
X24661928Y-149181250D01*
X24678872Y-149353285D01*
X24729053Y-149518709D01*
X24810542Y-149671164D01*
X24920208Y-149804792D01*
X25053836Y-149914458D01*
X25206291Y-149995947D01*
X25371715Y-150046128D01*
X25543750Y-150063072D01*
X26456250Y-150063072D01*
X26628285Y-150046128D01*
X26793709Y-149995947D01*
X26946164Y-149914458D01*
X27079792Y-149804792D01*
X27167845Y-149697500D01*
X29625500Y-149697500D01*
X29625500Y-149797491D01*
X29683048Y-150086805D01*
X29795933Y-150359332D01*
X29959816Y-150604601D01*
X30168399Y-150813184D01*
X30413668Y-150977067D01*
X30686195Y-151089952D01*
X30975509Y-151147500D01*
X31270491Y-151147500D01*
X31559805Y-151089952D01*
X31832332Y-150977067D01*
X32077601Y-150813184D01*
X32286184Y-150604601D01*
X32450067Y-150359332D01*
X32562952Y-150086805D01*
X32620500Y-149797491D01*
X32620500Y-149502509D01*
X32562952Y-149213195D01*
X32450067Y-148940668D01*
X32286184Y-148695399D01*
X32077601Y-148486816D01*
X31917739Y-148380000D01*
X32077601Y-148273184D01*
X32286184Y-148064601D01*
X32416212Y-147870000D01*
X35831928Y-147870000D01*
X35831928Y-149699000D01*
X35844188Y-149823482D01*
X35880498Y-149943180D01*
X35939463Y-150053494D01*
X36018815Y-150150185D01*
X36115506Y-150229537D01*
X36225820Y-150288502D01*
X36345518Y-150324812D01*
X36470000Y-150337072D01*
X42270000Y-150337072D01*
X42394482Y-150324812D01*
X42514180Y-150288502D01*
X42624494Y-150229537D01*
X42721185Y-150150185D01*
X42800537Y-150053494D01*
X42859502Y-149943180D01*
X42895812Y-149823482D01*
X42908072Y-149699000D01*
X42908072Y-143299000D01*
X42895812Y-143174518D01*
X42859502Y-143054820D01*
X42800537Y-142944506D01*
X42721185Y-142847815D01*
X42624494Y-142768463D01*
X42514180Y-142709498D01*
X42394482Y-142673188D01*
X42270000Y-142660928D01*
X36470000Y-142660928D01*
X36345518Y-142673188D01*
X36225820Y-142709498D01*
X36115506Y-142768463D01*
X36018815Y-142847815D01*
X35939463Y-142944506D01*
X35880498Y-143054820D01*
X35853863Y-143142624D01*
X34010239Y-141299000D01*
X35851928Y-141299000D01*
X35864188Y-141423482D01*
X35900498Y-141543180D01*
X35959463Y-141653494D01*
X36038815Y-141750185D01*
X36135506Y-141829537D01*
X36245820Y-141888502D01*
X36365518Y-141924812D01*
X36490000Y-141937072D01*
X36804250Y-141934000D01*
X36963000Y-141775250D01*
X36963000Y-140326000D01*
X37217000Y-140326000D01*
X37217000Y-141775250D01*
X37375750Y-141934000D01*
X37690000Y-141937072D01*
X37814482Y-141924812D01*
X37934180Y-141888502D01*
X38044494Y-141829537D01*
X38141185Y-141750185D01*
X38220537Y-141653494D01*
X38279502Y-141543180D01*
X38315812Y-141423482D01*
X38328072Y-141299000D01*
X38325000Y-140484750D01*
X38166250Y-140326000D01*
X37217000Y-140326000D01*
X36963000Y-140326000D01*
X36013750Y-140326000D01*
X35855000Y-140484750D01*
X35851928Y-141299000D01*
X34010239Y-141299000D01*
X32095000Y-139383762D01*
X32095000Y-139099000D01*
X35851928Y-139099000D01*
X35855000Y-139913250D01*
X36013750Y-140072000D01*
X36963000Y-140072000D01*
X36963000Y-138622750D01*
X37217000Y-138622750D01*
X37217000Y-140072000D01*
X38166250Y-140072000D01*
X38325000Y-139913250D01*
X38328072Y-139099000D01*
X38315812Y-138974518D01*
X38279502Y-138854820D01*
X38220537Y-138744506D01*
X38141185Y-138647815D01*
X38044494Y-138568463D01*
X37934180Y-138509498D01*
X37814482Y-138473188D01*
X37690000Y-138460928D01*
X37375750Y-138464000D01*
X37217000Y-138622750D01*
X36963000Y-138622750D01*
X36804250Y-138464000D01*
X36490000Y-138460928D01*
X36365518Y-138473188D01*
X36245820Y-138509498D01*
X36135506Y-138568463D01*
X36038815Y-138647815D01*
X35959463Y-138744506D01*
X35900498Y-138854820D01*
X35864188Y-138974518D01*
X35851928Y-139099000D01*
X32095000Y-139099000D01*
X32095000Y-136482655D01*
X32150000Y-136488072D01*
X32714250Y-136485000D01*
X32873000Y-136326250D01*
X32873000Y-135127000D01*
X33127000Y-135127000D01*
X33127000Y-136326250D01*
X33285750Y-136485000D01*
X33850000Y-136488072D01*
X33974482Y-136475812D01*
X34094180Y-136439502D01*
X34204494Y-136380537D01*
X34301185Y-136301185D01*
X34380537Y-136204494D01*
X34439502Y-136094180D01*
X34475812Y-135974482D01*
X34488072Y-135850000D01*
X34485000Y-135285750D01*
X34326250Y-135127000D01*
X33127000Y-135127000D01*
X32873000Y-135127000D01*
X32853000Y-135127000D01*
X32853000Y-134873000D01*
X32873000Y-134873000D01*
X32873000Y-133673750D01*
X33127000Y-133673750D01*
X33127000Y-134873000D01*
X34326250Y-134873000D01*
X34485000Y-134714250D01*
X34488072Y-134150000D01*
X34475812Y-134025518D01*
X34439502Y-133905820D01*
X34380537Y-133795506D01*
X34301185Y-133698815D01*
X34204494Y-133619463D01*
X34094180Y-133560498D01*
X33974482Y-133524188D01*
X33850000Y-133511928D01*
X33285750Y-133515000D01*
X33127000Y-133673750D01*
X32873000Y-133673750D01*
X32714250Y-133515000D01*
X32150000Y-133511928D01*
X32025518Y-133524188D01*
X31905820Y-133560498D01*
X31795506Y-133619463D01*
X31698815Y-133698815D01*
X31619463Y-133795506D01*
X31604255Y-133823958D01*
X31372751Y-133633969D01*
X31088714Y-133482148D01*
X30780515Y-133388657D01*
X30460000Y-133357089D01*
X30139484Y-133388657D01*
X29831285Y-133482148D01*
X29547248Y-133633969D01*
X29298286Y-133838286D01*
X29095151Y-134085809D01*
X29073475Y-134053368D01*
X28866632Y-133846525D01*
X28623411Y-133684010D01*
X28353158Y-133572068D01*
X28066260Y-133515000D01*
X27773740Y-133515000D01*
X27486842Y-133572068D01*
X27216589Y-133684010D01*
X26973368Y-133846525D01*
X26766525Y-134053368D01*
X26604010Y-134296589D01*
X26492068Y-134566842D01*
X26435000Y-134853740D01*
X26435000Y-135146260D01*
X26492068Y-135433158D01*
X26604010Y-135703411D01*
X26766525Y-135946632D01*
X26973368Y-136153475D01*
X27160000Y-136278179D01*
X27160001Y-138165197D01*
X25489003Y-139836196D01*
X25459999Y-139859999D01*
X25415237Y-139914542D01*
X25365026Y-139975724D01*
X25306589Y-140085051D01*
X25294454Y-140107754D01*
X25250997Y-140251015D01*
X25240000Y-140362668D01*
X25240000Y-140362678D01*
X25236324Y-140400000D01*
X25240000Y-140437323D01*
X25240001Y-145993827D01*
X25206291Y-146004053D01*
X25053836Y-146085542D01*
X24920208Y-146195208D01*
X24810542Y-146328836D01*
X24729053Y-146481291D01*
X24678872Y-146646715D01*
X24661928Y-146818750D01*
X20660000Y-146818750D01*
X20660000Y-134814344D01*
X21115000Y-134814344D01*
X21115000Y-135185656D01*
X21187439Y-135549834D01*
X21329534Y-135892882D01*
X21535825Y-136201618D01*
X21798382Y-136464175D01*
X22107118Y-136670466D01*
X22450166Y-136812561D01*
X22814344Y-136885000D01*
X23185656Y-136885000D01*
X23549834Y-136812561D01*
X23892882Y-136670466D01*
X24201618Y-136464175D01*
X24464175Y-136201618D01*
X24670466Y-135892882D01*
X24812561Y-135549834D01*
X24885000Y-135185656D01*
X24885000Y-134814344D01*
X24812561Y-134450166D01*
X24670466Y-134107118D01*
X24464175Y-133798382D01*
X24201618Y-133535825D01*
X23892882Y-133329534D01*
X23549834Y-133187439D01*
X23185656Y-133115000D01*
X22814344Y-133115000D01*
X22450166Y-133187439D01*
X22107118Y-133329534D01*
X21798382Y-133535825D01*
X21535825Y-133798382D01*
X21329534Y-134107118D01*
X21187439Y-134450166D01*
X21115000Y-134814344D01*
X20660000Y-134814344D01*
X20660000Y-132660000D01*
X78340000Y-132660000D01*
X78340000Y-154873000D01*
G36*
X54075943Y-138005464D02*
G01*
X53965906Y-138211326D01*
X53898147Y-138434700D01*
X53881000Y-138608793D01*
X53881000Y-140125206D01*
X53890761Y-140224306D01*
X53819948Y-140152266D01*
X53626813Y-140020804D01*
X53411742Y-139929546D01*
X53183000Y-139882000D01*
X52483000Y-139882000D01*
X52483000Y-140940000D01*
X54074361Y-140940000D01*
X54154124Y-140823801D01*
X54224025Y-140908975D01*
X54404464Y-141057058D01*
X54610326Y-141167094D01*
X54833700Y-141234853D01*
X55066000Y-141257733D01*
X55298299Y-141234853D01*
X55521673Y-141167094D01*
X55727535Y-141057058D01*
X55907975Y-140908975D01*
X56056058Y-140728536D01*
X56066000Y-140709935D01*
X56075942Y-140728535D01*
X56224025Y-140908975D01*
X56404464Y-141057058D01*
X56610326Y-141167094D01*
X56833700Y-141234853D01*
X57066000Y-141257733D01*
X57298299Y-141234853D01*
X57521673Y-141167094D01*
X57727535Y-141057058D01*
X57907975Y-140908975D01*
X58056058Y-140728536D01*
X58066000Y-140709935D01*
X58075942Y-140728535D01*
X58224025Y-140908975D01*
X58404464Y-141057058D01*
X58610326Y-141167094D01*
X58833700Y-141234853D01*
X59066000Y-141257733D01*
X59298299Y-141234853D01*
X59521673Y-141167094D01*
X59727535Y-141057058D01*
X59907975Y-140908975D01*
X60056058Y-140728536D01*
X60066000Y-140709935D01*
X60075942Y-140728535D01*
X60224025Y-140908975D01*
X60404464Y-141057058D01*
X60610326Y-141167094D01*
X60833700Y-141234853D01*
X61066000Y-141257733D01*
X61298299Y-141234853D01*
X61521673Y-141167094D01*
X61727535Y-141057058D01*
X61907975Y-140908975D01*
X62056058Y-140728536D01*
X62066000Y-140709935D01*
X62075942Y-140728535D01*
X62224025Y-140908975D01*
X62404464Y-141057058D01*
X62610326Y-141167094D01*
X62833700Y-141234853D01*
X63066000Y-141257733D01*
X63298299Y-141234853D01*
X63521673Y-141167094D01*
X63727535Y-141057058D01*
X63907975Y-140908975D01*
X64056058Y-140728536D01*
X64066000Y-140709935D01*
X64075942Y-140728535D01*
X64224025Y-140908975D01*
X64404464Y-141057058D01*
X64610326Y-141167094D01*
X64833700Y-141234853D01*
X65066000Y-141257733D01*
X65298299Y-141234853D01*
X65521673Y-141167094D01*
X65727535Y-141057058D01*
X65865001Y-140944243D01*
X65859509Y-141000000D01*
X65865687Y-141062731D01*
X65865267Y-141067000D01*
X65888147Y-141299300D01*
X65955906Y-141522674D01*
X66065942Y-141728536D01*
X66214025Y-141908975D01*
X66394464Y-142057058D01*
X66413064Y-142067000D01*
X66394464Y-142076942D01*
X66214025Y-142225025D01*
X66065942Y-142405464D01*
X65955906Y-142611326D01*
X65888147Y-142834700D01*
X65865267Y-143067000D01*
X65888147Y-143299300D01*
X65955906Y-143522674D01*
X66065942Y-143728536D01*
X66214025Y-143908975D01*
X66394464Y-144057058D01*
X66413064Y-144067000D01*
X66394464Y-144076942D01*
X66214025Y-144225025D01*
X66065942Y-144405464D01*
X65955906Y-144611326D01*
X65888147Y-144834700D01*
X65865267Y-145067000D01*
X65888147Y-145299300D01*
X65955906Y-145522674D01*
X66065942Y-145728536D01*
X66214025Y-145908975D01*
X66394464Y-146057058D01*
X66413064Y-146067000D01*
X66394464Y-146076942D01*
X66214025Y-146225025D01*
X66065942Y-146405464D01*
X65955906Y-146611326D01*
X65888147Y-146834700D01*
X65865267Y-147067000D01*
X65888147Y-147299300D01*
X65955906Y-147522674D01*
X66065942Y-147728536D01*
X66214025Y-147908975D01*
X66394464Y-148057058D01*
X66413064Y-148067000D01*
X66394464Y-148076942D01*
X66214025Y-148225025D01*
X66065942Y-148405464D01*
X65955906Y-148611326D01*
X65888147Y-148834700D01*
X65865267Y-149067000D01*
X65888147Y-149299300D01*
X65955906Y-149522674D01*
X66065942Y-149728536D01*
X66214025Y-149908975D01*
X66394464Y-150057058D01*
X66413064Y-150067000D01*
X66394464Y-150076942D01*
X66214025Y-150225025D01*
X66065942Y-150405464D01*
X65955906Y-150611326D01*
X65888147Y-150834700D01*
X65865267Y-151067000D01*
X65888147Y-151299300D01*
X65955906Y-151522674D01*
X66065942Y-151728536D01*
X66214025Y-151908975D01*
X66394464Y-152057058D01*
X66413064Y-152067000D01*
X66394464Y-152076942D01*
X66214025Y-152225025D01*
X66065942Y-152405464D01*
X65955906Y-152611326D01*
X65888147Y-152834700D01*
X65865267Y-153067000D01*
X65888147Y-153299300D01*
X65955906Y-153522674D01*
X66065942Y-153728536D01*
X66214025Y-153908975D01*
X66246544Y-153935663D01*
X66151506Y-153986463D01*
X66054815Y-154065815D01*
X65975463Y-154162506D01*
X65916498Y-154272820D01*
X65880188Y-154392518D01*
X65867928Y-154517000D01*
X65867928Y-154873000D01*
X54227625Y-154873000D01*
X54223853Y-154834700D01*
X54156094Y-154611326D01*
X54046058Y-154405464D01*
X53897975Y-154225025D01*
X53717536Y-154076942D01*
X53698936Y-154067000D01*
X53717536Y-154057058D01*
X53897975Y-153908975D01*
X54046058Y-153728536D01*
X54156094Y-153522674D01*
X54223853Y-153299300D01*
X54246733Y-153067000D01*
X54223853Y-152834700D01*
X54156094Y-152611326D01*
X54046058Y-152405464D01*
X53897975Y-152225025D01*
X53717536Y-152076942D01*
X53698936Y-152067000D01*
X53717536Y-152057058D01*
X53897975Y-151908975D01*
X54046058Y-151728536D01*
X54156094Y-151522674D01*
X54223853Y-151299300D01*
X54246733Y-151067000D01*
X54223853Y-150834700D01*
X54156094Y-150611326D01*
X54046058Y-150405464D01*
X53897975Y-150225025D01*
X53717536Y-150076942D01*
X53698936Y-150067000D01*
X53717536Y-150057058D01*
X53897975Y-149908975D01*
X54046058Y-149728536D01*
X54156094Y-149522674D01*
X54223853Y-149299300D01*
X54246733Y-149067000D01*
X54223853Y-148834700D01*
X54156094Y-148611326D01*
X54046058Y-148405464D01*
X53897975Y-148225025D01*
X53717536Y-148076942D01*
X53698936Y-148067000D01*
X53717536Y-148057058D01*
X53897975Y-147908975D01*
X54046058Y-147728536D01*
X54156094Y-147522674D01*
X54223853Y-147299300D01*
X54246733Y-147067000D01*
X54223853Y-146834700D01*
X54156094Y-146611326D01*
X54046058Y-146405464D01*
X53897975Y-146225025D01*
X53717536Y-146076942D01*
X53698936Y-146067000D01*
X53717536Y-146057058D01*
X53897975Y-145908975D01*
X54046058Y-145728536D01*
X54156094Y-145522674D01*
X54223853Y-145299300D01*
X54246733Y-145067000D01*
X54223853Y-144834700D01*
X54156094Y-144611326D01*
X54046058Y-144405464D01*
X53897975Y-144225025D01*
X53742305Y-144097270D01*
X53817536Y-144057058D01*
X53997975Y-143908975D01*
X54146058Y-143728536D01*
X54256094Y-143522674D01*
X54323853Y-143299300D01*
X54346733Y-143067000D01*
X54323853Y-142834700D01*
X54256094Y-142611326D01*
X54146058Y-142405464D01*
X53997975Y-142225025D01*
X53817536Y-142076942D01*
X53740539Y-142035786D01*
X53819948Y-141981734D01*
X53983725Y-141815119D01*
X54111850Y-141619754D01*
X54199399Y-141403147D01*
X54199803Y-141376744D01*
X54074361Y-141194000D01*
X52483000Y-141194000D01*
X52483000Y-141214000D01*
X52229000Y-141214000D01*
X52229000Y-141194000D01*
X52209000Y-141194000D01*
X52209000Y-140940000D01*
X52229000Y-140940000D01*
X52229000Y-139882000D01*
X51529000Y-139882000D01*
X51300258Y-139929546D01*
X51085187Y-140020804D01*
X50892052Y-140152266D01*
X50728275Y-140318881D01*
X50666847Y-140412546D01*
X50005072Y-139750771D01*
X50005072Y-139243750D01*
X49988128Y-139071715D01*
X49937947Y-138906291D01*
X49856458Y-138753836D01*
X49746792Y-138620208D01*
X49613164Y-138510542D01*
X49460709Y-138429053D01*
X49295285Y-138378872D01*
X49123250Y-138361928D01*
X48635750Y-138361928D01*
X48463715Y-138378872D01*
X48298291Y-138429053D01*
X48145836Y-138510542D01*
X48012208Y-138620208D01*
X48006992Y-138626564D01*
X47943185Y-138548815D01*
X47846494Y-138469463D01*
X47736180Y-138410498D01*
X47616482Y-138374188D01*
X47492000Y-138361928D01*
X47290250Y-138365000D01*
X47131500Y-138523750D01*
X47131500Y-139573000D01*
X47151500Y-139573000D01*
X47151500Y-139827000D01*
X47131500Y-139827000D01*
X47131500Y-140876250D01*
X47290250Y-141035000D01*
X47492000Y-141038072D01*
X47616482Y-141025812D01*
X47736180Y-140989502D01*
X47846494Y-140930537D01*
X47943185Y-140851185D01*
X48006992Y-140773436D01*
X48012208Y-140779792D01*
X48145836Y-140889458D01*
X48298291Y-140970947D01*
X48463715Y-141021128D01*
X48635750Y-141038072D01*
X49123250Y-141038072D01*
X49141020Y-141036322D01*
X49640001Y-141535303D01*
X49640001Y-141580566D01*
X49613164Y-141558542D01*
X49460709Y-141477053D01*
X49295285Y-141426872D01*
X49123250Y-141409928D01*
X48635750Y-141409928D01*
X48463715Y-141426872D01*
X48298291Y-141477053D01*
X48145836Y-141558542D01*
X48012208Y-141668208D01*
X47942000Y-141753756D01*
X47871792Y-141668208D01*
X47738164Y-141558542D01*
X47585709Y-141477053D01*
X47420285Y-141426872D01*
X47248250Y-141409928D01*
X46760750Y-141409928D01*
X46588715Y-141426872D01*
X46423291Y-141477053D01*
X46270836Y-141558542D01*
X46226000Y-141595338D01*
X46226000Y-140964476D01*
X46272820Y-140989502D01*
X46392518Y-141025812D01*
X46517000Y-141038072D01*
X46718750Y-141035000D01*
X46877500Y-140876250D01*
X46877500Y-139827000D01*
X46857500Y-139827000D01*
X46857500Y-139573000D01*
X46877500Y-139573000D01*
X46877500Y-138523750D01*
X46725776Y-138372026D01*
X47177802Y-137920000D01*
X54146082Y-137920000D01*
X54075943Y-138005464D01*
G37*
X54075943Y-138005464D02*
X53965906Y-138211326D01*
X53898147Y-138434700D01*
X53881000Y-138608793D01*
X53881000Y-140125206D01*
X53890761Y-140224306D01*
X53819948Y-140152266D01*
X53626813Y-140020804D01*
X53411742Y-139929546D01*
X53183000Y-139882000D01*
X52483000Y-139882000D01*
X52483000Y-140940000D01*
X54074361Y-140940000D01*
X54154124Y-140823801D01*
X54224025Y-140908975D01*
X54404464Y-141057058D01*
X54610326Y-141167094D01*
X54833700Y-141234853D01*
X55066000Y-141257733D01*
X55298299Y-141234853D01*
X55521673Y-141167094D01*
X55727535Y-141057058D01*
X55907975Y-140908975D01*
X56056058Y-140728536D01*
X56066000Y-140709935D01*
X56075942Y-140728535D01*
X56224025Y-140908975D01*
X56404464Y-141057058D01*
X56610326Y-141167094D01*
X56833700Y-141234853D01*
X57066000Y-141257733D01*
X57298299Y-141234853D01*
X57521673Y-141167094D01*
X57727535Y-141057058D01*
X57907975Y-140908975D01*
X58056058Y-140728536D01*
X58066000Y-140709935D01*
X58075942Y-140728535D01*
X58224025Y-140908975D01*
X58404464Y-141057058D01*
X58610326Y-141167094D01*
X58833700Y-141234853D01*
X59066000Y-141257733D01*
X59298299Y-141234853D01*
X59521673Y-141167094D01*
X59727535Y-141057058D01*
X59907975Y-140908975D01*
X60056058Y-140728536D01*
X60066000Y-140709935D01*
X60075942Y-140728535D01*
X60224025Y-140908975D01*
X60404464Y-141057058D01*
X60610326Y-141167094D01*
X60833700Y-141234853D01*
X61066000Y-141257733D01*
X61298299Y-141234853D01*
X61521673Y-141167094D01*
X61727535Y-141057058D01*
X61907975Y-140908975D01*
X62056058Y-140728536D01*
X62066000Y-140709935D01*
X62075942Y-140728535D01*
X62224025Y-140908975D01*
X62404464Y-141057058D01*
X62610326Y-141167094D01*
X62833700Y-141234853D01*
X63066000Y-141257733D01*
X63298299Y-141234853D01*
X63521673Y-141167094D01*
X63727535Y-141057058D01*
X63907975Y-140908975D01*
X64056058Y-140728536D01*
X64066000Y-140709935D01*
X64075942Y-140728535D01*
X64224025Y-140908975D01*
X64404464Y-141057058D01*
X64610326Y-141167094D01*
X64833700Y-141234853D01*
X65066000Y-141257733D01*
X65298299Y-141234853D01*
X65521673Y-141167094D01*
X65727535Y-141057058D01*
X65865001Y-140944243D01*
X65859509Y-141000000D01*
X65865687Y-141062731D01*
X65865267Y-141067000D01*
X65888147Y-141299300D01*
X65955906Y-141522674D01*
X66065942Y-141728536D01*
X66214025Y-141908975D01*
X66394464Y-142057058D01*
X66413064Y-142067000D01*
X66394464Y-142076942D01*
X66214025Y-142225025D01*
X66065942Y-142405464D01*
X65955906Y-142611326D01*
X65888147Y-142834700D01*
X65865267Y-143067000D01*
X65888147Y-143299300D01*
X65955906Y-143522674D01*
X66065942Y-143728536D01*
X66214025Y-143908975D01*
X66394464Y-144057058D01*
X66413064Y-144067000D01*
X66394464Y-144076942D01*
X66214025Y-144225025D01*
X66065942Y-144405464D01*
X65955906Y-144611326D01*
X65888147Y-144834700D01*
X65865267Y-145067000D01*
X65888147Y-145299300D01*
X65955906Y-145522674D01*
X66065942Y-145728536D01*
X66214025Y-145908975D01*
X66394464Y-146057058D01*
X66413064Y-146067000D01*
X66394464Y-146076942D01*
X66214025Y-146225025D01*
X66065942Y-146405464D01*
X65955906Y-146611326D01*
X65888147Y-146834700D01*
X65865267Y-147067000D01*
X65888147Y-147299300D01*
X65955906Y-147522674D01*
X66065942Y-147728536D01*
X66214025Y-147908975D01*
X66394464Y-148057058D01*
X66413064Y-148067000D01*
X66394464Y-148076942D01*
X66214025Y-148225025D01*
X66065942Y-148405464D01*
X65955906Y-148611326D01*
X65888147Y-148834700D01*
X65865267Y-149067000D01*
X65888147Y-149299300D01*
X65955906Y-149522674D01*
X66065942Y-149728536D01*
X66214025Y-149908975D01*
X66394464Y-150057058D01*
X66413064Y-150067000D01*
X66394464Y-150076942D01*
X66214025Y-150225025D01*
X66065942Y-150405464D01*
X65955906Y-150611326D01*
X65888147Y-150834700D01*
X65865267Y-151067000D01*
X65888147Y-151299300D01*
X65955906Y-151522674D01*
X66065942Y-151728536D01*
X66214025Y-151908975D01*
X66394464Y-152057058D01*
X66413064Y-152067000D01*
X66394464Y-152076942D01*
X66214025Y-152225025D01*
X66065942Y-152405464D01*
X65955906Y-152611326D01*
X65888147Y-152834700D01*
X65865267Y-153067000D01*
X65888147Y-153299300D01*
X65955906Y-153522674D01*
X66065942Y-153728536D01*
X66214025Y-153908975D01*
X66246544Y-153935663D01*
X66151506Y-153986463D01*
X66054815Y-154065815D01*
X65975463Y-154162506D01*
X65916498Y-154272820D01*
X65880188Y-154392518D01*
X65867928Y-154517000D01*
X65867928Y-154873000D01*
X54227625Y-154873000D01*
X54223853Y-154834700D01*
X54156094Y-154611326D01*
X54046058Y-154405464D01*
X53897975Y-154225025D01*
X53717536Y-154076942D01*
X53698936Y-154067000D01*
X53717536Y-154057058D01*
X53897975Y-153908975D01*
X54046058Y-153728536D01*
X54156094Y-153522674D01*
X54223853Y-153299300D01*
X54246733Y-153067000D01*
X54223853Y-152834700D01*
X54156094Y-152611326D01*
X54046058Y-152405464D01*
X53897975Y-152225025D01*
X53717536Y-152076942D01*
X53698936Y-152067000D01*
X53717536Y-152057058D01*
X53897975Y-151908975D01*
X54046058Y-151728536D01*
X54156094Y-151522674D01*
X54223853Y-151299300D01*
X54246733Y-151067000D01*
X54223853Y-150834700D01*
X54156094Y-150611326D01*
X54046058Y-150405464D01*
X53897975Y-150225025D01*
X53717536Y-150076942D01*
X53698936Y-150067000D01*
X53717536Y-150057058D01*
X53897975Y-149908975D01*
X54046058Y-149728536D01*
X54156094Y-149522674D01*
X54223853Y-149299300D01*
X54246733Y-149067000D01*
X54223853Y-148834700D01*
X54156094Y-148611326D01*
X54046058Y-148405464D01*
X53897975Y-148225025D01*
X53717536Y-148076942D01*
X53698936Y-148067000D01*
X53717536Y-148057058D01*
X53897975Y-147908975D01*
X54046058Y-147728536D01*
X54156094Y-147522674D01*
X54223853Y-147299300D01*
X54246733Y-147067000D01*
X54223853Y-146834700D01*
X54156094Y-146611326D01*
X54046058Y-146405464D01*
X53897975Y-146225025D01*
X53717536Y-146076942D01*
X53698936Y-146067000D01*
X53717536Y-146057058D01*
X53897975Y-145908975D01*
X54046058Y-145728536D01*
X54156094Y-145522674D01*
X54223853Y-145299300D01*
X54246733Y-145067000D01*
X54223853Y-144834700D01*
X54156094Y-144611326D01*
X54046058Y-144405464D01*
X53897975Y-144225025D01*
X53742305Y-144097270D01*
X53817536Y-144057058D01*
X53997975Y-143908975D01*
X54146058Y-143728536D01*
X54256094Y-143522674D01*
X54323853Y-143299300D01*
X54346733Y-143067000D01*
X54323853Y-142834700D01*
X54256094Y-142611326D01*
X54146058Y-142405464D01*
X53997975Y-142225025D01*
X53817536Y-142076942D01*
X53740539Y-142035786D01*
X53819948Y-141981734D01*
X53983725Y-141815119D01*
X54111850Y-141619754D01*
X54199399Y-141403147D01*
X54199803Y-141376744D01*
X54074361Y-141194000D01*
X52483000Y-141194000D01*
X52483000Y-141214000D01*
X52229000Y-141214000D01*
X52229000Y-141194000D01*
X52209000Y-141194000D01*
X52209000Y-140940000D01*
X52229000Y-140940000D01*
X52229000Y-139882000D01*
X51529000Y-139882000D01*
X51300258Y-139929546D01*
X51085187Y-140020804D01*
X50892052Y-140152266D01*
X50728275Y-140318881D01*
X50666847Y-140412546D01*
X50005072Y-139750771D01*
X50005072Y-139243750D01*
X49988128Y-139071715D01*
X49937947Y-138906291D01*
X49856458Y-138753836D01*
X49746792Y-138620208D01*
X49613164Y-138510542D01*
X49460709Y-138429053D01*
X49295285Y-138378872D01*
X49123250Y-138361928D01*
X48635750Y-138361928D01*
X48463715Y-138378872D01*
X48298291Y-138429053D01*
X48145836Y-138510542D01*
X48012208Y-138620208D01*
X48006992Y-138626564D01*
X47943185Y-138548815D01*
X47846494Y-138469463D01*
X47736180Y-138410498D01*
X47616482Y-138374188D01*
X47492000Y-138361928D01*
X47290250Y-138365000D01*
X47131500Y-138523750D01*
X47131500Y-139573000D01*
X47151500Y-139573000D01*
X47151500Y-139827000D01*
X47131500Y-139827000D01*
X47131500Y-140876250D01*
X47290250Y-141035000D01*
X47492000Y-141038072D01*
X47616482Y-141025812D01*
X47736180Y-140989502D01*
X47846494Y-140930537D01*
X47943185Y-140851185D01*
X48006992Y-140773436D01*
X48012208Y-140779792D01*
X48145836Y-140889458D01*
X48298291Y-140970947D01*
X48463715Y-141021128D01*
X48635750Y-141038072D01*
X49123250Y-141038072D01*
X49141020Y-141036322D01*
X49640001Y-141535303D01*
X49640001Y-141580566D01*
X49613164Y-141558542D01*
X49460709Y-141477053D01*
X49295285Y-141426872D01*
X49123250Y-141409928D01*
X48635750Y-141409928D01*
X48463715Y-141426872D01*
X48298291Y-141477053D01*
X48145836Y-141558542D01*
X48012208Y-141668208D01*
X47942000Y-141753756D01*
X47871792Y-141668208D01*
X47738164Y-141558542D01*
X47585709Y-141477053D01*
X47420285Y-141426872D01*
X47248250Y-141409928D01*
X46760750Y-141409928D01*
X46588715Y-141426872D01*
X46423291Y-141477053D01*
X46270836Y-141558542D01*
X46226000Y-141595338D01*
X46226000Y-140964476D01*
X46272820Y-140989502D01*
X46392518Y-141025812D01*
X46517000Y-141038072D01*
X46718750Y-141035000D01*
X46877500Y-140876250D01*
X46877500Y-139827000D01*
X46857500Y-139827000D01*
X46857500Y-139573000D01*
X46877500Y-139573000D01*
X46877500Y-138523750D01*
X46725776Y-138372026D01*
X47177802Y-137920000D01*
X54146082Y-137920000D01*
X54075943Y-138005464D01*
%TD*%
M02*
