%TF.GenerationSoftware,KiCad,Pcbnew,5.1.6-c6e7f7d~87~ubuntu18.04.1*%
%TF.CreationDate,2022-02-07T12:13:50+00:00*%
%TF.ProjectId,wifiboard-v4,77696669-626f-4617-9264-2d76342e6b69,rev?*%
%TF.SameCoordinates,Original*%
%TF.FileFunction,Legend,Top*%
%TF.FilePolarity,Positive*%
%FSLAX46Y46*%
G04 Gerber Fmt 4.6, Leading zero omitted, Abs format (unit mm)*
G04 Created by KiCad (PCBNEW 5.1.6-c6e7f7d~87~ubuntu18.04.1) date 2022-02-07 12:13:50*
%MOMM*%
%LPD*%
G01*
G04 APERTURE LIST*
%ADD10C,0.150000*%
%ADD11C,0.120000*%
%ADD12C,0.100000*%
%ADD13C,0.200000*%
%ADD14C,0.152400*%
%ADD15C,0.254000*%
G04 APERTURE END LIST*
D10*
X27690476Y-172452380D02*
X27690476Y-171452380D01*
X28071428Y-171452380D01*
X28166666Y-171500000D01*
X28214285Y-171547619D01*
X28261904Y-171642857D01*
X28261904Y-171785714D01*
X28214285Y-171880952D01*
X28166666Y-171928571D01*
X28071428Y-171976190D01*
X27690476Y-171976190D01*
X28880952Y-171452380D02*
X29071428Y-171452380D01*
X29166666Y-171500000D01*
X29261904Y-171595238D01*
X29309523Y-171785714D01*
X29309523Y-172119047D01*
X29261904Y-172309523D01*
X29166666Y-172404761D01*
X29071428Y-172452380D01*
X28880952Y-172452380D01*
X28785714Y-172404761D01*
X28690476Y-172309523D01*
X28642857Y-172119047D01*
X28642857Y-171785714D01*
X28690476Y-171595238D01*
X28785714Y-171500000D01*
X28880952Y-171452380D01*
X29642857Y-171452380D02*
X29880952Y-172452380D01*
X30071428Y-171738095D01*
X30261904Y-172452380D01*
X30500000Y-171452380D01*
X30880952Y-171928571D02*
X31214285Y-171928571D01*
X31357142Y-172452380D02*
X30880952Y-172452380D01*
X30880952Y-171452380D01*
X31357142Y-171452380D01*
X32357142Y-172452380D02*
X32023809Y-171976190D01*
X31785714Y-172452380D02*
X31785714Y-171452380D01*
X32166666Y-171452380D01*
X32261904Y-171500000D01*
X32309523Y-171547619D01*
X32357142Y-171642857D01*
X32357142Y-171785714D01*
X32309523Y-171880952D01*
X32261904Y-171928571D01*
X32166666Y-171976190D01*
X31785714Y-171976190D01*
X21114000Y-168981380D02*
X21114000Y-167981380D01*
X21447333Y-168695666D01*
X21780666Y-167981380D01*
X21780666Y-168981380D01*
X22209238Y-168695666D02*
X22685428Y-168695666D01*
X22114000Y-168981380D02*
X22447333Y-167981380D01*
X22780666Y-168981380D01*
X23114000Y-168981380D02*
X23114000Y-167981380D01*
X23590190Y-168981380D02*
X23590190Y-167981380D01*
X24161619Y-168981380D01*
X24161619Y-167981380D01*
X24590190Y-168933761D02*
X24733047Y-168981380D01*
X24971142Y-168981380D01*
X25066380Y-168933761D01*
X25114000Y-168886142D01*
X25161619Y-168790904D01*
X25161619Y-168695666D01*
X25114000Y-168600428D01*
X25066380Y-168552809D01*
X24971142Y-168505190D01*
X24780666Y-168457571D01*
X24685428Y-168409952D01*
X24637809Y-168362333D01*
X24590190Y-168267095D01*
X24590190Y-168171857D01*
X24637809Y-168076619D01*
X24685428Y-168029000D01*
X24780666Y-167981380D01*
X25018761Y-167981380D01*
X25161619Y-168029000D01*
X22820333Y-170378380D02*
X22344142Y-170378380D01*
X22344142Y-169378380D01*
X23106047Y-169473619D02*
X23153666Y-169426000D01*
X23248904Y-169378380D01*
X23487000Y-169378380D01*
X23582238Y-169426000D01*
X23629857Y-169473619D01*
X23677476Y-169568857D01*
X23677476Y-169664095D01*
X23629857Y-169806952D01*
X23058428Y-170378380D01*
X23677476Y-170378380D01*
X22947333Y-156789380D02*
X22471142Y-156789380D01*
X22471142Y-155789380D01*
X23804476Y-156789380D02*
X23233047Y-156789380D01*
X23518761Y-156789380D02*
X23518761Y-155789380D01*
X23423523Y-155932238D01*
X23328285Y-156027476D01*
X23233047Y-156075095D01*
X72618666Y-164496000D02*
X72552000Y-164462666D01*
X72452000Y-164462666D01*
X72352000Y-164496000D01*
X72285333Y-164562666D01*
X72252000Y-164629333D01*
X72218666Y-164762666D01*
X72218666Y-164862666D01*
X72252000Y-164996000D01*
X72285333Y-165062666D01*
X72352000Y-165129333D01*
X72452000Y-165162666D01*
X72518666Y-165162666D01*
X72618666Y-165129333D01*
X72652000Y-165096000D01*
X72652000Y-164862666D01*
X72518666Y-164862666D01*
X72952000Y-165162666D02*
X72952000Y-164462666D01*
X73352000Y-165162666D01*
X73352000Y-164462666D01*
X73685333Y-165162666D02*
X73685333Y-164462666D01*
X73852000Y-164462666D01*
X73952000Y-164496000D01*
X74018666Y-164562666D01*
X74052000Y-164629333D01*
X74085333Y-164762666D01*
X74085333Y-164862666D01*
X74052000Y-164996000D01*
X74018666Y-165062666D01*
X73952000Y-165129333D01*
X73852000Y-165162666D01*
X73685333Y-165162666D01*
X50012666Y-137064000D02*
X49946000Y-137030666D01*
X49846000Y-137030666D01*
X49746000Y-137064000D01*
X49679333Y-137130666D01*
X49646000Y-137197333D01*
X49612666Y-137330666D01*
X49612666Y-137430666D01*
X49646000Y-137564000D01*
X49679333Y-137630666D01*
X49746000Y-137697333D01*
X49846000Y-137730666D01*
X49912666Y-137730666D01*
X50012666Y-137697333D01*
X50046000Y-137664000D01*
X50046000Y-137430666D01*
X49912666Y-137430666D01*
X50346000Y-137730666D02*
X50346000Y-137030666D01*
X50746000Y-137730666D01*
X50746000Y-137030666D01*
X51079333Y-137730666D02*
X51079333Y-137030666D01*
X51246000Y-137030666D01*
X51346000Y-137064000D01*
X51412666Y-137130666D01*
X51446000Y-137197333D01*
X51479333Y-137330666D01*
X51479333Y-137430666D01*
X51446000Y-137564000D01*
X51412666Y-137630666D01*
X51346000Y-137697333D01*
X51246000Y-137730666D01*
X51079333Y-137730666D01*
X69570666Y-137064000D02*
X69504000Y-137030666D01*
X69404000Y-137030666D01*
X69304000Y-137064000D01*
X69237333Y-137130666D01*
X69204000Y-137197333D01*
X69170666Y-137330666D01*
X69170666Y-137430666D01*
X69204000Y-137564000D01*
X69237333Y-137630666D01*
X69304000Y-137697333D01*
X69404000Y-137730666D01*
X69470666Y-137730666D01*
X69570666Y-137697333D01*
X69604000Y-137664000D01*
X69604000Y-137430666D01*
X69470666Y-137430666D01*
X69904000Y-137730666D02*
X69904000Y-137030666D01*
X70304000Y-137730666D01*
X70304000Y-137030666D01*
X70637333Y-137730666D02*
X70637333Y-137030666D01*
X70804000Y-137030666D01*
X70904000Y-137064000D01*
X70970666Y-137130666D01*
X71004000Y-137197333D01*
X71037333Y-137330666D01*
X71037333Y-137430666D01*
X71004000Y-137564000D01*
X70970666Y-137630666D01*
X70904000Y-137697333D01*
X70804000Y-137730666D01*
X70637333Y-137730666D01*
X78009000Y-142138333D02*
X77975666Y-142205000D01*
X77975666Y-142305000D01*
X78009000Y-142405000D01*
X78075666Y-142471666D01*
X78142333Y-142505000D01*
X78275666Y-142538333D01*
X78375666Y-142538333D01*
X78509000Y-142505000D01*
X78575666Y-142471666D01*
X78642333Y-142405000D01*
X78675666Y-142305000D01*
X78675666Y-142238333D01*
X78642333Y-142138333D01*
X78609000Y-142105000D01*
X78375666Y-142105000D01*
X78375666Y-142238333D01*
X78675666Y-141805000D02*
X77975666Y-141805000D01*
X78675666Y-141405000D01*
X77975666Y-141405000D01*
X78675666Y-141071666D02*
X77975666Y-141071666D01*
X77975666Y-140905000D01*
X78009000Y-140805000D01*
X78075666Y-140738333D01*
X78142333Y-140705000D01*
X78275666Y-140671666D01*
X78375666Y-140671666D01*
X78509000Y-140705000D01*
X78575666Y-140738333D01*
X78642333Y-140805000D01*
X78675666Y-140905000D01*
X78675666Y-141071666D01*
X71445619Y-173299380D02*
X71112285Y-172823190D01*
X70874190Y-173299380D02*
X70874190Y-172299380D01*
X71255142Y-172299380D01*
X71350380Y-172347000D01*
X71398000Y-172394619D01*
X71445619Y-172489857D01*
X71445619Y-172632714D01*
X71398000Y-172727952D01*
X71350380Y-172775571D01*
X71255142Y-172823190D01*
X70874190Y-172823190D01*
X71874190Y-172775571D02*
X72207523Y-172775571D01*
X72350380Y-173299380D02*
X71874190Y-173299380D01*
X71874190Y-172299380D01*
X72350380Y-172299380D01*
X72731333Y-173251761D02*
X72874190Y-173299380D01*
X73112285Y-173299380D01*
X73207523Y-173251761D01*
X73255142Y-173204142D01*
X73302761Y-173108904D01*
X73302761Y-173013666D01*
X73255142Y-172918428D01*
X73207523Y-172870809D01*
X73112285Y-172823190D01*
X72921809Y-172775571D01*
X72826571Y-172727952D01*
X72778952Y-172680333D01*
X72731333Y-172585095D01*
X72731333Y-172489857D01*
X72778952Y-172394619D01*
X72826571Y-172347000D01*
X72921809Y-172299380D01*
X73159904Y-172299380D01*
X73302761Y-172347000D01*
X73731333Y-172775571D02*
X74064666Y-172775571D01*
X74207523Y-173299380D02*
X73731333Y-173299380D01*
X73731333Y-172299380D01*
X74207523Y-172299380D01*
X74493238Y-172299380D02*
X75064666Y-172299380D01*
X74778952Y-173299380D02*
X74778952Y-172299380D01*
X36449095Y-132215000D02*
X36353857Y-132167380D01*
X36211000Y-132167380D01*
X36068142Y-132215000D01*
X35972904Y-132310238D01*
X35925285Y-132405476D01*
X35877666Y-132595952D01*
X35877666Y-132738809D01*
X35925285Y-132929285D01*
X35972904Y-133024523D01*
X36068142Y-133119761D01*
X36211000Y-133167380D01*
X36306238Y-133167380D01*
X36449095Y-133119761D01*
X36496714Y-133072142D01*
X36496714Y-132738809D01*
X36306238Y-132738809D01*
X37496714Y-133167380D02*
X37163380Y-132691190D01*
X36925285Y-133167380D02*
X36925285Y-132167380D01*
X37306238Y-132167380D01*
X37401476Y-132215000D01*
X37449095Y-132262619D01*
X37496714Y-132357857D01*
X37496714Y-132500714D01*
X37449095Y-132595952D01*
X37401476Y-132643571D01*
X37306238Y-132691190D01*
X36925285Y-132691190D01*
X37925285Y-133167380D02*
X37925285Y-132167380D01*
X38496714Y-133167380D01*
X38496714Y-132167380D01*
X49077666Y-132643571D02*
X49220523Y-132691190D01*
X49268142Y-132738809D01*
X49315761Y-132834047D01*
X49315761Y-132976904D01*
X49268142Y-133072142D01*
X49220523Y-133119761D01*
X49125285Y-133167380D01*
X48744333Y-133167380D01*
X48744333Y-132167380D01*
X49077666Y-132167380D01*
X49172904Y-132215000D01*
X49220523Y-132262619D01*
X49268142Y-132357857D01*
X49268142Y-132453095D01*
X49220523Y-132548333D01*
X49172904Y-132595952D01*
X49077666Y-132643571D01*
X48744333Y-132643571D01*
X50220523Y-133167380D02*
X49744333Y-133167380D01*
X49744333Y-132167380D01*
X50553857Y-133167380D02*
X50553857Y-132167380D01*
X51125285Y-133167380D02*
X50696714Y-132595952D01*
X51125285Y-132167380D02*
X50553857Y-132738809D01*
X77811380Y-164575857D02*
X77811380Y-164004428D01*
X78811380Y-164290142D02*
X77811380Y-164290142D01*
X78811380Y-163671095D02*
X77811380Y-163671095D01*
X78811380Y-163242523D02*
X78287571Y-163242523D01*
X78192333Y-163290142D01*
X78144714Y-163385380D01*
X78144714Y-163528238D01*
X78192333Y-163623476D01*
X78239952Y-163671095D01*
X78763761Y-162385380D02*
X78811380Y-162480619D01*
X78811380Y-162671095D01*
X78763761Y-162766333D01*
X78668523Y-162813952D01*
X78287571Y-162813952D01*
X78192333Y-162766333D01*
X78144714Y-162671095D01*
X78144714Y-162480619D01*
X78192333Y-162385380D01*
X78287571Y-162337761D01*
X78382809Y-162337761D01*
X78478047Y-162813952D01*
X78811380Y-161909190D02*
X78144714Y-161909190D01*
X78335190Y-161909190D02*
X78239952Y-161861571D01*
X78192333Y-161813952D01*
X78144714Y-161718714D01*
X78144714Y-161623476D01*
X78811380Y-161290142D02*
X78144714Y-161290142D01*
X78239952Y-161290142D02*
X78192333Y-161242523D01*
X78144714Y-161147285D01*
X78144714Y-161004428D01*
X78192333Y-160909190D01*
X78287571Y-160861571D01*
X78811380Y-160861571D01*
X78287571Y-160861571D02*
X78192333Y-160813952D01*
X78144714Y-160718714D01*
X78144714Y-160575857D01*
X78192333Y-160480619D01*
X78287571Y-160433000D01*
X78811380Y-160433000D01*
X43934142Y-163393380D02*
X43457952Y-163393380D01*
X43457952Y-162393380D01*
X44267476Y-162869571D02*
X44600809Y-162869571D01*
X44743666Y-163393380D02*
X44267476Y-163393380D01*
X44267476Y-162393380D01*
X44743666Y-162393380D01*
X45172238Y-163393380D02*
X45172238Y-162393380D01*
X45410333Y-162393380D01*
X45553190Y-162441000D01*
X45648428Y-162536238D01*
X45696047Y-162631476D01*
X45743666Y-162821952D01*
X45743666Y-162964809D01*
X45696047Y-163155285D01*
X45648428Y-163250523D01*
X45553190Y-163345761D01*
X45410333Y-163393380D01*
X45172238Y-163393380D01*
X42410285Y-156408380D02*
X42410285Y-155408380D01*
X42791238Y-155408380D01*
X42886476Y-155456000D01*
X42934095Y-155503619D01*
X42981714Y-155598857D01*
X42981714Y-155741714D01*
X42934095Y-155836952D01*
X42886476Y-155884571D01*
X42791238Y-155932190D01*
X42410285Y-155932190D01*
X43981714Y-156408380D02*
X43648380Y-155932190D01*
X43410285Y-156408380D02*
X43410285Y-155408380D01*
X43791238Y-155408380D01*
X43886476Y-155456000D01*
X43934095Y-155503619D01*
X43981714Y-155598857D01*
X43981714Y-155741714D01*
X43934095Y-155836952D01*
X43886476Y-155884571D01*
X43791238Y-155932190D01*
X43410285Y-155932190D01*
X44600761Y-155408380D02*
X44791238Y-155408380D01*
X44886476Y-155456000D01*
X44981714Y-155551238D01*
X45029333Y-155741714D01*
X45029333Y-156075047D01*
X44981714Y-156265523D01*
X44886476Y-156360761D01*
X44791238Y-156408380D01*
X44600761Y-156408380D01*
X44505523Y-156360761D01*
X44410285Y-156265523D01*
X44362666Y-156075047D01*
X44362666Y-155741714D01*
X44410285Y-155551238D01*
X44505523Y-155456000D01*
X44600761Y-155408380D01*
X45981714Y-155456000D02*
X45886476Y-155408380D01*
X45743619Y-155408380D01*
X45600761Y-155456000D01*
X45505523Y-155551238D01*
X45457904Y-155646476D01*
X45410285Y-155836952D01*
X45410285Y-155979809D01*
X45457904Y-156170285D01*
X45505523Y-156265523D01*
X45600761Y-156360761D01*
X45743619Y-156408380D01*
X45838857Y-156408380D01*
X45981714Y-156360761D01*
X46029333Y-156313142D01*
X46029333Y-155979809D01*
X45838857Y-155979809D01*
X37108190Y-136993380D02*
X37108190Y-137802904D01*
X37155809Y-137898142D01*
X37203428Y-137945761D01*
X37298666Y-137993380D01*
X37489142Y-137993380D01*
X37584380Y-137945761D01*
X37632000Y-137898142D01*
X37679619Y-137802904D01*
X37679619Y-136993380D01*
X38108190Y-137945761D02*
X38251047Y-137993380D01*
X38489142Y-137993380D01*
X38584380Y-137945761D01*
X38632000Y-137898142D01*
X38679619Y-137802904D01*
X38679619Y-137707666D01*
X38632000Y-137612428D01*
X38584380Y-137564809D01*
X38489142Y-137517190D01*
X38298666Y-137469571D01*
X38203428Y-137421952D01*
X38155809Y-137374333D01*
X38108190Y-137279095D01*
X38108190Y-137183857D01*
X38155809Y-137088619D01*
X38203428Y-137041000D01*
X38298666Y-136993380D01*
X38536761Y-136993380D01*
X38679619Y-137041000D01*
X39441523Y-137469571D02*
X39584380Y-137517190D01*
X39632000Y-137564809D01*
X39679619Y-137660047D01*
X39679619Y-137802904D01*
X39632000Y-137898142D01*
X39584380Y-137945761D01*
X39489142Y-137993380D01*
X39108190Y-137993380D01*
X39108190Y-136993380D01*
X39441523Y-136993380D01*
X39536761Y-137041000D01*
X39584380Y-137088619D01*
X39632000Y-137183857D01*
X39632000Y-137279095D01*
X39584380Y-137374333D01*
X39536761Y-137421952D01*
X39441523Y-137469571D01*
X39108190Y-137469571D01*
X40774857Y-136993380D02*
X41393904Y-136993380D01*
X41060571Y-137374333D01*
X41203428Y-137374333D01*
X41298666Y-137421952D01*
X41346285Y-137469571D01*
X41393904Y-137564809D01*
X41393904Y-137802904D01*
X41346285Y-137898142D01*
X41298666Y-137945761D01*
X41203428Y-137993380D01*
X40917714Y-137993380D01*
X40822476Y-137945761D01*
X40774857Y-137898142D01*
X41679619Y-136993380D02*
X42012952Y-137993380D01*
X42346285Y-136993380D01*
X42584380Y-136993380D02*
X43203428Y-136993380D01*
X42870095Y-137374333D01*
X43012952Y-137374333D01*
X43108190Y-137421952D01*
X43155809Y-137469571D01*
X43203428Y-137564809D01*
X43203428Y-137802904D01*
X43155809Y-137898142D01*
X43108190Y-137945761D01*
X43012952Y-137993380D01*
X42727238Y-137993380D01*
X42632000Y-137945761D01*
X42584380Y-137898142D01*
X32774000Y-139318904D02*
X32726380Y-139414142D01*
X32726380Y-139557000D01*
X32774000Y-139699857D01*
X32869238Y-139795095D01*
X32964476Y-139842714D01*
X33154952Y-139890333D01*
X33297809Y-139890333D01*
X33488285Y-139842714D01*
X33583523Y-139795095D01*
X33678761Y-139699857D01*
X33726380Y-139557000D01*
X33726380Y-139461761D01*
X33678761Y-139318904D01*
X33631142Y-139271285D01*
X33297809Y-139271285D01*
X33297809Y-139461761D01*
X33726380Y-138842714D02*
X32726380Y-138842714D01*
X33726380Y-138271285D01*
X32726380Y-138271285D01*
X33726380Y-137795095D02*
X32726380Y-137795095D01*
X32726380Y-137557000D01*
X32774000Y-137414142D01*
X32869238Y-137318904D01*
X32964476Y-137271285D01*
X33154952Y-137223666D01*
X33297809Y-137223666D01*
X33488285Y-137271285D01*
X33583523Y-137318904D01*
X33678761Y-137414142D01*
X33726380Y-137557000D01*
X33726380Y-137795095D01*
X30059380Y-139430000D02*
X30059380Y-139239523D01*
X30107000Y-139144285D01*
X30202238Y-139049047D01*
X30392714Y-139001428D01*
X30726047Y-139001428D01*
X30916523Y-139049047D01*
X31011761Y-139144285D01*
X31059380Y-139239523D01*
X31059380Y-139430000D01*
X31011761Y-139525238D01*
X30916523Y-139620476D01*
X30726047Y-139668095D01*
X30392714Y-139668095D01*
X30202238Y-139620476D01*
X30107000Y-139525238D01*
X30059380Y-139430000D01*
X30059380Y-138572857D02*
X30868904Y-138572857D01*
X30964142Y-138525238D01*
X31011761Y-138477619D01*
X31059380Y-138382380D01*
X31059380Y-138191904D01*
X31011761Y-138096666D01*
X30964142Y-138049047D01*
X30868904Y-138001428D01*
X30059380Y-138001428D01*
X30059380Y-137668095D02*
X30059380Y-137096666D01*
X31059380Y-137382380D02*
X30059380Y-137382380D01*
X28011428Y-139890333D02*
X28011428Y-139128428D01*
X28392380Y-139509380D02*
X27630476Y-139509380D01*
X28392380Y-138128428D02*
X28392380Y-138699857D01*
X28392380Y-138414142D02*
X27392380Y-138414142D01*
X27535238Y-138509380D01*
X27630476Y-138604619D01*
X27678095Y-138699857D01*
X27487619Y-137747476D02*
X27440000Y-137699857D01*
X27392380Y-137604619D01*
X27392380Y-137366523D01*
X27440000Y-137271285D01*
X27487619Y-137223666D01*
X27582857Y-137176047D01*
X27678095Y-137176047D01*
X27820952Y-137223666D01*
X28392380Y-137795095D01*
X28392380Y-137176047D01*
X21114000Y-155138380D02*
X21114000Y-154138380D01*
X21447333Y-154852666D01*
X21780666Y-154138380D01*
X21780666Y-155138380D01*
X22209238Y-154852666D02*
X22685428Y-154852666D01*
X22114000Y-155138380D02*
X22447333Y-154138380D01*
X22780666Y-155138380D01*
X23114000Y-155138380D02*
X23114000Y-154138380D01*
X23590190Y-155138380D02*
X23590190Y-154138380D01*
X24161619Y-155138380D01*
X24161619Y-154138380D01*
X24590190Y-155090761D02*
X24733047Y-155138380D01*
X24971142Y-155138380D01*
X25066380Y-155090761D01*
X25114000Y-155043142D01*
X25161619Y-154947904D01*
X25161619Y-154852666D01*
X25114000Y-154757428D01*
X25066380Y-154709809D01*
X24971142Y-154662190D01*
X24780666Y-154614571D01*
X24685428Y-154566952D01*
X24637809Y-154519333D01*
X24590190Y-154424095D01*
X24590190Y-154328857D01*
X24637809Y-154233619D01*
X24685428Y-154186000D01*
X24780666Y-154138380D01*
X25018761Y-154138380D01*
X25161619Y-154186000D01*
X27813095Y-173363000D02*
X27717857Y-173315380D01*
X27575000Y-173315380D01*
X27432142Y-173363000D01*
X27336904Y-173458238D01*
X27289285Y-173553476D01*
X27241666Y-173743952D01*
X27241666Y-173886809D01*
X27289285Y-174077285D01*
X27336904Y-174172523D01*
X27432142Y-174267761D01*
X27575000Y-174315380D01*
X27670238Y-174315380D01*
X27813095Y-174267761D01*
X27860714Y-174220142D01*
X27860714Y-173886809D01*
X27670238Y-173886809D01*
X28289285Y-174315380D02*
X28289285Y-173315380D01*
X28860714Y-174315380D01*
X28860714Y-173315380D01*
X29336904Y-174315380D02*
X29336904Y-173315380D01*
X29575000Y-173315380D01*
X29717857Y-173363000D01*
X29813095Y-173458238D01*
X29860714Y-173553476D01*
X29908333Y-173743952D01*
X29908333Y-173886809D01*
X29860714Y-174077285D01*
X29813095Y-174172523D01*
X29717857Y-174267761D01*
X29575000Y-174315380D01*
X29336904Y-174315380D01*
X30797666Y-173807428D02*
X31559571Y-173807428D01*
X31178619Y-174188380D02*
X31178619Y-173426476D01*
X32559571Y-174188380D02*
X31988142Y-174188380D01*
X32273857Y-174188380D02*
X32273857Y-173188380D01*
X32178619Y-173331238D01*
X32083380Y-173426476D01*
X31988142Y-173474095D01*
X32940523Y-173283619D02*
X32988142Y-173236000D01*
X33083380Y-173188380D01*
X33321476Y-173188380D01*
X33416714Y-173236000D01*
X33464333Y-173283619D01*
X33511952Y-173378857D01*
X33511952Y-173474095D01*
X33464333Y-173616952D01*
X32892904Y-174188380D01*
X33511952Y-174188380D01*
D11*
%TO.C,C1*%
X42618000Y-168462354D02*
X41618000Y-168462354D01*
X42118000Y-167962354D02*
X42118000Y-168962354D01*
X39842000Y-178523000D02*
X38644000Y-178523000D01*
X40105000Y-178483000D02*
X38381000Y-178483000D01*
X40305000Y-178443000D02*
X38181000Y-178443000D01*
X40473000Y-178403000D02*
X38013000Y-178403000D01*
X40621000Y-178363000D02*
X37865000Y-178363000D01*
X40753000Y-178323000D02*
X37733000Y-178323000D01*
X40873000Y-178283000D02*
X37613000Y-178283000D01*
X40985000Y-178243000D02*
X37501000Y-178243000D01*
X41089000Y-178203000D02*
X37397000Y-178203000D01*
X41187000Y-178163000D02*
X37299000Y-178163000D01*
X41280000Y-178123000D02*
X37206000Y-178123000D01*
X41368000Y-178083000D02*
X37118000Y-178083000D01*
X41452000Y-178043000D02*
X37034000Y-178043000D01*
X41532000Y-178003000D02*
X36954000Y-178003000D01*
X41608000Y-177963000D02*
X36878000Y-177963000D01*
X41682000Y-177923000D02*
X36804000Y-177923000D01*
X41753000Y-177883000D02*
X36733000Y-177883000D01*
X41822000Y-177843000D02*
X36664000Y-177843000D01*
X41888000Y-177803000D02*
X36598000Y-177803000D01*
X41952000Y-177763000D02*
X36534000Y-177763000D01*
X42013000Y-177723000D02*
X36473000Y-177723000D01*
X42073000Y-177683000D02*
X36413000Y-177683000D01*
X42132000Y-177643000D02*
X36354000Y-177643000D01*
X42188000Y-177603000D02*
X36298000Y-177603000D01*
X42243000Y-177563000D02*
X36243000Y-177563000D01*
X42297000Y-177523000D02*
X36189000Y-177523000D01*
X42349000Y-177483000D02*
X36137000Y-177483000D01*
X42399000Y-177443000D02*
X36087000Y-177443000D01*
X42449000Y-177403000D02*
X36037000Y-177403000D01*
X42497000Y-177363000D02*
X35989000Y-177363000D01*
X42544000Y-177323000D02*
X35942000Y-177323000D01*
X42590000Y-177283000D02*
X35896000Y-177283000D01*
X42635000Y-177243000D02*
X35851000Y-177243000D01*
X42679000Y-177203000D02*
X35807000Y-177203000D01*
X38002000Y-177163000D02*
X35765000Y-177163000D01*
X42721000Y-177163000D02*
X40484000Y-177163000D01*
X38002000Y-177123000D02*
X35723000Y-177123000D01*
X42763000Y-177123000D02*
X40484000Y-177123000D01*
X38002000Y-177083000D02*
X35682000Y-177083000D01*
X42804000Y-177083000D02*
X40484000Y-177083000D01*
X38002000Y-177043000D02*
X35642000Y-177043000D01*
X42844000Y-177043000D02*
X40484000Y-177043000D01*
X38002000Y-177003000D02*
X35603000Y-177003000D01*
X42883000Y-177003000D02*
X40484000Y-177003000D01*
X38002000Y-176963000D02*
X35564000Y-176963000D01*
X42922000Y-176963000D02*
X40484000Y-176963000D01*
X38002000Y-176923000D02*
X35527000Y-176923000D01*
X42959000Y-176923000D02*
X40484000Y-176923000D01*
X38002000Y-176883000D02*
X35490000Y-176883000D01*
X42996000Y-176883000D02*
X40484000Y-176883000D01*
X38002000Y-176843000D02*
X35454000Y-176843000D01*
X43032000Y-176843000D02*
X40484000Y-176843000D01*
X38002000Y-176803000D02*
X35419000Y-176803000D01*
X43067000Y-176803000D02*
X40484000Y-176803000D01*
X38002000Y-176763000D02*
X35385000Y-176763000D01*
X43101000Y-176763000D02*
X40484000Y-176763000D01*
X38002000Y-176723000D02*
X35351000Y-176723000D01*
X43135000Y-176723000D02*
X40484000Y-176723000D01*
X38002000Y-176683000D02*
X35318000Y-176683000D01*
X43168000Y-176683000D02*
X40484000Y-176683000D01*
X38002000Y-176643000D02*
X35286000Y-176643000D01*
X43200000Y-176643000D02*
X40484000Y-176643000D01*
X38002000Y-176603000D02*
X35254000Y-176603000D01*
X43232000Y-176603000D02*
X40484000Y-176603000D01*
X38002000Y-176563000D02*
X35223000Y-176563000D01*
X43263000Y-176563000D02*
X40484000Y-176563000D01*
X38002000Y-176523000D02*
X35193000Y-176523000D01*
X43293000Y-176523000D02*
X40484000Y-176523000D01*
X38002000Y-176483000D02*
X35163000Y-176483000D01*
X43323000Y-176483000D02*
X40484000Y-176483000D01*
X38002000Y-176443000D02*
X35133000Y-176443000D01*
X43353000Y-176443000D02*
X40484000Y-176443000D01*
X38002000Y-176403000D02*
X35105000Y-176403000D01*
X43381000Y-176403000D02*
X40484000Y-176403000D01*
X38002000Y-176363000D02*
X35077000Y-176363000D01*
X43409000Y-176363000D02*
X40484000Y-176363000D01*
X38002000Y-176323000D02*
X35049000Y-176323000D01*
X43437000Y-176323000D02*
X40484000Y-176323000D01*
X38002000Y-176283000D02*
X35022000Y-176283000D01*
X43464000Y-176283000D02*
X40484000Y-176283000D01*
X38002000Y-176243000D02*
X34996000Y-176243000D01*
X43490000Y-176243000D02*
X40484000Y-176243000D01*
X38002000Y-176203000D02*
X34970000Y-176203000D01*
X43516000Y-176203000D02*
X40484000Y-176203000D01*
X38002000Y-176163000D02*
X34945000Y-176163000D01*
X43541000Y-176163000D02*
X40484000Y-176163000D01*
X38002000Y-176123000D02*
X34920000Y-176123000D01*
X43566000Y-176123000D02*
X40484000Y-176123000D01*
X38002000Y-176083000D02*
X34896000Y-176083000D01*
X43590000Y-176083000D02*
X40484000Y-176083000D01*
X38002000Y-176043000D02*
X34872000Y-176043000D01*
X43614000Y-176043000D02*
X40484000Y-176043000D01*
X38002000Y-176003000D02*
X34848000Y-176003000D01*
X43638000Y-176003000D02*
X40484000Y-176003000D01*
X38002000Y-175963000D02*
X34826000Y-175963000D01*
X43660000Y-175963000D02*
X40484000Y-175963000D01*
X38002000Y-175923000D02*
X34803000Y-175923000D01*
X43683000Y-175923000D02*
X40484000Y-175923000D01*
X38002000Y-175883000D02*
X34781000Y-175883000D01*
X43705000Y-175883000D02*
X40484000Y-175883000D01*
X38002000Y-175843000D02*
X34760000Y-175843000D01*
X43726000Y-175843000D02*
X40484000Y-175843000D01*
X38002000Y-175803000D02*
X34739000Y-175803000D01*
X43747000Y-175803000D02*
X40484000Y-175803000D01*
X38002000Y-175763000D02*
X34718000Y-175763000D01*
X43768000Y-175763000D02*
X40484000Y-175763000D01*
X38002000Y-175723000D02*
X34698000Y-175723000D01*
X43788000Y-175723000D02*
X40484000Y-175723000D01*
X38002000Y-175683000D02*
X34679000Y-175683000D01*
X43807000Y-175683000D02*
X40484000Y-175683000D01*
X38002000Y-175643000D02*
X34659000Y-175643000D01*
X43827000Y-175643000D02*
X40484000Y-175643000D01*
X38002000Y-175603000D02*
X34640000Y-175603000D01*
X43846000Y-175603000D02*
X40484000Y-175603000D01*
X38002000Y-175563000D02*
X34622000Y-175563000D01*
X43864000Y-175563000D02*
X40484000Y-175563000D01*
X38002000Y-175523000D02*
X34604000Y-175523000D01*
X43882000Y-175523000D02*
X40484000Y-175523000D01*
X38002000Y-175483000D02*
X34586000Y-175483000D01*
X43900000Y-175483000D02*
X40484000Y-175483000D01*
X38002000Y-175443000D02*
X34569000Y-175443000D01*
X43917000Y-175443000D02*
X40484000Y-175443000D01*
X38002000Y-175403000D02*
X34553000Y-175403000D01*
X43933000Y-175403000D02*
X40484000Y-175403000D01*
X38002000Y-175363000D02*
X34536000Y-175363000D01*
X43950000Y-175363000D02*
X40484000Y-175363000D01*
X38002000Y-175323000D02*
X34520000Y-175323000D01*
X43966000Y-175323000D02*
X40484000Y-175323000D01*
X38002000Y-175283000D02*
X34505000Y-175283000D01*
X43981000Y-175283000D02*
X40484000Y-175283000D01*
X38002000Y-175243000D02*
X34489000Y-175243000D01*
X43997000Y-175243000D02*
X40484000Y-175243000D01*
X38002000Y-175203000D02*
X34475000Y-175203000D01*
X44011000Y-175203000D02*
X40484000Y-175203000D01*
X38002000Y-175163000D02*
X34460000Y-175163000D01*
X44026000Y-175163000D02*
X40484000Y-175163000D01*
X38002000Y-175123000D02*
X34446000Y-175123000D01*
X44040000Y-175123000D02*
X40484000Y-175123000D01*
X38002000Y-175083000D02*
X34432000Y-175083000D01*
X44054000Y-175083000D02*
X40484000Y-175083000D01*
X38002000Y-175043000D02*
X34419000Y-175043000D01*
X44067000Y-175043000D02*
X40484000Y-175043000D01*
X38002000Y-175003000D02*
X34406000Y-175003000D01*
X44080000Y-175003000D02*
X40484000Y-175003000D01*
X38002000Y-174963000D02*
X34393000Y-174963000D01*
X44093000Y-174963000D02*
X40484000Y-174963000D01*
X38002000Y-174923000D02*
X34381000Y-174923000D01*
X44105000Y-174923000D02*
X40484000Y-174923000D01*
X38002000Y-174883000D02*
X34369000Y-174883000D01*
X44117000Y-174883000D02*
X40484000Y-174883000D01*
X38002000Y-174843000D02*
X34358000Y-174843000D01*
X44128000Y-174843000D02*
X40484000Y-174843000D01*
X38002000Y-174803000D02*
X34346000Y-174803000D01*
X44140000Y-174803000D02*
X40484000Y-174803000D01*
X38002000Y-174763000D02*
X34336000Y-174763000D01*
X44150000Y-174763000D02*
X40484000Y-174763000D01*
X38002000Y-174723000D02*
X34325000Y-174723000D01*
X44161000Y-174723000D02*
X40484000Y-174723000D01*
X44171000Y-174683000D02*
X34315000Y-174683000D01*
X44181000Y-174643000D02*
X34305000Y-174643000D01*
X44190000Y-174603000D02*
X34296000Y-174603000D01*
X44199000Y-174563000D02*
X34287000Y-174563000D01*
X44208000Y-174523000D02*
X34278000Y-174523000D01*
X44217000Y-174483000D02*
X34269000Y-174483000D01*
X44225000Y-174443000D02*
X34261000Y-174443000D01*
X44233000Y-174403000D02*
X34253000Y-174403000D01*
X44240000Y-174363000D02*
X34246000Y-174363000D01*
X44247000Y-174323000D02*
X34239000Y-174323000D01*
X44254000Y-174283000D02*
X34232000Y-174283000D01*
X44261000Y-174243000D02*
X34225000Y-174243000D01*
X44267000Y-174203000D02*
X34219000Y-174203000D01*
X44273000Y-174163000D02*
X34213000Y-174163000D01*
X44278000Y-174122000D02*
X34208000Y-174122000D01*
X44283000Y-174082000D02*
X34203000Y-174082000D01*
X44288000Y-174042000D02*
X34198000Y-174042000D01*
X44293000Y-174002000D02*
X34193000Y-174002000D01*
X44297000Y-173962000D02*
X34189000Y-173962000D01*
X44301000Y-173922000D02*
X34185000Y-173922000D01*
X44305000Y-173882000D02*
X34181000Y-173882000D01*
X44308000Y-173842000D02*
X34178000Y-173842000D01*
X44311000Y-173802000D02*
X34175000Y-173802000D01*
X44313000Y-173762000D02*
X34173000Y-173762000D01*
X44316000Y-173722000D02*
X34170000Y-173722000D01*
X44318000Y-173682000D02*
X34168000Y-173682000D01*
X44320000Y-173642000D02*
X34166000Y-173642000D01*
X44321000Y-173602000D02*
X34165000Y-173602000D01*
X44322000Y-173562000D02*
X34164000Y-173562000D01*
X44323000Y-173522000D02*
X34163000Y-173522000D01*
X44323000Y-173482000D02*
X34163000Y-173482000D01*
X44323000Y-173442000D02*
X34163000Y-173442000D01*
X44363000Y-173442000D02*
G75*
G03*
X44363000Y-173442000I-5120000J0D01*
G01*
%TO.C,C2*%
X72290000Y-161741422D02*
X72290000Y-162258578D01*
X73710000Y-161741422D02*
X73710000Y-162258578D01*
%TO.C,C3*%
X68120000Y-173315000D02*
G75*
G03*
X68120000Y-173315000I-5120000J0D01*
G01*
X68080000Y-173315000D02*
X57920000Y-173315000D01*
X68080000Y-173355000D02*
X57920000Y-173355000D01*
X68080000Y-173395000D02*
X57920000Y-173395000D01*
X68079000Y-173435000D02*
X57921000Y-173435000D01*
X68078000Y-173475000D02*
X57922000Y-173475000D01*
X68077000Y-173515000D02*
X57923000Y-173515000D01*
X68075000Y-173555000D02*
X57925000Y-173555000D01*
X68073000Y-173595000D02*
X57927000Y-173595000D01*
X68070000Y-173635000D02*
X57930000Y-173635000D01*
X68068000Y-173675000D02*
X57932000Y-173675000D01*
X68065000Y-173715000D02*
X57935000Y-173715000D01*
X68062000Y-173755000D02*
X57938000Y-173755000D01*
X68058000Y-173795000D02*
X57942000Y-173795000D01*
X68054000Y-173835000D02*
X57946000Y-173835000D01*
X68050000Y-173875000D02*
X57950000Y-173875000D01*
X68045000Y-173915000D02*
X57955000Y-173915000D01*
X68040000Y-173955000D02*
X57960000Y-173955000D01*
X68035000Y-173995000D02*
X57965000Y-173995000D01*
X68030000Y-174036000D02*
X57970000Y-174036000D01*
X68024000Y-174076000D02*
X57976000Y-174076000D01*
X68018000Y-174116000D02*
X57982000Y-174116000D01*
X68011000Y-174156000D02*
X57989000Y-174156000D01*
X68004000Y-174196000D02*
X57996000Y-174196000D01*
X67997000Y-174236000D02*
X58003000Y-174236000D01*
X67990000Y-174276000D02*
X58010000Y-174276000D01*
X67982000Y-174316000D02*
X58018000Y-174316000D01*
X67974000Y-174356000D02*
X58026000Y-174356000D01*
X67965000Y-174396000D02*
X58035000Y-174396000D01*
X67956000Y-174436000D02*
X58044000Y-174436000D01*
X67947000Y-174476000D02*
X58053000Y-174476000D01*
X67938000Y-174516000D02*
X58062000Y-174516000D01*
X67928000Y-174556000D02*
X58072000Y-174556000D01*
X67918000Y-174596000D02*
X64241000Y-174596000D01*
X61759000Y-174596000D02*
X58082000Y-174596000D01*
X67907000Y-174636000D02*
X64241000Y-174636000D01*
X61759000Y-174636000D02*
X58093000Y-174636000D01*
X67897000Y-174676000D02*
X64241000Y-174676000D01*
X61759000Y-174676000D02*
X58103000Y-174676000D01*
X67885000Y-174716000D02*
X64241000Y-174716000D01*
X61759000Y-174716000D02*
X58115000Y-174716000D01*
X67874000Y-174756000D02*
X64241000Y-174756000D01*
X61759000Y-174756000D02*
X58126000Y-174756000D01*
X67862000Y-174796000D02*
X64241000Y-174796000D01*
X61759000Y-174796000D02*
X58138000Y-174796000D01*
X67850000Y-174836000D02*
X64241000Y-174836000D01*
X61759000Y-174836000D02*
X58150000Y-174836000D01*
X67837000Y-174876000D02*
X64241000Y-174876000D01*
X61759000Y-174876000D02*
X58163000Y-174876000D01*
X67824000Y-174916000D02*
X64241000Y-174916000D01*
X61759000Y-174916000D02*
X58176000Y-174916000D01*
X67811000Y-174956000D02*
X64241000Y-174956000D01*
X61759000Y-174956000D02*
X58189000Y-174956000D01*
X67797000Y-174996000D02*
X64241000Y-174996000D01*
X61759000Y-174996000D02*
X58203000Y-174996000D01*
X67783000Y-175036000D02*
X64241000Y-175036000D01*
X61759000Y-175036000D02*
X58217000Y-175036000D01*
X67768000Y-175076000D02*
X64241000Y-175076000D01*
X61759000Y-175076000D02*
X58232000Y-175076000D01*
X67754000Y-175116000D02*
X64241000Y-175116000D01*
X61759000Y-175116000D02*
X58246000Y-175116000D01*
X67738000Y-175156000D02*
X64241000Y-175156000D01*
X61759000Y-175156000D02*
X58262000Y-175156000D01*
X67723000Y-175196000D02*
X64241000Y-175196000D01*
X61759000Y-175196000D02*
X58277000Y-175196000D01*
X67707000Y-175236000D02*
X64241000Y-175236000D01*
X61759000Y-175236000D02*
X58293000Y-175236000D01*
X67690000Y-175276000D02*
X64241000Y-175276000D01*
X61759000Y-175276000D02*
X58310000Y-175276000D01*
X67674000Y-175316000D02*
X64241000Y-175316000D01*
X61759000Y-175316000D02*
X58326000Y-175316000D01*
X67657000Y-175356000D02*
X64241000Y-175356000D01*
X61759000Y-175356000D02*
X58343000Y-175356000D01*
X67639000Y-175396000D02*
X64241000Y-175396000D01*
X61759000Y-175396000D02*
X58361000Y-175396000D01*
X67621000Y-175436000D02*
X64241000Y-175436000D01*
X61759000Y-175436000D02*
X58379000Y-175436000D01*
X67603000Y-175476000D02*
X64241000Y-175476000D01*
X61759000Y-175476000D02*
X58397000Y-175476000D01*
X67584000Y-175516000D02*
X64241000Y-175516000D01*
X61759000Y-175516000D02*
X58416000Y-175516000D01*
X67564000Y-175556000D02*
X64241000Y-175556000D01*
X61759000Y-175556000D02*
X58436000Y-175556000D01*
X67545000Y-175596000D02*
X64241000Y-175596000D01*
X61759000Y-175596000D02*
X58455000Y-175596000D01*
X67525000Y-175636000D02*
X64241000Y-175636000D01*
X61759000Y-175636000D02*
X58475000Y-175636000D01*
X67504000Y-175676000D02*
X64241000Y-175676000D01*
X61759000Y-175676000D02*
X58496000Y-175676000D01*
X67483000Y-175716000D02*
X64241000Y-175716000D01*
X61759000Y-175716000D02*
X58517000Y-175716000D01*
X67462000Y-175756000D02*
X64241000Y-175756000D01*
X61759000Y-175756000D02*
X58538000Y-175756000D01*
X67440000Y-175796000D02*
X64241000Y-175796000D01*
X61759000Y-175796000D02*
X58560000Y-175796000D01*
X67417000Y-175836000D02*
X64241000Y-175836000D01*
X61759000Y-175836000D02*
X58583000Y-175836000D01*
X67395000Y-175876000D02*
X64241000Y-175876000D01*
X61759000Y-175876000D02*
X58605000Y-175876000D01*
X67371000Y-175916000D02*
X64241000Y-175916000D01*
X61759000Y-175916000D02*
X58629000Y-175916000D01*
X67347000Y-175956000D02*
X64241000Y-175956000D01*
X61759000Y-175956000D02*
X58653000Y-175956000D01*
X67323000Y-175996000D02*
X64241000Y-175996000D01*
X61759000Y-175996000D02*
X58677000Y-175996000D01*
X67298000Y-176036000D02*
X64241000Y-176036000D01*
X61759000Y-176036000D02*
X58702000Y-176036000D01*
X67273000Y-176076000D02*
X64241000Y-176076000D01*
X61759000Y-176076000D02*
X58727000Y-176076000D01*
X67247000Y-176116000D02*
X64241000Y-176116000D01*
X61759000Y-176116000D02*
X58753000Y-176116000D01*
X67221000Y-176156000D02*
X64241000Y-176156000D01*
X61759000Y-176156000D02*
X58779000Y-176156000D01*
X67194000Y-176196000D02*
X64241000Y-176196000D01*
X61759000Y-176196000D02*
X58806000Y-176196000D01*
X67166000Y-176236000D02*
X64241000Y-176236000D01*
X61759000Y-176236000D02*
X58834000Y-176236000D01*
X67138000Y-176276000D02*
X64241000Y-176276000D01*
X61759000Y-176276000D02*
X58862000Y-176276000D01*
X67110000Y-176316000D02*
X64241000Y-176316000D01*
X61759000Y-176316000D02*
X58890000Y-176316000D01*
X67080000Y-176356000D02*
X64241000Y-176356000D01*
X61759000Y-176356000D02*
X58920000Y-176356000D01*
X67050000Y-176396000D02*
X64241000Y-176396000D01*
X61759000Y-176396000D02*
X58950000Y-176396000D01*
X67020000Y-176436000D02*
X64241000Y-176436000D01*
X61759000Y-176436000D02*
X58980000Y-176436000D01*
X66989000Y-176476000D02*
X64241000Y-176476000D01*
X61759000Y-176476000D02*
X59011000Y-176476000D01*
X66957000Y-176516000D02*
X64241000Y-176516000D01*
X61759000Y-176516000D02*
X59043000Y-176516000D01*
X66925000Y-176556000D02*
X64241000Y-176556000D01*
X61759000Y-176556000D02*
X59075000Y-176556000D01*
X66892000Y-176596000D02*
X64241000Y-176596000D01*
X61759000Y-176596000D02*
X59108000Y-176596000D01*
X66858000Y-176636000D02*
X64241000Y-176636000D01*
X61759000Y-176636000D02*
X59142000Y-176636000D01*
X66824000Y-176676000D02*
X64241000Y-176676000D01*
X61759000Y-176676000D02*
X59176000Y-176676000D01*
X66789000Y-176716000D02*
X64241000Y-176716000D01*
X61759000Y-176716000D02*
X59211000Y-176716000D01*
X66753000Y-176756000D02*
X64241000Y-176756000D01*
X61759000Y-176756000D02*
X59247000Y-176756000D01*
X66716000Y-176796000D02*
X64241000Y-176796000D01*
X61759000Y-176796000D02*
X59284000Y-176796000D01*
X66679000Y-176836000D02*
X64241000Y-176836000D01*
X61759000Y-176836000D02*
X59321000Y-176836000D01*
X66640000Y-176876000D02*
X64241000Y-176876000D01*
X61759000Y-176876000D02*
X59360000Y-176876000D01*
X66601000Y-176916000D02*
X64241000Y-176916000D01*
X61759000Y-176916000D02*
X59399000Y-176916000D01*
X66561000Y-176956000D02*
X64241000Y-176956000D01*
X61759000Y-176956000D02*
X59439000Y-176956000D01*
X66520000Y-176996000D02*
X64241000Y-176996000D01*
X61759000Y-176996000D02*
X59480000Y-176996000D01*
X66478000Y-177036000D02*
X64241000Y-177036000D01*
X61759000Y-177036000D02*
X59522000Y-177036000D01*
X66436000Y-177076000D02*
X59564000Y-177076000D01*
X66392000Y-177116000D02*
X59608000Y-177116000D01*
X66347000Y-177156000D02*
X59653000Y-177156000D01*
X66301000Y-177196000D02*
X59699000Y-177196000D01*
X66254000Y-177236000D02*
X59746000Y-177236000D01*
X66206000Y-177276000D02*
X59794000Y-177276000D01*
X66156000Y-177316000D02*
X59844000Y-177316000D01*
X66106000Y-177356000D02*
X59894000Y-177356000D01*
X66054000Y-177396000D02*
X59946000Y-177396000D01*
X66000000Y-177436000D02*
X60000000Y-177436000D01*
X65945000Y-177476000D02*
X60055000Y-177476000D01*
X65889000Y-177516000D02*
X60111000Y-177516000D01*
X65830000Y-177556000D02*
X60170000Y-177556000D01*
X65770000Y-177596000D02*
X60230000Y-177596000D01*
X65709000Y-177636000D02*
X60291000Y-177636000D01*
X65645000Y-177676000D02*
X60355000Y-177676000D01*
X65579000Y-177716000D02*
X60421000Y-177716000D01*
X65510000Y-177756000D02*
X60490000Y-177756000D01*
X65439000Y-177796000D02*
X60561000Y-177796000D01*
X65365000Y-177836000D02*
X60635000Y-177836000D01*
X65289000Y-177876000D02*
X60711000Y-177876000D01*
X65209000Y-177916000D02*
X60791000Y-177916000D01*
X65125000Y-177956000D02*
X60875000Y-177956000D01*
X65037000Y-177996000D02*
X60963000Y-177996000D01*
X64944000Y-178036000D02*
X61056000Y-178036000D01*
X64846000Y-178076000D02*
X61154000Y-178076000D01*
X64742000Y-178116000D02*
X61258000Y-178116000D01*
X64630000Y-178156000D02*
X61370000Y-178156000D01*
X64510000Y-178196000D02*
X61490000Y-178196000D01*
X64378000Y-178236000D02*
X61622000Y-178236000D01*
X64230000Y-178276000D02*
X61770000Y-178276000D01*
X64062000Y-178316000D02*
X61938000Y-178316000D01*
X63862000Y-178356000D02*
X62138000Y-178356000D01*
X63599000Y-178396000D02*
X62401000Y-178396000D01*
X65875000Y-167835354D02*
X65875000Y-168835354D01*
X66375000Y-168335354D02*
X65375000Y-168335354D01*
%TO.C,C4*%
X69902000Y-140212578D02*
X69902000Y-139695422D01*
X71322000Y-140212578D02*
X71322000Y-139695422D01*
%TO.C,C5*%
X71741422Y-152290000D02*
X72258578Y-152290000D01*
X71741422Y-153710000D02*
X72258578Y-153710000D01*
%TO.C,D1*%
X37710000Y-155080000D02*
X37710000Y-155236000D01*
X37710000Y-152764000D02*
X37710000Y-152920000D01*
X40311130Y-155079837D02*
G75*
G02*
X38229039Y-155080000I-1041130J1079837D01*
G01*
X40311130Y-152920163D02*
G75*
G03*
X38229039Y-152920000I-1041130J-1079837D01*
G01*
X40942335Y-155078608D02*
G75*
G02*
X37710000Y-155235516I-1672335J1078608D01*
G01*
X40942335Y-152921392D02*
G75*
G03*
X37710000Y-152764484I-1672335J-1078608D01*
G01*
%TO.C,D2*%
X37710000Y-158764000D02*
X37710000Y-158920000D01*
X37710000Y-161080000D02*
X37710000Y-161236000D01*
X40942335Y-158921392D02*
G75*
G03*
X37710000Y-158764484I-1672335J-1078608D01*
G01*
X40942335Y-161078608D02*
G75*
G02*
X37710000Y-161235516I-1672335J1078608D01*
G01*
X40311130Y-158920163D02*
G75*
G03*
X38229039Y-158920000I-1041130J-1079837D01*
G01*
X40311130Y-161079837D02*
G75*
G02*
X38229039Y-161080000I-1041130J1079837D01*
G01*
%TO.C,J1*%
X32953000Y-175327000D02*
X32953000Y-176657000D01*
X31623000Y-175327000D02*
X32953000Y-175327000D01*
X30353000Y-175327000D02*
X30353000Y-177987000D01*
X30353000Y-177987000D02*
X27753000Y-177987000D01*
X30353000Y-175327000D02*
X27753000Y-175327000D01*
X27753000Y-175327000D02*
X27753000Y-177987000D01*
%TO.C,J2*%
X74670000Y-164870000D02*
X77330000Y-164870000D01*
X74670000Y-162270000D02*
X74670000Y-164870000D01*
X77330000Y-162270000D02*
X77330000Y-164870000D01*
X74670000Y-162270000D02*
X77330000Y-162270000D01*
X74670000Y-161000000D02*
X74670000Y-159670000D01*
X74670000Y-159670000D02*
X76000000Y-159670000D01*
%TO.C,J3*%
X77330000Y-140510000D02*
X74670000Y-140510000D01*
X77330000Y-150730000D02*
X77330000Y-140510000D01*
X74670000Y-150730000D02*
X74670000Y-140510000D01*
X77330000Y-150730000D02*
X74670000Y-150730000D01*
X77330000Y-152000000D02*
X77330000Y-153330000D01*
X77330000Y-153330000D02*
X76000000Y-153330000D01*
%TO.C,J4*%
X53430000Y-133670000D02*
X53430000Y-136330000D01*
X68730000Y-133670000D02*
X53430000Y-133670000D01*
X68730000Y-136330000D02*
X53430000Y-136330000D01*
X68730000Y-133670000D02*
X68730000Y-136330000D01*
X70000000Y-133670000D02*
X71330000Y-133670000D01*
X71330000Y-133670000D02*
X71330000Y-135000000D01*
%TO.C,J5*%
X35970000Y-133670000D02*
X35970000Y-136330000D01*
X48730000Y-133670000D02*
X35970000Y-133670000D01*
X48730000Y-136330000D02*
X35970000Y-136330000D01*
X48730000Y-133670000D02*
X48730000Y-136330000D01*
X50000000Y-133670000D02*
X51330000Y-133670000D01*
X51330000Y-133670000D02*
X51330000Y-135000000D01*
%TO.C,J6*%
X49330000Y-151130000D02*
X46670000Y-151130000D01*
X49330000Y-153730000D02*
X49330000Y-151130000D01*
X46670000Y-153730000D02*
X46670000Y-151130000D01*
X49330000Y-153730000D02*
X46670000Y-153730000D01*
X49330000Y-155000000D02*
X49330000Y-156330000D01*
X49330000Y-156330000D02*
X48000000Y-156330000D01*
%TO.C,J7*%
X26590000Y-133670000D02*
X26590000Y-136330000D01*
X31730000Y-133670000D02*
X26590000Y-133670000D01*
X31730000Y-136330000D02*
X26590000Y-136330000D01*
X31730000Y-133670000D02*
X31730000Y-136330000D01*
X33000000Y-133670000D02*
X34330000Y-133670000D01*
X34330000Y-133670000D02*
X34330000Y-135000000D01*
%TO.C,J8*%
X25540000Y-157380000D02*
X25540000Y-167540000D01*
X26810000Y-157380000D02*
X19190000Y-157380000D01*
X19190000Y-157380000D02*
X19190000Y-167540000D01*
X19190000Y-167540000D02*
X26810000Y-167540000D01*
X26810000Y-167540000D02*
X26810000Y-157380000D01*
D12*
%TO.C,K1*%
X32301000Y-145459000D02*
X32301000Y-166541000D01*
X32301000Y-166541000D02*
X28999000Y-166541000D01*
X28999000Y-166541000D02*
X28999000Y-145459000D01*
X28999000Y-145459000D02*
X32301000Y-145459000D01*
D13*
X32901000Y-147000000D02*
X32901000Y-147000000D01*
X32901000Y-147200000D02*
X32901000Y-147200000D01*
X32901000Y-147200000D02*
G75*
G03*
X32901000Y-147000000I0J100000D01*
G01*
X32901000Y-147000000D02*
G75*
G03*
X32901000Y-147200000I0J-100000D01*
G01*
D11*
%TO.C,Q1*%
X36190000Y-141929000D02*
X36190000Y-140829000D01*
X35920000Y-141929000D02*
X36190000Y-141929000D01*
X35920000Y-143429000D02*
X35920000Y-141929000D01*
X42550000Y-141929000D02*
X42550000Y-139099000D01*
X42820000Y-141929000D02*
X42550000Y-141929000D01*
X42820000Y-143429000D02*
X42820000Y-141929000D01*
%TO.C,R1*%
X44550000Y-164630000D02*
X44550000Y-169370000D01*
X44550000Y-169370000D02*
X56690000Y-169370000D01*
X56690000Y-169370000D02*
X56690000Y-164630000D01*
X56690000Y-164630000D02*
X44550000Y-164630000D01*
X44440000Y-167000000D02*
X44550000Y-167000000D01*
X56800000Y-167000000D02*
X56690000Y-167000000D01*
%TO.C,R2*%
X73655422Y-157913000D02*
X74172578Y-157913000D01*
X73655422Y-159333000D02*
X74172578Y-159333000D01*
%TO.C,R3*%
X70410000Y-144013422D02*
X70410000Y-144530578D01*
X71830000Y-144013422D02*
X71830000Y-144530578D01*
%TO.C,R4*%
X72258578Y-156710000D02*
X71741422Y-156710000D01*
X72258578Y-155290000D02*
X71741422Y-155290000D01*
%TO.C,R5*%
X43741422Y-154710000D02*
X44258578Y-154710000D01*
X43741422Y-153290000D02*
X44258578Y-153290000D01*
%TO.C,R6*%
X47683422Y-140410000D02*
X48200578Y-140410000D01*
X47683422Y-138990000D02*
X48200578Y-138990000D01*
%TO.C,R7*%
X47683422Y-142038000D02*
X48200578Y-142038000D01*
X47683422Y-143458000D02*
X48200578Y-143458000D01*
%TO.C,R8*%
X47683422Y-145086000D02*
X48200578Y-145086000D01*
X47683422Y-146506000D02*
X48200578Y-146506000D01*
%TO.C,R9*%
X47683422Y-149173000D02*
X48200578Y-149173000D01*
X47683422Y-147753000D02*
X48200578Y-147753000D01*
%TO.C,R10*%
X40263578Y-164159000D02*
X39746422Y-164159000D01*
X40263578Y-162739000D02*
X39746422Y-162739000D01*
%TO.C,R11*%
X26710000Y-148258578D02*
X26710000Y-147741422D01*
X25290000Y-148258578D02*
X25290000Y-147741422D01*
%TO.C,SW1*%
X71300000Y-171300000D02*
X71750000Y-171750000D01*
X74700000Y-171300000D02*
X74250000Y-171750000D01*
X74700000Y-166700000D02*
X74250000Y-166250000D01*
X71300000Y-166700000D02*
X71750000Y-166250000D01*
X75750000Y-168000000D02*
X75750000Y-170000000D01*
X71750000Y-171750000D02*
X74250000Y-171750000D01*
X70250000Y-168000000D02*
X70250000Y-170000000D01*
X71750000Y-166250000D02*
X74250000Y-166250000D01*
%TO.C,J9*%
X49336000Y-157801000D02*
X46676000Y-157801000D01*
X49336000Y-160401000D02*
X49336000Y-157801000D01*
X46676000Y-160401000D02*
X46676000Y-157801000D01*
X49336000Y-160401000D02*
X46676000Y-160401000D01*
X49336000Y-161671000D02*
X49336000Y-163001000D01*
X49336000Y-163001000D02*
X48006000Y-163001000D01*
%TO.C,U2*%
X48457000Y-176535000D02*
X47357000Y-176535000D01*
X48457000Y-176805000D02*
X48457000Y-176535000D01*
X49957000Y-176805000D02*
X48457000Y-176805000D01*
X48457000Y-170175000D02*
X45627000Y-170175000D01*
X48457000Y-169905000D02*
X48457000Y-170175000D01*
X49957000Y-169905000D02*
X48457000Y-169905000D01*
D14*
%TO.C,U1*%
X68072000Y-140208000D02*
X68072000Y-139446000D01*
X68072000Y-139446000D02*
X52070000Y-139446000D01*
X52070000Y-139446000D02*
X52070000Y-140208000D01*
D11*
%TO.C,JP1*%
X44277000Y-159001000D02*
X44877000Y-159001000D01*
X43577000Y-161101000D02*
X43577000Y-159701000D01*
X44877000Y-161801000D02*
X44277000Y-161801000D01*
X45577000Y-159701000D02*
X45577000Y-161101000D01*
X45577000Y-161101000D02*
G75*
G02*
X44877000Y-161801000I-700000J0D01*
G01*
X44277000Y-161801000D02*
G75*
G02*
X43577000Y-161101000I0J700000D01*
G01*
X43577000Y-159701000D02*
G75*
G02*
X44277000Y-159001000I700000J0D01*
G01*
X44877000Y-159001000D02*
G75*
G02*
X45577000Y-159701000I0J-700000D01*
G01*
%TO.C,C1*%
D10*
X45850142Y-173608666D02*
X45897761Y-173656285D01*
X45945380Y-173799142D01*
X45945380Y-173894380D01*
X45897761Y-174037238D01*
X45802523Y-174132476D01*
X45707285Y-174180095D01*
X45516809Y-174227714D01*
X45373952Y-174227714D01*
X45183476Y-174180095D01*
X45088238Y-174132476D01*
X44993000Y-174037238D01*
X44945380Y-173894380D01*
X44945380Y-173799142D01*
X44993000Y-173656285D01*
X45040619Y-173608666D01*
X45945380Y-172656285D02*
X45945380Y-173227714D01*
X45945380Y-172942000D02*
X44945380Y-172942000D01*
X45088238Y-173037238D01*
X45183476Y-173132476D01*
X45231095Y-173227714D01*
%TO.C,C2*%
X71731142Y-162345666D02*
X71778761Y-162393285D01*
X71826380Y-162536142D01*
X71826380Y-162631380D01*
X71778761Y-162774238D01*
X71683523Y-162869476D01*
X71588285Y-162917095D01*
X71397809Y-162964714D01*
X71254952Y-162964714D01*
X71064476Y-162917095D01*
X70969238Y-162869476D01*
X70874000Y-162774238D01*
X70826380Y-162631380D01*
X70826380Y-162536142D01*
X70874000Y-162393285D01*
X70921619Y-162345666D01*
X70921619Y-161964714D02*
X70874000Y-161917095D01*
X70826380Y-161821857D01*
X70826380Y-161583761D01*
X70874000Y-161488523D01*
X70921619Y-161440904D01*
X71016857Y-161393285D01*
X71112095Y-161393285D01*
X71254952Y-161440904D01*
X71826380Y-162012333D01*
X71826380Y-161393285D01*
%TO.C,C3*%
X69607142Y-173481666D02*
X69654761Y-173529285D01*
X69702380Y-173672142D01*
X69702380Y-173767380D01*
X69654761Y-173910238D01*
X69559523Y-174005476D01*
X69464285Y-174053095D01*
X69273809Y-174100714D01*
X69130952Y-174100714D01*
X68940476Y-174053095D01*
X68845238Y-174005476D01*
X68750000Y-173910238D01*
X68702380Y-173767380D01*
X68702380Y-173672142D01*
X68750000Y-173529285D01*
X68797619Y-173481666D01*
X68702380Y-173148333D02*
X68702380Y-172529285D01*
X69083333Y-172862619D01*
X69083333Y-172719761D01*
X69130952Y-172624523D01*
X69178571Y-172576904D01*
X69273809Y-172529285D01*
X69511904Y-172529285D01*
X69607142Y-172576904D01*
X69654761Y-172624523D01*
X69702380Y-172719761D01*
X69702380Y-173005476D01*
X69654761Y-173100714D01*
X69607142Y-173148333D01*
%TO.C,C4*%
X72747142Y-140120666D02*
X72794761Y-140168285D01*
X72842380Y-140311142D01*
X72842380Y-140406380D01*
X72794761Y-140549238D01*
X72699523Y-140644476D01*
X72604285Y-140692095D01*
X72413809Y-140739714D01*
X72270952Y-140739714D01*
X72080476Y-140692095D01*
X71985238Y-140644476D01*
X71890000Y-140549238D01*
X71842380Y-140406380D01*
X71842380Y-140311142D01*
X71890000Y-140168285D01*
X71937619Y-140120666D01*
X72175714Y-139263523D02*
X72842380Y-139263523D01*
X71794761Y-139501619D02*
X72509047Y-139739714D01*
X72509047Y-139120666D01*
%TO.C,C5*%
X71833333Y-151707142D02*
X71785714Y-151754761D01*
X71642857Y-151802380D01*
X71547619Y-151802380D01*
X71404761Y-151754761D01*
X71309523Y-151659523D01*
X71261904Y-151564285D01*
X71214285Y-151373809D01*
X71214285Y-151230952D01*
X71261904Y-151040476D01*
X71309523Y-150945238D01*
X71404761Y-150850000D01*
X71547619Y-150802380D01*
X71642857Y-150802380D01*
X71785714Y-150850000D01*
X71833333Y-150897619D01*
X72738095Y-150802380D02*
X72261904Y-150802380D01*
X72214285Y-151278571D01*
X72261904Y-151230952D01*
X72357142Y-151183333D01*
X72595238Y-151183333D01*
X72690476Y-151230952D01*
X72738095Y-151278571D01*
X72785714Y-151373809D01*
X72785714Y-151611904D01*
X72738095Y-151707142D01*
X72690476Y-151754761D01*
X72595238Y-151802380D01*
X72357142Y-151802380D01*
X72261904Y-151754761D01*
X72214285Y-151707142D01*
%TO.C,D1*%
X38531904Y-151492380D02*
X38531904Y-150492380D01*
X38770000Y-150492380D01*
X38912857Y-150540000D01*
X39008095Y-150635238D01*
X39055714Y-150730476D01*
X39103333Y-150920952D01*
X39103333Y-151063809D01*
X39055714Y-151254285D01*
X39008095Y-151349523D01*
X38912857Y-151444761D01*
X38770000Y-151492380D01*
X38531904Y-151492380D01*
X40055714Y-151492380D02*
X39484285Y-151492380D01*
X39770000Y-151492380D02*
X39770000Y-150492380D01*
X39674761Y-150635238D01*
X39579523Y-150730476D01*
X39484285Y-150778095D01*
%TO.C,D2*%
X38531904Y-157492380D02*
X38531904Y-156492380D01*
X38770000Y-156492380D01*
X38912857Y-156540000D01*
X39008095Y-156635238D01*
X39055714Y-156730476D01*
X39103333Y-156920952D01*
X39103333Y-157063809D01*
X39055714Y-157254285D01*
X39008095Y-157349523D01*
X38912857Y-157444761D01*
X38770000Y-157492380D01*
X38531904Y-157492380D01*
X39484285Y-156587619D02*
X39531904Y-156540000D01*
X39627142Y-156492380D01*
X39865238Y-156492380D01*
X39960476Y-156540000D01*
X40008095Y-156587619D01*
X40055714Y-156682857D01*
X40055714Y-156778095D01*
X40008095Y-156920952D01*
X39436666Y-157492380D01*
X40055714Y-157492380D01*
%TO.C,K1*%
D15*
X31574523Y-156937380D02*
X30304523Y-156937380D01*
X31574523Y-156211666D02*
X30848809Y-156755952D01*
X30304523Y-156211666D02*
X31030238Y-156937380D01*
X31574523Y-155002142D02*
X31574523Y-155727857D01*
X31574523Y-155365000D02*
X30304523Y-155365000D01*
X30485952Y-155485952D01*
X30606904Y-155606904D01*
X30667380Y-155727857D01*
%TO.C,Q1*%
D10*
X44417619Y-144494238D02*
X44370000Y-144589476D01*
X44274761Y-144684714D01*
X44131904Y-144827571D01*
X44084285Y-144922809D01*
X44084285Y-145018047D01*
X44322380Y-144970428D02*
X44274761Y-145065666D01*
X44179523Y-145160904D01*
X43989047Y-145208523D01*
X43655714Y-145208523D01*
X43465238Y-145160904D01*
X43370000Y-145065666D01*
X43322380Y-144970428D01*
X43322380Y-144779952D01*
X43370000Y-144684714D01*
X43465238Y-144589476D01*
X43655714Y-144541857D01*
X43989047Y-144541857D01*
X44179523Y-144589476D01*
X44274761Y-144684714D01*
X44322380Y-144779952D01*
X44322380Y-144970428D01*
X44322380Y-143589476D02*
X44322380Y-144160904D01*
X44322380Y-143875190D02*
X43322380Y-143875190D01*
X43465238Y-143970428D01*
X43560476Y-144065666D01*
X43608095Y-144160904D01*
%TO.C,R1*%
X50633333Y-167076380D02*
X50300000Y-166600190D01*
X50061904Y-167076380D02*
X50061904Y-166076380D01*
X50442857Y-166076380D01*
X50538095Y-166124000D01*
X50585714Y-166171619D01*
X50633333Y-166266857D01*
X50633333Y-166409714D01*
X50585714Y-166504952D01*
X50538095Y-166552571D01*
X50442857Y-166600190D01*
X50061904Y-166600190D01*
X51585714Y-167076380D02*
X51014285Y-167076380D01*
X51300000Y-167076380D02*
X51300000Y-166076380D01*
X51204761Y-166219238D01*
X51109523Y-166314476D01*
X51014285Y-166362095D01*
%TO.C,R2*%
X76414333Y-158821380D02*
X76081000Y-158345190D01*
X75842904Y-158821380D02*
X75842904Y-157821380D01*
X76223857Y-157821380D01*
X76319095Y-157869000D01*
X76366714Y-157916619D01*
X76414333Y-158011857D01*
X76414333Y-158154714D01*
X76366714Y-158249952D01*
X76319095Y-158297571D01*
X76223857Y-158345190D01*
X75842904Y-158345190D01*
X76795285Y-157916619D02*
X76842904Y-157869000D01*
X76938142Y-157821380D01*
X77176238Y-157821380D01*
X77271476Y-157869000D01*
X77319095Y-157916619D01*
X77366714Y-158011857D01*
X77366714Y-158107095D01*
X77319095Y-158249952D01*
X76747666Y-158821380D01*
X77366714Y-158821380D01*
%TO.C,R3*%
X73222380Y-144438666D02*
X72746190Y-144772000D01*
X73222380Y-145010095D02*
X72222380Y-145010095D01*
X72222380Y-144629142D01*
X72270000Y-144533904D01*
X72317619Y-144486285D01*
X72412857Y-144438666D01*
X72555714Y-144438666D01*
X72650952Y-144486285D01*
X72698571Y-144533904D01*
X72746190Y-144629142D01*
X72746190Y-145010095D01*
X72222380Y-144105333D02*
X72222380Y-143486285D01*
X72603333Y-143819619D01*
X72603333Y-143676761D01*
X72650952Y-143581523D01*
X72698571Y-143533904D01*
X72793809Y-143486285D01*
X73031904Y-143486285D01*
X73127142Y-143533904D01*
X73174761Y-143581523D01*
X73222380Y-143676761D01*
X73222380Y-143962476D01*
X73174761Y-144057714D01*
X73127142Y-144105333D01*
%TO.C,R4*%
X70953333Y-158186380D02*
X70620000Y-157710190D01*
X70381904Y-158186380D02*
X70381904Y-157186380D01*
X70762857Y-157186380D01*
X70858095Y-157234000D01*
X70905714Y-157281619D01*
X70953333Y-157376857D01*
X70953333Y-157519714D01*
X70905714Y-157614952D01*
X70858095Y-157662571D01*
X70762857Y-157710190D01*
X70381904Y-157710190D01*
X71810476Y-157519714D02*
X71810476Y-158186380D01*
X71572380Y-157138761D02*
X71334285Y-157853047D01*
X71953333Y-157853047D01*
%TO.C,R5*%
X43833333Y-152802380D02*
X43500000Y-152326190D01*
X43261904Y-152802380D02*
X43261904Y-151802380D01*
X43642857Y-151802380D01*
X43738095Y-151850000D01*
X43785714Y-151897619D01*
X43833333Y-151992857D01*
X43833333Y-152135714D01*
X43785714Y-152230952D01*
X43738095Y-152278571D01*
X43642857Y-152326190D01*
X43261904Y-152326190D01*
X44738095Y-151802380D02*
X44261904Y-151802380D01*
X44214285Y-152278571D01*
X44261904Y-152230952D01*
X44357142Y-152183333D01*
X44595238Y-152183333D01*
X44690476Y-152230952D01*
X44738095Y-152278571D01*
X44785714Y-152373809D01*
X44785714Y-152611904D01*
X44738095Y-152707142D01*
X44690476Y-152754761D01*
X44595238Y-152802380D01*
X44357142Y-152802380D01*
X44261904Y-152754761D01*
X44214285Y-152707142D01*
%TO.C,R6*%
X47775333Y-138502380D02*
X47442000Y-138026190D01*
X47203904Y-138502380D02*
X47203904Y-137502380D01*
X47584857Y-137502380D01*
X47680095Y-137550000D01*
X47727714Y-137597619D01*
X47775333Y-137692857D01*
X47775333Y-137835714D01*
X47727714Y-137930952D01*
X47680095Y-137978571D01*
X47584857Y-138026190D01*
X47203904Y-138026190D01*
X48632476Y-137502380D02*
X48442000Y-137502380D01*
X48346761Y-137550000D01*
X48299142Y-137597619D01*
X48203904Y-137740476D01*
X48156285Y-137930952D01*
X48156285Y-138311904D01*
X48203904Y-138407142D01*
X48251523Y-138454761D01*
X48346761Y-138502380D01*
X48537238Y-138502380D01*
X48632476Y-138454761D01*
X48680095Y-138407142D01*
X48727714Y-138311904D01*
X48727714Y-138073809D01*
X48680095Y-137978571D01*
X48632476Y-137930952D01*
X48537238Y-137883333D01*
X48346761Y-137883333D01*
X48251523Y-137930952D01*
X48203904Y-137978571D01*
X48156285Y-138073809D01*
%TO.C,R7*%
X47775333Y-141550380D02*
X47442000Y-141074190D01*
X47203904Y-141550380D02*
X47203904Y-140550380D01*
X47584857Y-140550380D01*
X47680095Y-140598000D01*
X47727714Y-140645619D01*
X47775333Y-140740857D01*
X47775333Y-140883714D01*
X47727714Y-140978952D01*
X47680095Y-141026571D01*
X47584857Y-141074190D01*
X47203904Y-141074190D01*
X48108666Y-140550380D02*
X48775333Y-140550380D01*
X48346761Y-141550380D01*
%TO.C,R8*%
X47775333Y-144598380D02*
X47442000Y-144122190D01*
X47203904Y-144598380D02*
X47203904Y-143598380D01*
X47584857Y-143598380D01*
X47680095Y-143646000D01*
X47727714Y-143693619D01*
X47775333Y-143788857D01*
X47775333Y-143931714D01*
X47727714Y-144026952D01*
X47680095Y-144074571D01*
X47584857Y-144122190D01*
X47203904Y-144122190D01*
X48346761Y-144026952D02*
X48251523Y-143979333D01*
X48203904Y-143931714D01*
X48156285Y-143836476D01*
X48156285Y-143788857D01*
X48203904Y-143693619D01*
X48251523Y-143646000D01*
X48346761Y-143598380D01*
X48537238Y-143598380D01*
X48632476Y-143646000D01*
X48680095Y-143693619D01*
X48727714Y-143788857D01*
X48727714Y-143836476D01*
X48680095Y-143931714D01*
X48632476Y-143979333D01*
X48537238Y-144026952D01*
X48346761Y-144026952D01*
X48251523Y-144074571D01*
X48203904Y-144122190D01*
X48156285Y-144217428D01*
X48156285Y-144407904D01*
X48203904Y-144503142D01*
X48251523Y-144550761D01*
X48346761Y-144598380D01*
X48537238Y-144598380D01*
X48632476Y-144550761D01*
X48680095Y-144503142D01*
X48727714Y-144407904D01*
X48727714Y-144217428D01*
X48680095Y-144122190D01*
X48632476Y-144074571D01*
X48537238Y-144026952D01*
%TO.C,R9*%
X47775333Y-147265380D02*
X47442000Y-146789190D01*
X47203904Y-147265380D02*
X47203904Y-146265380D01*
X47584857Y-146265380D01*
X47680095Y-146313000D01*
X47727714Y-146360619D01*
X47775333Y-146455857D01*
X47775333Y-146598714D01*
X47727714Y-146693952D01*
X47680095Y-146741571D01*
X47584857Y-146789190D01*
X47203904Y-146789190D01*
X48251523Y-147265380D02*
X48442000Y-147265380D01*
X48537238Y-147217761D01*
X48584857Y-147170142D01*
X48680095Y-147027285D01*
X48727714Y-146836809D01*
X48727714Y-146455857D01*
X48680095Y-146360619D01*
X48632476Y-146313000D01*
X48537238Y-146265380D01*
X48346761Y-146265380D01*
X48251523Y-146313000D01*
X48203904Y-146360619D01*
X48156285Y-146455857D01*
X48156285Y-146693952D01*
X48203904Y-146789190D01*
X48251523Y-146836809D01*
X48346761Y-146884428D01*
X48537238Y-146884428D01*
X48632476Y-146836809D01*
X48680095Y-146789190D01*
X48727714Y-146693952D01*
%TO.C,R10*%
X39304142Y-162143380D02*
X38970809Y-161667190D01*
X38732714Y-162143380D02*
X38732714Y-161143380D01*
X39113666Y-161143380D01*
X39208904Y-161191000D01*
X39256523Y-161238619D01*
X39304142Y-161333857D01*
X39304142Y-161476714D01*
X39256523Y-161571952D01*
X39208904Y-161619571D01*
X39113666Y-161667190D01*
X38732714Y-161667190D01*
X40256523Y-162143380D02*
X39685095Y-162143380D01*
X39970809Y-162143380D02*
X39970809Y-161143380D01*
X39875571Y-161286238D01*
X39780333Y-161381476D01*
X39685095Y-161429095D01*
X40875571Y-161143380D02*
X40970809Y-161143380D01*
X41066047Y-161191000D01*
X41113666Y-161238619D01*
X41161285Y-161333857D01*
X41208904Y-161524333D01*
X41208904Y-161762428D01*
X41161285Y-161952904D01*
X41113666Y-162048142D01*
X41066047Y-162095761D01*
X40970809Y-162143380D01*
X40875571Y-162143380D01*
X40780333Y-162095761D01*
X40732714Y-162048142D01*
X40685095Y-161952904D01*
X40637476Y-161762428D01*
X40637476Y-161524333D01*
X40685095Y-161333857D01*
X40732714Y-161238619D01*
X40780333Y-161191000D01*
X40875571Y-161143380D01*
%TO.C,R11*%
X24802380Y-148642857D02*
X24326190Y-148976190D01*
X24802380Y-149214285D02*
X23802380Y-149214285D01*
X23802380Y-148833333D01*
X23850000Y-148738095D01*
X23897619Y-148690476D01*
X23992857Y-148642857D01*
X24135714Y-148642857D01*
X24230952Y-148690476D01*
X24278571Y-148738095D01*
X24326190Y-148833333D01*
X24326190Y-149214285D01*
X24802380Y-147690476D02*
X24802380Y-148261904D01*
X24802380Y-147976190D02*
X23802380Y-147976190D01*
X23945238Y-148071428D01*
X24040476Y-148166666D01*
X24088095Y-148261904D01*
X24802380Y-146738095D02*
X24802380Y-147309523D01*
X24802380Y-147023809D02*
X23802380Y-147023809D01*
X23945238Y-147119047D01*
X24040476Y-147214285D01*
X24088095Y-147309523D01*
%TO.C,U2*%
X47498095Y-173061380D02*
X47498095Y-173870904D01*
X47545714Y-173966142D01*
X47593333Y-174013761D01*
X47688571Y-174061380D01*
X47879047Y-174061380D01*
X47974285Y-174013761D01*
X48021904Y-173966142D01*
X48069523Y-173870904D01*
X48069523Y-173061380D01*
X48498095Y-173156619D02*
X48545714Y-173109000D01*
X48640952Y-173061380D01*
X48879047Y-173061380D01*
X48974285Y-173109000D01*
X49021904Y-173156619D01*
X49069523Y-173251857D01*
X49069523Y-173347095D01*
X49021904Y-173489952D01*
X48450476Y-174061380D01*
X49069523Y-174061380D01*
%TO.C,U1*%
X59944095Y-151979380D02*
X59944095Y-152788904D01*
X59991714Y-152884142D01*
X60039333Y-152931761D01*
X60134571Y-152979380D01*
X60325047Y-152979380D01*
X60420285Y-152931761D01*
X60467904Y-152884142D01*
X60515523Y-152788904D01*
X60515523Y-151979380D01*
X61515523Y-152979380D02*
X60944095Y-152979380D01*
X61229809Y-152979380D02*
X61229809Y-151979380D01*
X61134571Y-152122238D01*
X61039333Y-152217476D01*
X60944095Y-152265095D01*
%TD*%
M02*
