<?xml version="1.0" standalone="no"?>
<!DOCTYPE svg PUBLIC "-//W3C//DTD SVG 1.1//EN"
"http://www.w3.org/Graphics/SVG/1.1/DTD/svg11.dtd">
<svg width="190.072" height="284.561" viewBox="0 0 3959.84 5928.35" version="1.1"
xmlns="http://www.w3.org/2000/svg"
xmlns:xlink="http://www.w3.org/1999/xlink">
<circle cx="3806.3" cy="2837.8" r="31.4961" style=""/>
<circle cx="3493.62" cy="3335.83" r="31.4961" style=""/>
<circle cx="3493.62" cy="3535.83" r="31.4961" style=""/>
<circle cx="3495.59" cy="3751.81" r="31.4961" style=""/>
<circle cx="3722.6" cy="3760.79" r="31.4961" style=""/>
<circle cx="3754.57" cy="4081.81" r="31.4961" style=""/>
<circle cx="3754.57" cy="4281.81" r="31.4961" style=""/>
<circle cx="3755.59" cy="4687.8" r="31.4961" style=""/>
<circle cx="3755.59" cy="4887.8" r="31.4961" style=""/>
<circle cx="3755.59" cy="5087.8" r="31.4961" style=""/>
<circle cx="3755.59" cy="5287.8" r="31.4961" style=""/>
<circle cx="3755.59" cy="5487.8" r="31.4961" style=""/>
<circle cx="3755.59" cy="5687.8" r="31.4961" style=""/>
<circle cx="2992.6" cy="5697.8" r="31.4961" style=""/>
<circle cx="3376.61" cy="4931.81" r="31.4961" style=""/>
<circle cx="3076.22" cy="4927.17" r="31.4961" style=""/>
<circle cx="3042.6" cy="4014.8" r="31.4961" style=""/>
<circle cx="2018.9" cy="2837.8" r="31.4961" style=""/>
<circle cx="1623.62" cy="2641.81" r="31.4961" style=""/>
<circle cx="2351.57" cy="2294.8" r="31.4961" style=""/>
<circle cx="2322.6" cy="1427.8" r="31.4961" style=""/>
<circle cx="2492.6" cy="867.795" r="31.4961" style=""/>
<circle cx="2682.6" cy="557.795" r="31.4961" style=""/>
<circle cx="3082.6" cy="557.795" r="31.4961" style=""/>
<circle cx="1623.62" cy="2041.81" r="31.4961" style=""/>
<circle cx="1132.6" cy="1742.76" r="31.4961" style=""/>
<circle cx="1623.62" cy="1441.81" r="31.4961" style=""/>
<circle cx="1623.62" cy="1241.81" r="31.4961" style=""/>
<circle cx="1800.63" cy="683.78" r="31.4961" style=""/>
<circle cx="1800.63" cy="283.78" r="31.4961" style=""/>
<circle cx="1068.58" cy="306.772" r="31.4961" style=""/>
<circle cx="1068.58" cy="706.772" r="31.4961" style=""/>
<circle cx="505.118" cy="1113.78" r="31.4961" style=""/>
<circle cx="305.118" cy="1113.78" r="31.4961" style=""/>
<circle cx="332.598" cy="1742.76" r="31.4961" style=""/>
<circle cx="661.575" cy="1957.8" r="31.4961" style=""/>
<circle cx="1030.63" cy="2143.78" r="31.4961" style=""/>
<circle cx="1027.56" cy="2391.81" r="31.4961" style=""/>
<circle cx="661.575" cy="2357.8" r="31.4961" style=""/>
<circle cx="432.598" cy="2915.83" r="31.4961" style=""/>
<circle cx="150.63" cy="2927.8" r="31.4961" style=""/>
<circle cx="391.575" cy="3326.77" r="31.4961" style=""/>
<circle cx="884.409" cy="3367.01" r="31.4961" style=""/>
<circle cx="1147.56" cy="2977.8" r="31.4961" style=""/>
<circle cx="1594.57" cy="3455.83" r="31.4961" style=""/>
<circle cx="1400.08" cy="3876.3" r="31.4961" style=""/>
<circle cx="854.567" cy="3791.81" r="31.4961" style=""/>
<circle cx="505.118" cy="3790.94" r="31.4961" style=""/>
<circle cx="305.118" cy="3790.94" r="31.4961" style=""/>
<circle cx="664.567" cy="4031.81" r="31.4961" style=""/>
<circle cx="518.583" cy="4274.8" r="31.4961" style=""/>
<circle cx="518.583" cy="4474.8" r="31.4961" style=""/>
<circle cx="518.583" cy="4674.8" r="31.4961" style=""/>
<circle cx="518.583" cy="4874.8" r="31.4961" style=""/>
<circle cx="518.583" cy="5074.8" r="31.4961" style=""/>
<circle cx="1097.56" cy="5673.78" r="31.4961" style=""/>
<circle cx="897.638" cy="5673.78" r="31.4961" style=""/>
<circle cx="722.598" cy="5447.8" r="31.4961" style=""/>
<circle cx="482.598" cy="5457.8" r="31.4961" style=""/>
<circle cx="232.598" cy="5687.8" r="31.4961" style=""/>
</svg>
