<?xml version="1.0" standalone="no"?>
<!DOCTYPE svg PUBLIC "-//W3C//DTD SVG 1.1//EN"
"http://www.w3.org/Graphics/SVG/1.1/DTD/svg11.dtd">
<svg width="190.072" height="284.561" viewBox="0 0 3959.84 5928.35" version="1.1"
xmlns="http://www.w3.org/2000/svg"
xmlns:xlink="http://www.w3.org/1999/xlink">
<g fill-rule="evenodd"><path d="M 2408.01,4092.55 L 2408.01,3856.33 L 2502.5,3856.33 L 2502.5,4092.55 L 2408.01,4092.55 z " style="fill-opacity:1.000000;fill:rgb(103,198,105);stroke:rgb(0,0,0);stroke-width:2"/></g>
<g fill-rule="evenodd"><path d="M 1620.61,4092.55 L 1620.61,3856.33 L 1715.09,3856.33 L 1715.09,4092.55 L 1620.61,4092.55 z " style="fill-opacity:1.000000;fill:rgb(115,81,255);stroke:rgb(0,0,0);stroke-width:2"/></g>
<g fill-rule="evenodd"><path d="M 1778.09,4092.55 L 1778.09,3856.33 L 1872.57,3856.33 L 1872.57,4092.55 L 1778.09,4092.55 z " style="fill-opacity:1.000000;fill:rgb(74,236,41);stroke:rgb(0,0,0);stroke-width:2"/></g>
<g fill-rule="evenodd"><path d="M 1935.57,4092.55 L 1935.57,3856.33 L 2030.06,3856.33 L 2030.06,4092.55 L 1935.57,4092.55 z " style="fill-opacity:1.000000;fill:rgb(205,186,171);stroke:rgb(0,0,0);stroke-width:2"/></g>
<g fill-rule="evenodd"><path d="M 2093.05,4092.55 L 2093.05,3856.33 L 2187.54,3856.33 L 2187.54,4092.55 L 2093.05,4092.55 z " style="fill-opacity:1.000000;fill:rgb(242,251,227);stroke:rgb(0,0,0);stroke-width:2"/></g>
<g fill-rule="evenodd"><path d="M 2250.51,4092.55 L 2250.51,3856.32 L 2345.02,3856.31 L 2345.03,4092.56 L 2250.51,4092.55 z " style="fill-opacity:1.000000;fill:rgb(70,124,194);stroke:rgb(0,0,0);stroke-width:2"/></g>
<g fill-rule="evenodd"><path d="M 3695.6,5627.8 L 3815.6,5627.8 L 3828.07,5629.11 L 3840,5632.98 L 3850.87,5639.25 L 3860.19,5647.65 L 3867.56,5657.8 L 3872.66,5669.25 L 3875.27,5681.52 L 3875.27,5694.07 L 3872.66,5706.34 L 3867.56,5717.8 L 3860.19,5727.94 L 3850.87,5736.34 L 3840,5742.61 L 3828.07,5746.48 L 3815.6,5747.8 L 3695.6,5747.8 L 3683.12,5746.48 L 3671.19,5742.61 L 3660.33,5736.34 L 3651.01,5727.94 L 3643.64,5717.8 L 3638.54,5706.34 L 3635.93,5694.07 L 3635.93,5681.52 L 3638.54,5669.25 L 3643.64,5657.8 L 3651.01,5647.65 L 3660.33,5639.25 L 3671.19,5632.98 L 3683.12,5629.11 L 3695.6,5627.8 z " style="fill-opacity:1.000000;fill:rgb(84,248,27);stroke:rgb(0,0,0);stroke-width:2"/></g>
<g fill-rule="evenodd"><path d="M 3695.6,5027.8 L 3815.6,5027.8 L 3828.07,5029.11 L 3840,5032.98 L 3850.87,5039.25 L 3860.19,5047.65 L 3867.56,5057.8 L 3872.66,5069.25 L 3875.27,5081.52 L 3875.27,5094.07 L 3872.66,5106.34 L 3867.56,5117.8 L 3860.19,5127.94 L 3850.87,5136.34 L 3840,5142.61 L 3828.07,5146.48 L 3815.6,5147.8 L 3695.6,5147.8 L 3683.12,5146.48 L 3671.19,5142.61 L 3660.33,5136.34 L 3651.01,5127.94 L 3643.64,5117.8 L 3638.54,5106.34 L 3635.93,5094.07 L 3635.93,5081.52 L 3638.54,5069.25 L 3643.64,5057.8 L 3651.01,5047.65 L 3660.33,5039.25 L 3671.19,5032.98 L 3683.12,5029.11 L 3695.6,5027.8 z " style="fill-opacity:1.000000;fill:rgb(232,231,141);stroke:rgb(0,0,0);stroke-width:2"/></g>
<g fill-rule="evenodd"><path d="M 3695.6,4827.8 L 3815.6,4827.8 L 3828.07,4829.11 L 3840,4832.98 L 3850.87,4839.25 L 3860.19,4847.65 L 3867.56,4857.8 L 3872.66,4869.25 L 3875.27,4881.52 L 3875.27,4894.07 L 3872.66,4906.34 L 3867.56,4917.8 L 3860.19,4927.94 L 3850.87,4936.34 L 3840,4942.61 L 3828.07,4946.48 L 3815.6,4947.8 L 3695.6,4947.8 L 3683.12,4946.48 L 3671.19,4942.61 L 3660.33,4936.34 L 3651.01,4927.94 L 3643.64,4917.8 L 3638.54,4906.34 L 3635.93,4894.07 L 3635.93,4881.52 L 3638.54,4869.25 L 3643.64,4857.8 L 3651.01,4847.65 L 3660.33,4839.25 L 3671.19,4832.98 L 3683.12,4829.11 L 3695.6,4827.8 z " style="fill-opacity:1.000000;fill:rgb(118,90,46);stroke:rgb(0,0,0);stroke-width:2"/></g>
<g fill-rule="evenodd"><path d="M 936.675,2171.49 L 808.976,2043.8 L 418.598,2043.8 L 401.821,2042.14 L 385.688,2037.25 L 370.819,2029.3 L 357.787,2018.61 L 271.787,1932.61 L 261.092,1919.57 L 253.145,1904.71 L 248.251,1888.57 L 246.598,1871.8 L 246.598,1742.8 L 248.478,1724.91 L 254.034,1707.82 L 263.023,1692.25 L 275.053,1678.88 L 289.598,1668.32 L 306.023,1661 L 323.609,1657.27 L 341.588,1657.27 L 359.174,1661 L 375.598,1668.32 L 390.144,1678.88 L 402.174,1692.25 L 411.163,1707.82 L 416.719,1724.91 L 418.598,1742.8 L 418.598,1836.17 L 454.221,1871.8 L 844.598,1871.8 L 861.376,1873.45 L 877.509,1878.34 L 892.377,1886.29 L 905.41,1896.98 L 1057.96,2049.54 L 1061.01,2050.19 L 1079.81,2058.56 L 1096.46,2070.65 L 1110.23,2085.94 L 1120.51,2103.76 L 1126.87,2123.33 L 1129.02,2143.8 L 1126.87,2164.26 L 1120.51,2183.83 L 1110.23,2201.65 L 1096.46,2216.94 L 1079.81,2229.03 L 1061.01,2237.4 L 1040.89,2241.68 L 1020.31,2241.68 L 1000.18,2237.4 L 981.386,2229.03 L 964.739,2216.94 L 950.971,2201.65 L 940.683,2183.83 L 936.675,2171.49 z " style="fill-opacity:1.000000;fill:rgb(99,51,159);stroke:rgb(0,0,0);stroke-width:2"/></g>
<g fill-rule="evenodd"><path d="M 2303.77,1523.87 L 2292.18,1521.4 L 2273.39,1513.03 L 2256.74,1500.94 L 2242.97,1485.65 L 2232.68,1467.83 L 2226.32,1448.26 L 2224.17,1427.8 L 2226.32,1407.33 L 2232.68,1387.76 L 2242.97,1369.94 L 2256.74,1354.65 L 2273.39,1342.56 L 2292.18,1334.19 L 2312.31,1329.91 L 2332.89,1329.91 L 2353.01,1334.19 L 2371.81,1342.56 L 2388.46,1354.65 L 2394.46,1361.32 L 2774.64,1361.32 L 2792.52,1363.2 L 2809.62,1368.76 L 2825.19,1377.75 L 2838.55,1389.78 L 2849.12,1404.32 L 2856.44,1420.75 L 2860.17,1438.33 L 2860.17,1456.31 L 2856.44,1473.9 L 2849.12,1490.32 L 2838.55,1504.87 L 2825.19,1516.9 L 2809.62,1525.89 L 2792.52,1531.44 L 2774.64,1533.32 L 2342.12,1533.32 L 2325.35,1531.67 L 2309.21,1526.77 L 2303.77,1523.87 z " style="fill-opacity:1.000000;fill:rgb(201,154,102);stroke:rgb(0,0,0);stroke-width:2"/></g>
<g fill-rule="evenodd"><path d="M 2465.23,962.051 L 2462.18,961.403 L 2443.39,953.034 L 2426.74,940.939 L 2412.97,925.648 L 2402.68,907.828 L 2396.32,888.259 L 2394.17,867.795 L 2396.32,847.332 L 2402.68,827.762 L 2406.6,820.979 L 2406.6,747.795 L 2408.25,731.018 L 2413.14,714.885 L 2421.09,700.016 L 2431.79,686.984 L 2621.79,496.984 L 2635.76,485.67 L 2651.78,477.507 L 2669.15,472.854 L 2687.1,471.913 L 2704.86,474.726 L 2721.64,481.169 L 2736.72,490.961 L 2749.43,503.674 L 2759.22,518.752 L 2765.67,535.537 L 2768.48,553.294 L 2767.54,571.249 L 2762.89,588.615 L 2754.72,604.634 L 2743.41,618.606 L 2578.6,783.418 L 2578.6,820.979 L 2582.51,827.762 L 2586.52,840.096 L 2748.69,1002.27 L 2774.64,1002.27 L 2792.52,1004.15 L 2809.62,1009.7 L 2825.19,1018.69 L 2838.55,1030.72 L 2849.12,1045.27 L 2856.44,1061.69 L 2860.17,1079.28 L 2860.17,1097.26 L 2856.44,1114.84 L 2849.12,1131.27 L 2838.55,1145.81 L 2825.19,1157.84 L 2809.62,1166.83 L 2792.52,1172.39 L 2774.64,1174.27 L 2713.07,1174.27 L 2696.29,1172.61 L 2680.16,1167.72 L 2665.29,1159.77 L 2652.26,1149.08 L 2465.23,962.051 z " style="fill-opacity:1.000000;fill:rgb(50,13,183);stroke:rgb(0,0,0);stroke-width:2"/></g>
<g fill-rule="evenodd"><path d="M 253.55,3786.83 L 254.254,3780.13 L 257.614,3769.79 L 263.049,3760.38 L 270.323,3752.3 L 279.118,3745.91 L 289.049,3741.49 L 299.683,3739.23 L 310.554,3739.23 L 321.187,3741.49 L 331.118,3745.91 L 339.913,3752.3 L 347.187,3760.38 L 352.622,3769.79 L 355.982,3780.13 L 357.118,3790.94 L 355.982,3801.76 L 352.622,3812.1 L 347.187,3821.51 L 339.913,3829.59 L 331.118,3835.98 L 321.187,3840.4 L 310.554,3842.66 L 309.078,3842.66 L 300.969,3850.77 L 300.968,4004.81 L 320.654,4004.81 L 320.654,4107.17 L 202.543,4107.17 L 202.543,4004.81 L 222.228,4004.81 L 222.228,3834.46 L 222.985,3826.78 L 225.225,3819.4 L 228.863,3812.59 L 233.759,3806.63 L 253.55,3786.83 z " style="fill-opacity:1.000000;fill:rgb(49,88,163);stroke:rgb(0,0,0);stroke-width:2"/></g>
<g fill-rule="evenodd"><path d="M 222.228,4256.78 L 202.543,4256.78 L 202.543,4154.42 L 320.654,4154.42 L 320.654,4256.78 L 300.968,4256.78 L 300.969,4338.8 L 300.212,4346.48 L 297.972,4353.86 L 294.333,4360.67 L 289.437,4366.63 L 271.968,4384.1 L 271.968,5598.17 L 281.811,5602.56 L 298.458,5614.65 L 312.226,5629.94 L 322.514,5647.76 L 328.873,5667.33 L 331.024,5687.8 L 328.873,5708.26 L 322.514,5727.83 L 312.226,5745.65 L 298.458,5760.94 L 281.811,5773.03 L 263.013,5781.4 L 242.887,5785.68 L 222.31,5785.68 L 202.183,5781.4 L 183.386,5773.03 L 166.739,5760.94 L 152.971,5745.65 L 142.683,5727.83 L 136.324,5708.26 L 134.173,5687.8 L 136.324,5667.33 L 142.683,5647.76 L 152.971,5629.94 L 166.739,5614.65 L 183.386,5602.56 L 193.228,5598.17 L 193.228,4367.8 L 193.985,4360.11 L 196.225,4352.73 L 199.863,4345.92 L 204.76,4339.96 L 222.228,4322.49 L 222.228,4256.78 z " style="fill-opacity:1.000000;fill:rgb(90,37,93);stroke:rgb(0,0,0);stroke-width:2"/></g>
<g fill-rule="evenodd"><path d="M 845.03,3160.85 L 833.22,3160.85 L 833.22,3042.74 L 935.583,3042.74 L 935.583,3160.85 L 923.77,3160.85 L 923.771,3277.37 L 933.614,3281.75 L 950.261,3293.85 L 964.029,3309.14 L 974.317,3326.96 L 980.676,3346.53 L 982.827,3366.99 L 980.676,3387.46 L 974.317,3407.03 L 964.029,3424.85 L 950.261,3440.14 L 933.614,3452.23 L 914.817,3460.6 L 894.69,3464.88 L 874.113,3464.88 L 853.987,3460.6 L 835.189,3452.23 L 818.542,3440.14 L 804.774,3424.85 L 794.486,3407.03 L 788.127,3387.46 L 785.976,3366.99 L 788.127,3346.53 L 794.486,3326.96 L 804.774,3309.14 L 818.542,3293.85 L 835.189,3281.75 L 845.031,3277.37 L 845.03,3160.85 z " style="fill-opacity:1.000000;fill:rgb(5,23,88);stroke:rgb(0,0,0);stroke-width:2"/></g>
<g fill-rule="evenodd"><path d="M 1499.07,2598.41 L 1501.58,2594.96 L 1512.45,2585.16 L 1525.13,2577.85 L 1539.04,2573.32 L 1553.6,2571.8 L 1574.13,2571.8 L 1576.76,2569.67 L 1592.78,2561.51 L 1610.15,2556.85 L 1628.1,2555.91 L 1645.86,2558.73 L 1662.64,2565.17 L 1672.85,2571.8 L 1693.6,2571.8 L 1708.15,2573.32 L 1722.07,2577.85 L 1734.74,2585.16 L 1745.62,2594.96 L 1754.22,2606.8 L 1760.17,2620.16 L 1763.21,2634.48 L 1763.21,2649.11 L 1760.17,2663.43 L 1754.22,2676.8 L 1745.62,2688.63 L 1734.74,2698.43 L 1722.07,2705.74 L 1708.15,2710.27 L 1693.6,2711.8 L 1675.22,2711.8 L 1641.79,2745.22 L 1628.76,2755.92 L 1613.89,2763.87 L 1597.76,2768.76 L 1580.98,2770.41 L 952.598,2770.41 L 935.821,2768.76 L 919.688,2763.87 L 904.82,2755.92 L 891.788,2745.22 L 790.358,2643.8 L 502.598,2643.8 L 485.821,2642.14 L 469.688,2637.25 L 454.819,2629.3 L 441.787,2618.61 L 406.976,2583.8 L 115.134,2583.8 L 98.3567,2582.14 L 82.2237,2577.25 L 67.3554,2569.3 L 54.3232,2558.61 L 43.628,2545.57 L 35.6808,2530.71 L 30.7869,2514.57 L 29.1344,2497.8 L 29.1344,756.257 L 30.787,739.479 L 35.6811,723.346 L 43.6288,708.477 L 54.3245,695.445 L 103.788,645.983 L 116.82,635.288 L 131.688,627.341 L 147.821,622.448 L 164.598,620.795 L 1068.6,620.795 L 1086.48,622.675 L 1103.58,628.23 L 1119.15,637.22 L 1132.51,649.25 L 1143.08,663.795 L 1150.39,680.22 L 1154.13,697.806 L 1154.13,715.785 L 1150.39,733.371 L 1143.08,749.795 L 1132.51,764.341 L 1119.15,776.371 L 1103.58,785.36 L 1086.48,790.916 L 1068.6,792.795 L 201.134,792.795 L 201.135,2411.8 L 442.598,2411.8 L 459.376,2413.45 L 475.509,2418.34 L 490.377,2426.29 L 503.41,2436.98 L 538.221,2471.8 L 825.98,2471.8 L 842.758,2473.45 L 858.891,2478.34 L 873.759,2486.29 L 886.791,2496.98 L 988.22,2598.41 L 1499.07,2598.41 z " style="fill-opacity:1.000000;fill:rgb(233,94,212);stroke:rgb(0,0,0);stroke-width:2"/></g>
<g fill-rule="evenodd"><path d="M 673.543,2737.8 L 673.543,2706.61 L 791.654,2706.61 L 791.654,2808.98 L 673.543,2808.98 L 673.543,2777.8 L 640.185,2777.8 L 633.508,2784.47 L 633.305,2808.53 L 634.122,2816.82 L 636.408,2824.36 L 639.044,2829.69 L 639.426,2833.58 L 638.293,2837.31 L 636.408,2840.84 L 634.122,2848.38 L 633.3,2856.71 L 633.3,2958.09 L 634.122,2966.42 L 636.408,2973.96 L 640.123,2980.91 L 645.122,2987 L 649.572,2990.66 L 651.854,2993.33 L 652.608,2994.92 L 653.226,2998.38 L 653.081,3014.84 L 651.928,3018.07 L 650.193,3020.41 L 646.48,3027.36 L 644.192,3034.9 L 643.37,3043.23 L 643.37,3098.99 L 641.843,3114.99 L 642.228,3119.38 L 642.226,3517.42 L 642.034,3519.37 L 640.541,3522.98 L 637.782,3525.74 L 634.177,3527.23 L 632.226,3527.42 L 157.874,3527.42 L 155.924,3527.23 L 152.319,3525.74 L 149.56,3522.98 L 148.067,3519.37 L 147.874,3517.42 L 148.067,3074.27 L 149.56,3070.66 L 152.319,3067.9 L 154.048,3066.98 L 157.874,3066.22 L 164.231,3066.22 L 190.976,3060.9 L 216.166,3050.47 L 238.838,3035.32 L 258.119,3016.03 L 273.269,2993.36 L 283.703,2968.17 L 289.022,2941.43 L 289.022,2914.16 L 283.703,2887.42 L 273.269,2862.23 L 258.119,2839.55 L 238.838,2820.27 L 216.166,2805.12 L 190.976,2794.69 L 164.232,2789.37 L 136.963,2789.37 L 110.219,2794.69 L 85.0294,2805.12 L 68.9403,2815.87 L 66.4746,2817.07 L 62.992,2817.55 L 60.2943,2817.07 L 58.3844,2816.22 L 55.6961,2813.95 L 54.249,2811.63 L 53.6029,2809.64 L 53.3844,2807.56 L 53.3844,2624.22 L 53.5985,2622.16 L 54.2314,2620.19 L 55.2561,2618.39 L 56.6287,2616.84 L 58.2905,2615.61 L 60.1704,2614.75 L 62.1879,2614.29 L 64.2565,2614.25 L 90.4334,2621.97 L 115.135,2624.4 L 121.814,2623.8 L 388.215,2623.99 L 391.82,2625.48 L 393.335,2626.72 L 408.777,2642.16 L 413.072,2647.32 L 432.257,2663.07 L 454.146,2674.77 L 477.897,2681.97 L 502.598,2684.4 L 509.278,2683.8 L 625.18,2683.8 L 627.238,2684.01 L 629.207,2684.64 L 631.004,2685.67 L 632.552,2687.04 L 633.785,2688.7 L 634.649,2690.58 L 635.108,2692.6 L 635.143,2694.66 L 634.122,2698.77 L 633.305,2707.06 L 633.508,2731.12 L 640.185,2737.8 L 673.543,2737.8 z " style="fill-opacity:1.000000;fill:rgb(171,178,205);stroke:rgb(0,0,0);stroke-width:2"/></g>
<g fill-rule="evenodd"><path d="M 1952.6,2763.03 L 1952.6,2127.8 L 1623.6,2127.8 L 1606.82,2126.14 L 1590.69,2121.25 L 1575.82,2113.3 L 1573.98,2111.79 L 1553.6,2111.8 L 1539.04,2110.27 L 1525.13,2105.74 L 1512.45,2098.43 L 1501.58,2088.63 L 1492.98,2076.8 L 1487.02,2063.43 L 1483.98,2049.11 L 1483.98,2034.48 L 1487.02,2020.16 L 1492.98,2006.8 L 1501.58,1994.96 L 1512.45,1985.16 L 1525.13,1977.85 L 1537.6,1973.79 L 1537.6,1828.8 L 1132.6,1828.8 L 1114.72,1826.92 L 1097.62,1821.36 L 1082.05,1812.37 L 1068.69,1800.34 L 1058.12,1785.8 L 1050.81,1769.37 L 1047.07,1751.78 L 1047.07,1733.81 L 1050.81,1716.22 L 1058.12,1699.8 L 1068.69,1685.25 L 1082.05,1673.22 L 1083.23,1672.54 L 1083.23,1597.1 L 1050.09,1563.97 L 367.654,1563.97 L 367.654,1575.78 L 249.543,1575.78 L 249.543,1473.42 L 367.654,1473.42 L 367.654,1485.23 L 1066.4,1485.23 L 1074.08,1485.98 L 1081.47,1488.22 L 1088.27,1491.86 L 1094.24,1496.76 L 1150.44,1552.96 L 1155.33,1558.92 L 1158.97,1565.73 L 1161.21,1573.11 L 1161.97,1580.8 L 1161.97,1656.8 L 1537.6,1656.8 L 1537.6,1509.8 L 1525.13,1505.74 L 1512.45,1498.43 L 1501.58,1488.63 L 1492.98,1476.8 L 1487.02,1463.43 L 1483.98,1449.11 L 1483.98,1434.48 L 1487.02,1420.16 L 1492.98,1406.8 L 1501.58,1394.96 L 1512.45,1385.16 L 1525.13,1377.85 L 1539.04,1373.32 L 1553.6,1371.8 L 1574.43,1371.8 L 1580.6,1367.32 L 1597.02,1360 L 1614.61,1356.27 L 1632.59,1356.27 L 1650.17,1360 L 1666.6,1367.32 L 1672.76,1371.8 L 1693.6,1371.8 L 1708.15,1373.32 L 1722.07,1377.85 L 1734.74,1385.16 L 1745.62,1394.96 L 1754.22,1406.8 L 1760.17,1420.16 L 1763.21,1434.48 L 1763.21,1449.11 L 1760.17,1463.43 L 1754.22,1476.8 L 1745.62,1488.63 L 1734.74,1498.43 L 1722.07,1505.74 L 1709.6,1509.8 L 1709.6,1955.8 L 1993.6,1955.8 L 2010.38,1957.45 L 2026.51,1962.34 L 2041.38,1970.29 L 2054.41,1980.98 L 2099.41,2025.98 L 2110.1,2039.02 L 2118.05,2053.88 L 2122.95,2070.02 L 2124.6,2086.8 L 2124.6,2751.8 L 2967.08,2751.8 L 2974.82,2749.45 L 2991.6,2747.8 L 3008.38,2749.45 L 3024.51,2754.34 L 3039.38,2762.29 L 3052.41,2772.98 L 3555.2,3275.96 L 3566.07,3277.11 L 3578,3280.98 L 3588.87,3287.25 L 3598.19,3295.65 L 3605.56,3305.8 L 3610.66,3317.25 L 3613.27,3329.52 L 3613.27,3342.07 L 3610.66,3354.34 L 3605.56,3365.8 L 3598.19,3375.94 L 3588.87,3384.34 L 3578,3390.61 L 3566.07,3394.48 L 3554.67,3395.68 L 3547.72,3402.63 L 3532.64,3412.42 L 3515.86,3418.86 L 3498.1,3421.68 L 3480.15,3420.74 L 3462.78,3416.08 L 3446.76,3407.92 L 3431.79,3395.6 L 3421.12,3394.48 L 3409.19,3390.61 L 3398.33,3384.34 L 3389.01,3375.94 L 3381.64,3365.8 L 3376.54,3354.34 L 3373.93,3342.07 L 3373.93,3337.75 L 2959.98,2923.8 L 2069.73,2923.79 L 2068.9,2924.4 L 2049.8,2932.9 L 2029.35,2937.25 L 2008.44,2937.25 L 1988,2932.9 L 1968.9,2924.4 L 1951.98,2912.11 L 1938,2896.57 L 1927.54,2878.47 L 1921.08,2858.59 L 1918.9,2837.8 L 1921.08,2817 L 1927.54,2797.12 L 1938,2779.02 L 1952.6,2763.03 z " style="fill-opacity:1.000000;fill:rgb(198,155,180);stroke:rgb(0,0,0);stroke-width:2"/></g>
<g fill-rule="evenodd"><path d="M 584.213,4415.39 L 1274.15,4415.39 L 1274.15,4407.51 L 1510.37,4407.51 L 1510.37,4502 L 1274.15,4502 L 1274.15,4494.13 L 635.311,4494.13 L 630.56,4504.8 L 623.187,4514.94 L 613.866,4523.34 L 603.003,4529.61 L 591.073,4533.48 L 578.598,4534.8 L 458.598,4534.8 L 446.124,4533.48 L 434.194,4529.61 L 423.331,4523.34 L 414.01,4514.94 L 406.637,4504.8 L 401.535,4493.34 L 398.927,4481.07 L 398.927,4468.52 L 401.535,4456.25 L 406.637,4444.8 L 414.01,4434.65 L 423.331,4426.25 L 434.194,4419.98 L 446.124,4416.11 L 458.598,4414.8 L 578.598,4414.8 L 584.213,4415.39 z " style="fill-opacity:1.000000;fill:rgb(84,17,14);stroke:rgb(0,0,0);stroke-width:2"/></g>
<g fill-rule="evenodd"><path d="M 636.013,4257.91 L 1274.15,4257.91 L 1274.15,4250.03 L 1510.37,4250.03 L 1510.37,4344.52 L 1274.15,4344.52 L 1274.15,4336.65 L 602.078,4336.65 L 593.893,4335.79 L 587.854,4333.82 L 578.598,4334.8 L 458.598,4334.8 L 446.124,4333.48 L 434.194,4329.61 L 423.331,4323.34 L 414.01,4314.94 L 406.637,4304.8 L 401.535,4293.34 L 398.927,4281.07 L 398.927,4268.52 L 401.535,4256.25 L 406.637,4244.8 L 414.01,4234.65 L 423.331,4226.25 L 434.194,4219.98 L 446.124,4216.11 L 458.598,4214.8 L 578.598,4214.8 L 591.073,4216.11 L 603.003,4219.98 L 613.866,4226.25 L 623.187,4234.65 L 630.56,4244.8 L 635.662,4256.25 L 636.013,4257.91 z " style="fill-opacity:1.000000;fill:rgb(130,116,65);stroke:rgb(0,0,0);stroke-width:2"/></g>
<g fill-rule="evenodd"><path d="M 1274.15,4651.61 L 770.464,4651.61 L 719.438,4702.63 L 713.472,4707.53 L 706.665,4711.17 L 699.279,4713.41 L 691.598,4714.17 L 623.752,4714.17 L 613.866,4723.34 L 603.003,4729.61 L 591.073,4733.48 L 578.598,4734.8 L 458.598,4734.8 L 446.124,4733.48 L 434.194,4729.61 L 423.331,4723.34 L 414.01,4714.94 L 406.637,4704.8 L 401.535,4693.34 L 398.927,4681.07 L 398.927,4668.52 L 401.535,4656.25 L 406.637,4644.8 L 414.01,4634.65 L 423.331,4626.25 L 434.194,4619.98 L 446.124,4616.11 L 458.598,4614.8 L 578.598,4614.8 L 591.073,4616.11 L 603.003,4619.98 L 613.866,4626.25 L 623.752,4635.43 L 675.29,4635.43 L 726.317,4584.4 L 732.283,4579.5 L 739.09,4575.86 L 746.476,4573.62 L 754.156,4572.87 L 1274.15,4572.87 L 1274.15,4564.99 L 1510.37,4564.99 L 1510.37,4659.48 L 1274.15,4659.48 L 1274.15,4651.61 z " style="fill-opacity:1.000000;fill:rgb(33,61,220);stroke:rgb(0,0,0);stroke-width:2"/></g>
<g fill-rule="evenodd"><path d="M 1274.15,4730.34 L 1274.15,4722.47 L 1510.37,4722.47 L 1510.37,4816.96 L 1274.15,4816.96 L 1274.15,4809.09 L 838.984,4809.09 L 745.438,4902.63 L 739.472,4907.53 L 732.665,4911.17 L 725.279,4913.41 L 717.598,4914.17 L 623.752,4914.17 L 613.866,4923.34 L 603.003,4929.61 L 591.073,4933.48 L 578.598,4934.8 L 458.598,4934.8 L 446.124,4933.48 L 434.194,4929.61 L 423.331,4923.34 L 414.01,4914.94 L 406.637,4904.8 L 401.535,4893.34 L 398.927,4881.07 L 398.927,4868.52 L 401.535,4856.25 L 406.637,4844.8 L 414.01,4834.65 L 423.331,4826.25 L 434.194,4819.98 L 446.124,4816.11 L 458.598,4814.8 L 578.598,4814.8 L 591.073,4816.11 L 603.003,4819.98 L 613.866,4826.25 L 623.752,4835.43 L 701.291,4835.43 L 794.837,4741.88 L 800.803,4736.98 L 807.61,4733.34 L 814.996,4731.1 L 822.676,4730.35 L 1274.15,4730.34 z " style="fill-opacity:1.000000;fill:rgb(135,112,233);stroke:rgb(0,0,0);stroke-width:2"/></g>
<g fill-rule="evenodd"><path d="M 402.184,5054.8 L 406.637,5044.8 L 414.01,5034.65 L 423.331,5026.25 L 434.194,5019.98 L 446.124,5016.11 L 458.598,5014.8 L 578.598,5014.8 L 591.073,5016.11 L 603.003,5019.98 L 613.866,5026.25 L 623.187,5034.65 L 630.56,5044.8 L 635.012,5054.8 L 669.756,5054.8 L 674.688,5046.1 L 674.447,5044.9 L 666.788,5026.8 L 655.731,5010.52 L 641.708,4996.7 L 625.262,4985.89 L 620.947,4984.14 L 619.132,4983.18 L 617.552,4981.86 L 616.274,4980.25 L 615.353,4978.41 L 614.827,4976.43 L 614.719,4974.37 L 615.033,4972.34 L 615.756,4970.42 L 616.857,4968.68 L 618.289,4967.21 L 634.424,4958.34 L 638.166,4955.46 L 641.385,4954.31 L 713.208,4954.17 L 717.598,4954.55 L 733.156,4953.02 L 748.118,4948.48 L 761.906,4941.11 L 773.992,4931.19 L 776.825,4927.81 L 843.883,4860.76 L 845.467,4859.47 L 847.28,4858.53 L 849.245,4857.97 L 851.282,4857.83 L 853.306,4858.11 L 855.231,4858.79 L 856.978,4859.84 L 858.474,4861.23 L 859.656,4862.9 L 860.476,4864.77 L 860.898,4866.77 L 860.568,4872.23 L 860.568,4989.36 L 861.39,4997.69 L 863.676,5005.23 L 867.391,5012.18 L 871.322,5017.2 L 872.473,5020.42 L 872.62,5054.52 L 872.036,5057.89 L 871.322,5059.45 L 866.045,5066.64 L 864.805,5067.94 L 861.735,5069.78 L 858.214,5070.42 L 851.986,5070.42 L 847.597,5070.04 L 843.208,5070.42 L 836.7,5070.42 L 825.039,5071.57 L 810.078,5076.11 L 796.29,5083.48 L 784.203,5093.4 L 774.283,5105.49 L 768.812,5115.72 L 767.063,5118.08 L 669.579,5215.57 L 666.204,5218.4 L 656.285,5230.49 L 648.914,5244.28 L 644.376,5259.24 L 642.843,5274.79 L 643.228,5279.19 L 643.228,5329 L 642.467,5332.83 L 640.3,5336.07 L 634.357,5340.27 L 615.076,5359.55 L 599.926,5382.22 L 589.492,5407.42 L 584.172,5434.16 L 584.172,5461.43 L 589.492,5488.17 L 599.926,5513.36 L 615.076,5536.03 L 634.357,5555.32 L 657.029,5570.47 L 682.219,5580.9 L 708.963,5586.22 L 736.232,5586.22 L 762.976,5580.9 L 791.027,5569.47 L 792.971,5569.28 L 796.786,5570.03 L 798.511,5570.94 L 801.271,5573.68 L 802.777,5577.27 L 802.98,5579.21 L 802.802,5581.16 L 801.3,5585.37 L 797.598,5604.74 L 797.598,5653.79 L 837.598,5653.79 L 837.598,5613.8 L 838.91,5601.32 L 842.786,5589.39 L 849.057,5578.53 L 857.451,5569.21 L 867.598,5561.83 L 877.598,5557.38 L 877.598,5522.64 L 868.9,5517.7 L 858.794,5521.5 L 854.88,5521.53 L 852.995,5520.97 L 849.731,5518.81 L 848.479,5517.29 L 846.972,5513.68 L 846.776,5511.72 L 847.538,5507.88 L 855.703,5488.17 L 861.488,5460.19 L 862.493,5458.38 L 863.849,5456.81 L 865.497,5455.56 L 867.368,5454.68 L 869.38,5454.2 L 871.449,5454.14 L 873.484,5454.51 L 875.4,5455.29 L 880.428,5457.98 L 887.968,5460.27 L 896.26,5461.09 L 920.313,5460.88 L 926.991,5454.21 L 926.991,5420.85 L 895.811,5420.85 L 895.811,5381.8 L 862.453,5381.8 L 859.08,5384.9 L 855.475,5386.39 L 853.524,5386.58 L 849.698,5385.82 L 846.453,5383.65 L 830.119,5359.55 L 810.837,5340.27 L 806.41,5337.31 L 803.653,5334.55 L 802.729,5332.83 L 801.968,5329 L 801.968,5311.81 L 802.73,5307.98 L 804.897,5304.74 L 863.805,5245.83 L 866.824,5243.76 L 870.386,5242.92 L 872.223,5242.99 L 875.699,5244.14 L 878.48,5246.21 L 882.731,5248.7 L 885.206,5251.71 L 885.956,5253.53 L 886.338,5257.41 L 885.205,5261.14 L 882.73,5264.16 L 873.479,5269.32 L 867.39,5274.32 L 862.391,5280.41 L 858.676,5287.36 L 856.39,5294.9 L 855.572,5303.2 L 855.783,5335.13 L 862.453,5341.8 L 895.811,5341.8 L 895.811,5302.74 L 998.173,5302.74 L 998.173,5420.85 L 966.99,5420.85 L 966.99,5454.21 L 973.667,5460.88 L 997.722,5461.09 L 1008.33,5460.26 L 1010.36,5460.7 L 1012.26,5461.56 L 1013.94,5462.79 L 1015.33,5464.34 L 1016.37,5466.14 L 1017.01,5468.13 L 1017.23,5470.2 L 1017.23,5550.52 L 1016.64,5553.89 L 1015.92,5555.46 L 1014.04,5557.97 L 1005.19,5574.1 L 1003.71,5575.53 L 1001.98,5576.63 L 1000.05,5577.36 L 998.019,5577.67 L 995.966,5577.56 L 993.979,5577.04 L 992.141,5576.12 L 990.53,5574.84 L 989.214,5573.26 L 986.5,5567.13 L 975.687,5550.68 L 961.875,5536.66 L 945.593,5525.6 L 927.489,5517.94 L 926.295,5517.7 L 917.598,5522.63 L 917.598,5557.38 L 927.598,5561.83 L 937.746,5569.21 L 946.139,5578.53 L 952.411,5589.39 L 956.287,5601.32 L 957.598,5613.8 L 957.598,5733.8 L 956.287,5746.27 L 952.411,5758.2 L 946.139,5769.06 L 937.746,5778.38 L 927.598,5785.76 L 916.139,5790.86 L 903.87,5793.47 L 891.327,5793.47 L 879.057,5790.86 L 867.598,5785.76 L 857.451,5778.38 L 849.057,5769.06 L 842.786,5758.2 L 838.91,5746.27 L 837.598,5733.8 L 837.598,5693.8 L 797.598,5693.8 L 797.598,5742.85 L 801.3,5762.22 L 803.123,5766.72 L 803.854,5770.53 L 803.652,5772.48 L 802.148,5776.06 L 799.391,5778.8 L 795.798,5780.28 L 355.864,5780.47 L 353.914,5780.28 L 350.309,5778.79 L 347.55,5776.03 L 346.626,5774.3 L 345.864,5770.47 L 346.625,5766.64 L 355.269,5753.36 L 365.703,5728.17 L 371.022,5701.43 L 371.022,5674.16 L 365.702,5647.42 L 355.269,5622.23 L 340.119,5599.55 L 320.837,5580.27 L 314.896,5576.07 L 312.729,5572.83 L 311.968,5569 L 311.968,4404.86 L 312.124,4403.11 L 313.339,4399.81 L 314.361,4398.37 L 317.99,4395.19 L 327.912,4383.1 L 335.281,4369.31 L 339.819,4354.35 L 341.352,4338.79 L 340.968,4334.41 L 341.175,4296.9 L 341.784,4294.97 L 342.773,4293.19 L 344.099,4291.66 L 345.708,4290.42 L 347.534,4289.53 L 349.502,4289.03 L 351.53,4288.94 L 353.535,4289.26 L 355.434,4289.98 L 357.149,4291.06 L 358.609,4292.47 L 359.755,4294.15 L 365.762,4313.25 L 375.047,4330.62 L 387.544,4345.85 L 402.771,4358.34 L 418.679,4367.07 L 421.154,4370.08 L 422.286,4373.82 L 421.904,4377.7 L 421.153,4379.51 L 418.678,4382.53 L 402.771,4391.24 L 387.544,4403.74 L 375.048,4418.97 L 365.762,4436.34 L 360.044,4455.19 L 358.113,4474.8 L 360.044,4494.4 L 365.762,4513.25 L 375.047,4530.62 L 387.544,4545.85 L 402.771,4558.34 L 418.679,4567.07 L 421.154,4570.08 L 422.286,4573.82 L 421.904,4577.7 L 421.153,4579.51 L 418.678,4582.53 L 402.771,4591.24 L 387.544,4603.74 L 375.048,4618.97 L 365.762,4636.34 L 360.044,4655.19 L 358.113,4674.8 L 360.044,4694.4 L 365.762,4713.25 L 375.048,4730.62 L 387.544,4745.85 L 402.771,4758.34 L 418.679,4767.07 L 421.154,4770.08 L 422.286,4773.82 L 421.904,4777.7 L 421.153,4779.51 L 418.678,4782.53 L 402.771,4791.24 L 387.544,4803.74 L 375.047,4818.97 L 365.762,4836.34 L 360.044,4855.19 L 358.113,4874.8 L 360.044,4894.4 L 365.762,4913.25 L 375.048,4930.62 L 387.544,4945.85 L 402.771,4958.34 L 418.905,4967.21 L 420.338,4968.68 L 421.439,4970.42 L 422.162,4972.34 L 422.476,4974.37 L 422.368,4976.43 L 421.842,4978.41 L 420.921,4980.25 L 419.643,4981.86 L 418.063,4983.18 L 416.248,4984.14 L 411.933,4985.89 L 395.487,4996.7 L 381.464,5010.52 L 370.406,5026.8 L 362.748,5044.9 L 362.507,5046.1 L 367.439,5054.8 L 402.184,5054.8M 498.598,5134.8 L 458.598,5134.8 L 446.124,5133.48 L 434.194,5129.61 L 423.331,5123.34 L 414.01,5114.94 L 406.637,5104.8 L 402.184,5094.8 L 367.438,5094.8 L 362.507,5103.49 L 362.748,5104.68 L 370.407,5122.79 L 381.464,5139.07 L 395.486,5152.88 L 411.934,5163.7 L 430.175,5171.09 L 449.545,5174.8 L 498.598,5174.8 L 498.598,5134.8M 538.598,5134.8 L 538.598,5174.8 L 587.651,5174.8 L 607.02,5171.09 L 625.262,5163.7 L 641.708,5152.88 L 655.731,5139.07 L 666.788,5122.79 L 674.447,5104.68 L 674.688,5103.49 L 669.757,5094.8 L 635.012,5094.8 L 630.56,5104.8 L 623.187,5114.94 L 613.866,5123.34 L 603.003,5129.61 L 591.073,5133.48 L 578.598,5134.8 L 538.598,5134.8 z " style="fill-opacity:1.000000;fill:rgb(62,161,65);stroke:rgb(0,0,0);stroke-width:2"/></g>
<g fill-rule="evenodd"><path d="M 900.811,5189.16 L 863.907,5189.16 L 761.969,5291.1 L 761.968,5358.17 L 771.811,5362.56 L 788.458,5374.65 L 802.226,5389.94 L 812.514,5407.76 L 818.873,5427.33 L 821.024,5447.8 L 818.873,5468.26 L 812.514,5487.83 L 802.226,5505.65 L 788.458,5520.94 L 771.811,5533.03 L 753.013,5541.4 L 732.887,5545.68 L 712.31,5545.68 L 692.183,5541.4 L 673.386,5533.03 L 656.739,5520.94 L 642.971,5505.65 L 632.683,5487.83 L 626.324,5468.26 L 624.173,5447.8 L 626.324,5427.33 L 632.683,5407.76 L 642.971,5389.94 L 656.739,5374.65 L 673.386,5362.56 L 683.228,5358.17 L 683.228,5274.79 L 683.985,5267.11 L 686.225,5259.73 L 689.863,5252.92 L 694.76,5246.95 L 802.904,5138.81 L 803.155,5137.63 L 806.503,5130.11 L 811.341,5123.45 L 817.457,5117.94 L 824.585,5113.83 L 832.413,5111.28 L 840.598,5110.42 L 900.811,5110.42 L 900.811,5086.8 L 912.62,5086.8 L 912.62,4989.85 L 900.811,4989.85 L 900.811,4871.74 L 1003.17,4871.74 L 1003.17,4989.85 L 991.36,4989.85 L 991.36,5086.8 L 1003.17,5086.8 L 1003.17,5212.79 L 900.811,5212.79 L 900.811,5189.16 z " style="fill-opacity:1.000000;fill:rgb(225,252,103);stroke:rgb(0,0,0);stroke-width:2"/></g>
<g fill-rule="evenodd"><path d="M 1352.89,5289.4 L 1274.15,5289.4 L 1274.15,5194.91 L 1510.37,5194.91 L 1510.37,5289.4 L 1431.63,5289.4 L 1431.63,5848.13 L 1430.87,5855.81 L 1428.63,5863.2 L 1424.99,5870.01 L 1420.1,5875.97 L 1408.39,5887.68 L 1402.42,5892.58 L 1395.62,5896.21 L 1388.23,5898.45 L 1380.55,5899.21 L 68.5044,5899.21 L 60.3189,5898.35 L 52.4912,5895.81 L 45.3633,5891.69 L 39.2468,5886.19 L 34.4089,5879.53 L 31.0613,5872.01 L 29.35,5863.96 L 29.35,5855.73 L 31.0613,5847.68 L 32.2537,5845 L 29.8908,5837.38 L 29.1343,5829.7 L 29.1343,3009.89 L 29.8909,3002.21 L 32.1313,2994.82 L 35.7696,2988.01 L 40.6659,2982.05 L 59.2611,2963.45 L 54.3241,2948.26 L 52.1732,2927.8 L 54.3241,2907.33 L 60.6825,2887.76 L 70.9708,2869.94 L 84.7391,2854.65 L 101.386,2842.56 L 120.183,2834.19 L 140.31,2829.91 L 160.887,2829.91 L 181.013,2834.19 L 199.811,2842.56 L 216.458,2854.65 L 230.226,2869.94 L 240.514,2887.76 L 246.873,2907.33 L 249.024,2927.8 L 246.873,2948.26 L 240.514,2967.83 L 230.226,2985.65 L 216.458,3000.94 L 199.811,3013.03 L 181.013,3021.4 L 160.887,3025.68 L 140.31,3025.68 L 120.183,3021.4 L 114.982,3019.09 L 107.875,3026.19 L 107.874,3567.43 L 670.291,3567.43 L 682.228,3555.49 L 682.228,3114.99 L 682.985,3107.31 L 683.614,3105.24 L 683.614,3042.74 L 693.229,3042.74 L 693.229,2958.58 L 673.543,2958.58 L 673.543,2856.22 L 791.654,2856.22 L 791.654,2958.58 L 771.969,2958.58 L 771.969,3042.74 L 785.976,3042.74 L 785.976,3160.85 L 760.969,3160.85 L 760.969,3571.8 L 760.212,3579.48 L 757.972,3586.86 L 754.333,3593.67 L 749.437,3599.63 L 714.437,3634.63 L 708.471,3639.53 L 701.665,3643.17 L 694.279,3645.41 L 686.598,3646.17 L 107.874,3646.17 L 107.875,5813.39 L 114.952,5820.47 L 1352.89,5820.47 L 1352.89,5289.4 z " style="fill-opacity:1.000000;fill:rgb(62,1,126);stroke:rgb(0,0,0);stroke-width:2"/></g>
<g fill-rule="evenodd"><path d="M 1152.78,5154.29 L 1152.78,5212.79 L 1140.97,5212.79 L 1140.97,5302.74 L 1147.78,5302.74 L 1147.78,5420.85 L 1135.97,5420.85 L 1135.97,5567.92 L 1137.75,5569.21 L 1146.14,5578.53 L 1152.41,5589.39 L 1156.29,5601.32 L 1157.6,5613.8 L 1157.6,5733.8 L 1156.29,5746.27 L 1152.41,5758.2 L 1146.14,5769.06 L 1137.75,5778.38 L 1127.6,5785.76 L 1116.14,5790.86 L 1103.87,5793.47 L 1091.33,5793.47 L 1079.06,5790.86 L 1067.6,5785.76 L 1057.45,5778.38 L 1049.06,5769.06 L 1042.79,5758.2 L 1038.91,5746.27 L 1037.6,5733.8 L 1037.6,5613.8 L 1038.91,5601.32 L 1042.79,5589.39 L 1049.06,5578.53 L 1057.23,5569.45 L 1057.23,5420.85 L 1045.42,5420.85 L 1045.42,5302.74 L 1062.23,5302.74 L 1062.23,5212.79 L 1050.42,5212.79 L 1050.42,5086.8 L 1108.91,5086.8 L 1138.88,5056.83 L 1144.84,5051.94 L 1151.65,5048.3 L 1159.04,5046.06 L 1166.72,5045.3 L 1274.15,5045.3 L 1274.15,5037.43 L 1510.37,5037.43 L 1510.37,5131.92 L 1274.15,5131.92 L 1274.15,5124.04 L 1183.02,5124.04 L 1152.78,5154.29 z " style="fill-opacity:1.000000;fill:rgb(151,234,220);stroke:rgb(0,0,0);stroke-width:2"/></g>
<g fill-rule="evenodd"><path d="M 1274.15,4887.83 L 1274.15,4879.95 L 1510.37,4879.95 L 1510.37,4974.44 L 1274.15,4974.44 L 1274.15,4966.57 L 1152.78,4966.57 L 1152.78,4989.85 L 1050.42,4989.85 L 1050.42,4871.74 L 1152.78,4871.74 L 1152.78,4887.83 L 1274.15,4887.83 z " style="fill-opacity:1.000000;fill:rgb(107,150,143);stroke:rgb(0,0,0);stroke-width:2"/></g>
<g fill-rule="evenodd"><path d="M 1341.04,4092.55 L 1341.04,3954.38 L 1334.24,3949.44 L 1320.47,3934.15 L 1310.18,3916.33 L 1303.82,3896.76 L 1301.67,3876.3 L 1303.82,3855.83 L 1310.18,3836.26 L 1314.1,3829.48 L 1314.1,3650.3 L 1315.75,3633.52 L 1320.64,3617.38 L 1328.59,3602.52 L 1339.29,3589.48 L 1500.67,3428.1 L 1504.68,3415.76 L 1514.97,3397.94 L 1528.74,3382.65 L 1545.39,3370.56 L 1564.18,3362.19 L 1584.31,3357.91 L 1604.89,3357.91 L 1625.01,3362.19 L 1643.81,3370.56 L 1660.46,3382.65 L 1674.23,3397.94 L 1684.51,3415.76 L 1690.87,3435.33 L 1693.02,3455.8 L 1690.87,3476.26 L 1684.51,3495.83 L 1674.23,3513.65 L 1660.46,3528.94 L 1643.81,3541.03 L 1625.01,3549.4 L 1621.96,3550.05 L 1486.1,3685.92 L 1486.1,3736.33 L 1491.53,3733.42 L 1498.92,3731.18 L 1506.6,3730.43 L 3255.6,3730.43 L 3263.28,3731.18 L 3270.66,3733.42 L 3277.47,3737.06 L 3283.44,3741.96 L 3314.44,3772.96 L 3319.33,3778.92 L 3322.97,3785.73 L 3325.21,3793.11 L 3325.97,3800.8 L 3325.97,4451.52 L 3325.21,4459.2 L 3322.97,4466.59 L 3319.33,4473.39 L 3314.44,4479.36 L 3310.16,4483.63 L 3304.2,4488.53 L 3297.39,4492.17 L 3290,4494.41 L 3282.32,4495.17 L 3203.58,4495.17 L 3203.58,4514.85 L 3191.77,4514.85 L 3191.77,4571.74 L 3203.78,4571.74 L 3203.78,4689.85 L 3101.42,4689.85 L 3101.42,4571.74 L 3113.03,4571.74 L 3113.03,4514.85 L 3101.22,4514.85 L 3101.22,4396.74 L 3203.58,4396.74 L 3203.58,4416.43 L 3247.23,4416.43 L 3247.23,3817.1 L 3239.29,3809.17 L 1522.91,3809.17 L 1491.44,3840.64 L 1496.37,3855.83 L 1498.52,3876.3 L 1496.37,3896.76 L 1490.01,3916.33 L 1479.73,3934.15 L 1465.96,3949.44 L 1459.15,3954.38 L 1459.15,4092.55 L 1510.37,4092.55 L 1510.37,4187.04 L 1427.24,4187.04 L 1424.42,4189.32 L 1413.42,4194.93 L 1401.5,4198.12 L 1389.17,4198.77 L 1376.97,4196.84 L 1365.45,4192.41 L 1357.17,4187.04 L 1274.15,4187.04 L 1274.15,4174.17 L 1184.78,4174.17 L 1184.78,4193.85 L 1082.42,4193.85 L 1082.42,4075.74 L 1184.78,4075.74 L 1184.78,4095.42 L 1274.15,4095.43 L 1274.15,4092.55 L 1341.04,4092.55 z " style="fill-opacity:1.000000;fill:rgb(56,92,42);stroke:rgb(0,0,0);stroke-width:2"/></g>
<g fill-rule="evenodd"><path d="M 613.62,2338.1 L 588.163,2312.65 L 580.239,2314.53 L 574.269,2327.47 L 570.029,2345.09 L 569.31,2363.19 L 572.137,2381.1 L 578.503,2398.38 L 579.892,2400.97 L 593.598,2404.23 L 597.09,2405.82 L 598.544,2407.09 L 600.599,2410.32 L 601.284,2414.1 L 601.072,2416.01 L 599.581,2419.55 L 590.526,2428.87 L 587.282,2431.03 L 583.454,2431.8 L 558.93,2431.8 L 555.104,2431.03 L 551.859,2428.87 L 536.417,2413.42 L 532.123,2408.27 L 512.938,2392.52 L 491.049,2380.82 L 467.299,2373.62 L 442.599,2371.19 L 435.916,2371.8 L 251.134,2371.8 L 247.308,2371.03 L 244.063,2368.87 L 241.896,2365.62 L 241.134,2361.8 L 241.134,1982.66 L 241.896,1978.84 L 244.063,1975.59 L 247.308,1973.42 L 251.135,1972.66 L 254.961,1973.42 L 258.206,1975.59 L 324.778,2042.17 L 329.07,2047.32 L 348.256,2063.07 L 370.147,2074.77 L 393.896,2081.97 L 418.599,2084.4 L 425.278,2083.8 L 788.264,2083.8 L 792.091,2084.56 L 795.335,2086.72 L 899.413,2190.8 L 901.581,2194.05 L 907.927,2209.36 L 923.076,2232.03 L 942.357,2251.32 L 965.03,2266.47 L 990.218,2276.9 L 1016.96,2282.22 L 1044.23,2282.22 L 1070.98,2276.9 L 1096.17,2266.47 L 1118.84,2251.32 L 1138.12,2232.03 L 1153.27,2209.36 L 1163.7,2184.17 L 1169.02,2157.43 L 1169.02,2130.16 L 1163.7,2103.42 L 1153.27,2078.23 L 1138.12,2055.55 L 1118.84,2036.27 L 1096.17,2021.12 L 1080.85,2014.78 L 1077.61,2012.61 L 938.417,1873.42 L 934.125,1868.27 L 914.939,1852.52 L 893.049,1840.82 L 869.299,1833.62 L 844.599,1831.19 L 837.916,1831.8 L 474.93,1831.8 L 472.979,1831.6 L 469.374,1830.11 L 461.526,1822.53 L 459.359,1819.29 L 458.79,1817.41 L 458.598,1736.6 L 456.775,1718.09 L 449.569,1694.34 L 437.87,1672.45 L 422.124,1653.27 L 402.937,1637.52 L 386.464,1628.72 L 383.448,1626.24 L 381.609,1622.8 L 381.226,1620.88 L 381.61,1616.99 L 382.36,1615.18 L 384.836,1612.17 L 389.984,1609.2 L 395.004,1605.27 L 396.565,1604.55 L 399.934,1603.97 L 1029.38,1603.97 L 1033.21,1604.73 L 1036.46,1606.9 L 1040.3,1610.74 L 1041.54,1612.26 L 1043.03,1615.86 L 1043.08,1651.21 L 1042.64,1652.87 L 1040.96,1655.84 L 1027.33,1672.45 L 1015.63,1694.34 L 1008.42,1718.09 L 1005.99,1742.8 L 1008.42,1767.5 L 1015.63,1791.24 L 1027.33,1813.13 L 1043.07,1832.32 L 1062.26,1848.07 L 1084.15,1859.77 L 1107.9,1866.97 L 1126.41,1868.8 L 1487.6,1868.8 L 1491.43,1869.56 L 1494.67,1871.72 L 1496.84,1874.97 L 1497.6,1878.8 L 1497.6,1941.01 L 1496.96,1944.53 L 1496.18,1946.15 L 1493.81,1948.84 L 1492.19,1949.89 L 1475.44,1963.64 L 1461.69,1980.38 L 1451.48,1999.49 L 1445.19,2020.23 L 1443.06,2041.8 L 1445.19,2063.36 L 1451.48,2084.09 L 1461.69,2103.2 L 1475.44,2119.95 L 1492.19,2133.7 L 1511.3,2143.91 L 1532.03,2150.2 L 1548.19,2151.8 L 1561.22,2151.93 L 1564.31,2152.98 L 1575.14,2158.77 L 1598.9,2165.97 L 1623.6,2168.4 L 1630.28,2167.8 L 1902.6,2167.8 L 1904.55,2167.99 L 1908.15,2169.48 L 1910.91,2172.24 L 1912.41,2175.84 L 1912.6,2177.8 L 1912.6,2741.96 L 1912.41,2743.91 L 1910.91,2747.52 L 1894.83,2771.48 L 1884.28,2796.96 L 1878.9,2824.01 L 1878.9,2851.58 L 1884.28,2878.63 L 1894.83,2904.11 L 1910.15,2927.04 L 1929.65,2946.54 L 1952.58,2961.86 L 1978.06,2972.41 L 2005.11,2977.8 L 2032.69,2977.8 L 2059.73,2972.41 L 2078.71,2964.56 L 2082.53,2963.8 L 2939.26,2963.8 L 2943.09,2964.56 L 2946.34,2966.72 L 3333.29,3353.68 L 3334.34,3354.92 L 3335.79,3357.84 L 3340.76,3374.25 L 3350.05,3391.62 L 3362.54,3406.85 L 3377.77,3419.34 L 3392.2,3427.06 L 3393.91,3428.21 L 3395.34,3429.68 L 3396.44,3431.42 L 3397.16,3433.34 L 3397.48,3435.37 L 3397.37,3437.43 L 3396.84,3439.41 L 3395.92,3441.25 L 3394.64,3442.86 L 3393.06,3444.18 L 3391.25,3445.14 L 3386.93,3446.89 L 3370.49,3457.7 L 3356.46,3471.52 L 3345.41,3487.8 L 3337.75,3505.9 L 3337.51,3507.1 L 3342.44,3515.8 L 3377.18,3515.8 L 3381.64,3505.8 L 3389.01,3495.65 L 3398.33,3487.25 L 3409.19,3480.98 L 3421.12,3477.11 L 3433.6,3475.8 L 3553.6,3475.8 L 3566.07,3477.11 L 3578,3480.98 L 3588.87,3487.25 L 3598.19,3495.65 L 3605.56,3505.8 L 3610.01,3515.8 L 3644.76,3515.8 L 3649.69,3507.1 L 3649.45,3505.9 L 3641.79,3487.8 L 3630.73,3471.52 L 3616.71,3457.7 L 3600.26,3446.89 L 3595.95,3445.14 L 3594.13,3444.18 L 3592.55,3442.86 L 3591.27,3441.25 L 3590.35,3439.41 L 3589.83,3437.43 L 3589.72,3435.37 L 3590.03,3433.34 L 3590.76,3431.42 L 3591.86,3429.68 L 3593.29,3428.21 L 3609.42,3419.34 L 3624.65,3406.85 L 3637.15,3391.62 L 3646.43,3374.25 L 3652.15,3355.4 L 3654.08,3335.8 L 3652.15,3316.19 L 3646.43,3297.34 L 3637.15,3279.97 L 3624.65,3264.74 L 3609.42,3252.24 L 3592.05,3242.96 L 3575.65,3237.98 L 3574.13,3237.38 L 3571.48,3235.48 L 3085.42,2749.42 L 3081.12,2744.27 L 3061.94,2728.52 L 3040.05,2716.82 L 3016.3,2709.62 L 2991.6,2707.19 L 2966.9,2709.62 L 2961.14,2711.36 L 2958.24,2711.8 L 2174.6,2711.8 L 2170.77,2711.03 L 2167.53,2708.87 L 2165.36,2705.62 L 2164.6,2701.8 L 2164.6,2093.48 L 2165.21,2086.79 L 2162.77,2062.09 L 2155.57,2038.34 L 2143.87,2016.45 L 2128.12,1997.27 L 2122.97,1992.97 L 2108.32,1978.33 L 2087.42,1957.42 L 2083.12,1952.27 L 2063.94,1936.52 L 2042.05,1924.82 L 2018.3,1917.62 L 1993.6,1915.19 L 1986.92,1915.8 L 1759.6,1915.8 L 1757.65,1915.6 L 1754.04,1914.11 L 1751.28,1911.35 L 1749.79,1907.75 L 1749.6,1905.8 L 1749.6,1709.48 L 1750.21,1702.8 L 1749.6,1696.11 L 1749.76,1540.79 L 1750.24,1539.06 L 1752.08,1535.99 L 1771.76,1519.95 L 1785.5,1503.2 L 1795.71,1484.09 L 1802,1463.36 L 1804.13,1441.8 L 1802,1420.23 L 1795.72,1399.5 L 1785.86,1380.6 L 1785.49,1378.58 L 1785.54,1376.52 L 1786.01,1374.52 L 1786.88,1372.65 L 1788.11,1371.01 L 1789.66,1369.65 L 1791.45,1368.63 L 1793.41,1368.01 L 1795.45,1367.8 L 1846.6,1367.8 L 1848.55,1367.99 L 1852.15,1369.48 L 1854.91,1372.24 L 1856.41,1375.84 L 1856.6,1377.8 L 1856.6,1561.11 L 1855.99,1567.8 L 1858.42,1592.5 L 1865.63,1616.25 L 1877.33,1638.13 L 1893.07,1657.32 L 1898.23,1661.61 L 2018.78,1782.17 L 2023.07,1787.32 L 2042.26,1803.07 L 2064.15,1814.77 L 2087.9,1821.97 L 2112.6,1824.4 L 2119.28,1823.8 L 2697.61,1823.8 L 2699.67,1824.01 L 2701.64,1824.64 L 2703.44,1825.67 L 2704.98,1827.04 L 2706.22,1828.7 L 2707.08,1830.58 L 2707.54,1832.6 L 2707.57,1834.67 L 2706.96,1837.44 L 2706.14,1845.74 L 2706.35,1881.6 L 2713.02,1888.27 L 2746.38,1888.27 L 2746.38,1845.28 L 2982.6,1845.28 L 2982.6,1888.27 L 3015.96,1888.27 L 3022.62,1881.6 L 3022.84,1845.74 L 3022.02,1837.43 L 3021.4,1834.67 L 3021.44,1832.6 L 3021.89,1830.58 L 3022.76,1828.7 L 3023.99,1827.04 L 3025.54,1825.67 L 3027.34,1824.64 L 3029.31,1824.01 L 3031.36,1823.8 L 3186.26,1823.8 L 3188.22,1823.99 L 3191.82,1825.48 L 3208.34,1842 L 3209.83,1845.6 L 3210.02,1847.55 L 3209.83,1849.5 L 3208.34,1853.11 L 3205.58,1855.87 L 3201.97,1857.36 L 3183.13,1857.55 L 3174.79,1858.37 L 3167.26,1860.66 L 3160.31,1864.37 L 3154.22,1869.37 L 3149.22,1875.46 L 3145.5,1882.41 L 3143.22,1889.95 L 3142.39,1898.29 L 3142.39,2277.3 L 3143.22,2285.64 L 3145.5,2293.18 L 3149.22,2300.12 L 3154.22,2306.22 L 3160.31,2311.21 L 3167.26,2314.93 L 3174.8,2317.22 L 3183.13,2318.04 L 3632.14,2318.04 L 3640.48,2317.22 L 3648.02,2314.93 L 3654.97,2311.21 L 3661.06,2306.22 L 3666.06,2300.12 L 3669.77,2293.18 L 3672.06,2285.64 L 3672.88,2277.3 L 3672.88,1898.29 L 3672.06,1889.95 L 3669.77,1882.41 L 3666.06,1875.46 L 3661.06,1869.37 L 3654.97,1864.37 L 3648.02,1860.66 L 3640.48,1858.37 L 3632.14,1857.55 L 3533.77,1857.55 L 3530.18,1856.88 L 3527.06,1854.96 L 3525.82,1853.61 L 3524.17,1850.34 L 3521.81,1828.13 L 3514.61,1804.38 L 3502.91,1782.49 L 3487.16,1763.31 L 3482.01,1759.01 L 3336.42,1613.42 L 3332.12,1608.27 L 3312.94,1592.52 L 3291.05,1580.82 L 3267.3,1573.62 L 3242.6,1571.19 L 3235.92,1571.8 L 2848.99,1571.8 L 2846.96,1571.59 L 2845.02,1570.98 L 2843.24,1569.98 L 2841.71,1568.65 L 2840.47,1567.03 L 2839.58,1565.2 L 2839.09,1563.23 L 2839,1561.19 L 2839.33,1559.18 L 2840.06,1557.28 L 2841.16,1555.57 L 2842.58,1554.11 L 2844.98,1552.6 L 2864.17,1536.85 L 2879.92,1517.66 L 2891.62,1495.77 L 2898.82,1472.02 L 2901.25,1447.32 L 2898.82,1422.62 L 2891.62,1398.87 L 2879.92,1376.98 L 2864.17,1357.8 L 2844.99,1342.05 L 2823.1,1330.35 L 2799.34,1323.14 L 2780.84,1321.32 L 2415.44,1321.32 L 2413.49,1321.13 L 2409.89,1319.64 L 2388.17,1305.12 L 2362.98,1294.69 L 2336.23,1289.37 L 2308.96,1289.37 L 2282.22,1294.69 L 2257.03,1305.12 L 2234.36,1320.27 L 2215.08,1339.55 L 2199.93,1362.23 L 2189.49,1387.42 L 2184.17,1414.16 L 2184.17,1441.43 L 2189.49,1468.17 L 2199.93,1493.36 L 2215.08,1516.03 L 2234.36,1535.32 L 2257.03,1550.47 L 2262.08,1552.56 L 2265.32,1554.73 L 2266.56,1556.24 L 2268.06,1559.85 L 2268.25,1561.8 L 2267.49,1565.62 L 2266.56,1567.35 L 2263.8,1570.11 L 2262.08,1571.03 L 2258.25,1571.8 L 2168.93,1571.8 L 2165.1,1571.03 L 2161.86,1568.87 L 2111.53,1518.53 L 2110.28,1517.02 L 2108.79,1513.41 L 2108.6,1264.48 L 2109.21,1257.79 L 2106.78,1233.09 L 2099.57,1209.34 L 2087.87,1187.45 L 2072.12,1168.27 L 2066.97,1163.97 L 2060.42,1157.42 L 2056.12,1152.27 L 2036.94,1136.52 L 2015.05,1124.82 L 1991.3,1117.62 L 1966.6,1115.19 L 1959.92,1115.8 L 1617.41,1115.8 L 1598.9,1117.62 L 1575.15,1124.82 L 1564.31,1130.61 L 1561.23,1131.66 L 1548.19,1131.8 L 1532.03,1133.39 L 1511.3,1139.68 L 1492.19,1149.89 L 1479.68,1160.15 L 1478.27,1161.12 L 1475.05,1162.28 L 1373.62,1162.42 L 1369.79,1161.66 L 1366.55,1159.49 L 1267.81,1060.76 L 1264.98,1057.38 L 1252.89,1047.47 L 1239.1,1040.09 L 1224.14,1035.56 L 1208.59,1034.02 L 1204.19,1034.41 L 554.96,1034.41 L 551.131,1033.65 L 548.693,1032.25 L 531.953,1025.32 L 514.177,1021.78 L 496.056,1021.78 L 478.281,1025.31 L 461.538,1032.25 L 446.471,1042.32 L 433.656,1055.13 L 423.587,1070.2 L 416.652,1086.94 L 414.924,1095.63 L 413.431,1099.23 L 410.672,1101.99 L 408.943,1102.92 L 405.116,1103.68 L 401.29,1102.92 L 399.561,1101.99 L 396.802,1099.23 L 395.309,1095.63 L 393.581,1086.94 L 386.647,1070.2 L 376.579,1055.13 L 363.765,1042.32 L 348.696,1032.25 L 331.952,1025.32 L 314.177,1021.78 L 296.056,1021.78 L 278.281,1025.32 L 261.54,1032.25 L 256.691,1035.49 L 253.086,1036.98 L 251.135,1037.18 L 247.308,1036.41 L 244.064,1034.25 L 242.82,1032.73 L 241.896,1031 L 241.134,1027.18 L 241.134,842.795 L 241.327,840.844 L 242.82,837.24 L 245.579,834.481 L 247.308,833.556 L 251.134,832.795 L 1074.79,832.795 L 1093.3,830.972 L 1117.05,823.766 L 1138.94,812.067 L 1158.12,796.319 L 1173.87,777.134 L 1185.57,755.246 L 1192.78,731.494 L 1195.21,706.795 L 1192.78,682.095 L 1185.57,658.342 L 1173.87,636.455 L 1158.12,617.269 L 1138.94,601.522 L 1117.05,589.822 L 1093.3,582.617 L 1074.79,580.795 L 171.278,580.795 L 164.598,580.186 L 139.896,582.617 L 116.147,589.822 L 94.2572,601.522 L 75.0713,617.269 L 70.7554,622.446 L 68.9164,624.004 L 67.1873,624.922 L 63.3637,625.673 L 59.5432,624.906 L 57.8179,623.981 L 56.306,622.737 L 54.1436,619.495 L 53.3844,615.673 L 53.3844,63.3853 L 54.1456,59.5584 L 56.3134,56.3142 L 59.5576,54.1465 L 63.3844,53.3853 L 2228.67,53.3853 L 2232.5,54.1465 L 2234.23,55.0706 L 2236.99,57.8297 L 2238.48,61.4345 L 2238.48,65.3364 L 2236.99,68.9412 L 2195.23,110.975 L 2190.07,115.267 L 2174.33,134.453 L 2162.63,156.342 L 2155.42,180.093 L 2152.99,204.794 L 2153.6,211.475 L 2153.6,444.461 L 2152.84,448.288 L 2150.67,451.532 L 2047.34,554.866 L 2044.09,557.034 L 2040.26,557.795 L 1794.41,557.795 L 1775.9,559.617 L 1752.15,566.823 L 1730.26,578.521 L 1711.07,594.267 L 1695.33,613.454 L 1683.63,635.344 L 1676.42,659.093 L 1673.99,683.795 L 1676.42,708.495 L 1683.63,732.245 L 1695.33,754.135 L 1711.07,773.32 L 1730.26,789.066 L 1752.15,800.766 L 1775.9,807.972 L 1794.41,809.795 L 2089.92,809.795 L 2096.6,810.403 L 2121.3,807.972 L 2145.05,800.766 L 2166.94,789.066 L 2186.12,773.321 L 2190.42,768.166 L 2363.97,594.614 L 2369.12,590.321 L 2384.87,571.134 L 2396.57,549.245 L 2403.78,525.495 L 2406.21,500.795 L 2405.6,494.113 L 2405.6,261.127 L 2406.36,257.301 L 2408.53,254.057 L 2418.52,244.063 L 2420.03,242.819 L 2423.64,241.325 L 3708.71,241.133 L 3710.66,241.325 L 3714.26,242.819 L 3717.02,245.578 L 3718.51,249.182 L 3718.71,251.133 L 3718.71,2723.25 L 3718.51,2725.2 L 3717.02,2728.81 L 3697.55,2748.55 L 3682.23,2771.48 L 3671.68,2796.96 L 3666.3,2824.01 L 3666.3,2851.58 L 3671.68,2878.63 L 3682.23,2904.11 L 3697.56,2927.04 L 3717.05,2946.54 L 3739.98,2961.86 L 3765.46,2972.41 L 3792.51,2977.8 L 3820.09,2977.8 L 3847.13,2972.41 L 3872.61,2961.86 L 3876.78,2959.21 L 3891.05,2954.77 L 3893.65,2953.62 L 3895.68,2953.25 L 3897.73,2953.3 L 3899.74,2953.77 L 3901.6,2954.64 L 3903.25,2955.87 L 3904.6,2957.42 L 3905.62,2959.21 L 3906.24,2961.17 L 3906.46,2963.22 L 3906.46,4008.15 L 3906.25,4010.18 L 3905.63,4012.12 L 3904.63,4013.9 L 3903.29,4015.44 L 3901.67,4016.68 L 3899.82,4017.56 L 3897.84,4018.05 L 3895.8,4018.12 L 3893.79,4017.78 L 3891.89,4017.04 L 3890.17,4015.93 L 3888.73,4014.49 L 3885.65,4010.74 L 3870.42,3998.24 L 3853.05,3988.96 L 3834.2,3983.24 L 3819.51,3981.8 L 3689.69,3981.8 L 3674.99,3983.24 L 3656.14,3988.96 L 3638.77,3998.24 L 3635.03,4001.12 L 3631.81,4002.28 L 3523.99,4002.42 L 3519.6,4002.04 L 3504.04,4003.57 L 3489.08,4008.11 L 3475.29,4015.48 L 3463.2,4025.4 L 3460.37,4028.78 L 3383.85,4105.22 L 3380.6,4107.62 L 3378.7,4108.38 L 3376.68,4108.73 L 3374.63,4108.67 L 3372.64,4108.19 L 3370.79,4107.31 L 3369.15,4106.08 L 3367.81,4104.54 L 3366.8,4102.75 L 3366.18,4100.8 L 3365.97,4098.76 L 3365.97,3805.18 L 3366.35,3800.79 L 3364.82,3785.24 L 3360.28,3770.27 L 3352.91,3756.49 L 3342.99,3744.4 L 3339.62,3741.57 L 3314.83,3716.78 L 3311.99,3713.4 L 3299.91,3703.48 L 3286.12,3696.11 L 3271.16,3691.57 L 3255.6,3690.04 L 3251.21,3690.42 L 1560.35,3690.23 L 1556.74,3688.74 L 1555.23,3687.49 L 1553.06,3684.25 L 1552.49,3682.37 L 1552.49,3678.47 L 1553.99,3674.87 L 1555.23,3673.35 L 1641.61,3586.98 L 1644.85,3584.81 L 1660.16,3578.47 L 1682.84,3563.32 L 1702.12,3544.03 L 1717.27,3521.36 L 1727.7,3496.17 L 1733.02,3469.43 L 1733.02,3442.16 L 1727.7,3415.42 L 1717.27,3390.23 L 1702.12,3367.55 L 1682.84,3348.27 L 1660.17,3333.12 L 1634.97,3322.69 L 1608.23,3317.37 L 1580.96,3317.37 L 1554.22,3322.69 L 1529.03,3333.12 L 1506.36,3348.27 L 1487.08,3367.55 L 1471.93,3390.23 L 1465.58,3405.54 L 1463.41,3408.79 L 1315.73,3556.47 L 1310.57,3560.77 L 1294.83,3579.95 L 1283.13,3601.84 L 1275.92,3625.59 L 1273.49,3650.29 L 1274.1,3656.98 L 1274.1,3816.77 L 1273.34,3820.6 L 1266.99,3835.92 L 1261.67,3862.66 L 1261.67,3889.93 L 1266.99,3916.67 L 1277.43,3941.86 L 1292.58,3964.53 L 1299.36,3971.59 L 1300.85,3975.19 L 1301.04,4042.31 L 1300.85,4044.26 L 1299.36,4047.86 L 1296.6,4050.62 L 1292.99,4052.12 L 1291.04,4052.31 L 1274.64,4052.31 L 1266.31,4053.13 L 1260.16,4054.99 L 1257.26,4055.42 L 1222.82,4055.27 L 1221.12,4054.81 L 1218.09,4053.03 L 1213.2,4047.32 L 1207.11,4042.32 L 1200.16,4038.61 L 1192.62,4036.32 L 1184.29,4035.5 L 1082.91,4035.5 L 1074.57,4036.32 L 1067.04,4038.6 L 1063.51,4040.49 L 1059.77,4041.62 L 1055.89,4041.24 L 1050.55,4038.6 L 1043.01,4036.32 L 1034.72,4035.5 L 1010.67,4035.7 L 1003.99,4042.38 L 1003.99,4075.74 L 1035.17,4075.74 L 1035.17,4193.85 L 932.811,4193.85 L 932.811,4154.8 L 899.452,4154.8 L 892.783,4161.46 L 892.572,4193.39 L 893.389,4201.69 L 894.786,4207.03 L 894.752,4209.1 L 894.294,4211.12 L 893.429,4213 L 892.197,4214.66 L 890.649,4216.03 L 888.852,4217.06 L 886.882,4217.69 L 884.824,4217.91 L 664.244,4217.75 L 662.541,4217.29 L 659.507,4215.51 L 649.65,4203.74 L 634.424,4191.24 L 617.051,4181.96 L 598.201,4176.24 L 583.508,4174.8 L 453.687,4174.8 L 438.993,4176.24 L 420.144,4181.96 L 402.771,4191.24 L 387.544,4203.74 L 378.625,4214.61 L 377.176,4216.05 L 375.464,4217.16 L 373.562,4217.9 L 371.549,4218.25 L 369.509,4218.17 L 367.526,4217.68 L 365.684,4216.8 L 364.059,4215.57 L 362.719,4214.03 L 361.72,4212.24 L 361.103,4210.3 L 360.894,4208.27 L 360.894,4154.91 L 360.073,4146.58 L 357.787,4139.04 L 355.902,4135.51 L 354.769,4131.78 L 355.151,4127.89 L 357.787,4122.55 L 360.073,4115.01 L 360.894,4106.68 L 360.894,4005.3 L 360.073,3996.97 L 357.787,3989.43 L 354.072,3982.48 L 349.074,3976.39 L 343.364,3971.5 L 342.341,3970.06 L 341.124,3966.77 L 341.161,3880.4 L 341.73,3878.53 L 343.898,3875.28 L 345.414,3874.04 L 348.698,3872.47 L 363.766,3862.4 L 376.579,3849.59 L 386.646,3834.52 L 393.581,3817.78 L 395.839,3807.44 L 398.056,3804.16 L 401.371,3802 L 403.283,3801.46 L 407.239,3801.53 L 410.856,3803.14 L 412.354,3804.45 L 414.44,3807.81 L 415.656,3814.24 L 422.023,3831.53 L 423.412,3834.12 L 431.683,3836.09 L 457.14,3810.64 L 454.254,3801.76 L 453.118,3790.94 L 454.254,3780.13 L 457.14,3771.25 L 431.684,3745.8 L 423.759,3747.68 L 417.789,3760.62 L 414.11,3774.97 L 413.025,3776.75 L 411.597,3778.26 L 409.886,3779.44 L 407.967,3780.25 L 405.924,3780.64 L 403.844,3780.6 L 401.818,3780.13 L 399.933,3779.25 L 398.271,3778 L 396.904,3776.43 L 395.89,3774.61 L 393.581,3764.11 L 386.647,3747.37 L 376.579,3732.3 L 363.765,3719.48 L 348.696,3709.42 L 339.012,3705.4 L 335.767,3703.24 L 334.524,3701.72 L 333.031,3698.12 L 333.031,3694.21 L 334.524,3690.61 L 337.283,3687.85 L 339.012,3686.93 L 342.838,3686.17 L 469.305,3686.36 L 472.953,3687.9 L 475.719,3690.73 L 477.171,3694.41 L 477.081,3698.37 L 475.463,3701.98 L 472.571,3704.68 L 464.536,3707.85 L 461.936,3709.24 L 459.968,3717.51 L 485.519,3743.06 L 489.049,3741.49 L 499.683,3739.23 L 510.554,3739.23 L 521.187,3741.49 L 524.715,3743.06 L 550.265,3717.51 L 548.38,3709.59 L 537.186,3704.18 L 535.657,3702.77 L 534.453,3701.08 L 533.625,3699.17 L 533.211,3697.13 L 533.227,3695.05 L 533.673,3693.02 L 534.53,3691.12 L 535.761,3689.44 L 537.312,3688.06 L 539.116,3687.02 L 541.095,3686.38 L 543.164,3686.17 L 682.208,3686.17 L 686.598,3686.55 L 702.155,3685.02 L 717.116,3680.48 L 730.905,3673.11 L 742.992,3663.19 L 745.825,3659.81 L 774.615,3631.02 L 777.99,3628.19 L 787.911,3616.1 L 795.281,3602.31 L 799.819,3587.35 L 801.352,3571.79 L 800.968,3567.41 L 800.968,3496.43 L 801.73,3492.61 L 803.898,3489.36 L 807.143,3487.19 L 809.019,3486.63 L 812.922,3486.63 L 814.798,3487.2 L 818.832,3489.66 L 844.025,3500.1 L 870.768,3505.42 L 898.033,3505.42 L 924.776,3500.1 L 949.969,3489.66 L 972.643,3474.51 L 991.922,3455.23 L 1007.07,3432.56 L 1017.51,3407.37 L 1022.83,3380.62 L 1022.83,3353.36 L 1017.51,3326.62 L 1007.07,3301.42 L 991.922,3278.75 L 972.643,3259.47 L 966.7,3255.27 L 965.456,3253.75 L 963.963,3250.15 L 963.918,3191.42 L 965.07,3188.2 L 969.001,3183.18 L 972.715,3176.23 L 975.003,3168.69 L 975.824,3160.35 L 975.824,3043.23 L 975.003,3034.9 L 972.715,3027.36 L 969.002,3020.41 L 964.004,3014.32 L 957.912,3009.32 L 950.962,3005.6 L 943.422,3003.32 L 935.091,3002.5 L 833.711,3002.5 L 827.107,3002.96 L 825.184,3002.57 L 821.743,3000.73 L 820.357,2999.35 L 818.517,2995.91 L 818.134,2992.02 L 819.267,2988.29 L 825.071,2980.91 L 828.786,2973.96 L 831.073,2966.42 L 831.894,2958.09 L 831.894,2856.71 L 831.073,2848.38 L 828.787,2840.84 L 826.901,2837.31 L 825.769,2833.58 L 826.151,2829.69 L 828.787,2824.35 L 831.073,2816.82 L 831.891,2808.52 L 831.688,2784.47 L 822.081,2774.87 L 819.914,2771.62 L 819.345,2769.75 L 819.345,2765.84 L 820.838,2762.24 L 822.081,2760.72 L 823.597,2759.48 L 827.202,2757.99 L 835.718,2757.8 L 837.826,2756.56 L 841.652,2755.8 L 845.479,2756.56 L 848.723,2758.73 L 858.777,2768.78 L 863.072,2773.94 L 882.256,2789.68 L 904.146,2801.38 L 927.897,2808.59 L 952.597,2811.02 L 959.278,2810.41 L 1574.3,2810.41 L 1580.98,2811.02 L 1605.68,2808.59 L 1629.43,2801.38 L 1651.32,2789.68 L 1670.51,2773.94 L 1674.8,2768.78 L 1688.86,2754.72 L 1692.1,2752.56 L 1693.98,2751.99 L 1699,2751.8 L 1715.16,2750.2 L 1735.9,2743.91 L 1755.01,2733.7 L 1771.76,2719.95 L 1785.5,2703.2 L 1795.71,2684.09 L 1802,2663.36 L 1804.13,2641.8 L 1802,2620.23 L 1795.71,2599.49 L 1785.5,2580.39 L 1771.75,2563.64 L 1755.01,2549.89 L 1735.9,2539.68 L 1715.16,2533.39 L 1699,2531.8 L 1687.6,2531.8 L 1684.38,2531.26 L 1672.05,2524.82 L 1648.3,2517.62 L 1623.6,2515.19 L 1598.9,2517.62 L 1575.15,2524.82 L 1564.31,2530.61 L 1561.23,2531.66 L 1548.19,2531.8 L 1532.03,2533.39 L 1511.3,2539.68 L 1492.19,2549.89 L 1483.16,2557.11 L 1481.6,2557.83 L 1478.23,2558.41 L 1006.98,2558.22 L 1003.37,2556.73 L 1001.86,2555.48 L 919.799,2473.42 L 915.508,2468.27 L 896.32,2452.52 L 874.431,2440.82 L 850.68,2433.62 L 825.981,2431.19 L 819.3,2431.8 L 739.74,2431.8 L 735.913,2431.03 L 732.668,2428.87 L 723.614,2419.55 L 722.123,2416.01 L 721.911,2414.1 L 722.596,2410.32 L 724.651,2407.09 L 727.774,2404.86 L 742.956,2401.06 L 748.926,2388.12 L 753.166,2370.5 L 753.885,2352.39 L 751.058,2334.49 L 744.692,2317.21 L 743.303,2314.61 L 735.031,2312.65 L 709.576,2338.1 L 712.462,2346.98 L 713.598,2357.8 L 712.462,2368.61 L 709.103,2378.95 L 703.667,2388.36 L 696.393,2396.44 L 687.598,2402.83 L 677.667,2407.25 L 667.034,2409.51 L 656.163,2409.51 L 645.53,2407.25 L 635.598,2402.83 L 626.804,2396.44 L 619.53,2388.36 L 614.094,2378.95 L 610.735,2368.61 L 609.598,2357.8 L 610.735,2346.98 L 613.62,2338.1M 2359.49,827.418 L 2354.17,854.16 L 2354.17,881.428 L 2359.49,908.172 L 2369.93,933.362 L 2385.08,956.035 L 2404.36,975.315 L 2427.03,990.466 L 2442.35,996.811 L 2445.59,998.978 L 2619.25,1172.64 L 2623.54,1177.79 L 2642.73,1193.54 L 2664.62,1205.24 L 2688.37,1212.44 L 2713.07,1214.88 L 2719.75,1214.27 L 2780.83,1214.27 L 2799.34,1212.44 L 2823.1,1205.24 L 2844.99,1193.54 L 2864.17,1177.79 L 2879.92,1158.61 L 2891.62,1136.72 L 2898.82,1112.97 L 2901.25,1088.27 L 2898.82,1063.57 L 2897.16,1058.1 L 2891.62,1039.81 L 2879.92,1017.93 L 2864.17,998.741 L 2844.99,982.994 L 2823.1,971.295 L 2799.34,964.091 L 2780.84,962.267 L 2767.45,962.075 L 2763.85,960.582 L 2623.78,820.786 L 2621.61,817.542 L 2618.79,810.224 L 2618.79,802.176 L 2620.28,798.572 L 2621.53,797.056 L 2776.07,642.514 L 2787.87,628.135 L 2799.57,606.246 L 2806.78,582.495 L 2809.21,557.795 L 2806.77,533.093 L 2799.57,509.343 L 2787.87,487.454 L 2772.12,468.269 L 2752.94,452.522 L 2731.05,440.823 L 2707.3,433.617 L 2682.6,431.186 L 2657.9,433.617 L 2634.15,440.823 L 2612.26,452.522 L 2597.88,464.321 L 2408.23,653.974 L 2403.07,658.268 L 2387.33,677.454 L 2375.63,699.342 L 2368.42,723.093 L 2365.99,747.794 L 2366.6,754.475 L 2366.6,808.273 L 2365.84,812.101 L 2359.49,827.418M 2540.1,2464.02 L 2665.1,2464.02 L 2673.43,2463.2 L 2680.97,2460.91 L 2687.92,2457.2 L 2694.01,2452.2 L 2699.01,2446.11 L 2702.72,2439.16 L 2705.01,2431.62 L 2705.83,2423.29 L 2705.83,2369.93 L 2706.04,2367.89 L 2706.66,2365.94 L 2707.67,2364.15 L 2709.02,2362.61 L 2710.65,2361.37 L 2712.51,2360.5 L 2714.5,2360.02 L 2716.55,2359.95 L 2718.57,2360.31 L 2720.47,2361.07 L 2724.05,2363.74 L 2731,2367.45 L 2738.53,2369.74 L 2746.87,2370.56 L 2982.11,2370.56 L 2990.44,2369.74 L 2997.98,2367.45 L 3004.93,2363.73 L 3011.02,2358.74 L 3016.02,2352.65 L 3019.73,2345.7 L 3022.02,2338.16 L 3022.84,2329.82 L 3022.84,2204.82 L 3022.02,2196.49 L 3019.73,2188.95 L 3016.02,2182 L 3011.02,2175.91 L 3004.93,2170.91 L 2997.98,2167.2 L 2990.44,2164.91 L 2982.11,2164.09 L 2875.36,2163.94 L 2872.14,2162.79 L 2864.47,2156.68 L 2850.68,2149.31 L 2835.72,2144.77 L 2820.16,2143.24 L 2815.77,2143.62 L 2697.87,2143.62 L 2696.16,2143.47 L 2692.94,2142.32 L 2687.92,2138.39 L 2680.97,2134.68 L 2673.43,2132.39 L 2665.1,2131.57 L 2540.1,2131.57 L 2531.77,2132.39 L 2524.22,2134.68 L 2517.27,2138.39 L 2511.18,2143.39 L 2506.19,2149.48 L 2502.47,2156.43 L 2500.18,2163.97 L 2499.36,2172.3 L 2499.17,2241.49 L 2498.6,2243.36 L 2496.43,2246.61 L 2494.92,2247.85 L 2491.31,2249.35 L 2487.41,2249.35 L 2485.54,2248.78 L 2482.29,2246.61 L 2480.12,2243.36 L 2474.27,2229.23 L 2459.12,2206.55 L 2439.84,2187.27 L 2417.17,2172.12 L 2391.98,2161.69 L 2365.23,2156.37 L 2337.96,2156.37 L 2311.22,2161.69 L 2286.03,2172.12 L 2263.36,2187.27 L 2244.08,2206.55 L 2228.93,2229.23 L 2218.49,2254.42 L 2213.17,2281.16 L 2213.17,2308.43 L 2218.49,2335.17 L 2228.93,2360.36 L 2244.08,2383.03 L 2263.36,2402.32 L 2286.03,2417.47 L 2311.22,2427.9 L 2337.96,2433.22 L 2365.23,2433.22 L 2371,2432.07 L 2374.51,2432 L 2377.84,2433.16 L 2385.09,2438.91 L 2398.88,2446.28 L 2413.84,2450.82 L 2429.4,2452.35 L 2433.79,2451.97 L 2509.03,2452.11 L 2512.25,2453.27 L 2517.27,2457.2 L 2524.22,2460.91 L 2531.77,2463.2 L 2540.1,2464.02M 963.99,4075.74 L 963.99,4042.38 L 957.313,4035.7 L 933.26,4035.5 L 924.968,4036.32 L 917.428,4038.61 L 910.48,4042.32 L 904.39,4047.32 L 899.391,4053.41 L 895.676,4060.36 L 893.39,4067.9 L 892.572,4076.2 L 892.783,4108.13 L 899.453,4114.8 L 932.811,4114.8 L 932.811,4075.74 L 963.99,4075.74M 524.717,3838.83 L 521.187,3840.4 L 510.554,3842.66 L 499.683,3842.66 L 489.049,3840.4 L 485.517,3838.83 L 459.968,3864.38 L 461.854,3872.3 L 474.789,3878.27 L 492.41,3882.51 L 510.517,3883.23 L 528.418,3880.4 L 545.7,3874.04 L 548.298,3872.65 L 550.265,3864.38 L 524.717,3838.83M 553.096,3810.64 L 578.549,3836.09 L 586.476,3834.21 L 592.446,3821.27 L 596.685,3803.65 L 597.405,3785.54 L 594.578,3767.64 L 588.212,3750.36 L 586.822,3747.76 L 578.549,3745.79 L 553.095,3771.25 L 555.982,3780.13 L 557.118,3790.94 L 555.982,3801.76 L 553.096,3810.64M 1000.92,346.188 L 996.666,338.822 L 991.579,323.166 L 989.858,306.795 L 991.579,290.424 L 996.666,274.769 L 1000.92,267.401 L 976.621,243.102 L 965.595,247.096 L 956.706,265.368 L 950.773,287.993 L 949.37,311.341 L 952.548,334.513 L 960.247,356.803 L 965.388,366.419 L 976.62,370.487 L 1000.92,346.188M 1028.92,374.76 L 1004.9,398.771 L 1008.9,409.797 L 1027.17,418.686 L 1049.8,424.618 L 1073.14,426.022 L 1096.32,422.844 L 1118.61,415.144 L 1128.22,410.004 L 1132.29,398.771 L 1108.28,374.76 L 1092.93,381.682 L 1076.83,385.104 L 1060.37,385.104 L 1044.27,381.682 L 1028.92,374.76M 1028.92,238.83 L 1044.27,231.909 L 1060.37,228.486 L 1076.83,228.486 L 1092.93,231.909 L 1108.28,238.829 L 1132.29,214.817 L 1128.3,203.792 L 1110.02,194.903 L 1087.4,188.97 L 1064.05,187.566 L 1040.88,190.745 L 1018.59,198.444 L 1008.97,203.584 L 1004.9,214.817 L 1028.92,238.83M 642.001,2309.91 L 645.53,2308.34 L 656.163,2306.08 L 667.034,2306.08 L 677.667,2308.34 L 681.195,2309.91 L 706.745,2284.36 L 704.861,2276.44 L 691.924,2270.47 L 674.305,2266.23 L 656.197,2265.51 L 638.295,2268.33 L 621.016,2274.7 L 618.417,2276.09 L 616.45,2284.36 L 642.001,2309.91M 1136.28,346.19 L 1160.57,370.487 L 1171.6,366.494 L 1180.49,348.22 L 1186.42,325.596 L 1187.83,302.248 L 1184.65,279.076 L 1176.95,256.786 L 1171.81,247.171 L 1160.57,243.102 L 1136.28,267.4 L 1140.53,274.769 L 1145.62,290.424 L 1147.34,306.795 L 1145.62,323.166 L 1140.53,338.822 L 1136.28,346.19M 1840.28,351.76 L 1824.93,358.682 L 1808.83,362.104 L 1792.37,362.104 L 1776.27,358.682 L 1760.92,351.76 L 1736.9,375.771 L 1740.9,386.797 L 1759.17,395.686 L 1781.8,401.618 L 1805.14,403.022 L 1828.32,399.844 L 1850.61,392.144 L 1860.22,387.004 L 1864.29,375.771 L 1840.28,351.76M 1868.28,323.19 L 1892.57,347.487 L 1903.6,343.494 L 1912.49,325.22 L 1918.42,302.596 L 1919.83,279.248 L 1916.65,256.076 L 1908.95,233.786 L 1903.81,224.171 L 1892.57,220.102 L 1868.28,244.4 L 1872.53,251.769 L 1877.62,267.424 L 1879.34,283.795 L 1877.62,300.166 L 1872.53,315.822 L 1868.28,323.19M 1732.92,323.189 L 1728.67,315.822 L 1723.58,300.166 L 1721.86,283.795 L 1723.58,267.424 L 1728.67,251.769 L 1732.92,244.401 L 1708.62,220.102 L 1697.59,224.096 L 1688.71,242.368 L 1682.77,264.993 L 1681.37,288.34 L 1684.55,311.513 L 1692.25,333.803 L 1697.39,343.419 L 1708.62,347.487 L 1732.92,323.189M 1760.92,215.83 L 1776.27,208.909 L 1792.37,205.486 L 1808.83,205.486 L 1824.93,208.909 L 1840.28,215.829 L 1864.29,191.817 L 1860.3,180.792 L 1842.02,171.903 L 1819.4,165.97 L 1796.05,164.566 L 1772.88,167.745 L 1750.59,175.444 L 1740.97,180.584 L 1736.9,191.817 L 1760.92,215.83M 3473.6,3595.8 L 3433.6,3595.8 L 3421.12,3594.48 L 3409.19,3590.61 L 3398.33,3584.34 L 3389.01,3575.94 L 3381.64,3565.8 L 3377.18,3555.8 L 3342.44,3555.8 L 3337.51,3564.49 L 3337.75,3565.69 L 3345.41,3583.79 L 3356.46,3600.07 L 3370.49,3613.88 L 3386.93,3624.7 L 3405.18,3632.09 L 3424.55,3635.8 L 3473.6,3635.8 L 3473.6,3595.8M 3513.6,3595.8 L 3513.6,3635.8 L 3562.65,3635.8 L 3582.02,3632.09 L 3600.26,3624.7 L 3616.71,3613.88 L 3630.73,3600.07 L 3641.79,3583.79 L 3649.45,3565.69 L 3649.69,3564.49 L 3644.76,3555.8 L 3610.01,3555.8 L 3605.56,3565.8 L 3598.19,3575.94 L 3588.87,3584.34 L 3578,3590.61 L 3566.07,3594.48 L 3553.6,3595.8 L 3513.6,3595.8M 2844.49,1971.26 L 2746.38,1971.26 L 2746.38,1928.27 L 2713.02,1928.27 L 2706.35,1934.93 L 2706.14,1970.8 L 2706.96,1979.1 L 2709.24,1986.64 L 2712.96,1993.59 L 2717.96,1999.68 L 2724.05,2004.68 L 2731,2008.39 L 2738.53,2010.68 L 2746.86,2011.5 L 2837.83,2011.27 L 2844.49,2004.62 L 2844.49,1971.26M 2884.49,1971.26 L 2884.49,2004.62 L 2891.14,2011.27 L 2982.12,2011.5 L 2990.44,2010.68 L 2997.98,2008.39 L 3004.93,2004.68 L 3011.02,1999.68 L 3016.02,1993.59 L 3019.73,1986.64 L 3022.02,1979.1 L 3022.84,1970.8 L 3022.62,1934.93 L 3015.96,1928.27 L 2982.6,1928.27 L 2982.6,1971.26 L 2884.49,1971.26M 3329.45,1480.39 L 3105.35,1480.39 L 3105.35,1287.8 L 3071.99,1287.8 L 3065.35,1294.44 L 3065.11,1479.91 L 3065.93,1488.24 L 3068.22,1495.77 L 3071.93,1502.72 L 3076.93,1508.81 L 3083.02,1513.81 L 3089.97,1517.53 L 3097.51,1519.81 L 3105.84,1520.63 L 3322.8,1520.4 L 3329.45,1513.75 L 3329.45,1480.39M 3369.45,1480.39 L 3369.45,1513.75 L 3376.1,1520.4 L 3593.06,1520.63 L 3601.38,1519.81 L 3608.92,1517.53 L 3615.87,1513.81 L 3621.96,1508.81 L 3626.96,1502.72 L 3630.68,1495.77 L 3632.96,1488.23 L 3633.78,1479.91 L 3633.55,1294.44 L 3626.9,1287.8 L 3593.54,1287.8 L 3593.54,1480.39 L 3369.45,1480.39M 3105.35,1247.8 L 3105.35,1055.2 L 3329.45,1055.2 L 3329.45,1021.84 L 3322.8,1015.19 L 3105.84,1014.95 L 3097.51,1015.77 L 3089.97,1018.06 L 3083.02,1021.78 L 3076.93,1026.77 L 3071.93,1032.87 L 3068.22,1039.81 L 3065.93,1047.35 L 3065.11,1055.68 L 3065.35,1241.15 L 3071.99,1247.8 L 3105.35,1247.8M 3369.45,1055.2 L 3593.54,1055.2 L 3593.54,1247.8 L 3626.9,1247.8 L 3633.55,1241.15 L 3633.78,1055.68 L 3632.96,1047.35 L 3630.68,1039.81 L 3626.96,1032.87 L 3621.96,1026.77 L 3615.87,1021.78 L 3608.92,1018.06 L 3601.38,1015.77 L 3593.06,1014.95 L 3376.1,1015.19 L 3369.45,1021.84 L 3369.45,1055.2M 3102.2,605.679 L 3098.67,607.25 L 3088.03,609.51 L 3077.16,609.51 L 3066.53,607.25 L 3063,605.679 L 3037.45,631.228 L 3039.33,639.153 L 3052.27,645.123 L 3069.89,649.362 L 3088,650.082 L 3105.9,647.255 L 3123.18,640.889 L 3125.78,639.5 L 3127.75,631.228 L 3102.2,605.679M 3130.58,577.488 L 3156.03,602.942 L 3163.96,601.057 L 3169.93,588.121 L 3174.17,570.502 L 3174.89,552.394 L 3172.06,534.492 L 3165.69,517.212 L 3164.3,514.614 L 3156.03,512.646 L 3130.58,538.102 L 3133.46,546.984 L 3134.6,557.795 L 3133.46,568.607 L 3130.58,577.488M 3034.62,577.486 L 3031.73,568.607 L 3030.6,557.795 L 3031.73,546.984 L 3034.62,538.103 L 3009.16,512.646 L 3001.24,514.531 L 2995.27,527.468 L 2991.03,545.087 L 2990.31,563.194 L 2993.14,581.096 L 2999.5,598.376 L 3000.89,600.975 L 3009.16,602.942 L 3034.62,577.486M 3063,509.912 L 3066.53,508.34 L 3077.16,506.08 L 3088.03,506.08 L 3098.67,508.34 L 3102.2,509.911 L 3127.75,484.36 L 3125.86,476.436 L 3112.92,470.465 L 3095.3,466.226 L 3077.2,465.507 L 3059.3,468.333 L 3042.02,474.7 L 3039.42,476.089 L 3037.45,484.36 L 3063,509.912 z " style="fill-opacity:1.000000;fill:rgb(236,176,59);stroke:rgb(0,0,0);stroke-width:2"/></g>
<g fill-rule="evenodd"><path d="M 347.969,1323.81 L 367.654,1323.81 L 367.654,1426.17 L 249.543,1426.17 L 249.543,1323.81 L 269.228,1323.81 L 269.228,1151.21 L 263.049,1144.34 L 257.614,1134.93 L 254.254,1124.59 L 253.118,1113.78 L 254.254,1102.97 L 257.614,1092.63 L 263.049,1083.21 L 270.323,1075.14 L 279.118,1068.75 L 289.049,1064.32 L 299.683,1062.06 L 310.554,1062.06 L 321.187,1064.32 L 331.118,1068.75 L 339.913,1075.14 L 347.187,1083.21 L 352.622,1092.63 L 355.982,1102.97 L 357.118,1113.78 L 355.982,1124.59 L 352.622,1134.93 L 347.969,1142.99 L 347.969,1323.81 z " style="fill-opacity:1.000000;fill:rgb(251,50,175);stroke:rgb(0,0,0);stroke-width:2"/></g>
<g fill-rule="evenodd"><path d="M 2801.71,4966.57 L 2801.71,4974.44 L 2565.49,4974.44 L 2565.49,4879.95 L 2801.71,4879.95 L 2801.71,4887.83 L 2986.07,4887.83 L 2996.57,4869.34 L 3010.34,4854.05 L 3026.98,4841.96 L 3045.78,4833.59 L 3065.91,4829.31 L 3086.49,4829.31 L 3106.61,4833.59 L 3125.41,4841.96 L 3142.06,4854.05 L 3155.82,4869.34 L 3166.11,4887.16 L 3172.47,4906.73 L 3174.62,4927.2 L 3172.47,4947.66 L 3166.11,4967.23 L 3155.82,4985.05 L 3142.06,5000.34 L 3125.41,5012.44 L 3106.61,5020.8 L 3086.49,5025.08 L 3065.91,5025.08 L 3045.78,5020.8 L 3026.98,5012.44 L 3010.34,5000.34 L 2996.57,4985.05 L 2986.07,4966.57 L 2801.71,4966.57 z " style="fill-opacity:1.000000;fill:rgb(60,84,236);stroke:rgb(0,0,0);stroke-width:2"/></g>
<g fill-rule="evenodd"><path d="M 2801.71,4494.13 L 2801.71,4502 L 2565.49,4502 L 2565.49,4407.51 L 2801.71,4407.51 L 2801.71,4415.39 L 2951.61,4415.39 L 2951.61,4396.74 L 3053.98,4396.74 L 3053.98,4514.85 L 2951.61,4514.85 L 2951.61,4494.13 L 2801.71,4494.13 z " style="fill-opacity:1.000000;fill:rgb(24,219,92);stroke:rgb(0,0,0);stroke-width:2"/></g>
<g fill-rule="evenodd"><path d="M 2565.49,4730.34 L 2565.49,4722.47 L 2801.71,4722.47 L 2801.71,4816.96 L 2565.49,4816.96 L 2565.49,4809.09 L 2491.97,4809.09 L 2491.97,5321.49 L 2828.91,5658.43 L 2902.47,5658.43 L 2912.97,5639.94 L 2926.74,5624.65 L 2943.39,5612.56 L 2962.18,5604.19 L 2982.31,5599.91 L 3002.89,5599.91 L 3023.01,5604.19 L 3041.81,5612.56 L 3058.46,5624.65 L 3072.23,5639.94 L 3082.51,5657.76 L 3088.87,5677.33 L 3091.02,5697.8 L 3088.87,5718.26 L 3082.51,5737.83 L 3072.23,5755.65 L 3058.46,5770.94 L 3041.81,5783.03 L 3023.01,5791.4 L 3002.89,5795.68 L 2982.31,5795.68 L 2962.18,5791.4 L 2943.39,5783.03 L 2926.74,5770.94 L 2912.97,5755.65 L 2902.47,5737.17 L 2812.6,5737.17 L 2804.92,5736.41 L 2797.53,5734.17 L 2790.73,5730.53 L 2784.76,5725.63 L 2424.76,5365.63 L 2419.86,5359.67 L 2416.23,5352.86 L 2413.98,5345.48 L 2413.23,5337.8 L 2413.23,4781.24 L 2412.06,4777.4 L 2411.31,4769.72 L 2412.06,4762.03 L 2414.3,4754.65 L 2417.94,4747.84 L 2422.84,4741.88 L 2428.8,4736.98 L 2435.61,4733.34 L 2443,4731.1 L 2450.68,4730.35 L 2565.49,4730.34 z " style="fill-opacity:1.000000;fill:rgb(2,26,254);stroke:rgb(0,0,0);stroke-width:2"/></g>
<g fill-rule="evenodd"><path d="M 2644.23,5289.4 L 2565.49,5289.4 L 2565.49,5194.91 L 2801.71,5194.91 L 2801.71,5289.4 L 2722.97,5289.4 L 2722.97,5314.49 L 2807.91,5399.43 L 3243.6,5399.43 L 3251.28,5400.18 L 3258.66,5402.42 L 3265.47,5406.06 L 3271.44,5410.96 L 3308.91,5448.43 L 3650.44,5448.43 L 3660.33,5439.25 L 3671.19,5432.98 L 3683.12,5429.11 L 3695.6,5427.8 L 3815.6,5427.8 L 3828.07,5429.11 L 3840,5432.98 L 3850.87,5439.25 L 3860.19,5447.65 L 3867.56,5457.8 L 3872.66,5469.25 L 3875.27,5481.52 L 3875.27,5494.07 L 3872.66,5506.34 L 3867.56,5517.8 L 3860.19,5527.94 L 3850.87,5536.34 L 3840,5542.61 L 3828.07,5546.48 L 3815.6,5547.8 L 3695.6,5547.8 L 3683.12,5546.48 L 3671.19,5542.61 L 3660.33,5536.34 L 3650.44,5527.17 L 3292.6,5527.17 L 3284.92,5526.41 L 3277.53,5524.17 L 3270.73,5520.53 L 3264.76,5515.63 L 3227.29,5478.17 L 2791.6,5478.17 L 2783.92,5477.41 L 2776.53,5475.17 L 2769.73,5471.53 L 2763.76,5466.63 L 2655.76,5358.63 L 2650.86,5352.67 L 2647.23,5345.86 L 2644.98,5338.48 L 2644.23,5330.8 L 2644.23,5289.4 z " style="fill-opacity:1.000000;fill:rgb(67,251,250);stroke:rgb(0,0,0);stroke-width:2"/></g>
<g fill-rule="evenodd"><path d="M 2801.71,4651.61 L 2801.71,4659.48 L 2565.49,4659.48 L 2565.49,4564.99 L 2801.71,4564.99 L 2801.71,4572.87 L 2951.81,4572.86 L 2951.81,4571.74 L 3054.17,4571.74 L 3054.17,4689.85 L 3042.36,4689.85 L 3042.36,4734.28 L 3326.43,4734.28 L 3398.23,4662.49 L 3398.23,4163.8 L 3398.98,4156.11 L 3401.23,4148.73 L 3404.86,4141.92 L 3409.76,4135.96 L 3491.76,4053.96 L 3497.73,4049.06 L 3504.53,4045.42 L 3511.92,4043.18 L 3519.6,4042.43 L 3649.44,4042.43 L 3659.33,4033.25 L 3670.19,4026.98 L 3682.12,4023.11 L 3694.6,4021.8 L 3814.6,4021.8 L 3827.07,4023.11 L 3839,4026.98 L 3849.87,4033.25 L 3859.19,4041.65 L 3866.56,4051.8 L 3871.66,4063.25 L 3874.27,4075.52 L 3874.27,4088.07 L 3871.66,4100.34 L 3866.56,4111.8 L 3859.19,4121.94 L 3849.87,4130.34 L 3839,4136.61 L 3827.07,4140.48 L 3814.6,4141.8 L 3694.6,4141.8 L 3682.12,4140.48 L 3670.19,4136.61 L 3659.33,4130.34 L 3649.44,4121.17 L 3535.91,4121.17 L 3476.97,4180.1 L 3476.97,4678.8 L 3476.21,4686.48 L 3473.97,4693.86 L 3470.33,4700.67 L 3465.44,4706.63 L 3370.58,4801.49 L 3364.61,4806.39 L 3357.8,4810.03 L 3350.42,4812.27 L 3342.74,4813.02 L 3008.05,4813.02 L 3000.37,4812.27 L 2992.99,4810.03 L 2986.18,4806.39 L 2980.22,4801.49 L 2975.15,4796.43 L 2970.26,4790.46 L 2966.62,4783.66 L 2964.38,4776.27 L 2963.62,4768.59 L 2963.62,4689.85 L 2951.81,4689.85 L 2951.81,4651.61 L 2801.71,4651.61 z " style="fill-opacity:1.000000;fill:rgb(170,58,251);stroke:rgb(0,0,0);stroke-width:2"/></g>
<g fill-rule="evenodd"><path d="M 2801.71,5124.04 L 2801.71,5131.92 L 2565.49,5131.92 L 2565.49,5037.43 L 2801.71,5037.43 L 2801.71,5045.3 L 2830.48,5045.3 L 2838.16,5046.06 L 2845.54,5048.3 L 2852.35,5051.94 L 2858.32,5056.83 L 2967.91,5166.43 L 3404.6,5166.43 L 3412.28,5167.18 L 3419.66,5169.42 L 3426.47,5173.06 L 3432.44,5177.96 L 3502.91,5248.43 L 3650.44,5248.43 L 3660.33,5239.25 L 3671.19,5232.98 L 3683.12,5229.11 L 3695.6,5227.8 L 3815.6,5227.8 L 3828.07,5229.11 L 3840,5232.98 L 3850.87,5239.25 L 3860.19,5247.65 L 3867.56,5257.8 L 3872.66,5269.25 L 3875.27,5281.52 L 3875.27,5294.07 L 3872.66,5306.34 L 3867.56,5317.8 L 3860.19,5327.94 L 3850.87,5336.34 L 3840,5342.61 L 3828.07,5346.48 L 3815.6,5347.8 L 3695.6,5347.8 L 3683.12,5346.48 L 3671.19,5342.61 L 3660.33,5336.34 L 3650.44,5327.17 L 3486.6,5327.17 L 3478.92,5326.41 L 3471.53,5324.17 L 3464.73,5320.53 L 3458.76,5315.63 L 3388.29,5245.17 L 2951.6,5245.17 L 2943.92,5244.41 L 2936.53,5242.17 L 2929.73,5238.53 L 2923.76,5233.63 L 2814.17,5124.04 L 2801.71,5124.04 z " style="fill-opacity:1.000000;fill:rgb(41,209,230);stroke:rgb(0,0,0);stroke-width:2"/></g>
<g fill-rule="evenodd"><path d="M 2663.6,4092.53 L 2663.6,4059.19 L 2656.95,4052.54 L 2565.96,4052.31 L 2557.64,4053.13 L 2553.61,4054.13 L 2551.54,4054.1 L 2549.52,4053.64 L 2547.64,4052.77 L 2545.98,4051.54 L 2544.61,4049.99 L 2543.58,4048.19 L 2542.95,4046.22 L 2542.74,4044.17 L 2542.74,3859.17 L 2542.93,3857.21 L 2544.42,3853.61 L 2547.18,3850.85 L 2548.91,3849.93 L 2552.74,3849.17 L 3197.23,3849.17 L 3201.05,3849.93 L 3202.78,3850.85 L 3205.54,3853.61 L 3207.03,3857.21 L 3207.23,3859.17 L 3207.23,4180.54 L 3206.48,4184.35 L 3205.56,4186.07 L 3202.83,4188.83 L 3201.11,4189.76 L 3197.31,4190.54 L 3178.28,4190.7 L 3171.6,4197.38 L 3171.6,4230.74 L 3202.78,4230.74 L 3202.78,4348.85 L 3100.42,4348.85 L 3100.42,4230.74 L 3131.6,4230.74 L 3131.6,4197.38 L 3124.92,4190.7 L 3100.87,4190.5 L 3092.57,4191.32 L 3085.04,4193.6 L 3079.7,4196.24 L 3075.81,4196.62 L 3072.08,4195.49 L 3068.55,4193.6 L 3061.01,4191.32 L 3052.68,4190.5 L 2951.3,4190.5 L 2942.97,4191.32 L 2935.43,4193.61 L 2928.48,4197.32 L 2922.39,4202.32 L 2917.39,4208.41 L 2915.14,4212.62 L 2912.91,4215.42 L 2911.46,4216.48 L 2908.11,4217.74 L 2847.25,4217.91 L 2845.2,4217.69 L 2843.24,4217.07 L 2841.45,4216.05 L 2839.91,4214.69 L 2838.67,4213.05 L 2837.8,4211.18 L 2837.33,4209.18 L 2837.28,4207.12 L 2837.65,4205.1 L 2838.84,4202.42 L 2841.13,4194.88 L 2841.95,4186.6 L 2841.75,4166.48 L 2835.07,4159.8 L 2801.73,4159.8 L 2801.71,4187.06 L 2565.47,4187.05 L 2565.47,4092.54 L 2663.6,4092.53M 2703.6,4092.53 L 2801.71,4092.53 L 2801.73,4119.8 L 2835.07,4119.8 L 2841.75,4113.11 L 2841.95,4092.99 L 2841.13,4084.71 L 2838.84,4077.17 L 2835.13,4070.22 L 2830.13,4064.13 L 2824.04,4059.13 L 2817.09,4055.42 L 2809.55,4053.13 L 2801.23,4052.31 L 2710.25,4052.54 L 2703.6,4059.19 L 2703.6,4092.53 z " style="fill-opacity:1.000000;fill:rgb(5,60,124);stroke:rgb(0,0,0);stroke-width:2"/></g>
<g fill-rule="evenodd"><path d="M 2801.71,4336.65 L 2801.71,4344.52 L 2565.49,4344.52 L 2565.49,4250.03 L 2801.71,4250.03 L 2801.71,4257.91 L 2950.81,4257.91 L 2950.81,4230.74 L 3053.17,4230.74 L 3053.17,4348.85 L 2950.81,4348.85 L 2950.81,4336.65 L 2801.71,4336.65 z " style="fill-opacity:1.000000;fill:rgb(148,117,216);stroke:rgb(0,0,0);stroke-width:2"/></g>
<g fill-rule="evenodd"><path d="M 3638.18,4261.8 L 3642.64,4251.8 L 3650.01,4241.65 L 3659.33,4233.25 L 3670.19,4226.98 L 3682.12,4223.11 L 3694.6,4221.8 L 3814.6,4221.8 L 3827.07,4223.11 L 3839,4226.98 L 3849.87,4233.25 L 3859.19,4241.65 L 3866.56,4251.8 L 3871.66,4263.25 L 3874.27,4275.52 L 3874.27,4288.07 L 3871.66,4300.34 L 3866.56,4311.8 L 3859.19,4321.94 L 3849.87,4330.34 L 3839,4336.61 L 3827.07,4340.48 L 3814.6,4341.8 L 3793.97,4341.8 L 3793.97,4381.8 L 3823.65,4381.8 L 3843.02,4378.09 L 3861.26,4370.7 L 3877.71,4359.88 L 3889.44,4348.33 L 3890.96,4347.1 L 3894.56,4345.64 L 3898.45,4345.66 L 3902.04,4347.16 L 3904.78,4349.92 L 3905.7,4351.64 L 3906.46,4355.46 L 3906.46,4613.15 L 3905.7,4616.96 L 3903.55,4620.2 L 3900.32,4622.37 L 3896.51,4623.15 L 3892.69,4622.41 L 3889.44,4620.27 L 3878.71,4609.7 L 3862.26,4598.89 L 3844.02,4591.5 L 3824.65,4587.8 L 3793.97,4587.8 L 3793.97,4627.8 L 3815.6,4627.8 L 3828.07,4629.11 L 3840,4632.98 L 3850.87,4639.25 L 3860.19,4647.65 L 3867.56,4657.8 L 3872.66,4669.25 L 3875.27,4681.52 L 3875.27,4694.07 L 3872.66,4706.34 L 3867.56,4717.8 L 3860.19,4727.94 L 3850.87,4736.34 L 3840,4742.61 L 3828.07,4746.48 L 3815.6,4747.8 L 3695.6,4747.8 L 3683.12,4746.48 L 3671.19,4742.61 L 3660.33,4736.34 L 3651.01,4727.94 L 3643.64,4717.8 L 3639.18,4707.79 L 3604.44,4707.8 L 3599.51,4716.49 L 3599.75,4717.69 L 3607.41,4735.79 L 3618.46,4752.07 L 3632.49,4765.88 L 3648.93,4776.7 L 3653.25,4778.45 L 3655.06,4779.41 L 3656.64,4780.73 L 3657.92,4782.34 L 3658.84,4784.18 L 3659.37,4786.16 L 3659.48,4788.22 L 3659.16,4790.25 L 3658.44,4792.17 L 3657.34,4793.91 L 3655.91,4795.38 L 3639.77,4804.24 L 3624.54,4816.74 L 3612.05,4831.97 L 3602.76,4849.34 L 3597.04,4868.19 L 3595.11,4887.8 L 3597.04,4907.4 L 3602.76,4926.25 L 3612.05,4943.62 L 3624.54,4958.85 L 3639.77,4971.34 L 3655.68,4980.07 L 3657.06,4981.45 L 3658.9,4984.89 L 3659.29,4988.78 L 3658.9,4990.7 L 3657.06,4994.14 L 3654.05,4996.61 L 3639.77,5004.24 L 3624.54,5016.74 L 3612.05,5031.97 L 3602.76,5049.34 L 3597.04,5068.19 L 3595.11,5087.8 L 3597.04,5107.4 L 3602.76,5126.25 L 3612.05,5143.62 L 3624.54,5158.85 L 3639.77,5171.34 L 3654.05,5178.98 L 3657.06,5181.45 L 3658.15,5183.08 L 3659.29,5186.82 L 3658.9,5190.7 L 3657.06,5194.14 L 3654.05,5196.61 L 3639.77,5204.24 L 3636.03,5207.12 L 3632.81,5208.28 L 3521.67,5208.23 L 3519.79,5207.66 L 3516.55,5205.49 L 3463.83,5152.78 L 3460.99,5149.4 L 3448.91,5139.48 L 3435.12,5132.11 L 3420.16,5127.57 L 3404.6,5126.04 L 3400.21,5126.42 L 2988.62,5126.42 L 2986.67,5126.23 L 2983.06,5124.74 L 2889.71,5031.66 L 2886.87,5028.28 L 2880.58,5022.84 L 2879.47,5021.13 L 2878.72,5019.23 L 2878.38,5017.22 L 2878.46,5015.18 L 2878.95,5013.2 L 2879.83,5011.35 L 2881.06,5009.73 L 2882.6,5008.39 L 2884.39,5007.39 L 2886.33,5006.77 L 2888.36,5006.57 L 2957.4,5006.57 L 2961.23,5007.33 L 2964.47,5009.5 L 2968.67,5015.44 L 2987.96,5034.72 L 3010.63,5049.87 L 3035.82,5060.3 L 3062.56,5065.62 L 3089.83,5065.62 L 3116.57,5060.3 L 3141.77,5049.87 L 3164.44,5034.72 L 3183.72,5015.44 L 3198.87,4992.76 L 3209.3,4967.57 L 3214.62,4940.83 L 3214.62,4913.56 L 3209.3,4886.82 L 3200.46,4864.97 L 3200.46,4861.07 L 3201.95,4857.47 L 3203.2,4855.95 L 3206.44,4853.78 L 3210.27,4853.02 L 3318.49,4853.02 L 3327.39,4846.56 L 3346.18,4838.19 L 3366.31,4833.91 L 3386.89,4833.91 L 3392.88,4835.18 L 3399.13,4830.05 L 3401.97,4826.67 L 3490.62,4738.02 L 3493.99,4735.19 L 3503.91,4723.1 L 3511.28,4709.31 L 3515.82,4694.35 L 3517.35,4678.79 L 3516.97,4674.41 L 3516.97,4200.81 L 3517.16,4198.86 L 3518.65,4195.26 L 3549.55,4164.09 L 3551.06,4162.85 L 3554.67,4161.36 L 3630.1,4161.17 L 3633.47,4161.75 L 3635.03,4162.46 L 3638.77,4165.34 L 3654.91,4174.21 L 3656.34,4175.68 L 3657.44,4177.42 L 3658.16,4179.34 L 3658.48,4181.37 L 3658.37,4183.43 L 3657.84,4185.41 L 3656.92,4187.25 L 3655.64,4188.86 L 3654.06,4190.18 L 3647.93,4192.89 L 3631.49,4203.7 L 3617.46,4217.52 L 3606.41,4233.8 L 3598.75,4251.9 L 3598.51,4253.1 L 3603.44,4261.8 L 3638.18,4261.8M 3639.18,4667.8 L 3643.64,4657.8 L 3651.01,4647.65 L 3660.33,4639.25 L 3671.19,4632.98 L 3683.12,4629.11 L 3695.6,4627.8 L 3715.23,4627.8 L 3715.23,4587.8 L 3686.55,4587.8 L 3667.17,4591.5 L 3648.93,4598.89 L 3632.49,4609.7 L 3618.46,4623.52 L 3607.41,4639.8 L 3599.75,4657.9 L 3599.51,4659.1 L 3604.44,4667.8 L 3639.18,4667.8M 3638.18,4301.8 L 3603.44,4301.8 L 3598.51,4310.49 L 3598.75,4311.69 L 3606.41,4329.79 L 3617.46,4346.07 L 3631.49,4359.88 L 3647.93,4370.7 L 3666.18,4378.09 L 3685.55,4381.8 L 3715.23,4381.8 L 3715.23,4341.8 L 3694.6,4341.8 L 3682.12,4340.48 L 3670.19,4336.61 L 3659.33,4330.34 L 3650.01,4321.94 L 3642.64,4311.8 L 3638.18,4301.8 z " style="fill-opacity:1.000000;fill:rgb(190,97,137);stroke:rgb(0,0,0);stroke-width:2"/></g>
<g fill-rule="evenodd"><path d="M 2857.17,2204.33 L 2982.6,2204.33 L 2982.6,2330.31 L 2746.38,2330.31 L 2746.38,2262.36 L 2665.59,2262.36 L 2665.59,2274.17 L 2539.61,2274.17 L 2539.61,2171.81 L 2665.59,2171.81 L 2665.59,2183.62 L 2820.16,2183.62 L 2827.84,2184.38 L 2835.22,2186.62 L 2842.03,2190.26 L 2848,2195.15 L 2857.17,2204.33 z " style="fill-opacity:1.000000;fill:rgb(249,92,187);stroke:rgb(0,0,0);stroke-width:2"/></g>
<g fill-rule="evenodd"><path d="M 2539.61,2333.23 L 2539.61,2321.42 L 2665.59,2321.42 L 2665.59,2423.78 L 2539.61,2423.78 L 2539.61,2411.97 L 2429.4,2411.97 L 2421.72,2411.21 L 2414.33,2408.97 L 2407.53,2405.33 L 2401.56,2400.44 L 2387.21,2386.09 L 2382.01,2388.4 L 2361.89,2392.68 L 2341.31,2392.68 L 2321.18,2388.4 L 2302.39,2380.03 L 2285.74,2367.94 L 2271.97,2352.65 L 2261.68,2334.83 L 2255.32,2315.26 L 2253.17,2294.8 L 2255.32,2274.33 L 2261.68,2254.76 L 2271.97,2236.94 L 2285.74,2221.65 L 2302.39,2209.56 L 2321.18,2201.19 L 2341.31,2196.91 L 2361.89,2196.91 L 2382.01,2201.19 L 2400.81,2209.56 L 2417.46,2221.65 L 2431.23,2236.94 L 2441.51,2254.76 L 2447.87,2274.33 L 2450.02,2294.8 L 2447.87,2315.26 L 2442.94,2330.45 L 2445.71,2333.23 L 2539.61,2333.23 z " style="fill-opacity:1.000000;fill:rgb(168,153,15);stroke:rgb(0,0,0);stroke-width:2"/></g>
<g fill-rule="evenodd"><path d="M 3758.71,2750.12 L 3758.71,201.133 L 2404.88,201.133 L 2365.6,240.417 L 2365.6,500.795 L 2363.95,517.573 L 2359.05,533.706 L 2351.1,548.574 L 2340.41,561.606 L 2157.41,744.606 L 2144.38,755.302 L 2129.51,763.249 L 2113.38,768.143 L 2096.6,769.795 L 1800.6,769.795 L 1782.72,767.916 L 1765.62,762.36 L 1750.05,753.371 L 1736.69,741.341 L 1726.12,726.795 L 1718.81,710.371 L 1715.07,692.785 L 1715.07,674.806 L 1718.81,657.22 L 1726.12,640.795 L 1736.69,626.25 L 1750.05,614.22 L 1765.62,605.23 L 1782.72,599.675 L 1800.6,597.795 L 2060.98,597.795 L 2193.6,465.173 L 2193.6,204.795 L 2195.25,188.018 L 2200.14,171.885 L 2208.09,157.017 L 2218.79,143.985 L 2308.45,54.3228 L 2321.48,43.6273 L 2336.35,35.6798 L 2352.48,30.7858 L 2369.26,29.1333 L 3844.71,29.1333 L 3861.48,30.7857 L 3877.62,35.6796 L 3892.49,43.6269 L 3905.52,54.3221 L 3916.21,67.3542 L 3924.16,82.2225 L 3929.05,98.3555 L 3930.71,115.133 L 3930.71,2835.69 L 3929.06,2852.45 L 3924.17,2868.58 L 3916.23,2883.44 L 3905.55,2896.47 L 3903.44,2898.58 L 3890.4,2909.28 L 3875.53,2917.24 L 3859.42,2922.13 L 3856.3,2924.4 L 3837.2,2932.9 L 3816.75,2937.25 L 3795.85,2937.25 L 3775.4,2932.9 L 3756.3,2924.4 L 3739.39,2912.11 L 3725.4,2896.57 L 3714.94,2878.47 L 3708.48,2858.59 L 3706.3,2837.8 L 3708.48,2817 L 3714.94,2797.12 L 3725.4,2779.02 L 3739.39,2763.48 L 3756.3,2751.19 L 3758.71,2750.12 z " style="fill-opacity:1.000000;fill:rgb(149,177,235);stroke:rgb(0,0,0);stroke-width:2"/></g>
<g fill-rule="evenodd"><path d="M 3483.64,1897.8 L 3632.64,1897.8 L 3632.64,2277.8 L 3182.64,2277.8 L 3182.64,1897.8 L 3311.64,1897.8 L 3311.64,1888.46 L 3206.98,1783.8 L 2112.6,1783.8 L 2095.82,1782.14 L 2079.69,1777.25 L 2064.82,1769.3 L 2051.79,1758.61 L 1921.79,1628.61 L 1911.09,1615.57 L 1903.14,1600.71 L 1898.25,1584.57 L 1896.6,1567.8 L 1896.6,1327.8 L 1623.6,1327.8 L 1605.72,1325.92 L 1588.62,1320.36 L 1573.78,1311.8 L 1553.6,1311.8 L 1539.04,1310.27 L 1525.13,1305.74 L 1512.45,1298.43 L 1501.58,1288.63 L 1496.15,1281.17 L 1336.6,1281.17 L 1328.92,1280.41 L 1321.53,1278.17 L 1314.73,1274.53 L 1308.76,1269.63 L 1192.27,1153.15 L 538.913,1153.15 L 531.118,1158.81 L 521.187,1163.23 L 510.554,1165.49 L 499.683,1165.49 L 489.049,1163.23 L 479.118,1158.81 L 470.323,1152.42 L 463.049,1144.34 L 457.614,1134.93 L 454.254,1124.59 L 453.118,1113.78 L 454.254,1102.97 L 457.614,1092.63 L 463.049,1083.21 L 470.323,1075.14 L 479.118,1068.75 L 489.049,1064.32 L 499.683,1062.06 L 510.554,1062.06 L 521.187,1064.32 L 531.118,1068.75 L 538.913,1074.41 L 1208.58,1074.41 L 1216.26,1075.17 L 1223.65,1077.41 L 1230.46,1081.04 L 1236.42,1085.94 L 1352.91,1202.43 L 1496.15,1202.43 L 1501.58,1194.96 L 1512.45,1185.16 L 1525.13,1177.85 L 1539.04,1173.32 L 1553.6,1171.8 L 1573.78,1171.8 L 1588.62,1163.23 L 1605.72,1157.67 L 1623.6,1155.8 L 1966.6,1155.8 L 1983.38,1157.45 L 1999.51,1162.34 L 2014.38,1170.29 L 2027.41,1180.98 L 2043.41,1196.98 L 2054.1,1210.02 L 2062.05,1224.88 L 2066.95,1241.02 L 2068.6,1257.8 L 2068.6,1532.17 L 2148.22,1611.8 L 3242.6,1611.8 L 3259.38,1613.45 L 3275.51,1618.34 L 3290.38,1626.29 L 3303.41,1636.98 L 3458.45,1792.02 L 3469.14,1805.05 L 3477.09,1819.92 L 3481.98,1836.06 L 3483.64,1852.83 L 3483.64,1897.8 z " style="fill-opacity:1.000000;fill:rgb(241,179,5);stroke:rgb(0,0,0);stroke-width:2"/></g>
</svg>
