M48
; DRILL file {KiCad 5.1.6-c6e7f7d~87~ubuntu18.04.1} date Mon May  3 11:46:48 2021
; FORMAT={-:-/ absolute / metric / decimal}
; #@! TF.CreationDate,2021-05-03T11:46:48+01:00
; #@! TF.GenerationSoftware,Kicad,Pcbnew,5.1.6-c6e7f7d~87~ubuntu18.04.1
FMAT,2
METRIC
T1C0.800
T2C0.813
T3C1.000
T4C1.016
T5C1.300
%
G90
G05
T1
X140.475Y-155.626
X140.475Y-158.166
X140.475Y-165.786
X140.475Y-173.406
X145.495Y-175.895
X168.195Y-175.895
T2
X124.079Y-161.988
X134.239Y-161.988
X123.73Y-188.0
X126.27Y-188.0
X153.924Y-146.939
X159.004Y-146.939
X128.257Y-164.719
X128.257Y-169.799
X123.73Y-154.0
X126.27Y-154.0
T3
X121.768Y-177.038
X122.809Y-212.09
X124.828Y-182.105
X125.349Y-176.886
X125.984Y-209.169
X128.295Y-191.059
X129.032Y-209.042
X130.708Y-188.011
X131.087Y-182.616
X132.905Y-170.231
X132.944Y-167.081
X134.429Y-177.673
X137.636Y-189.084
X140.106Y-183.744
X149.352Y-157.988
X149.72Y-168.999
X151.511Y-150.876
X157.861Y-212.217
X158.496Y-190.843
X158.923Y-202.43
X162.738Y-202.489
X164.249Y-187.503
X167.132Y-187.617
T4
X167.551Y-199.39
X167.551Y-201.93
X167.551Y-204.47
X167.551Y-207.01
X167.551Y-209.55
X167.551Y-212.09
X126.441Y-194.145
X126.441Y-196.685
X126.441Y-199.225
X126.441Y-201.765
X126.441Y-204.305
X164.224Y-182.22
X164.224Y-184.76
X167.538Y-191.694
X167.538Y-194.234
X131.255Y-211.912
X133.794Y-211.912
T5
X133.426Y-143.751
X133.426Y-148.831
X142.723Y-143.459
X142.723Y-148.539
T0
M30
